0
SECTION
2
HEADER
9
$INSUNITS
70
4
9
$ACADVER
1
AC1014
9
$HANDSEED
5
FFFF
0
ENDSEC
0
SECTION
2
TABLES
0
TABLE
2
VPORT
5
8
100
AcDbSymbolTable
0
ENDTAB
0
TABLE
2
LTYPE
5
5
100
AcDbSymbolTable
0
LTYPE
5
14
100
AcDbSymbolTableRecord
100
AcDbLinetypeTableRecord
2
BYBLOCK
70
0
0
LTYPE
5
15
100
AcDbSymbolTableRecord
100
AcDbLinetypeTableRecord
2
BYLAYER
70
0
0
ENDTAB
0
TABLE
2
LAYER
5
2
100
AcDbSymbolTable
70
2
0
LAYER
5
50
100
AcDbSymbolTableRecord
100
AcDbLayerTableRecord
2
0
70
0
6
CONTINUOUS
0
ENDTAB
0
TABLE
2
STYLE
5
3
100
AcDbSymbolTable
70
1
0
STYLE
5
11
100
AcDbSymbolTableRecord
100
AcDbTextStyleTableRecord
2
STANDARD
70
0
0
ENDTAB
0
TABLE
2
VIEW
5
6
100
AcDbSymbolTable
70
0
0
ENDTAB
0
TABLE
2
UCS
5
7
100
AcDbSymbolTable
70
0
0
ENDTAB
0
TABLE
2
APPID
5
9
100
AcDbSymbolTable
70
2
0
APPID
5
12
100
AcDbSymbolTableRecord
100
AcDbRegAppTableRecord
2
ACAD
70
0
0
ENDTAB
0
TABLE
2
DIMSTYLE
5
A
100
AcDbSymbolTable
70
1
0
ENDTAB
0
TABLE
2
BLOCK_RECORD
5
1
100
AcDbSymbolTable
70
1
0
BLOCK_RECORD
5
1F
100
AcDbSymbolTableRecord
100
AcDbBlockTableRecord
2
*MODEL_SPACE
0
BLOCK_RECORD
5
1B
100
AcDbSymbolTableRecord
100
AcDbBlockTableRecord
2
*PAPER_SPACE
0
ENDTAB
0
ENDSEC
0
SECTION
2
BLOCKS
0
BLOCK
5
20
100
AcDbEntity
100
AcDbBlockBegin
2
*MODEL_SPACE
0
ENDBLK
5
21
100
AcDbEntity
100
AcDbBlockEnd
0
BLOCK
5
1C
100
AcDbEntity
100
AcDbBlockBegin
2
*PAPER_SPACE
0
ENDBLK
5
1D
100
AcDbEntity
100
AcDbBlockEnd
0
ENDSEC
0
SECTION
2
ENTITIES
0
LWPOLYLINE
5
100
100
AcDbEntity
8
0
100
AcDbPolyline
90
59
70
1
43
0.0
10
-148.57428971717556
20
-451.58143618263381
42
-0.35411857207778502
10
-149.06336351737511
20
-451.97748033643757
10
-172.85762338951616
20
-451.97748033643757
42
-0.35411857207782582
10
-173.34669718971568
20
-451.58143618263387
10
-173.58831359963312
20
-450.44472035459108
42
0.41421356237324186
10
-174.18134324540893
20
-450.05960239963304
10
-186.89726204540887
20
-452.7624543996331
42
0.41421353639926783
10
-187.28238000958578
20
-453.35548400203754
10
-184.57952800036693
20
-466.07140284540895
42
0.41421353639921421
10
-183.98649839796249
20
-466.45652080958575
10
-172.62132086289117
20
-464.04077772977337
42
-0.3575316565930296
10
-171.49500205623832
20
-464.62328866478686
10
-171.49500127376257
20
-487.18748177163525
42
-0.41421356406080811
10
-172.49500206200048
20
-488.18748255411094
10
-248.02250010211503
20
-488.18748255411083
10
-252.52250205741163
20
-488.18748360596987
10
-305.52250110211531
20
-488.18748321675332
10
-362.27249910211521
20
-488.18748436498868
42
-0.41421356574841811
10
-363.2724996078756
20
-487.18748387075232
10
-363.27250035508541
20
-379.46248488227798
42
-0.4125634382022943
10
-362.2781384980924
20
-378.46249976520619
10
-309.02249909282926
20
-378.46250025957266
10
-309.02249909282904
20
-378.46248325708763
10
-249.02249909282892
20
-378.46248256563462
10
-249.02249909282901
20
-378.46250081654648
10
-227.89389239873776
20
-378.46250101268106
10
-215.82366007716033
20
-375.89689160489348
10
-183.67215812723708
20
-369.06285411490188
10
-181.22679148092266
20
-368.54307678434287
10
-167.26086526606863
20
-365.57452616084902
42
-0.052407799866522546
10
-167.05295349518997
20
-365.55267374211587
10
-148.65485601391356
20
-365.55267353009197
42
-0.052407780348840118
10
-148.44694431868476
20
-365.57452592784625
10
-126.33418026798495
20
-370.27473851320633
10
-94.182813577313382
20
-377.10874270345334
10
-87.813875552029259
20
-378.46250231302895
10
-73.474999092828526
20
-378.46250244613532
10
-73.474999092828313
20
-378.46248132036516
10
-69.97500136660932
20
-378.46248050225302
10
-16.975002366609289
20
-378.46248089146974
10
-13.474999092828313
20
-378.46248007335748
10
-13.474999092828526
20
-378.46250300310891
10
-2.8433131141134989
20
-378.46250197537768
42
-0.41225537714960286
10
-1.8500002285981054
20
-379.46248071716775
10
-1.8500001136392541
20
-487.1874787171663
42
-0.41421356237315748
10
-2.8500001021150467
20
-488.1874807286905
10
-16.975000102115061
20
-488.18747989146993
10
-69.975000102114961
20
-488.18748150225338
10
-74.475000102115061
20
-488.187482554111
10
-149.2550019447367
20
-488.18748190554663
42
-0.41421356237303258
10
-150.25500194473688
20
-487.18748190554669
10
-150.2550019447371
20
-463.75195100271361
42
-0.47697553319239322
10
-149.04709025234453
20
-462.77380340231412
10
-137.66590794540886
20
-465.19294840036684
42
0.41421356237326873
10
-137.07287829963317
20
-464.80783044540885
10
-134.37002629963311
20
-452.0919116454088
42
0.41421356237311108
10
-134.75514425459113
20
-451.49888199963311
10
-147.47106305459113
20
-448.79602999963311
42
0.41421356237307466
10
-148.06409270036693
20
-449.18114795459104
0
LWPOLYLINE
5
101
100
AcDbEntity
8
0
100
AcDbPolyline
90
8
70
1
43
0.0
10
-177.44435070203753
20
-411.80199939041421
42
-0.41421353639921421
10
-176.85132109963308
20
-412.18711735459101
10
-174.14846909963299
20
-424.90303615459112
42
-0.41421356237309936
10
-174.53358705459112
20
-425.49606580036686
10
-187.24950585459112
20
-428.19891780036676
42
-0.41421356237307466
10
-187.84253550036692
20
-427.81379984540882
10
-190.54538750036701
20
-415.09788104540888
42
-0.41421356237309936
10
-190.16026954540888
20
-414.50485139963314
0
LWPOLYLINE
5
102
100
AcDbEntity
8
0
100
AcDbPolyline
90
8
70
1
43
0.0
10
-246.4465229003668
20
-426.98003414540881
42
-0.41421356237298895
10
-246.06140494540887
20
-426.38700449963312
10
-233.3454861454089
20
-423.68415249963306
42
-0.41421356237311974
10
-232.75245649963313
20
-424.06927045459111
10
-230.04960449041431
20
-436.78518929796257
42
-0.41421353639923886
10
-230.43472245459117
20
-437.3782189003669
10
-243.15064125459114
20
-440.08107090036685
42
-0.4142135623731808
10
-243.74367090036691
20
-439.69595294540886
0
LWPOLYLINE
5
103
100
AcDbEntity
8
0
100
AcDbPolyline
90
8
70
1
43
0.0
10
-200.55995360958579
20
-436.70213110203747
42
-0.41421353639923886
10
-200.17483564540893
20
-436.10910149963308
10
-187.45891684540891
20
-433.40624949963313
42
-0.4142135623731808
10
-186.86588719963311
20
-433.79136745459112
10
-184.16303519041412
20
-446.50728629796248
42
-0.41421353639913705
10
-184.54815315459115
20
-447.10031590036687
10
-197.26407195459109
20
-449.80316790036693
42
-0.41421356237324186
10
-197.85710160036695
20
-449.41804994540888
0
LWPOLYLINE
5
104
100
AcDbEntity
8
0
100
AcDbPolyline
90
8
70
1
43
0.0
10
-222.4566729095859
20
-402.40524580203737
42
-0.41421353639887548
10
-222.07155494540885
20
-401.8122161996331
10
-209.35563614540894
20
-399.10936419963309
42
-0.41421356237328688
10
-208.76260649963314
20
-399.49448215459114
10
-206.05975449041412
20
-412.21040099796255
42
-0.41421353639888414
10
-206.44487245459118
20
-412.80343060036682
10
-219.16079125459112
20
-415.50628260036683
42
-0.41421356237307466
10
-219.75382090036692
20
-415.1211646454089
0
LWPOLYLINE
5
105
100
AcDbEntity
8
0
100
AcDbPolyline
90
8
70
1
43
0.0
10
-32.99375000000002
20
-407.77500000000003
42
-0.41421356237312101
10
-32.493749999999999
20
-407.27500000000009
10
-19.493749999999999
20
-407.27500000000009
42
-0.41421356237311713
10
-18.993750000000002
20
-407.77500000000003
10
-18.993749999999984
20
-420.77499999999998
42
-0.41421356237312235
10
-19.493750000000002
20
-421.27499999999998
10
-32.493750000000006
20
-421.27499999999998
42
-0.41421356237303258
10
-32.993749999999999
20
-420.77499999999998
0
LWPOLYLINE
5
106
100
AcDbEntity
8
0
100
AcDbPolyline
90
8
70
1
43
0.0
10
-245.05110240958575
20
-387.73225170203744
42
-0.41421353639923886
10
-244.6659844454089
20
-387.13922209963306
10
-231.95006564540887
20
-384.43637009963317
42
-0.41421356237305429
10
-231.3570359996331
20
-384.8214880545911
10
-228.65418399041431
20
-397.53740689796251
42
-0.41421353639913278
10
-229.03930195459117
20
-398.1304365003669
10
-241.75522075459111
20
-400.83328850036696
42
-0.41421356237328688
10
-242.34825040036691
20
-400.44817054540886
0
LWPOLYLINE
5
107
100
AcDbEntity
8
0
100
AcDbPolyline
90
8
70
1
43
0.0
10
-304.29124999999993
20
-426.32499999999993
42
-0.4142135623731783
10
-303.79124999999999
20
-426.82500000000005
10
-303.79124999999993
20
-439.82500000000005
42
-0.41421356237307422
10
-304.29124999999999
20
-440.32499999999999
10
-317.29124999999999
20
-440.32500000000005
42
-0.41421356237319906
10
-317.79124999999999
20
-439.82499999999993
10
-317.7912500000001
20
-426.82499999999993
42
-0.41421356237311585
10
-317.29124999999999
20
-426.32499999999999
0
LWPOLYLINE
5
108
100
AcDbEntity
8
0
100
AcDbPolyline
90
8
70
1
43
0.0
10
-353.50999999999993
20
-431.58749999999998
42
-0.41421356237326151
10
-353.00999999999993
20
-431.08749999999998
10
-340.00999999999999
20
-431.08749999999998
42
-0.41421356237292856
10
-339.50999999999999
20
-431.58749999999998
10
-339.50999999999999
20
-444.58750000000003
42
-0.41421356237334478
10
-340.00999999999999
20
-445.08749999999998
10
-353.00999999999993
20
-445.08749999999998
42
-0.41421356237292856
10
-353.50999999999993
20
-444.58750000000003
0
LWPOLYLINE
5
109
100
AcDbEntity
8
0
100
AcDbPolyline
90
8
70
1
43
0.0
10
-254.28500000000003
20
-426.32499999999987
42
-0.41421356237328233
10
-253.78500000000003
20
-426.82499999999999
10
-253.78499999999991
20
-439.82500000000005
42
-0.41421356237301177
10
-254.28500000000003
20
-440.32499999999999
10
-267.28500000000003
20
-440.32499999999999
42
-0.41421356237292856
10
-267.78500000000003
20
-439.82500000000005
10
-267.78500000000008
20
-426.82499999999993
42
-0.41421356237326151
10
-267.28500000000003
20
-426.32499999999999
0
LWPOLYLINE
5
110
100
AcDbEntity
8
0
100
AcDbPolyline
90
8
70
1
43
0.0
10
-196.07806254540887
20
-415.76271709963305
42
-0.41421356237328688
10
-195.48503289963307
20
-416.14783505459116
10
-192.78218089963318
20
-428.86375385459121
42
-0.41421356237298462
10
-193.16729885459111
20
-429.4567835003669
10
-205.88321765459114
20
-432.15963550036685
42
-0.41421356237307466
10
-206.47624730036694
20
-431.77451754540891
10
-209.17909930036694
20
-419.05859874540897
42
-0.41421356237307466
10
-208.79398134540889
20
-418.46556909963311
0
LWPOLYLINE
5
111
100
AcDbEntity
8
0
100
AcDbPolyline
90
8
70
1
43
0.0
10
-50.450000000000003
20
-407.27500000000009
42
-0.41421356237310542
10
-49.950000000000003
20
-407.77500000000003
10
-49.949999999999982
20
-420.77499999999998
42
-0.41421356237312101
10
-50.450000000000003
20
-421.27499999999998
10
-63.449999999999989
20
-421.27499999999998
42
-0.41421356237311585
10
-63.950000000000003
20
-420.77499999999998
10
-63.950000000000024
20
-407.77500000000003
42
-0.41421356237312101
10
-63.450000000000003
20
-407.27500000000009
0
LWPOLYLINE
5
112
100
AcDbEntity
8
0
100
AcDbPolyline
90
8
70
1
43
0.0
10
-192.81505500203758
20
-454.02032009041426
42
-0.4142135363991124
10
-192.22202539963308
20
-454.40543805459117
10
-189.51917339963308
20
-467.121356854591
42
-0.41421356237307466
10
-189.90429135459112
20
-467.71438650036686
10
-202.62021015459112
20
-470.41723850036698
42
-0.41421356237301798
10
-203.21323980036692
20
-470.03212054540887
10
-205.91609180958562
20
-457.3162017020374
42
-0.4142135363991124
10
-205.53097384540888
20
-456.72317209963308
0
LWPOLYLINE
5
113
100
AcDbEntity
8
0
100
AcDbPolyline
90
8
70
1
43
0.0
10
-203.82296110958583
20
-398.44452810203757
42
-0.4142135363990877
10
-203.43784314540895
20
-397.85149849963312
10
-190.72192430203754
20
-395.14864649041419
42
-0.41421353639917347
10
-190.12889469963309
20
-395.53376445459105
10
-187.42604269041439
20
-408.24968329796241
42
-0.41421353639940167
10
-187.81116065459111
20
-408.84271290036685
10
-200.5270794545911
20
-411.54556490036697
42
-0.41421356237324186
10
-201.12010910036696
20
-411.16044694540892
0
LWPOLYLINE
5
114
100
AcDbEntity
8
0
100
AcDbPolyline
90
8
70
1
43
0.0
10
-219.19366540036702
20
-440.66284884540892
42
-0.41421356237309503
10
-218.80854744540886
20
-440.06981919963317
10
-206.09262860203751
20
-437.36696719041424
42
-0.41421353639911668
10
-205.49959899963312
20
-437.7520851545911
10
-202.79674699041425
20
-450.46800399796257
42
-0.41421353639923886
10
-203.18186495459113
20
-451.0610336003669
10
-215.89778379796252
20
-453.76388560958583
42
-0.41421353639904696
10
-216.4908134003669
20
-453.37876764540886
0
LWPOLYLINE
5
115
100
AcDbEntity
8
0
100
AcDbPolyline
90
8
70
1
43
0.0
10
-134.78651910958575
20
-432.52779509796244
42
-0.41421356237309503
10
-134.1934894979625
20
-432.14267709041428
10
-121.47757069796251
20
-434.84552909041417
42
-0.41421356237330359
10
-121.09245269041423
20
-435.43855870203754
10
-123.79530469963316
20
-448.15447754540884
42
-0.41421356237328105
10
-124.38833434540888
20
-448.53959550036683
10
-137.10425314540893
20
-445.83674350036699
42
-0.41421353639928699
10
-137.48937110958579
20
-445.24371389796244
0
LWPOLYLINE
5
116
100
AcDbEntity
8
0
100
AcDbPolyline
90
8
70
1
43
0.0
10
-25.850000000000009
20
-388.72500000000002
42
-0.41421356237311585
10
-25.350000000000001
20
-388.22500000000002
10
-12.349999999999994
20
-388.22500000000002
42
-0.41421356237311713
10
-11.850000000000001
20
-388.72500000000002
10
-11.849999999999987
20
-401.72500000000002
42
-0.41421356237311974
10
-12.350000000000001
20
-402.22499999999997
10
-25.350000000000001
20
-402.22499999999997
42
-0.41421356237312101
10
-25.850000000000001
20
-401.72500000000002
0
LWPOLYLINE
5
117
100
AcDbEntity
8
0
100
AcDbPolyline
90
8
70
1
43
0.0
10
-97.519095500366916
20
-440.44923045459115
42
-0.41421356237317059
10
-96.926065854591144
20
-440.06411249963315
10
-84.210147054591147
20
-442.7669644996331
42
-0.41421356237309287
10
-83.825029099633127
20
-443.35999414540885
10
-86.527881099633092
20
-456.07591294540896
42
-0.41421356237307255
10
-87.120910745408878
20
-456.46103090036689
10
-99.836829502037574
20
-453.75817890958592
42
-0.41421356237319901
10
-100.22194750958577
20
-453.16514929796244
0
LWPOLYLINE
5
118
100
AcDbEntity
8
0
100
AcDbPolyline
90
8
70
1
43
0.0
10
-277.31000000000006
20
-445.87499999999989
42
-0.41421356237311585
10
-276.81
20
-445.375
10
-263.80999999999995
20
-445.37499999999994
42
-0.4142135623731783
10
-263.31
20
-445.87500000000006
10
-263.30999999999995
20
-458.875
42
-0.41421356237307422
10
-263.81
20
-459.375
10
-276.81
20
-459.375
42
-0.41421356237313667
10
-277.31
20
-458.875
0
LWPOLYLINE
5
119
100
AcDbEntity
8
0
100
AcDbPolyline
90
8
70
1
43
0.0
10
-41.931750000000001
20
-405.27500000000003
10
-41.931750000000001
20
-420.27500000000003
42
0.41421356237309503
10
-41.431750000000001
20
-420.77499999999998
10
-34.431750000000001
20
-420.77499999999998
42
0.41421356237309503
10
-33.931750000000001
20
-420.27500000000003
10
-33.931750000000001
20
-405.27500000000003
42
0.41421356237309503
10
-34.431750000000001
20
-404.77500000000009
10
-41.431749999999994
20
-404.77500000000009
42
0.41421356237309503
0
LWPOLYLINE
5
120
100
AcDbEntity
8
0
100
AcDbPolyline
90
8
70
1
43
0.0
10
-122.20665570958576
20
-396.25055089796257
42
-0.41421358834722932
10
-121.61362605459115
20
-395.86543289963311
10
-108.89770725459115
20
-398.56828489963311
42
-0.41421356237312773
10
-108.51258929963311
20
-399.16131454540891
10
-111.21544129963311
20
-411.87723334540891
42
-0.41421356237316848
10
-111.80847094540887
20
-412.2623513003669
10
-124.5243897454089
20
-409.55949930036689
42
-0.41421353639924907
10
-124.90950770958578
20
-408.96646969796251
0
LWPOLYLINE
5
121
100
AcDbEntity
8
0
100
AcDbPolyline
90
8
70
1
43
0.0
10
-330.48499999999996
20
-469.1875
42
-0.41421356237292856
10
-329.98500000000001
20
-469.6875
10
-329.98500000000001
20
-482.6875
42
-0.41421356237326151
10
-330.48499999999996
20
-483.18749999999994
10
-343.48500000000001
20
-483.18749999999994
42
-0.41421356237292856
10
-343.98500000000001
20
-482.6875
10
-343.98500000000001
20
-469.6875
42
-0.4142135623731783
10
-343.48500000000001
20
-469.1875
0
LWPOLYLINE
5
122
100
AcDbEntity
8
0
100
AcDbPolyline
90
8
70
1
43
0.0
10
-85.636942400366905
20
-384.5480950545911
42
-0.41421353639915315
10
-85.043912797962506
20
-384.16297709041424
10
-72.32799399796248
20
-386.86582909041425
42
-0.41421358834719846
10
-71.942875999633102
20
-387.45885874540886
10
-74.645727999633195
20
-400.17477754540892
42
-0.41421356237327706
10
-75.238757645408882
20
-400.55989550036691
10
-87.95467644540885
20
-397.8570435003669
42
-0.41421356237312773
10
-88.339794400366884
20
-397.2640138545911
0
LWPOLYLINE
5
123
100
AcDbEntity
8
0
100
AcDbPolyline
90
8
70
1
43
0.0
10
-358.27250000000004
20
-383.96250000000003
42
-0.41421356237309503
10
-357.77250000000004
20
-383.46249999999998
10
-344.77249999999998
20
-383.46250000000003
42
-0.41421356237292856
10
-344.27250000000004
20
-383.96250000000003
10
-344.27250000000004
20
-396.96249999999998
42
-0.41421356237313667
10
-344.77249999999998
20
-397.46250000000003
10
-357.77250000000004
20
-397.46249999999998
42
-0.41421356237292856
10
-358.27249999999998
20
-396.96249999999998
0
LWPOLYLINE
5
124
100
AcDbEntity
8
0
100
AcDbPolyline
90
8
70
1
43
0.0
10
-295.70949999999999
20
-462.42499999999995
10
-295.70949999999999
20
-477.42500000000007
42
0.41421356237309503
10
-295.20949999999999
20
-477.92500000000007
10
-288.20950000000005
20
-477.92500000000007
42
0.41421356237309503
10
-287.70950000000005
20
-477.42500000000007
10
-287.70950000000005
20
-462.42499999999995
42
0.41421356237309503
10
-288.20950000000005
20
-461.92499999999995
10
-295.20949999999999
20
-461.92499999999995
42
0.41421356237309503
0
LWPOLYLINE
5
125
100
AcDbEntity
8
0
100
AcDbPolyline
90
8
70
1
43
0.0
10
-140.84036750036694
20
-392.28983315459107
42
-0.41421356237307466
10
-140.24733785459114
20
-391.90471519963307
10
-127.53141909796247
20
-394.60756719041422
42
-0.41421356237314161
10
-127.14630109041424
20
-395.20059680203752
10
-129.84915309963321
20
-407.91651564540882
42
-0.41421356237328105
10
-130.4421827454089
20
-408.30163360036687
10
-143.15810154540887
20
-405.59878160036692
42
-0.41421356237309287
10
-143.54321950036689
20
-405.00575195459112
0
LWPOLYLINE
5
126
100
AcDbEntity
8
0
100
AcDbPolyline
90
8
70
1
43
0.0
10
-282.0725000000001
20
-464.92499999999995
42
-0.41421356237311585
10
-281.57249999999999
20
-464.42500000000001
10
-268.57249999999999
20
-464.42499999999995
42
-0.4142135623731783
10
-268.07249999999999
20
-464.92500000000007
10
-268.07249999999999
20
-477.92500000000007
42
-0.41421356237326151
10
-268.57249999999999
20
-478.42499999999995
10
-281.57249999999999
20
-478.42500000000007
42
-0.41421356237328233
10
-282.07249999999999
20
-477.92499999999995
0
LWPOLYLINE
5
127
100
AcDbEntity
8
0
100
AcDbPolyline
90
8
70
1
43
0.0
10
-310.64750000000009
20
-464.92499999999995
42
-0.41421356237311585
10
-310.14750000000004
20
-464.42500000000001
10
-297.14750000000004
20
-464.4249999999999
42
-0.41421356237328233
10
-296.64750000000004
20
-464.92500000000001
10
-296.64749999999998
20
-477.92500000000007
42
-0.41421356237311585
10
-297.14750000000004
20
-478.42499999999995
10
-310.14750000000004
20
-478.42500000000007
42
-0.41421356237328233
10
-310.64750000000004
20
-477.92499999999995
0
LWPOLYLINE
5
128
100
AcDbEntity
8
0
100
AcDbPolyline
90
8
70
1
43
0.0
10
-132.88755729796247
20
-373.99349649041426
42
-0.41421356237307466
10
-132.50243929041426
20
-374.58652610203751
10
-135.2052912996331
20
-387.30244494540887
42
-0.41421356237317281
10
-135.79832094540888
20
-387.68756290036686
10
-148.51423974540896
20
-384.98471090036702
42
-0.41421353639927677
10
-148.89935770958579
20
-384.39168129796246
10
-146.19650570958581
20
-371.67576249796252
42
-0.4142135883470825
10
-145.60347605459114
20
-371.29064449963312
0
LWPOLYLINE
5
129
100
AcDbEntity
8
0
100
AcDbPolyline
90
8
70
1
43
0.0
10
-92.162957309585764
20
-461.06330109796249
42
-0.41421356237300933
10
-91.569927697962484
20
-460.67818309041428
10
-78.85400889796243
20
-463.38103509041423
42
-0.41421356237310786
10
-78.468890890414229
20
-463.97406470203754
10
-81.171742899633102
20
-476.68998354540884
42
-0.41421353639915526
10
-81.764772502037516
20
-477.07510150958575
10
-94.480691345408886
20
-474.37224950036688
42
-0.41421356237311907
10
-94.865809300366919
20
-473.77921985459113
0
LWPOLYLINE
5
130
100
AcDbEntity
8
0
100
AcDbPolyline
90
8
70
1
43
0.0
10
-339.22250000000008
20
-403.01249999999993
42
-0.41421356237313667
10
-338.72250000000003
20
-402.51249999999999
10
-325.72249999999997
20
-402.51249999999999
42
-0.41421356237292856
10
-325.22249999999997
20
-403.01249999999993
10
-325.22249999999997
20
-416.01249999999999
42
-0.41421356237313667
10
-325.72249999999997
20
-416.51250000000005
10
-338.72250000000003
20
-416.51249999999999
42
-0.41421356237292856
10
-339.22249999999997
20
-416.01249999999999
0
LWPOLYLINE
5
131
100
AcDbEntity
8
0
100
AcDbPolyline
90
8
70
1
43
0.0
10
-59.187499999999993
20
-426.82499999999999
42
-0.41421356237327195
10
-58.6875
20
-426.32499999999999
10
-45.687500000000014
20
-426.32499999999999
42
-0.41421356237329271
10
-45.1875
20
-426.82499999999999
10
-45.187499999999979
20
-439.82500000000005
42
-0.41421356237312101
10
-45.6875
20
-440.32499999999999
10
-58.687499999999986
20
-440.32499999999999
42
-0.41421356237311585
10
-59.1875
20
-439.82500000000005
0
LWPOLYLINE
5
132
100
AcDbEntity
8
0
100
AcDbPolyline
90
8
70
1
43
0.0
10
-18.055750000000003
20
-405.27500000000003
10
-18.055750000000003
20
-420.27500000000003
42
0.41421356237309503
10
-17.55575
20
-420.77499999999998
10
-10.555750000000002
20
-420.77499999999998
42
0.41421356237309503
10
-10.055750000000003
20
-420.27500000000003
10
-10.055750000000003
20
-405.27500000000003
42
0.41421356237309503
10
-10.555750000000003
20
-404.77500000000009
10
-17.555750000000003
20
-404.77500000000009
42
0.41421356237309503
0
LWPOLYLINE
5
133
100
AcDbEntity
8
0
100
AcDbPolyline
90
8
70
1
43
0.0
10
-348.74749999999995
20
-450.63749999999999
42
-0.4142135623731783
10
-348.24749999999995
20
-450.13750000000005
10
-335.24749999999995
20
-450.13750000000005
42
-0.41421356237292856
10
-334.7475
20
-450.63749999999999
10
-334.7475
20
-463.63750000000005
42
-0.41421356237326151
10
-335.24749999999995
20
-464.13749999999999
10
-348.24749999999995
20
-464.13749999999999
42
-0.41421356237292856
10
-348.74749999999995
20
-463.63750000000005
0
LWPOLYLINE
5
134
100
AcDbEntity
8
0
100
AcDbPolyline
90
8
70
1
43
0.0
10
-249.52250000000004
20
-464.4249999999999
42
-0.41421356237328233
10
-249.02250000000004
20
-464.92500000000001
10
-249.02249999999995
20
-477.92500000000007
42
-0.41421356237311585
10
-249.52250000000004
20
-478.42499999999995
10
-262.52250000000004
20
-478.42500000000001
42
-0.41421356237332396
10
-263.02250000000004
20
-477.92499999999995
10
-263.02250000000009
20
-464.92499999999995
42
-0.41421356237326151
10
-262.52250000000004
20
-464.42500000000001
0
LWPOLYLINE
5
135
100
AcDbEntity
8
0
100
AcDbPolyline
90
8
70
1
43
0.0
10
-258.2600000000001
20
-445.87499999999989
42
-0.41421356237311585
10
-257.75999999999999
20
-445.375
10
-244.76000000000002
20
-445.37499999999989
42
-0.41421356237328233
10
-244.26000000000002
20
-445.875
10
-244.25999999999991
20
-458.875
42
-0.41421356237301177
10
-244.76000000000002
20
-459.375
10
-257.75999999999999
20
-459.375
42
-0.41421356237313667
10
-258.25999999999999
20
-458.875
0
LWPOLYLINE
5
136
100
AcDbEntity
8
0
100
AcDbPolyline
90
8
70
1
43
0.0
10
-263.02250000000009
20
-407.77500000000003
42
-0.41421356237307422
10
-262.52250000000004
20
-407.27500000000009
10
-249.52250000000004
20
-407.27499999999998
42
-0.41421356237319906
10
-249.02250000000004
20
-407.77500000000009
10
-249.02249999999992
20
-420.77499999999998
42
-0.41421356237301177
10
-249.52250000000004
20
-421.27499999999998
10
-262.52249999999998
20
-421.27499999999998
42
-0.41421356237297013
10
-263.02250000000004
20
-420.77499999999998
0
LWPOLYLINE
5
137
100
AcDbEntity
8
0
100
AcDbPolyline
90
8
70
1
43
0.0
10
-116.85051750958573
20
-416.86462149796239
42
-0.41421356237299911
10
-116.25748789796248
20
-416.47950349041423
10
-103.54156909796252
20
-419.18235549041424
42
-0.41421356237311757
10
-103.15645109041425
20
-419.77538510203749
10
-105.85930309963304
20
-432.49130394540879
42
-0.41421353639922653
10
-106.45233270203754
20
-432.8764219095857
10
-119.16825154540888
20
-430.17356990036689
42
-0.41421356237309287
10
-119.5533695003669
20
-429.58054025459114
0
LWPOLYLINE
5
138
100
AcDbEntity
8
0
100
AcDbPolyline
90
8
70
1
43
0.0
10
-92.58172949963307
20
-415.83795104540889
42
-0.41421353639917563
10
-93.174759102037527
20
-416.22306900958574
10
-105.89067790203754
20
-413.52021700958574
42
-0.41421358834704763
10
-106.2757959003669
20
-412.92718735459113
10
-103.57294390958572
20
-400.21126859796243
42
-0.41421356237309503
10
-102.97991429796248
20
-399.82615059041427
10
-90.263995454591139
20
-402.52900259963315
42
-0.41421356237300933
10
-89.878877499633091
20
-403.12203224540889
0
LWPOLYLINE
5
139
100
AcDbEntity
8
0
100
AcDbPolyline
90
8
70
1
43
0.0
10
-135.48422930036691
20
-412.90390375459111
42
-0.41421356237317059
10
-134.89119965459113
20
-412.51878579963312
10
-122.17528089796248
20
-415.22163779041426
42
-0.41421356237314161
10
-121.79016289041427
20
-415.81466740203757
10
-124.49301489963311
20
-428.53058624540893
42
-0.41421356237307466
10
-125.0860445454089
20
-428.91570420036686
10
-137.80196334540892
20
-426.2128522003668
42
-0.41421356237312124
10
-138.18708130036691
20
-425.61982255459111
0
LWPOLYLINE
5
140
100
AcDbEntity
8
0
100
AcDbPolyline
90
8
70
1
43
0.0
10
-241.09038470958575
20
-406.36596350203746
42
-0.41421353639917347
10
-240.70526674540895
20
-405.77293389963307
10
-227.98934790203754
20
-403.0700818904142
42
-0.41421353639915315
10
-227.39631829963312
20
-403.45519985459106
10
-224.69346629041411
20
-416.17111869796247
42
-0.41421353639916175
10
-225.07858425459116
20
-416.76414830036686
10
-237.79450305459119
20
-419.46700030036698
42
-0.41421356237328688
10
-238.38753270036699
20
-419.08188234540887
0
LWPOLYLINE
5
141
100
AcDbEntity
8
0
100
AcDbPolyline
90
8
70
1
43
0.0
10
-84.939232100366837
20
-404.17198625459105
42
-0.41421356237327672
10
-84.346202454591136
20
-403.78686829963306
10
-71.630283697962483
20
-406.48972029041425
42
-0.41421356237313178
10
-71.24516569041424
20
-407.08274990203756
10
-73.948017699633198
20
-419.79866874540892
42
-0.41421356237327489
10
-74.541047345408884
20
-420.18378670036691
10
-87.256966145408882
20
-417.48093470036684
42
-0.41421356237311907
10
-87.642084100366901
20
-416.8879050545911
0
LWPOLYLINE
5
142
100
AcDbEntity
8
0
100
AcDbPolyline
90
4
70
1
43
0.0
10
-326.72925000000009
20
-423.82500000000005
10
-326.72925000000009
20
-439.82500000000005
10
-318.72925000000009
20
-439.82500000000005
10
-318.72925000000009
20
-423.82500000000005
0
LWPOLYLINE
5
143
100
AcDbEntity
8
0
100
AcDbPolyline
90
8
70
1
43
0.0
10
-59.187499999999993
20
-445.875
42
-0.41421356237327195
10
-58.6875
20
-445.375
10
-45.687500000000014
20
-445.375
42
-0.41421356237329271
10
-45.1875
20
-445.875
10
-45.187499999999979
20
-458.875
42
-0.41421356237312101
10
-45.6875
20
-459.375
10
-58.687499999999986
20
-459.375
42
-0.41421356237311585
10
-59.1875
20
-458.875
0
LWPOLYLINE
5
144
100
AcDbEntity
8
0
100
AcDbPolyline
90
8
70
1
43
0.0
10
-35.374999999999936
20
-464.92500000000001
42
-0.41421356237332135
10
-34.875
20
-464.42500000000001
10
-21.875
20
-464.42500000000001
42
-0.41421356237327972
10
-21.375
20
-464.92500000000001
10
-21.375000000000071
20
-477.92499999999995
42
-0.41421356237331874
10
-21.875
20
-478.42499999999995
10
-34.875000000000007
20
-478.42499999999995
42
-0.41421356237327195
10
-35.375
20
-477.92499999999995
0
LWPOLYLINE
5
145
100
AcDbEntity
8
0
100
AcDbPolyline
90
8
70
1
43
0.0
10
-224.54980360958592
20
-461.27691940203755
42
-0.41421353639921848
10
-224.16468564540889
20
-460.68388979963311
10
-211.44876684540887
20
-457.9810377996331
42
-0.4142135623731808
10
-210.85573719963307
20
-458.36615575459115
10
-208.152885199633
20
-471.08207455459109
42
-0.41421356237309936
10
-208.53800315459114
20
-471.67510420036683
10
-221.25392195459114
20
-474.37795620036695
42
-0.41421356237307466
10
-221.84695160036694
20
-473.99283824540885
0
LWPOLYLINE
5
146
100
AcDbEntity
8
0
100
AcDbPolyline
90
8
70
1
43
0.0
10
-97.487720654591143
20
-459.42031739963312
42
-0.41421356237309287
10
-97.102602699633124
20
-460.01334704540886
10
-99.805454699633088
20
-472.72926584540897
42
-0.41421356237307255
10
-100.39848434540887
20
-473.11438380036691
10
-113.11440314540889
20
-470.4115318003669
42
-0.41421353639913056
10
-113.49952110958577
20
-469.81850219796252
10
-110.79666910958585
20
-457.10258339796246
42
-0.41421358834691469
10
-110.20363945459113
20
-456.71746539963317
0
LWPOLYLINE
5
147
100
AcDbEntity
8
0
100
AcDbPolyline
90
4
70
1
43
0.0
10
-302.85325
20
-423.82500000000005
10
-302.85325
20
-439.82500000000005
10
-294.85325
20
-439.82500000000005
10
-294.85325
20
-423.82500000000005
0
LWPOLYLINE
5
148
100
AcDbEntity
8
0
100
AcDbPolyline
90
8
70
1
43
0.0
10
-308.26625000000013
20
-407.77500000000003
42
-0.41421356237307422
10
-307.76625000000001
20
-407.27500000000009
10
-294.76625000000001
20
-407.27499999999998
42
-0.41421356237319906
10
-294.26625000000001
20
-407.77500000000009
10
-294.2662499999999
20
-420.77499999999998
42
-0.41421356237301177
10
-294.76625000000001
20
-421.27499999999998
10
-307.76625000000001
20
-421.27499999999998
42
-0.41421356237297013
10
-308.26625000000001
20
-420.77499999999998
0
LWPOLYLINE
5
149
100
AcDbEntity
8
0
100
AcDbPolyline
90
8
70
1
43
0.0
10
-32.993749999999935
20
-426.82499999999999
42
-0.41421356237332135
10
-32.493749999999999
20
-426.32499999999999
10
-19.493749999999999
20
-426.32499999999999
42
-0.41421356237327583
10
-18.993750000000002
20
-426.82499999999999
10
-18.993749999999984
20
-439.82500000000005
42
-0.41421356237312235
10
-19.493750000000002
20
-440.32499999999999
10
-32.493750000000006
20
-440.32499999999999
42
-0.41421356237303258
10
-32.993749999999999
20
-439.82500000000005
0
LWPOLYLINE
5
150
100
AcDbEntity
8
0
100
AcDbPolyline
90
8
70
1
43
0.0
10
-54.42499999999999
20
-464.92500000000001
42
-0.41421356237327195
10
-53.924999999999997
20
-464.42500000000001
10
-40.925000000000011
20
-464.42500000000001
42
-0.41421356237329271
10
-40.424999999999997
20
-464.92500000000001
10
-40.425000000000004
20
-477.92499999999995
42
-0.41421356237327195
10
-40.924999999999997
20
-478.42499999999995
10
-53.924999999999983
20
-478.42499999999995
42
-0.41421356237329271
10
-54.424999999999997
20
-477.92499999999995
0
LWPOLYLINE
5
151
100
AcDbEntity
8
0
100
AcDbPolyline
90
8
70
1
43
0.0
10
-243.18351540958582
20
-465.23763710203747
42
-0.41421353639913278
10
-242.79839744540885
20
-464.64460749963314
10
-230.08247864540888
20
-461.94175549963302
42
-0.41421356237311974
10
-229.48944899963311
20
-462.32687345459112
10
-226.78659699963302
20
-475.04279225459118
42
-0.41421356237309936
10
-227.17171495459115
20
-475.63582190036692
10
-239.88763379796245
20
-478.33867390958574
42
-0.41421353639918213
10
-240.48066340036689
20
-477.95355594540888
0
LWPOLYLINE
5
152
100
AcDbEntity
8
0
100
AcDbPolyline
90
8
70
1
43
0.0
10
-185.18924930036707
20
-394.48381034540887
42
-0.41421356237300933
10
-184.8041313454089
20
-393.89078069963313
10
-172.08821250203752
20
-391.1879286904142
42
-0.41421353639917347
10
-171.49518289963308
20
-391.57304665459105
10
-168.79233089041418
20
-404.28896549796241
42
-0.4142135363990877
10
-169.17744885459109
20
-404.88199510036685
10
-181.89336769796245
20
-407.58484710958567
42
-0.41421353639912839
10
-182.48639730036695
20
-407.19972914540892
0
LWPOLYLINE
5
153
100
AcDbEntity
8
0
100
AcDbPolyline
90
8
70
1
43
0.0
10
-78.88538370036693
20
-444.40994815459106
42
-0.41421356237307361
10
-78.292354054591144
20
-444.02483019963313
10
-65.576435297962448
20
-446.72768219041427
42
-0.41421356237316442
10
-65.191317290414247
20
-447.32071180203752
10
-67.894169299633191
20
-460.03663064540888
42
-0.41421356237327384
10
-68.487198945408878
20
-460.42174860036687
10
-81.203117745408889
20
-457.71889660036686
42
-0.41421356237311907
10
-81.588235700366909
20
-457.12586695459106
0
LWPOLYLINE
5
154
100
AcDbEntity
8
0
100
AcDbPolyline
90
8
70
1
43
0.0
10
-227.81281110036704
20
-423.01931644540889
42
-0.41421356237309503
10
-227.42769314540891
20
-422.42628679963309
10
-214.71177430203755
20
-419.72343479041427
42
-0.41421353639913705
10
-214.11874469963308
20
-420.10855275459107
10
-211.41589269963302
20
-432.82447155459113
42
-0.41421356237309936
10
-211.80101065459115
20
-433.41750120036687
10
-224.51692945459115
20
-436.12035320036694
42
-0.41421356237307466
10
-225.10995910036695
20
-435.73523524540889
0
LWPOLYLINE
5
155
100
AcDbEntity
8
0
100
AcDbPolyline
90
8
70
1
43
0.0
10
-237.82737720958565
20
-444.62356650203742
42
-0.4142135363991124
10
-237.44225924540888
20
-444.03053689963315
10
-224.72634044540888
20
-441.3276848996332
42
-0.41421356237307466
10
-224.13331079963311
20
-441.71280285459113
10
-221.4304587996331
20
-454.42872165459107
42
-0.41421356237307466
10
-221.81557675459115
20
-455.02175130036687
10
-234.53149555459117
20
-457.72460330036694
42
-0.41421356237328688
10
-235.12452520036697
20
-457.33948534540889
0
LWPOLYLINE
5
156
100
AcDbEntity
8
0
100
AcDbPolyline
90
8
70
1
43
0.0
10
-168.82520500203753
20
-429.44553179041429
42
-0.4142135363991124
10
-168.23217539963306
20
-429.83064975459115
10
-165.52932339963306
20
-442.54656855459103
42
-0.41421356237307466
10
-165.9144413545911
20
-443.13959820036689
10
-178.63036015459113
20
-445.8424502003669
42
-0.4142135623731808
10
-179.22338980036693
20
-445.45733224540891
10
-181.92624180958575
20
-432.74141340203749
42
-0.4142135363990877
10
-181.54112384540892
20
-432.14838379963311
0
LWPOLYLINE
5
157
100
AcDbEntity
8
0
100
AcDbPolyline
90
8
70
1
43
0.0
10
-325.72249999999997
20
-383.46250000000003
42
-0.41421356237292856
10
-325.22249999999997
20
-383.96250000000003
10
-325.22249999999997
20
-396.96249999999998
42
-0.41421356237313667
10
-325.72249999999997
20
-397.46250000000003
10
-338.72250000000003
20
-397.46249999999998
42
-0.41421356237292856
10
-339.22249999999997
20
-396.96249999999998
10
-339.22250000000008
20
-383.96250000000003
42
-0.41421356237309503
10
-338.72250000000003
20
-383.46249999999998
0
LWPOLYLINE
5
158
100
AcDbEntity
8
0
100
AcDbPolyline
90
8
70
1
43
0.0
10
-286.83500000000009
20
-426.82499999999993
42
-0.41421356237326151
10
-286.33500000000004
20
-426.32499999999999
10
-273.33500000000004
20
-426.32499999999987
42
-0.41421356237328233
10
-272.83500000000004
20
-426.82499999999999
10
-272.83499999999992
20
-439.82500000000005
42
-0.41421356237301177
10
-273.33500000000004
20
-440.32499999999999
10
-286.33500000000004
20
-440.32499999999999
42
-0.41421356237297013
10
-286.83500000000004
20
-439.82500000000005
0
LWPOLYLINE
5
159
100
AcDbEntity
8
0
100
AcDbPolyline
90
8
70
1
43
0.0
10
-306.67250000000001
20
-383.46249999999998
42
-0.4142135623731783
10
-306.17250000000001
20
-383.96250000000009
10
-306.17250000000007
20
-396.96250000000009
42
-0.41421356237315748
10
-306.67250000000001
20
-397.46250000000003
10
-319.67250000000001
20
-397.46249999999998
42
-0.41421356237328233
10
-320.17250000000001
20
-396.96249999999998
10
-320.17250000000018
20
-383.96249999999998
42
-0.41421356237309503
10
-319.67250000000001
20
-383.46249999999998
0
LWPOLYLINE
5
160
100
AcDbEntity
8
0
100
AcDbPolyline
90
8
70
1
43
0.0
10
-296.36000000000013
20
-445.87499999999989
42
-0.41421356237311585
10
-295.86000000000001
20
-445.375
10
-282.85999999999996
20
-445.37499999999994
42
-0.4142135623731783
10
-282.36000000000001
20
-445.87500000000006
10
-282.35999999999996
20
-458.875
42
-0.41421356237307422
10
-282.86000000000001
20
-459.375
10
-295.86000000000001
20
-459.375
42
-0.41421356237313667
10
-296.36000000000001
20
-458.875
0
LWPOLYLINE
5
161
100
AcDbEntity
8
0
100
AcDbPolyline
90
8
70
1
43
0.0
10
-319.58550000000002
20
-462.42499999999995
10
-319.58550000000002
20
-477.42500000000007
42
0.41421356237309503
10
-319.08550000000002
20
-477.92500000000007
10
-312.08550000000002
20
-477.92500000000007
42
0.41421356237309503
10
-311.58550000000002
20
-477.42500000000007
10
-311.58550000000002
20
-462.42499999999995
42
0.41421356237309503
10
-312.08550000000008
20
-461.92499999999995
10
-319.08550000000002
20
-461.92499999999995
42
0.41421356237309503
0
LWPOLYLINE
5
162
100
AcDbEntity
8
0
100
AcDbPolyline
90
8
70
1
43
0.0
10
-98.216805700366919
20
-420.82533925459103
42
-0.41421356237307466
10
-97.623776054591133
20
-420.44022129963309
10
-84.907857254591121
20
-423.14307329963322
42
-0.41421356237298895
10
-84.522739299633116
20
-423.7361029454089
10
-87.225591299633095
20
-436.45202174540884
42
-0.41421356237317281
10
-87.818620945408867
20
-436.83713970036683
10
-100.53453974540889
20
-434.13428770036688
42
-0.41421356237309287
10
-100.91965770036693
20
-433.54125805459114
0
LWPOLYLINE
5
163
100
AcDbEntity
8
0
100
AcDbPolyline
90
8
70
1
43
0.0
10
-73.47499999999998
20
-466.82999999999998
42
-0.41421356237327195
10
-72.974999999999994
20
-466.33000000000004
10
-59.975000000000023
20
-466.33000000000004
42
-0.41421356237329271
10
-59.475000000000009
20
-466.82999999999998
10
-59.475000000000016
20
-479.82999999999998
42
-0.41421356237327195
10
-59.975000000000009
20
-480.32999999999993
10
-72.974999999999994
20
-480.32999999999993
42
-0.41421356237328233
10
-73.474999999999994
20
-479.82999999999998
0
LWPOLYLINE
5
164
100
AcDbEntity
8
0
100
AcDbPolyline
90
8
70
1
43
0.0
10
-79.583093900366904
20
-424.78605695459117
42
-0.41421353639919495
10
-78.990064297962476
20
-424.4009389904142
10
-66.274145454591107
20
-427.10379099963313
42
-0.41421356237311757
10
-65.889027499633087
20
-427.69682064540888
10
-68.591879499633194
20
-440.41273944540887
42
-0.41421356237327706
10
-69.184909145408881
20
-440.79785740036692
10
-81.900827945408849
20
-438.09500540036686
42
-0.41421356237312773
10
-82.285945900366897
20
-437.50197575459111
0
LWPOLYLINE
5
165
100
AcDbEntity
8
0
100
AcDbPolyline
90
8
70
1
43
0.0
10
-35.374999999999936
20
-445.875
42
-0.41421356237332135
10
-34.875
20
-445.375
10
-21.875
20
-445.375
42
-0.41421356237327972
10
-21.375
20
-445.875
10
-21.374999999999986
20
-458.875
42
-0.41421356237312101
10
-21.875
20
-459.375
10
-34.875000000000007
20
-459.375
42
-0.41421356237303258
10
-35.375
20
-458.875
0
LWPOLYLINE
5
166
100
AcDbEntity
8
0
100
AcDbPolyline
90
8
70
1
43
0.0
10
-116.15280730036685
20
-436.48851275459106
42
-0.41421356237327672
10
-115.55977765459113
20
-436.10339479963307
10
-102.84385885459109
20
-438.80624679963319
42
-0.41421356237310086
10
-102.4587408996331
20
-439.39927644540887
10
-105.16159289963313
20
-452.11519524540893
42
-0.41421356237317281
10
-105.75462254540892
20
-452.50031320036692
10
-118.4705413454089
20
-449.79746120036685
42
-0.41421356237310736
10
-118.85565930036691
20
-449.20443155459111
0
LWPOLYLINE
5
167
100
AcDbEntity
8
0
100
AcDbPolyline
90
8
70
1
43
0.0
10
-129.43038090036691
20
-453.14186565459113
42
-0.41421356237317059
10
-128.83735125459114
20
-452.75674769963308
10
-116.12143245459109
20
-455.45959969963315
42
-0.41421356237309725
10
-115.7363144996331
20
-456.05262934540889
10
-118.4391664996332
20
-468.76854814540889
42
-0.41421356237332174
10
-119.03219614540886
20
-469.15366610036693
10
-131.74811494540893
20
-466.45081410036681
42
-0.41421356237312124
10
-132.13323290036692
20
-465.85778445459113
0
LWPOLYLINE
5
168
100
AcDbEntity
8
0
100
AcDbPolyline
90
8
70
1
43
0.0
10
-291.59750000000014
20
-388.72500000000002
42
-0.41421356237301177
10
-291.09750000000003
20
-388.22500000000002
10
-278.09750000000003
20
-388.22499999999997
42
-0.41421356237319906
10
-277.59750000000003
20
-388.72500000000008
10
-277.59749999999991
20
-401.72500000000002
42
-0.41421356237301177
10
-278.09750000000003
20
-402.22499999999997
10
-291.09750000000003
20
-402.22499999999997
42
-0.41421356237313667
10
-291.59750000000003
20
-401.72500000000002
0
LWPOLYLINE
5
169
100
AcDbEntity
8
0
100
AcDbPolyline
90
8
70
1
43
0.0
10
-282.0725000000001
20
-407.77500000000003
42
-0.41421356237301177
10
-281.57249999999999
20
-407.27500000000009
10
-268.57249999999999
20
-407.27500000000009
42
-0.41421356237303258
10
-268.07249999999999
20
-407.77500000000003
10
-268.07249999999993
20
-420.77499999999998
42
-0.41421356237307422
10
-268.57249999999999
20
-421.27499999999998
10
-281.57249999999999
20
-421.27499999999998
42
-0.41421356237313667
10
-282.07249999999999
20
-420.77499999999998
0
LWPOLYLINE
5
170
100
AcDbEntity
8
0
100
AcDbPolyline
90
8
70
1
43
0.0
10
-320.17250000000001
20
-445.87499999999989
42
-0.41421356237309503
10
-319.67250000000001
20
-445.375
10
-306.67250000000001
20
-445.37499999999994
42
-0.4142135623731783
10
-306.17250000000001
20
-445.87500000000006
10
-306.17249999999996
20
-458.875
42
-0.41421356237307422
10
-306.67250000000001
20
-459.375
10
-319.67250000000001
20
-459.37499999999989
42
-0.41421356237309503
10
-320.17250000000001
20
-458.875
0
LWPOLYLINE
5
171
100
AcDbEntity
8
0
100
AcDbPolyline
90
9
70
1
43
0.0
10
-191.36267514867484
20
-373.76457274932278
10
-189.8033374517882
20
-381.1006797514778
10
-188.24399976450877
20
-388.43678675501474
42
0.41421356275129134
10
-187.65097011777172
20
-388.82190470933091
10
-180.80393690628708
20
-387.36652285688979
42
0.41421356237309503
10
-180.41881895260249
20
-386.77349321028692
10
-183.53749434637638
20
-372.10127920597705
42
0.41421356237309936
10
-184.13052399297919
20
-371.71616125229258
10
-190.97755719499031
20
-373.17154310272002
42
0.41421356237309076
0
LWPOLYLINE
5
172
100
AcDbEntity
8
0
100
AcDbPolyline
90
8
70
1
43
0.0
10
-105.84814728836277
20
-393.54249856807115
10
-99.001114087866355
20
-394.99788036000575
42
0.41421356203868709
10
-98.408084444512696
20
-394.6127624020591
10
-95.289409153250929
20
-379.94054837595957
42
0.41421356270751536
10
-95.674527111637261
20
-379.3475187319288
10
-102.52156031213369
20
-377.89213693999432
42
0.41421356203867693
10
-103.11458995548733
20
-378.27725489794091
10
-106.2332652467491
20
-392.9494689240405
42
0.41421356270750664
0
LWPOLYLINE
5
173
100
AcDbEntity
8
0
100
AcDbPolyline
90
8
70
1
43
0.0
10
-192.35342800203753
20
-376.01984489041428
10
-205.06934684540892
20
-378.72269689963309
42
0.41421356237307905
10
-205.45446480036699
20
-379.31572654540889
10
-202.7516128003669
20
-392.03164534540889
42
0.41421353639913705
10
-202.15858319796251
20
-392.41676330958575
10
-189.44266435459113
20
-389.71391130036687
42
0.41421356237297291
10
-189.05754639963305
20
-389.12088165459113
10
-191.76039839963309
20
-376.40496285459108
42
0.41421353639916608
0
LWPOLYLINE
5
174
100
AcDbEntity
8
0
100
AcDbPolyline
90
8
70
1
43
0.0
10
-119.02877921254426
20
-374.38341924354791
10
-125.87581241421748
20
-372.92803742178705
42
0.41421356143273624
10
-126.46884205894773
20
-373.31315537627091
10
-129.58751744120224
20
-387.98536938302948
42
0.414213563313448
10
-129.20239948548189
20
-388.57839902966361
10
-122.355366287441
20
-390.03378085065242
42
0.41421356136023429
10
-121.7623366427365
20
-389.64866289628964
10
-118.64366125684964
20
-374.97644889030317
42
0.41421356338597676
0
LWPOLYLINE
5
175
100
AcDbEntity
8
0
100
AcDbPolyline
90
8
70
1
43
0.0
10
-104.93698955459115
20
-379.9345730996331
10
-117.65290835459113
20
-377.23172109963309
42
0.41421356237322804
10
-118.24593800036692
20
-377.61683905459108
10
-120.94879000036691
20
-390.33275785459114
42
0.41421356237314011
10
-120.56367204540888
20
-390.92578750036688
10
-107.84775320203755
20
-393.62863950958575
42
0.41421353639915315
10
-107.25472359963314
20
-393.2435215454089
10
-104.55187159963313
20
-380.5276027454089
42
0.41421356237311757
0
LWPOLYLINE
5
176
100
AcDbEntity
8
0
100
AcDbPolyline
90
8
70
1
43
0.0
10
-207.48477608786632
20
-376.68026073999431
10
-214.33180928836276
20
-378.1356425319288
42
0.41421356270750664
10
-214.71692724674909
20
-378.72867217595945
10
-211.59825195548734
20
-393.4008862020591
42
0.41421356203868342
10
-211.00522231213372
20
-393.78600416000563
10
-204.15818911163728
20
-392.3306223680712
42
0.41421356270751536
10
-203.77307115325095
20
-391.7375927240405
10
-206.89174644451271
20
-377.06537869794084
42
0.41421356203868342
0
ENDSEC
0
SECTION
2
OBJECTS
0
DICTIONARY
5
C
100
AcDbDictionary
3
ACAD_GROUP
350
D
3
ACAD_MLINESTYLE
350
17
0
DICTIONARY
5
D
100
AcDbDictionary
0
DICTIONARY
5
1A
330
C
100
AcDbDictionary
0
DICTIONARY
5
17
100
AcDbDictionary
0
ENDSEC
0
EOF
