0
SECTION
2
HEADER
9
$INSUNITS
70
4
9
$ACADVER
1
AC1014
9
$HANDSEED
5
FFFF
0
ENDSEC
0
SECTION
2
TABLES
0
TABLE
2
VPORT
5
8
100
AcDbSymbolTable
0
ENDTAB
0
TABLE
2
LTYPE
5
5
100
AcDbSymbolTable
0
LTYPE
5
14
100
AcDbSymbolTableRecord
100
AcDbLinetypeTableRecord
2
BYBLOCK
70
0
0
LTYPE
5
15
100
AcDbSymbolTableRecord
100
AcDbLinetypeTableRecord
2
BYLAYER
70
0
0
ENDTAB
0
TABLE
2
LAYER
5
2
100
AcDbSymbolTable
70
2
0
LAYER
5
50
100
AcDbSymbolTableRecord
100
AcDbLayerTableRecord
2
0
70
0
6
CONTINUOUS
0
ENDTAB
0
TABLE
2
STYLE
5
3
100
AcDbSymbolTable
70
1
0
STYLE
5
11
100
AcDbSymbolTableRecord
100
AcDbTextStyleTableRecord
2
STANDARD
70
0
0
ENDTAB
0
TABLE
2
VIEW
5
6
100
AcDbSymbolTable
70
0
0
ENDTAB
0
TABLE
2
UCS
5
7
100
AcDbSymbolTable
70
0
0
ENDTAB
0
TABLE
2
APPID
5
9
100
AcDbSymbolTable
70
2
0
APPID
5
12
100
AcDbSymbolTableRecord
100
AcDbRegAppTableRecord
2
ACAD
70
0
0
ENDTAB
0
TABLE
2
DIMSTYLE
5
A
100
AcDbSymbolTable
70
1
0
ENDTAB
0
TABLE
2
BLOCK_RECORD
5
1
100
AcDbSymbolTable
70
1
0
BLOCK_RECORD
5
1F
100
AcDbSymbolTableRecord
100
AcDbBlockTableRecord
2
*MODEL_SPACE
0
BLOCK_RECORD
5
1B
100
AcDbSymbolTableRecord
100
AcDbBlockTableRecord
2
*PAPER_SPACE
0
ENDTAB
0
ENDSEC
0
SECTION
2
BLOCKS
0
BLOCK
5
20
100
AcDbEntity
100
AcDbBlockBegin
2
*MODEL_SPACE
0
ENDBLK
5
21
100
AcDbEntity
100
AcDbBlockEnd
0
BLOCK
5
1C
100
AcDbEntity
100
AcDbBlockBegin
2
*PAPER_SPACE
0
ENDBLK
5
1D
100
AcDbEntity
100
AcDbBlockEnd
0
ENDSEC
0
SECTION
2
ENTITIES
0
LWPOLYLINE
5
100
100
AcDbEntity
8
0
100
AcDbPolyline
90
8
70
1
43
0.0
10
-523.37515867685613
20
558.76629085565276
10
-510.26798082702305
20
555.98027419869481
42
0.41421356237308637
10
-509.67495118124737
20
556.36539215365281
10
-506.88893452428937
20
569.47257000348588
42
0.41421356237309503
10
-507.27405247924736
20
570.06559964926157
10
-520.38123032908038
20
572.85161630621951
42
0.41421356237309503
10
-520.97425997485618
20
572.46649835126152
10
-523.76027663181412
20
559.35932050142856
42
0.41421356237309503
0
LWPOLYLINE
5
101
100
AcDbEntity
8
0
100
AcDbPolyline
90
8
70
1
43
0.0
10
-528.30866272177593
20
560.32610822681113
42
-0.41421356237309503
10
-528.90169236755173
20
559.94099027185314
10
-542.0088702173847
20
562.72700692881108
42
-0.41421356237309503
10
-542.39398817234269
20
563.32003657458688
10
-539.60797151538475
20
576.42721442441973
42
-0.41421356237309503
10
-539.01494186960906
20
576.81233237937772
10
-525.90776401977598
20
574.02631572241978
42
-0.41421356237309503
10
-525.52264606481799
20
573.43328607664398
0
ARC
5
102
100
AcDbEntity
8
0
100
AcDbCircle
10
-514.03894902633181
20
494.11233777012512
30
1.2936181196846227e-47
40
0.50000000000000799
210
-3.014150006854083e-33
220
6.4067736181418975e-34
230
1
100
AcDbArc
50
167.99999999998155
51
258.00000000000978
0
LINE
5
103
100
AcDbEntity
8
0
100
AcDbLine
10
-514.1429048717406
20
493.62326396975823
30
-1.8023868481789134e-46
11
-498.61383296929807
21
490.3224578402486
31
0
0
ARC
5
104
100
AcDbEntity
8
0
100
AcDbCircle
10
-498.50987712388928
20
490.8115316406155
30
-3.9770738886171871e-45
40
0.4999999999999637
210
-3.0141500068607607e-33
220
6.406773618236977e-34
230
1
100
AcDbArc
50
258.00000000000978
51
348.00000000000614
0
LINE
5
105
100
AcDbEntity
8
0
100
AcDbLine
10
-498.02080332352227
20
490.70757579520665
30
1.5407439555096429e-33
11
-497.69854444296294
21
492.22368462773522
31
0
0
ARC
5
106
100
AcDbEntity
8
0
100
AcDbCircle
10
-497.20947064259627
20
492.11972878232655
30
-1.4775043317389658e-46
40
0.49999999999974482
210
-3.0141500068539882e-33
220
6.4067736181322773e-34
230
1
100
AcDbArc
50
77.999999999971138
51
168.00000000001714
0
LINE
5
107
100
AcDbEntity
8
0
100
AcDbLine
10
-497.1055147971872
20
492.60880258269316
30
1.330480890565535e-45
11
-491.23662979718716
21
491.36133258269325
31
0
0
ARC
5
108
100
AcDbEntity
8
0
100
AcDbCircle
10
-491.34058564259601
20
490.87225878232636
30
3.1987648050383397e-46
40
0.49999999999998423
210
2.1112688876630741e-33
220
2.4753877416646165e-32
230
1
100
AcDbArc
50
-12.000012571479687
51
78.000000000003411
0
LINE
5
109
100
AcDbEntity
8
0
100
AcDbLine
10
-490.8515118650385
20
490.76830282960799
30
1.5407466599926805e-33
11
-494.83302086503841
21
472.03677682960802
31
0
0
LINE
5
110
100
AcDbEntity
8
0
100
AcDbLine
10
-494.83302086503841
20
472.03677682960802
30
0
11
-495.06172343588224
21
470.96081512516798
31
0
0
ARC
5
111
100
AcDbEntity
8
0
100
AcDbCircle
10
-494.08357580750135
20
470.75290356441968
30
0
40
0.99999999999999334
210
0
220
0
230
1
100
AcDbArc
50
168.0000076189225
51
258.00000126501413
0
LINE
5
112
100
AcDbEntity
8
0
100
AcDbLine
10
-494.29148747672292
20
469.77475595909544
30
0
11
-472.17872342602305
21
465.07454337373525
31
0
0
ARC
5
113
100
AcDbEntity
8
0
100
AcDbCircle
10
-471.97081174231801
20
466.05269097598386
30
0
40
1.0000000000029221
210
0
220
0
230
1
100
AcDbArc
50
258.00000041666789
51
270.00000066025586
0
LINE
5
114
100
AcDbEntity
8
0
100
AcDbLine
10
-471.97081173079437
20
465.05269097598097
30
0
11
-453.5727142495179
21
465.05269118800493
31
0
0
ARC
5
115
100
AcDbEntity
8
0
100
AcDbCircle
10
-453.5727142610412
20
466.05269118799799
30
0
40
0.999999999993051
210
9.291169337859261e-41
220
1.0706491185509993e-48
230
1
100
AcDbArc
50
270.00000066023631
51
282.00000536470782
0
LINE
5
116
100
AcDbEntity
8
0
100
AcDbLine
10
-453.36480247863915
20
465.07454360673813
30
2.4113199614506725e-32
11
-439.39887626378521
21
468.04309423023193
31
0
0
LINE
5
117
100
AcDbEntity
8
0
100
AcDbLine
10
-439.39887626378521
20
468.04309423023193
30
0
11
-436.95350961747073
21
468.56287156079088
31
0
0
ARC
5
118
100
AcDbEntity
8
0
100
AcDbCircle
10
-437.16142077410097
20
469.54101927506963
30
0
40
0.99999999999998823
210
-3.0141503567412969e-33
220
-6.4067571572216397e-34
230
1
100
AcDbArc
50
-78.000031290460242
51
12.000040355965293
0
LINE
5
119
100
AcDbEntity
8
0
100
AcDbLine
10
-436.18327331980885
20
469.74893165484019
30
3.0814570846491169e-33
11
-436.41197837692602
21
470.82490062623913
31
0
0
LINE
5
120
100
AcDbEntity
8
0
100
AcDbLine
10
-436.41197837692602
20
470.82490062623913
30
0
11
-440.39348644296263
21
489.55642793691743
31
0
0
ARC
5
121
100
AcDbEntity
8
0
100
AcDbCircle
10
-439.90441264259584
20
489.66038378232645
30
-4.3491227362620208e-46
40
0.49999999999986899
210
-6.028300013706389e-33
220
-1.2813547236318044e-33
230
1
100
AcDbArc
50
102.00000000001842
51
192.00000000001845
0
LINE
5
122
100
AcDbEntity
8
0
100
AcDbLine
10
-440.00836848800486
20
490.14945758269323
30
4.861730685829017e-62
11
-434.13948348800488
21
491.39692758269342
31
0
0
ARC
5
123
100
AcDbEntity
8
0
100
AcDbCircle
10
-434.03552764259598
20
490.90785378232658
30
-6.9940906933692576e-46
40
0.49999999999993411
210
-6.0283000137080913e-33
220
-1.2813547236306802e-33
230
1
100
AcDbArc
50
11.999999999978815
51
102.00000000000432
0
LINE
5
124
100
AcDbEntity
8
0
100
AcDbLine
10
-433.54645384222914
20
491.01180962773526
30
3.0814879110186523e-33
11
-433.22419488428784
21
489.49570043115182
31
0
0
ARC
5
125
100
AcDbEntity
8
0
100
AcDbCircle
10
-432.73512108392094
20
489.59965627656027
30
-1.0229205098464851e-45
40
0.49999999999988987
210
2.9402925192023308e-45
220
-3.9930369002258137e-45
230
1
100
AcDbArc
50
191.99999999995202
51
282.00000000000568
0
LINE
5
126
100
AcDbEntity
8
0
100
AcDbLine
10
-432.63116523851204
20
489.11058247619349
30
-1.0068463981536671e-46
11
-417.10209617274006
21
492.41138800275024
31
0
0
ARC
5
127
100
AcDbEntity
8
0
100
AcDbCircle
10
-417.20605201814885
20
492.90046180311708
30
8.1294811422164223e-46
40
0.4999999999998942
210
-6.0283000136987393e-33
220
-1.2813547236281375e-33
230
1
100
AcDbArc
50
-78.000000000008427
51
11.999900484045966
0
LINE
5
128
100
AcDbEntity
8
0
100
AcDbLine
10
-416.71697803722384
20
493.00441679906277
30
3.0814879110197279e-33
11
-417.03923462352122
21
494.52052778638091
31
0
0
ARC
5
129
100
AcDbEntity
8
0
100
AcDbCircle
10
-416.55016064259644
20
494.62448278232648
30
-1.6583970473180056e-45
40
0.49999999999968131
210
8.1395281323791377e-33
220
-2.3472536830448825e-32
230
1
100
AcDbArc
50
101.99999999995742
51
191.99990048403865
0
LINE
5
130
100
AcDbEntity
8
0
100
AcDbLine
10
-416.65411648800489
20
495.11355658269315
30
1.2325954320139875e-32
11
-410.78523159531437
21
496.36102655988418
31
0
0
ARC
5
131
100
AcDbEntity
8
0
100
AcDbCircle
10
-410.68127564259612
20
495.87195278232656
30
5.7560660796545525e-46
40
0.50000000000010836
210
3.0141498662806503e-33
220
6.4067802316092755e-34
230
1
100
AcDbArc
50
12.000012571469243
51
102.00001257146424
0
LINE
5
132
100
AcDbEntity
8
0
100
AcDbLine
10
-410.19220186503844
20
495.97590873504487
30
-1.5407439555096491e-33
11
-406.21069286503837
21
477.24438273504461
31
0
0
LINE
5
133
100
AcDbEntity
8
0
100
AcDbLine
10
-406.21069286503837
20
477.24438273504461
30
0
11
-405.98198683273085
21
476.16841735865279
31
0
0
ARC
5
134
100
AcDbEntity
8
0
100
AcDbCircle
10
-405.00383928249573
20
476.37632928704869
30
0
40
1.0000000000000773
210
0
220
0
230
1
100
AcDbArc
50
192.00001391632878
51
281.64408736221259
0
LINE
5
135
100
AcDbEntity
8
0
100
AcDbLine
10
-404.80200766754757
20
475.39690905078254
30
0
11
-392.73177534597011
21
477.96251845857006
31
0
0
LINE
5
136
100
AcDbEntity
8
0
100
AcDbLine
10
-392.73177534597011
20
477.96251845857006
30
0
11
-371.60316865187883
21
477.96251826243554
31
0
0
LINE
5
137
100
AcDbEntity
8
0
100
AcDbLine
10
-371.60316865187883
20
477.96251826243554
30
0
11
-371.60316865187895
21
477.96250001152367
31
0
0
LINE
5
138
100
AcDbEntity
8
0
100
AcDbLine
10
-371.60316865187895
20
477.96250001152367
30
0
11
-311.60316865187883
21
477.96250070297668
31
0
0
LINE
5
139
100
AcDbEntity
8
0
100
AcDbLine
10
-311.60316865187883
20
477.96250070297668
30
0
11
-311.60316865187866
21
477.96251770546178
31
0
0
LINE
5
140
100
AcDbEntity
8
0
100
AcDbLine
10
-311.60316865187866
20
477.96251770546178
30
0
11
-258.34752924661558
21
477.96251721109525
31
0
0
ARC
5
141
100
AcDbEntity
8
0
100
AcDbCircle
10
-258.35316738962251
20
478.96250131664124
30
0
40
1.0000000000005771
210
-0
220
0
230
1
100
AcDbArc
50
-89.676956489876403
51
5.7956076946837667e-05
0
LINE
5
142
100
AcDbEntity
8
0
100
AcDbLine
10
-257.35316738962246
20
478.96250232816703
30
-1.3896602049221199e-34
11
-257.35316813683227
21
586.68750132816558
31
0
0
ARC
5
143
100
AcDbEntity
8
0
100
AcDbCircle
10
-258.35316863106863
20
586.68750131664137
30
0
40
1.0000004942363818
210
-2.8409385537845312e-40
220
2.4651903288156619e-32
230
1
100
AcDbArc
50
0
51
90.000000660281927
0
LINE
5
144
100
AcDbEntity
8
0
100
AcDbLine
10
-258.35316864259272
20
587.68750131664149
30
-2.4651903288158726e-32
11
-315.10316664259256
21
587.68750066264238
31
0
0
LINE
5
145
100
AcDbEntity
8
0
100
AcDbLine
10
-315.10316664259256
20
587.68750066264238
30
0
11
-368.10316568729615
21
587.68750105185893
31
0
0
LINE
5
146
100
AcDbEntity
8
0
100
AcDbLine
10
-368.10316568729615
20
587.68750105185893
30
0
11
-372.60316764259289
21
587.68749999999989
31
0
0
LINE
5
147
100
AcDbEntity
8
0
100
AcDbLine
10
-372.60316764259289
20
587.68749999999989
30
0
11
-448.13066568270744
21
587.6875
31
0
0
ARC
5
148
100
AcDbEntity
8
0
100
AcDbCircle
10
-448.13066568846955
20
586.68749921752442
30
0
40
1.0000007824756807
210
0
220
-0
230
1
100
AcDbArc
50
89.999999669856052
51
180
0
LINE
5
149
100
AcDbEntity
8
0
100
AcDbLine
10
-449.13066647094524
20
586.68749921752442
30
0
11
-449.13066568846949
21
564.12330611067591
31
0
0
ARC
5
150
100
AcDbEntity
8
0
100
AcDbCircle
10
-448.63066568846943
20
564.12330611067591
30
0
40
0.50000000000004263
210
0
220
0
230
1
100
AcDbArc
50
180
51
281.99999999999022
0
LINE
5
151
100
AcDbEntity
8
0
100
AcDbLine
10
-448.52670984306064
20
563.63423231030902
30
0
11
-436.48512270212365
21
566.19375067003648
31
0
0
ARC
5
152
100
AcDbEntity
8
0
100
AcDbCircle
10
-436.3811668567148
20
565.70467686966958
30
0
40
0.49999999999997846
210
-3.0141500068541562e-33
220
-6.4067736181460003e-34
230
1
100
AcDbArc
50
12.000000000002954
51
101.99999999999662
0
LINE
5
153
100
AcDbEntity
8
0
100
AcDbLine
10
-435.8920930563479
20
565.80863271507849
30
1.5407439555097894e-33
11
-433.10607639938996
21
552.70145486524552
31
0
0
ARC
5
154
100
AcDbEntity
8
0
100
AcDbCircle
10
-433.5951501997568
20
552.59749901983662
30
0
40
0.49999999999997846
210
-3.0141500068540245e-33
220
-6.4067736181457241e-34
230
1
100
AcDbArc
50
-78.000000000003396
51
12.000000000004302
0
LINE
5
155
100
AcDbEntity
8
0
100
AcDbLine
10
-433.49119435434795
20
552.10842521946972
30
-2.8303007301310418e-49
11
-446.59837220418098
21
549.32240856251178
31
0
0
ARC
5
156
100
AcDbEntity
8
0
100
AcDbCircle
10
-446.70232804958982
20
549.81148236287868
30
0
40
0.49999999999997846
210
-3.0141500068541562e-33
220
-6.4067736181460003e-34
230
1
100
AcDbArc
50
192.00000000000293
51
281.99999999999665
0
LINE
5
157
100
AcDbEntity
8
0
100
AcDbLine
10
-447.19140184995672
20
549.70752651746977
30
-1.5407439555097894e-33
11
-447.55776472111
21
551.4311283120926
31
0
0
ARC
5
158
100
AcDbEntity
8
0
100
AcDbCircle
10
-447.76804867785467
20
550.97749778232708
30
0
40
0.49999999999961409
210
0
220
-0
230
1
100
AcDbArc
50
65.129552568665403
51
90.00000000001954
0
LINE
5
159
100
AcDbEntity
8
0
100
AcDbLine
10
-447.76804867785484
20
551.47749778232662
30
0
11
-471.56230010869456
21
551.47749778232662
31
0
0
ARC
5
160
100
AcDbEntity
8
0
100
AcDbCircle
10
-471.56230010869479
20
550.97749778232685
30
0
40
0.49999999999975842
210
1.8367099231598242e-40
220
-7.8303653616020128e-53
230
1
100
AcDbArc
50
89.999999999973952
51
114.87055306906417
0
LINE
5
161
100
AcDbEntity
8
0
100
AcDbLine
10
-471.77258490180969
20
551.43112792438581
30
3.8623216620409826e-41
11
-472.40752795185335
21
548.443955733346
31
0
0
ARC
5
162
100
AcDbEntity
8
0
100
AcDbCircle
10
-472.89660175222031
20
548.54791157875491
30
0
40
0.49999999999997846
210
5.1254188945167962e-33
220
2.4113200054833238e-32
230
1
100
AcDbArc
50
257.99999999999704
51
347.99999999999841
0
LINE
5
163
100
AcDbEntity
8
0
100
AcDbLine
10
-473.00055759762921
20
548.05883777838801
30
1.2325951644078309e-32
11
-486.10773544746218
21
550.84485443534595
31
0
0
ARC
5
164
100
AcDbEntity
8
0
100
AcDbCircle
10
-486.00377960205327
20
551.33392823571285
30
0
40
0.49999999999997846
210
5.1254188945165711e-33
220
2.4113200054832196e-32
230
1
100
AcDbArc
50
167.99999999999704
51
257.99999999999704
0
LINE
5
165
100
AcDbEntity
8
0
100
AcDbLine
10
-486.49285340242017
20
551.43788408112175
30
-2.2642405841048335e-48
11
-483.70683674546223
21
564.54506193095472
31
0
0
ARC
5
166
100
AcDbEntity
8
0
100
AcDbCircle
10
-483.21776294509533
20
564.44110608554593
30
0
40
0.49999999999997846
210
5.1254188945167948e-33
220
2.4113200054833238e-32
230
1
100
AcDbArc
50
78.000000000003411
51
168.00000000000981
0
LINE
5
167
100
AcDbEntity
8
0
100
AcDbLine
10
-483.11380709968648
20
564.93017988591282
30
-1.2325951644078309e-32
11
-470.9746216453795
21
562.34991636427048
31
0
0
ARC
5
168
100
AcDbEntity
8
0
100
AcDbCircle
10
-470.87066579997054
20
562.83899016463738
30
-1.0832180817061651e-45
40
0.49999999999992378
210
6.2417013731749948e-33
220
-1.3267145828520317e-33
230
1
100
AcDbArc
50
-102.00000000000934
51
0
0
LINE
5
169
100
AcDbEntity
8
0
100
AcDbLine
10
-470.37066579997077
20
562.83899016463761
30
-3.2618516316122346e-33
11
-470.37066579997088
21
586.6874993514358
31
0
0
ARC
5
170
100
AcDbEntity
8
0
100
AcDbCircle
10
-471.37066579997105
20
586.68749935143569
30
0
40
1.0000000000001563
210
0
220
-0
230
1
100
AcDbArc
50
0
51
90
0
LINE
5
171
100
AcDbEntity
8
0
100
AcDbLine
10
-471.37066579997105
20
587.6874993514358
30
0
11
-546.15066764259291
21
587.68750000000023
31
0
0
LINE
5
172
100
AcDbEntity
8
0
100
AcDbLine
10
-546.15066764259291
20
587.68750000000023
30
0
11
-550.65066764259302
21
587.68749894814232
31
0
0
LINE
5
173
100
AcDbEntity
8
0
100
AcDbLine
10
-550.65066764259302
20
587.68749894814232
30
0
11
-603.65066764259291
21
587.68749733735899
31
0
0
LINE
5
174
100
AcDbEntity
8
0
100
AcDbLine
10
-603.65066764259291
20
587.68749733735899
30
0
11
-617.77566764259291
21
587.68749817457945
31
0
0
ARC
5
175
100
AcDbEntity
8
0
100
AcDbCircle
10
-617.77566663106882
20
586.68749717457956
30
0
40
1.0000010000003954
210
2.350988701643372e-38
220
2.3780793316654186e-44
230
1
100
AcDbArc
50
90.000057956003346
51
180.00005795607694
0
LINE
5
176
100
AcDbEntity
8
0
100
AcDbLine
10
-618.7756676310687
20
586.68749616305536
30
2.3509910526342062e-38
11
-618.77566751610982
21
478.96249816305675
31
0
0
ARC
5
177
100
AcDbEntity
8
0
100
AcDbCircle
10
-617.77566538962287
20
478.96249917457914
30
0
40
1.000002126487388
210
0
220
0
230
1
100
AcDbArc
50
180.00005795607694
51
269.61673300469283
0
LINE
5
178
100
AcDbEntity
8
0
100
AcDbLine
10
-617.7823546174078
20
477.96252054769081
30
0
11
-607.15066865187941
21
477.96252044899802
31
0
0
LINE
5
179
100
AcDbEntity
8
0
100
AcDbLine
10
-607.15066865187941
20
477.96252044899802
30
0
11
-607.15066865187953
21
477.96249751924648
31
0
0
LINE
5
180
100
AcDbEntity
8
0
100
AcDbLine
10
-607.15066865187953
20
477.96249751924648
30
0
11
-603.65066537809867
21
477.96249833735874
31
0
0
LINE
5
181
100
AcDbEntity
8
0
100
AcDbLine
10
-603.65066537809867
20
477.96249833735874
30
0
11
-550.65066637809866
21
477.96249794814207
31
0
0
LINE
5
182
100
AcDbEntity
8
0
100
AcDbLine
10
-550.65066637809866
20
477.96249794814207
30
0
11
-547.15066865187953
21
477.96249876625416
31
0
0
LINE
5
183
100
AcDbEntity
8
0
100
AcDbLine
10
-547.15066865187953
20
477.96249876625416
30
0
11
-547.1506686518793
21
477.96251989202437
31
0
0
LINE
5
184
100
AcDbEntity
8
0
100
AcDbLine
10
-547.1506686518793
20
477.96251989202437
30
0
11
-532.81179219267847
21
477.96251975891812
31
0
0
LINE
5
185
100
AcDbEntity
8
0
100
AcDbLine
10
-532.81179219267847
20
477.96251975891812
30
0
11
-526.44285416739444
21
476.60876014934229
31
0
0
ARC
5
186
100
AcDbEntity
8
0
100
AcDbCircle
10
-526.24115564135252
20
477.58820718483275
30
0
40
0.99999939536908777
210
-3.0181560242177747e-33
220
6.2153194546593648e-34
230
1
100
AcDbArc
50
258.36369105444209
51
348.0000014193464
0
LINE
5
187
100
AcDbEntity
8
0
100
AcDbLine
10
-525.26300862689016
20
477.38029564395652
30
2.9249451467596229e-33
11
-525.03430544296282
21
478.45625762773523
31
0
0
LINE
5
188
100
AcDbEntity
8
0
100
AcDbLine
10
-525.03430544296282
20
478.45625762773523
30
0
11
-521.05279644296286
21
497.1877846277352
31
0
0
ARC
5
189
100
AcDbEntity
8
0
100
AcDbCircle
10
-520.56372264259596
20
497.08382878232641
30
-2.47604922742941e-46
40
0.4999999999999637
210
-3.0141500068539287e-33
220
6.4067736181360739e-34
230
1
100
AcDbArc
50
78.000000000009777
51
168.00000000000981
0
LINE
5
190
100
AcDbEntity
8
0
100
AcDbLine
10
-520.45976679718717
20
497.5729025826933
30
0
11
-514.59088179718708
21
496.32543258269345
31
0
0
ARC
5
191
100
AcDbEntity
8
0
100
AcDbCircle
10
-514.6948376425961
20
495.8363587823265
30
-2.1456955092620147e-46
40
0.50000000000014699
210
-3.014150006854032e-33
220
6.4067736181454025e-34
230
1
100
AcDbArc
50
-12.000000000012994
51
77.999999999985647
0
LINE
5
192
100
AcDbEntity
8
0
100
AcDbLine
10
-514.20576384222909
20
495.73240293691748
30
1.5407439555100275e-33
11
-514.52802282669859
21
494.21629361553414
31
-1.5407439555097894e-33
0
LWPOLYLINE
5
193
100
AcDbEntity
8
0
100
AcDbPolyline
90
32
70
1
43
0.0
10
-315.15316796575678
20
559.07501766693804
42
-0.4142135623731783
10
-314.65316796575672
20
558.57501766693792
10
-314.65316796575678
20
545.17501766693795
42
0.41421356237309503
10
-314.15316796575678
20
544.67501766693795
10
-300.75316796575669
20
544.67501766693795
42
0.41421356237309503
10
-300.25316796575675
20
545.17501766693795
10
-300.25316796575675
20
558.57501766693792
42
0.41421356237309503
10
-300.75316796575675
20
559.07501766693792
10
-301.04016764259586
20
559.07501766693792
42
-0.4142135623731783
10
-301.5401676425958
20
559.57501766693792
10
-301.54016764259597
20
580.17499878232638
42
0.41421356237311585
10
-302.0401676425958
20
580.67499878232638
10
-308.04016764259592
20
580.67499878232638
42
0.41421356237292856
10
-308.54016764259592
20
580.17499878232638
10
-308.54016764259586
20
578.62501775535748
42
-0.41421356237307422
10
-309.04016764259592
20
578.12501775535748
10
-324.91616764259606
20
578.12501775535748
42
-0.4142135623731783
10
-325.41616764259601
20
578.62501775535748
10
-325.41616764259601
20
580.17499878232638
42
0.41421356237292856
10
-325.91616764259595
20
580.67499878232638
10
-331.91616764259601
20
580.6749987823265
42
0.41421356237288692
10
-332.41616764259584
20
580.17499878232638
10
-332.41616764259595
20
559.57501788798686
42
-0.41421356237326151
10
-332.91616764259595
20
559.07501788798686
10
-337.96566796575689
20
559.07501788798686
42
0.41421356237309503
10
-338.46566796575689
20
558.57501788798686
10
-338.46566796575689
20
545.17501788798677
42
0.41421356237309503
10
-337.96566796575689
20
544.67501788798688
10
-324.56566796575686
20
544.67501788798688
42
0.41421356237309503
10
-324.06566796575692
20
545.17501788798677
10
-324.06566796575692
20
558.57501766693792
42
-0.41421356237326151
10
-323.56566796575692
20
559.07501766693792
0
LWPOLYLINE
5
194
100
AcDbEntity
8
0
100
AcDbPolyline
90
24
70
1
43
0.0
10
-594.57566849627483
20
501.42502039910249
42
-0.41421356237326151
10
-594.07566849627483
20
501.92502039910244
10
-579.69391764259592
20
501.92502039910244
42
0.41421356237309503
10
-579.19391764259592
20
502.42502039910244
10
-579.19391764259603
20
523.02499878232629
42
0.41421356237321988
10
-579.69391764259603
20
523.52499878232629
10
-585.69391764259603
20
523.52499878232629
42
0.4142135623736361
10
-586.19391764259592
20
523.02499878232641
10
-586.19391764259592
20
521.47502033278784
42
-0.4142135623731783
10
-586.69391764259581
20
520.97502033278784
10
-602.56991764259601
20
520.97502033278784
42
-0.4142135623731783
10
-603.0699176425959
20
521.47502033278784
10
-603.0699176425959
20
523.02499878232629
42
0.41421356237321988
10
-603.56991764259601
20
523.52499878232629
10
-609.56991764259601
20
523.52499878232629
42
0.41421356237321988
10
-610.06991764259601
20
523.02499878232629
10
-610.06991764259601
20
502.42502039910244
42
0.41421356237309503
10
-609.56991764259601
20
501.92502039910244
10
-609.47566849627481
20
501.92502039910244
42
-0.41421356237326151
10
-608.97566849627481
20
501.42502039910249
10
-608.97566849627481
20
488.02502039910246
42
0.41421356237309503
10
-608.47566849627481
20
487.52502039910246
10
-595.07566849627483
20
487.52502039910246
42
0.41421356237309503
10
-594.57566849627483
20
488.02502039910246
0
LWPOLYLINE
5
195
100
AcDbEntity
8
0
100
AcDbPolyline
90
24
70
1
43
0.0
10
-325.27241764259594
20
521.47501777746231
42
-0.41421356237326151
10
-325.77241764259588
20
520.97501777746231
10
-326.05941831943517
20
520.97501777746231
42
0.41421356237309503
10
-326.55941831943517
20
520.47501777746231
10
-326.55941831943517
20
507.07501777746234
42
0.41421356237309503
10
-326.05941831943517
20
506.57501777746234
10
-312.65941831943508
20
506.57501777746234
42
0.41421356237309503
10
-312.15941831943508
20
507.07501777746234
10
-312.15941831943519
20
520.47501777746231
42
-0.41421356237307422
10
-311.65941831943508
20
520.97501777746231
10
-294.89641764259596
20
520.97501777746231
42
0.41421356237309503
10
-294.39641764259596
20
521.47501777746231
10
-294.39641764259602
20
542.07499878232636
42
0.41421356237292856
10
-294.89641764259602
20
542.57499878232636
10
-300.89641764259602
20
542.57499878232625
42
0.41421356237282447
10
-301.39641764259602
20
542.07499878232636
10
-301.39641764259602
20
540.52501768904267
42
-0.41421356237315748
10
-301.89641764259602
20
540.02501768904278
10
-317.77241764259594
20
540.02501768904278
42
-0.4142135623731783
10
-318.27241764259588
20
540.52501768904267
10
-318.27241764259588
20
542.07499878232636
42
0.41421356237328233
10
-318.77241764259588
20
542.57499878232647
10
-324.77241764259594
20
542.57499878232636
42
0.41421356237267881
10
-325.27241764259594
20
542.07499878232636
0
LWPOLYLINE
5
196
100
AcDbEntity
8
0
100
AcDbPolyline
90
8
70
1
43
0.0
10
-401.19479150694281
20
540.00882057119964
10
-403.98080816390075
20
553.11599842103271
42
0.41421356237309503
10
-404.57383780967655
20
553.5011163759907
10
-417.6810156595094
20
550.71509971903276
42
0.41421356237309503
10
-418.06613361446745
20
550.12207007325696
10
-415.28011695750945
20
537.014892223424
42
0.41421356237309503
10
-414.68708731173371
20
536.62977426846601
10
-401.5799094619008
20
539.41579092542395
42
0.41421356237309503
0
LWPOLYLINE
5
197
100
AcDbEntity
8
0
100
AcDbPolyline
90
8
70
1
43
0.0
10
-395.8386533044112
20
560.622890407608
10
-398.62466996136925
20
573.73006825744108
42
0.41421356237309503
10
-399.21769960714499
20
574.11518621239907
10
-412.32487745697819
20
571.32916955544101
42
0.41421356237310369
10
-412.70999541193612
20
570.73613990966533
10
-409.92397875497807
20
557.62896205983213
42
0.41421356237309503
10
-409.33094910920232
20
557.24384410487414
10
-396.22377125936913
20
560.0298607618322
42
0.41421356237310369
0
LWPOLYLINE
5
198
100
AcDbEntity
8
0
100
AcDbPolyline
90
8
70
1
43
0.0
10
-414.47236538915081
20
556.66217268663172
10
-417.25838204610875
20
569.76935053646469
42
0.41421356237309503
10
-417.85141169188449
20
570.15446849142268
10
-430.95858954171752
20
567.36845183446474
42
0.41421356237309503
10
-431.34370749667551
20
566.77542218868905
10
-428.55769083971757
20
553.66824433885597
42
0.41421356237309503
10
-427.96466119394182
20
553.28312638389798
10
-414.8574833441088
20
556.06914304085592
42
0.41421356237309503
0
LWPOLYLINE
5
199
100
AcDbEntity
8
0
100
AcDbPolyline
90
8
70
1
43
0.0
10
-491.04123992568327
20
552.40467413109729
10
-488.25522326872533
20
565.51185198093037
42
0.41421356237309503
10
-488.64034122368332
20
566.10488162670617
10
-501.74751907351634
20
568.89089828366411
42
0.41421356237309503
10
-502.34054871929209
20
568.50578032870612
10
-505.12656537625003
20
555.39860247887304
42
0.41421356237309503
10
-504.74144742129204
20
554.80557283309724
10
-491.63426957145901
20
552.0195561761393
42
0.41421356237309503
0
LWPOLYLINE
5
200
100
AcDbEntity
8
0
100
AcDbPolyline
90
8
70
1
43
0.0
10
-419.82850336482761
20
536.04810366595052
10
-422.61452002178555
20
549.1552815157836
42
0.41421356237309503
10
-423.20754966756135
20
549.54039947074159
10
-436.31472751739437
20
546.75438281378365
42
0.41421356237309503
10
-436.69984547235237
20
546.16135316800785
10
-433.91382881539442
20
533.05417531817488
42
0.41421356237309503
10
-433.32079916961868
20
532.66905736321678
10
-420.2136213197856
20
535.45507402017483
42
0.41421356237309503
0
LWPOLYLINE
5
201
100
AcDbEntity
8
0
100
AcDbPolyline
90
8
70
1
43
0.0
10
-438.46221468216163
20
532.08738539553542
10
-441.24823133911957
20
545.19456324536839
42
0.41421356237309503
10
-441.84126098489537
20
545.57968120032638
10
-454.94843883472822
20
542.79366454336844
42
0.41421356237309503
10
-455.33355678968627
20
542.20063489759264
10
-452.54754013272827
20
529.09345704775967
42
0.41421356237309503
10
-451.95451048695253
20
528.70833909280168
10
-438.84733263711962
20
531.49435574975962
42
0.41421356237309503
0
LWPOLYLINE
5
202
100
AcDbEntity
8
0
100
AcDbPolyline
90
8
70
1
43
0.0
10
-429.84306936200966
20
514.44385280214169
10
-432.6290860189676
20
527.55103065197477
42
0.41421356237309503
10
-433.22211566474334
20
527.93614860693276
10
-446.32929351457642
20
525.15013194997482
42
0.41421356237309503
10
-446.71441146953441
20
524.55710230419902
10
-443.92839481257647
20
511.449924454366
42
0.41421356237309503
10
-443.33536516680067
20
511.06480649940801
10
-430.22818731696765
20
513.850823156366
42
0.41421356237309503
0
LWPOLYLINE
5
203
100
AcDbEntity
8
0
100
AcDbPolyline
90
8
70
1
43
0.0
10
-411.20935769631933
20
518.40457055029242
10
-413.99537435327738
20
531.51174840012561
42
0.41421356237310369
10
-414.58840399905313
20
531.8968663550836
10
-427.69558184888632
20
529.11084969812555
42
0.41421356237310369
10
-428.08069980384425
20
528.51782005234986
10
-425.2946831468862
20
515.41064220251667
42
0.41421356237310369
10
-424.70165350111046
20
515.02552424755868
10
-411.59447565127726
20
517.81154090451662
42
0.41421356237310369
0
LWPOLYLINE
5
204
100
AcDbEntity
8
0
100
AcDbPolyline
90
8
70
1
43
0.0
10
-435.19920788196373
20
493.82978289826349
10
-437.98522453892167
20
506.93696074809651
42
0.41421356237309503
10
-438.57825418469747
20
507.3220787030545
10
-451.68543203453049
20
504.53606204609656
42
0.41421356237309503
10
-452.07054998948848
20
503.94303240032082
10
-449.28453333253054
20
490.83585455048774
42
0.41421356237309503
10
-448.6915036867548
20
490.45073659552975
10
-435.58432583692172
20
493.23675325248769
42
0.41421356237309503
0
LWPOLYLINE
5
205
100
AcDbEntity
8
0
100
AcDbPolyline
90
8
70
1
43
0.0
10
-474.27511656214739
20
470.93856994999959
10
-471.48909990518945
20
484.04574779983261
42
0.41421356237309503
10
-471.87421786014744
20
484.63877744560841
10
-484.98139570998046
20
487.42479410256635
42
0.41421356237309503
10
-485.57442535575626
20
487.03967614760836
10
-488.3604420127142
20
473.93249829777528
42
0.41421356237309503
10
-487.97532405775621
20
473.33946865199954
10
-474.86814620792313
20
470.5534519950416
42
0.41421356237309503
0
LWPOLYLINE
5
206
100
AcDbEntity
8
0
100
AcDbPolyline
90
8
70
1
43
0.0
10
-534.83467946426913
20
483.81090341048383
10
-532.04866280731108
20
496.91808126031697
42
0.41421356237310369
10
-532.43378076226907
20
497.51111090609277
10
-545.54095861210203
20
500.29712756305071
42
0.41421356237310369
10
-546.13398825787783
20
499.91200960809272
10
-548.92000491483589
20
486.80483175825964
42
0.41421356237310369
10
-548.53488695987789
20
486.21180211248378
10
-535.42770911004493
20
483.42578545552584
42
0.41421356237310369
0
LWPOLYLINE
5
207
100
AcDbEntity
8
0
100
AcDbPolyline
90
8
70
1
43
0.0
10
-479.63125456786173
20
491.55263992536305
10
-476.84523791090379
20
504.65981777519602
42
0.41421356237310369
10
-477.23035586586178
20
505.25284742097188
10
-490.33753371569475
20
508.03886407792982
42
0.41421356237310369
10
-490.9305633614706
20
507.65374612297182
10
-493.71658001842854
20
494.54656827313886
42
0.41421356237310369
10
-493.33146206347055
20
493.953538627363
10
-480.22428421363759
20
491.16752197040506
42
0.41421356237310369
0
LWPOLYLINE
5
208
100
AcDbEntity
8
0
100
AcDbPolyline
90
8
70
1
43
0.0
10
-498.26496586793417
20
495.51335806365682
10
-495.47894921097623
20
508.62053591348979
42
0.41421356237310369
10
-495.86406716593422
20
509.21356555926565
10
-508.97124501576729
20
511.99958221622359
42
0.41421356237309503
10
-509.56427466154304
20
511.6144642612656
10
-512.35029131850092
20
498.50728641143263
42
0.41421356237310369
10
-511.96517336354299
20
497.91425676565677
10
-498.85799551370997
20
495.12824010869883
42
0.41421356237309503
0
LWPOLYLINE
5
209
100
AcDbEntity
8
0
100
AcDbPolyline
90
8
70
1
43
0.0
10
-516.89867738279486
20
499.47407575757381
10
-514.1126607258368
20
512.58125360740678
42
0.41421356237310369
10
-514.49777868079491
20
513.17428325318258
10
-527.60495653062787
20
515.96029991014052
42
0.41421356237309503
10
-528.19798617640367
20
515.57518195518253
10
-530.98400283336161
20
502.46800410534956
42
0.41421356237310369
10
-530.59888487840362
20
501.87497445957376
10
-517.49170702857054
20
499.08895780261582
42
0.41421356237309503
0
LWPOLYLINE
5
210
100
AcDbEntity
8
0
100
AcDbPolyline
90
8
70
1
43
0.0
10
-535.53238919068883
20
503.43479389753014
10
-532.74637253373089
20
516.54197174736305
42
0.41421356237310369
10
-533.13149048868888
20
517.13500139313896
10
-546.23866833852185
20
519.9210180500969
42
0.41421356237309503
10
-546.83169798429765
20
519.53590009513891
10
-549.61771464125559
20
506.42872224530595
42
0.41421356237310369
10
-549.2325966862976
20
505.83569259953009
10
-536.12541883646463
20
503.04967594257215
42
0.41421356237309503
0
LWPOLYLINE
5
211
100
AcDbEntity
8
0
100
AcDbPolyline
90
8
70
1
43
0.0
10
-484.98739227481968
20
512.1667119534701
10
-482.20137561786174
20
525.27388980330318
42
0.41421356237309503
10
-482.58649357281973
20
525.86691944907886
10
-495.69367142265276
20
528.6529361060368
42
0.41421356237309503
10
-496.28670106842856
20
528.26781815107881
10
-499.0727177253865
20
515.16064030124585
42
0.41421356237309503
10
-498.68759977042851
20
514.56761065547005
10
-485.58042192059543
20
511.78159399851211
42
0.41421356237309503
0
LWPOLYLINE
5
212
100
AcDbEntity
8
0
100
AcDbPolyline
90
8
70
1
43
0.0
10
-503.6211033054991
20
516.12742903450294
10
-500.83508664854105
20
529.23460688433602
42
0.41421356237310369
10
-501.2202046034991
20
529.82763653011182
10
-514.32738245333201
20
532.61365318706976
42
0.41421356237310369
10
-514.92041209910781
20
532.22853523211177
10
-517.70642875606586
20
519.12135738227869
42
0.41421356237310369
10
-517.32131080110787
20
518.52832773650289
10
-504.21413295127491
20
515.74231107954483
42
0.41421356237310369
0
LWPOLYLINE
5
213
100
AcDbEntity
8
0
100
AcDbPolyline
90
8
70
1
43
0.0
10
-522.25481514895546
20
520.08814718201836
10
-519.4687984919974
20
533.19532503185144
42
0.41421356237309503
10
-519.85391644695551
20
533.78835467762724
10
-532.96109429678847
20
536.57437133458518
42
0.41421356237309503
10
-533.55412394256427
20
536.18925337962719
10
-536.34014059952221
20
523.08207552979411
42
0.41421356237309503
10
-535.95502264456422
20
522.48904588401831
10
-522.84784479473115
20
519.70302922706037
42
0.41421356237309503
0
LWPOLYLINE
5
214
100
AcDbEntity
8
0
100
AcDbPolyline
90
8
70
1
43
0.0
10
-540.88852749642354
20
524.04886555291114
10
-538.10251083946559
20
537.1560434027441
42
0.41421356237310369
10
-538.48762879442359
20
537.7490730485199
10
-551.59480664425655
20
540.53508970547784
42
0.41421356237309503
10
-552.18783629003235
20
540.14997175051985
10
-554.97385294699029
20
527.04279390068689
42
0.41421356237310369
10
-554.5887349920323
20
526.44976425491109
10
-541.48155714219922
20
523.66374759795315
42
0.41421356237309503
0
LWPOLYLINE
5
215
100
AcDbEntity
8
0
100
AcDbPolyline
90
8
70
1
43
0.0
10
-485.68510211704159
20
531.79060208137685
10
-482.8990854600836
20
544.89777993120981
42
0.41421356237310369
10
-483.28420341504165
20
545.49080957698561
10
-496.39138126487467
20
548.27682623394355
42
0.41421356237309503
10
-496.98441091065041
20
547.89170827898556
10
-499.77042756760841
20
534.7845304291526
42
0.41421356237310369
10
-499.38530961265036
20
534.1915007833768
10
-486.27813176281734
20
531.40548412641886
42
0.41421356237309503
0
LWPOLYLINE
5
216
100
AcDbEntity
8
0
100
AcDbPolyline
90
8
70
1
43
0.0
10
-504.31881312333252
20
535.75132004097975
10
-501.53279646637458
20
548.85849789081271
42
0.41421356237309503
10
-501.91791442133257
20
549.45152753658851
10
-515.02509227116559
20
552.23754419354646
42
0.41421356237309503
10
-515.61812191694139
20
551.85242623858846
10
-518.40413857389933
20
538.7452483887555
42
0.41421356237309503
10
-518.01902061894134
20
538.1522187429797
10
-504.91184276910826
20
535.36620208602176
42
0.41421356237309503
0
LWPOLYLINE
5
217
100
AcDbEntity
8
0
100
AcDbPolyline
90
8
70
1
43
0.0
10
-522.9525250329109
20
539.71203820255005
10
-520.16650837595296
20
552.8192160523829
42
0.41421356237309503
10
-520.55162633091095
20
553.41224569815859
10
-533.65880418074403
20
556.19826235511664
42
0.41421356237309503
10
-534.25183382651971
20
555.81314440015854
10
-537.03785048347765
20
542.70596655032568
42
0.41421356237309503
10
-536.65273252851966
20
542.11293690455
10
-523.54555467868659
20
539.32692024759194
42
0.41421356237309503
0
LWPOLYLINE
5
218
100
AcDbEntity
8
0
100
AcDbPolyline
90
8
70
1
43
0.0
10
-541.58623704979868
20
543.67275638692934
10
-538.80022039284074
20
556.7799342367623
42
0.41421356237310369
10
-539.18533834779873
20
557.3729638825381
10
-552.29251619763181
20
560.15898053949604
42
0.41421356237310369
10
-552.88554584340761
20
559.77386258453805
10
-555.67156250036555
20
546.66668473470509
42
0.41421356237310369
10
-555.28644454540756
20
546.07365508892929
10
-542.1792666955746
20
543.28763843197135
42
0.41421356237310369
0
LWPOLYLINE
5
219
100
AcDbEntity
8
0
100
AcDbPolyline
90
8
70
1
43
0.0
10
-267.41566809838605
20
544.78751735746937
10
-280.81566809838603
20
544.78751735746937
42
0.41421356237309503
10
-281.31566809838603
20
544.28751735746937
10
-281.31566809838603
20
530.88751735746939
42
0.41421356237309503
10
-280.81566809838603
20
530.38751735746939
10
-267.41566809838605
20
530.38751735746939
42
0.41421356237309503
10
-266.91566809838605
20
530.88751735746939
10
-266.91566809838605
20
544.28751735746937
42
0.41421356237309503
0
LWPOLYLINE
5
220
100
AcDbEntity
8
0
100
AcDbPolyline
90
8
70
1
43
0.0
10
-281.70316836364492
20
516.21251749009866
10
-295.10316836364495
20
516.21251749009866
42
0.41421356237309503
10
-295.60316836364495
20
515.71251749009866
10
-295.60316836364495
20
502.31251749009863
42
0.41421356237309503
10
-295.10316836364495
20
501.81251749009868
10
-281.70316836364492
20
501.81251749009868
42
0.41421356237309503
10
-281.20316836364492
20
502.31251749009863
10
-281.20316836364492
20
515.71251749009866
42
0.41421356237309503
0
LWPOLYLINE
5
221
100
AcDbEntity
8
0
100
AcDbPolyline
90
8
70
1
43
0.0
10
-262.65316854048376
20
497.16251731325951
10
-276.05316854048374
20
497.16251731325951
42
0.41421356237309503
10
-276.55316854048374
20
496.66251731325957
10
-276.55316854048374
20
483.26251731325954
42
0.41421356237309503
10
-276.05316854048374
20
482.76251731325954
10
-262.6531685404837
20
482.76251731325954
42
0.41421356237309503
10
-262.15316854048376
20
483.26251731325954
10
-262.15316854048376
20
496.66251731325957
42
0.41421356237309503
0
LWPOLYLINE
5
222
100
AcDbEntity
8
0
100
AcDbPolyline
90
8
70
1
43
0.0
10
-281.70316854048406
20
497.16251749009865
10
-295.10316854048403
20
497.16251749009865
42
0.41421356237309503
10
-295.60316854048403
20
496.66251749009865
10
-295.60316854048403
20
483.26251749009862
42
0.41421356237309503
10
-295.10316854048403
20
482.76251749009867
10
-281.703168540484
20
482.76251749009867
42
0.41421356237309503
10
-281.20316854048406
20
483.26251749009862
10
-281.20316854048406
20
496.66251749009865
42
0.41421356237309503
0
LWPOLYLINE
5
223
100
AcDbEntity
8
0
100
AcDbPolyline
90
8
70
1
43
0.0
10
-561.73816814259646
20
540.02502008963393
10
-575.13816814259644
20
540.02502008963393
42
0.41421356237309503
10
-575.63816814259644
20
539.52502008963404
10
-575.63816814259644
20
526.12502008963395
42
0.41421356237309503
10
-575.13816814259644
20
525.62502008963395
10
-561.73816814259646
20
525.62502008963395
42
0.41421356237309503
10
-561.23816814259646
20
526.12502008963395
10
-561.23816814259646
20
539.52502008963404
42
0.41421356237309503
0
LWPOLYLINE
5
224
100
AcDbEntity
8
0
100
AcDbPolyline
90
8
70
1
43
0.0
10
-556.97566831943561
20
520.97502004542423
10
-570.37566831943559
20
520.97502004542423
42
0.41421356237309503
10
-570.87566831943559
20
520.47502004542434
10
-570.87566831943559
20
507.07502004542425
42
0.41421356237309503
10
-570.37566831943559
20
506.57502004542431
10
-556.97566831943561
20
506.57502004542431
42
0.41421356237309503
10
-556.47566831943561
20
507.07502004542425
10
-556.47566831943561
20
520.47502004542434
42
0.41421356237309503
0
LWPOLYLINE
5
225
100
AcDbEntity
8
0
100
AcDbPolyline
90
8
70
1
43
0.0
10
-272.17816792154701
20
563.83751740167918
10
-285.57816792154705
20
563.83751740167918
42
0.41421356237309503
10
-286.07816792154699
20
563.33751740167929
10
-286.07816792154699
20
549.9375174016792
42
0.41421356237309503
10
-285.57816792154699
20
549.43751740167932
10
-272.17816792154701
20
549.43751740167932
42
0.41421356237309503
10
-271.67816792154701
20
549.9375174016792
10
-271.67816792154701
20
563.33751740167929
42
0.41421356237309503
0
LWPOLYLINE
5
226
100
AcDbEntity
8
0
100
AcDbPolyline
90
8
70
1
43
0.0
10
-276.94066774470787
20
582.8875174458891
10
-290.34066774470784
20
582.8875174458891
42
0.41421356237309503
10
-290.84066774470784
20
582.3875174458891
10
-290.84066774470784
20
568.98751744588913
42
0.41421356237309503
10
-290.34066774470784
20
568.48751744588913
10
-276.94066774470787
20
568.48751744588913
42
0.41421356237309503
10
-276.44066774470787
20
568.98751744588913
10
-276.44066774470787
20
582.3875174458891
42
0.41421356237309503
0
LWPOLYLINE
5
227
100
AcDbEntity
8
0
100
AcDbPolyline
90
8
70
1
43
0.0
10
-362.66566796575694
20
559.07501824166513
10
-376.06566796575697
20
559.07501824166513
42
0.41421356237309503
10
-376.56566796575697
20
558.57501824166513
10
-376.56566796575697
20
545.17501824166504
42
0.41421356237309503
10
-376.06566796575697
20
544.67501824166516
10
-362.66566796575694
20
544.67501824166516
42
0.41421356237309503
10
-362.165667965757
20
545.17501824166504
10
-362.165667965757
20
558.57501824166513
42
0.41421356237309503
0
LWPOLYLINE
5
228
100
AcDbEntity
8
0
100
AcDbPolyline
90
8
70
1
43
0.0
10
-338.85316778891774
20
578.12501802061627
10
-352.25316778891784
20
578.12501802061627
42
0.41421356237309503
10
-352.75316778891778
20
577.62501802061627
10
-352.75316778891778
20
564.22501802061629
42
0.41421356237309503
10
-352.25316778891784
20
563.72501802061629
10
-338.85316778891774
20
563.72501802061629
42
0.41421356237309503
10
-338.3531677889178
20
564.22501802061629
10
-338.3531677889178
20
577.62501802061627
42
0.41421356237309503
0
LWPOLYLINE
5
229
100
AcDbEntity
8
0
100
AcDbPolyline
90
8
70
1
43
0.0
10
-357.90316778891781
20
578.12501819745535
10
-371.30316778891779
20
578.12501819745535
42
0.41421356237309503
10
-371.80316778891779
20
577.62501819745535
10
-371.80316778891779
20
564.22501819745537
42
0.41421356237309503
10
-371.30316778891779
20
563.72501819745537
10
-357.90316778891781
20
563.72501819745537
42
0.41421356237309503
10
-357.40316778891781
20
564.22501819745537
10
-357.40316778891781
20
577.62501819745535
42
0.41421356237309503
0
LWPOLYLINE
5
230
100
AcDbEntity
8
0
100
AcDbPolyline
90
8
70
1
43
0.0
10
-373.94193350300895
20
526.32600622980226
10
-376.72795015996689
20
539.43318407963523
42
0.41421356237309503
10
-377.3209798057427
20
539.81830203459322
10
-390.42815765557572
20
537.03228537763528
42
0.41421356237309503
10
-390.81327561053371
20
536.43925573185948
10
-388.02725895357577
20
523.33207788202651
42
0.41421356237309503
10
-387.43422930780002
20
522.94695992706852
10
-374.32705145796695
20
525.73297658402646
42
0.41421356237309503
0
LWPOLYLINE
5
231
100
AcDbEntity
8
0
100
AcDbPolyline
90
8
70
1
43
0.0
10
-382.56107945900254
20
543.96953828435346
10
-385.34709611596054
20
557.07671613418677
42
0.41421356237310369
10
-385.94012576173634
20
557.46183408914465
10
-399.04730361156942
20
554.6758174321867
42
0.41421356237309503
10
-399.43242156652741
20
554.0827877864109
10
-396.64640490956941
20
540.97560993657783
42
0.41421356237309503
10
-396.05337526379367
20
540.59049198161983
10
-382.94619741396053
20
543.37650863857777
42
0.41421356237309503
0
LWPOLYLINE
5
232
100
AcDbEntity
8
0
100
AcDbPolyline
90
8
70
1
43
0.0
10
-416.56549601862821
20
497.7905006884248
10
-419.35151267558615
20
510.89767853825782
42
0.41421356237309503
10
-419.94454232136195
20
511.28279649321587
10
-433.05172017119497
20
508.49677983625787
42
0.41421356237309503
10
-433.43683812615296
20
507.90375019048213
10
-430.65082146919502
20
494.79657234064911
42
0.41421356237309503
10
-430.05779182341928
20
494.41145438569106
10
-416.9506139735862
20
497.19747104264906
42
0.41421356237309503
0
LWPOLYLINE
5
233
100
AcDbEntity
8
0
100
AcDbPolyline
90
8
70
1
43
0.0
10
-377.20494139859466
20
564.58360832304515
10
-379.99095805555265
20
577.69078617287823
42
0.41421356237309503
10
-380.5839877013284
20
578.07590412783622
10
-393.69116555116142
20
575.28988747087828
42
0.41421356237309503
10
-394.07628350611947
20
574.69685782510248
10
-391.29026684916147
20
561.58967997526941
42
0.41421356237309503
10
-390.69723720338573
20
561.20456202031141
10
-377.5900593535527
20
563.99057867726935
42
0.41421356237309503
0
LWPOLYLINE
5
234
100
AcDbEntity
8
0
100
AcDbPolyline
90
8
70
1
43
0.0
10
-392.57564577241055
20
522.36528796957521
10
-395.36166242936849
20
535.47246581940828
42
0.41421356237309503
10
-395.95469207514429
20
535.85758377436628
10
-409.06186992497732
20
533.07156711740834
42
0.41421356237309503
10
-409.44698787993531
20
532.47853747163254
10
-406.66097122297737
20
519.37135962179946
42
0.41421356237309503
10
-406.06794157720162
20
518.98624166684147
10
-392.96076372736854
20
521.77225832379941
42
0.41421356237309503
0
LWPOLYLINE
5
235
100
AcDbEntity
8
0
100
AcDbPolyline
90
8
70
1
43
0.0
10
-397.9317838509109
20
501.75121642703806
10
-400.7178005078689
20
514.85839427687131
42
0.41421356237310369
10
-401.3108301536447
20
515.2435122318293
10
-414.41800800347784
20
512.45749557487125
42
0.41421356237310369
10
-414.80312595843577
20
511.86446592909545
10
-412.01710930147777
20
498.75728807926231
42
0.41421356237310369
10
-411.42407965570203
20
498.37217012430438
10
-398.31690180586884
20
501.15818678126232
42
0.41421356237310369
0
LWPOLYLINE
5
236
100
AcDbEntity
8
0
100
AcDbPolyline
90
8
70
1
43
0.0
10
-379.29807181414355
20
505.71193425406341
10
-382.0840884711015
20
518.81911210389649
42
0.41421356237309503
10
-382.67711811687724
20
519.20423005885448
10
-395.78429596671015
20
516.41821340189654
42
0.41421356237309503
10
-396.16941392166814
20
515.82518375612074
10
-393.3833972647102
20
502.71800590628771
42
0.41421356237309503
10
-392.79036761893445
20
502.33288795132972
10
-379.68318976910155
20
505.11890460828766
42
0.41421356237309503
0
LWPOLYLINE
5
237
100
AcDbEntity
8
0
100
AcDbPolyline
90
8
70
1
43
0.0
10
-375.33735399829226
20
487.07822233116758
10
-378.1233706552502
20
500.1854001810006
42
0.41421356237309503
10
-378.71640030102594
20
500.57051813595865
10
-391.82357815085902
20
497.78450147900065
42
0.41421356237309503
10
-392.20869610581701
20
497.19147183322491
10
-389.42267944885907
20
484.08429398339189
42
0.41421356237309503
10
-388.82964980308327
20
483.69917602843384
10
-375.72247195325025
20
486.48519268539184
42
0.41421356237309503
0
LWPOLYLINE
5
238
100
AcDbEntity
8
0
100
AcDbPolyline
90
8
70
1
43
0.0
10
-343.61566796575687
20
559.07501806482594
10
-357.0156679657569
20
559.07501806482594
42
0.41421356237309503
10
-357.51566796575685
20
558.57501806482594
10
-357.51566796575685
20
545.17501806482596
42
0.41421356237309503
10
-357.0156679657569
20
544.67501806482596
10
-343.61566796575687
20
544.67501806482596
42
0.41421356237309503
10
-343.11566796575687
20
545.17501806482596
10
-343.11566796575687
20
558.57501806482594
42
0.41421356237309503
0
LWPOLYLINE
5
239
100
AcDbEntity
8
0
100
AcDbPolyline
90
8
70
1
43
0.0
10
-353.14066814259598
20
540.02501815324547
10
-366.54066814259602
20
540.02501815324547
42
0.41421356237309503
10
-367.04066814259596
20
539.52501815324558
10
-367.04066814259596
20
526.12501815324549
42
0.41421356237309503
10
-366.54066814259602
20
525.62501815324549
10
-353.14066814259598
20
525.62501815324549
42
0.41421356237309503
10
-352.64066814259598
20
526.12501815324549
10
-352.64066814259598
20
539.52501815324558
42
0.41421356237309503
0
LWPOLYLINE
5
240
100
AcDbEntity
8
0
100
AcDbPolyline
90
8
70
1
43
0.0
10
-334.09066814259597
20
540.02501797640639
10
-347.49066814259601
20
540.02501797640639
42
0.41421356237309503
10
-347.99066814259595
20
539.52501797640639
10
-347.99066814259595
20
526.12501797640641
42
0.41421356237309503
10
-347.49066814259601
20
525.62501797640641
10
-334.09066814259597
20
525.62501797640641
42
0.41421356237309503
10
-333.59066814259597
20
526.12501797640641
10
-333.59066814259597
20
539.52501797640639
42
0.41421356237309503
0
LWPOLYLINE
5
241
100
AcDbEntity
8
0
100
AcDbPolyline
90
8
70
1
43
0.0
10
-338.85316831943521
20
520.97501802061606
10
-352.25316831943525
20
520.97501802061606
42
0.41421356237309503
10
-352.75316831943519
20
520.47501802061606
10
-352.75316831943519
20
507.07501802061608
42
0.41421356237309503
10
-352.25316831943525
20
506.57501802061608
10
-338.85316831943521
20
506.57501802061608
42
0.41421356237309503
10
-338.35316831943521
20
507.07501802061608
10
-338.35316831943521
20
520.47501802061606
42
0.41421356237309503
0
LWPOLYLINE
5
242
100
AcDbEntity
8
0
100
AcDbPolyline
90
8
70
1
43
0.0
10
-357.90316831943517
20
520.97501819745526
10
-371.30316831943514
20
520.97501819745526
42
0.41421356237309503
10
-371.80316831943514
20
520.47501819745537
10
-371.80316831943514
20
507.07501819745528
42
0.41421356237309503
10
-371.30316831943514
20
506.57501819745534
10
-357.90316831943517
20
506.57501819745534
42
0.41421356237309503
10
-357.40316831943517
20
507.07501819745528
10
-357.40316831943517
20
520.47501819745537
42
0.41421356237309503
0
LWPOLYLINE
5
243
100
AcDbEntity
8
0
100
AcDbPolyline
90
8
70
1
43
0.0
10
-329.32816849627432
20
501.92501793219651
10
-342.72816849627429
20
501.92501793219651
42
0.41421356237309503
10
-343.22816849627429
20
501.42501793219651
10
-343.22816849627429
20
488.02501793219648
42
0.41421356237309503
10
-342.72816849627429
20
487.52501793219653
10
-329.32816849627432
20
487.52501793219653
42
0.41421356237309503
10
-328.82816849627432
20
488.02501793219648
10
-328.82816849627432
20
501.42501793219651
42
0.41421356237309503
0
LWPOLYLINE
5
244
100
AcDbEntity
8
0
100
AcDbPolyline
90
8
70
1
43
0.0
10
-300.75316854048401
20
497.16251766693779
10
-314.15316854048405
20
497.16251766693779
42
0.41421356237309503
10
-314.65316854048405
20
496.66251766693784
10
-314.65316854048405
20
483.26251766693781
42
0.41421356237309503
10
-314.15316854048405
20
482.76251766693781
10
-300.75316854048395
20
482.76251766693781
42
0.41421356237309503
10
-300.25316854048401
20
483.26251766693781
10
-300.25316854048401
20
496.66251766693784
42
0.41421356237309503
0
LWPOLYLINE
5
245
100
AcDbEntity
8
0
100
AcDbPolyline
90
8
70
1
43
0.0
10
-566.50066778891824
20
578.12502013384392
10
-579.90066778891821
20
578.12502013384392
42
0.41421356237309503
10
-580.40066778891821
20
577.62502013384392
10
-580.40066778891821
20
564.22502013384383
42
0.41421356237309503
10
-579.90066778891821
20
563.72502013384394
10
-566.50066778891824
20
563.72502013384394
42
0.41421356237309503
10
-566.00066778891824
20
564.22502013384383
10
-566.00066778891824
20
577.62502013384392
42
0.41421356237309503
0
LWPOLYLINE
5
246
100
AcDbEntity
8
0
100
AcDbPolyline
90
8
70
1
43
0.0
10
-561.73816796575738
20
559.07502008963411
10
-575.13816796575736
20
559.07502008963411
42
0.41421356237309503
10
-575.63816796575736
20
558.57502008963411
10
-575.63816796575736
20
545.17502008963413
42
0.41421356237309503
10
-575.13816796575736
20
544.67502008963413
10
-561.73816796575738
20
544.67502008963413
42
0.41421356237309503
10
-561.23816796575738
20
545.17502008963413
10
-561.23816796575738
20
558.57502008963411
42
0.41421356237309503
0
LWPOLYLINE
5
247
100
AcDbEntity
8
0
100
AcDbPolyline
90
8
70
1
43
0.0
10
-585.55066796575738
20
559.07502031068304
10
-598.95066796575736
20
559.07502031068304
42
0.41421356237309503
10
-599.45066796575736
20
558.57502031068304
10
-599.45066796575736
20
545.17502031068307
42
0.41421356237309503
10
-598.95066796575736
20
544.67502031068307
10
-585.55066796575738
20
544.67502031068307
42
0.41421356237309503
10
-585.05066796575738
20
545.17502031068307
10
-585.05066796575738
20
558.57502031068304
42
0.41421356237309503
0
LWPOLYLINE
5
248
100
AcDbEntity
8
0
100
AcDbPolyline
90
8
70
1
43
0.0
10
-547.45066777123429
20
580.03001995700481
10
-560.85066777123427
20
580.03001995700481
42
0.41421356237309503
10
-561.35066777123427
20
579.53001995700481
10
-561.35066777123427
20
566.13001995700483
42
0.41421356237309503
10
-560.85066777123427
20
565.63001995700483
10
-547.45066777123429
20
565.63001995700483
42
0.41421356237309503
10
-546.95066777123429
20
566.13001995700483
10
-546.95066777123429
20
579.53001995700481
42
0.41421356237309503
0
LWPOLYLINE
5
249
100
AcDbEntity
8
0
100
AcDbPolyline
90
8
70
1
43
0.0
10
-585.5506677889183
20
578.12502031068311
10
-598.95066778891828
20
578.12502031068311
42
0.41421356237309503
10
-599.45066778891828
20
577.62502031068311
10
-599.45066778891828
20
564.22502031068302
42
0.41421356237309503
10
-598.95066778891828
20
563.72502031068302
10
-585.5506677889183
20
563.72502031068302
42
0.41421356237309503
10
-585.0506677889183
20
564.22502031068302
10
-585.0506677889183
20
577.62502031068311
42
0.41421356237309503
0
LWPOLYLINE
5
250
100
AcDbEntity
8
0
100
AcDbPolyline
90
8
70
1
43
0.0
10
-587.9319181425966
20
540.0250203327879
10
-601.33191814259658
20
540.0250203327879
42
0.41421356237309503
10
-601.83191814259658
20
539.5250203327879
10
-601.83191814259658
20
526.12502033278793
42
0.41421356237309503
10
-601.33191814259658
20
525.62502033278793
10
-587.9319181425966
20
525.62502033278793
42
0.41421356237309503
10
-587.4319181425966
20
526.12502033278793
10
-587.4319181425966
20
539.5250203327879
42
0.41421356237309503
0
ENDSEC
0
SECTION
2
OBJECTS
0
DICTIONARY
5
C
100
AcDbDictionary
3
ACAD_GROUP
350
D
3
ACAD_MLINESTYLE
350
17
0
DICTIONARY
5
D
100
AcDbDictionary
0
DICTIONARY
5
1A
330
C
100
AcDbDictionary
0
DICTIONARY
5
17
100
AcDbDictionary
0
ENDSEC
0
EOF
