0
SECTION
2
HEADER
9
$INSUNITS
70
4
9
$ACADVER
1
AC1014
9
$HANDSEED
5
FFFF
0
ENDSEC
0
SECTION
2
TABLES
0
TABLE
2
VPORT
5
8
100
AcDbSymbolTable
0
ENDTAB
0
TABLE
2
LTYPE
5
5
100
AcDbSymbolTable
0
LTYPE
5
14
100
AcDbSymbolTableRecord
100
AcDbLinetypeTableRecord
2
BYBLOCK
70
0
0
LTYPE
5
15
100
AcDbSymbolTableRecord
100
AcDbLinetypeTableRecord
2
BYLAYER
70
0
0
ENDTAB
0
TABLE
2
LAYER
5
2
100
AcDbSymbolTable
70
2
0
LAYER
5
50
100
AcDbSymbolTableRecord
100
AcDbLayerTableRecord
2
0
70
0
6
CONTINUOUS
0
ENDTAB
0
TABLE
2
STYLE
5
3
100
AcDbSymbolTable
70
1
0
STYLE
5
11
100
AcDbSymbolTableRecord
100
AcDbTextStyleTableRecord
2
STANDARD
70
0
0
ENDTAB
0
TABLE
2
VIEW
5
6
100
AcDbSymbolTable
70
0
0
ENDTAB
0
TABLE
2
UCS
5
7
100
AcDbSymbolTable
70
0
0
ENDTAB
0
TABLE
2
APPID
5
9
100
AcDbSymbolTable
70
2
0
APPID
5
12
100
AcDbSymbolTableRecord
100
AcDbRegAppTableRecord
2
ACAD
70
0
0
ENDTAB
0
TABLE
2
DIMSTYLE
5
A
100
AcDbSymbolTable
70
1
0
ENDTAB
0
TABLE
2
BLOCK_RECORD
5
1
100
AcDbSymbolTable
70
1
0
BLOCK_RECORD
5
1F
100
AcDbSymbolTableRecord
100
AcDbBlockTableRecord
2
*MODEL_SPACE
0
BLOCK_RECORD
5
1B
100
AcDbSymbolTableRecord
100
AcDbBlockTableRecord
2
*PAPER_SPACE
0
ENDTAB
0
ENDSEC
0
SECTION
2
BLOCKS
0
BLOCK
5
20
100
AcDbEntity
100
AcDbBlockBegin
2
*MODEL_SPACE
0
ENDBLK
5
21
100
AcDbEntity
100
AcDbBlockEnd
0
BLOCK
5
1C
100
AcDbEntity
100
AcDbBlockBegin
2
*PAPER_SPACE
0
ENDBLK
5
1D
100
AcDbEntity
100
AcDbBlockEnd
0
ENDSEC
0
SECTION
2
ENTITIES
0
LWPOLYLINE
5
100
100
AcDbEntity
8
0
100
AcDbPolyline
90
8
70
1
43
0.0
10
1056.106495376926
20
533.37863957195236
42
-0.41421425715052768
10
1055.7213766385416
20
532.78560943493994
10
1043.0054585953144
20
530.08275763830761
42
-0.41421356237309503
10
1042.4124288650385
20
530.46787546314692
10
1039.7095768422289
20
543.1837945704566
42
-0.41421356237304569
10
1040.0946947971872
20
543.77682421623217
10
1052.8106134865088
20
546.47967615019547
42
-0.4142141353598271
10
1053.4036435802943
20
546.09455761517802
0
LWPOLYLINE
5
101
100
AcDbEntity
8
0
100
AcDbPolyline
90
8
70
1
43
0.0
10
1002.4750264880049
20
560.41892361549822
10
1015.1909454880049
20
563.12177561549834
42
0.41421356237302837
10
1015.5760634429629
20
563.71480526127402
10
1012.873211442963
20
576.43072426127412
42
0.41421362663818262
10
1012.2801816898778
20
576.81584219342267
10
999.5642627971871
20
574.11299021623211
42
0.41421356237298157
10
999.17914484222933
20
573.51996057045642
10
1001.8819967048977
20
560.80404221655283
42
0.41421394930236349
0
LWPOLYLINE
5
102
100
AcDbEntity
8
0
100
AcDbPolyline
90
8
70
1
43
0.0
10
900.85316764259596
20
617.03749541586535
42
-0.41421356237288692
10
901.35316764259596
20
616.53749541586512
10
901.35316764259619
20
603.53749541586535
42
-0.41421356237309503
10
900.85316764259585
20
603.03749541586535
10
887.85316764259596
20
603.03749541586546
42
-0.41421356237301177
10
887.35316764259596
20
603.53749541586535
10
887.35316764259574
20
616.53749541586524
42
-0.41421356237288692
10
887.85316764259596
20
617.03749541586535
0
LWPOLYLINE
5
103
100
AcDbEntity
8
0
100
AcDbPolyline
90
8
70
1
43
0.0
10
1155.3616724880046
20
597.97099321623216
42
-0.41421362663788897
10
1155.7467904201535
20
597.37796346314713
10
1153.0439384429628
20
584.66204457045637
42
-0.41421356237328388
10
1152.4509087971869
20
584.2769266154985
10
1139.734989486509
20
586.97977868153532
42
-0.41421344058127707
10
1139.3498718650385
20
587.57280836858376
10
1142.0527238650384
20
600.28872736858364
42
-0.41421356237316781
10
1142.6457535953143
20
600.67384519342272
0
LWPOLYLINE
5
104
100
AcDbEntity
8
0
100
AcDbPolyline
90
8
70
1
43
0.0
10
967.52816764259615
20
612.27499541586542
42
-0.41421356237313667
10
968.02816764259615
20
611.77499541586531
10
968.02816764259603
20
598.77499541586542
42
-0.41421356237355289
10
967.52816764259603
20
598.27499541586542
10
954.52816764259615
20
598.27499541586485
42
-0.41421356237297013
10
954.02816764259592
20
598.77499541586542
10
954.02816764259615
20
611.77499541586531
42
-0.41421356237313667
10
954.52816764259615
20
612.27499541586542
0
LWPOLYLINE
5
105
100
AcDbEntity
8
0
100
AcDbPolyline
90
8
70
1
43
0.0
10
959.29066764259574
20
560.17499541586528
42
-0.41421356237263718
10
958.79066764259608
20
560.67499541586528
10
958.79066764259619
20
573.67499541586528
42
-0.41421356237288692
10
959.29066764259596
20
574.1749954158654
10
972.29066764259585
20
574.17499541586528
42
-0.41421356237297013
10
972.79066764259596
20
573.67499541586528
10
972.79066764259596
20
560.67499541586517
42
-0.4142135623731783
10
972.29066764259596
20
560.1749954158654
0
LWPOLYLINE
5
106
100
AcDbEntity
8
0
100
AcDbPolyline
90
8
70
1
43
0.0
10
1118.094248488005
20
605.89242921623213
10
1105.3783304880048
20
608.59528121623225
42
0.41421356237305429
10
1104.7853008422289
20
608.21016326127415
10
1102.082448842229
20
595.49424426127405
42
0.41421356237360957
10
1102.4675667971874
20
594.90121461549847
10
1115.1834856466505
20
592.19836243494012
42
0.41421298938773415
10
1115.7765144201537
20
592.58348046314688
10
1118.4793664201534
20
605.29939946314687
42
0.41421362663783962
0
LWPOLYLINE
5
107
100
AcDbEntity
8
0
100
AcDbPolyline
90
8
70
1
43
0.0
10
1177.0337884201538
20
560.08725546314702
10
1179.7366404201537
20
572.803174463147
42
0.41421344058135851
10
1179.3515227986834
20
573.39620415019544
10
1166.6356037986832
20
576.09905615019534
42
0.41421425715051041
10
1166.042573661671
20
575.71393741181078
10
1163.3397218650384
20
562.99801936858353
42
0.41421356237299628
10
1163.7248396898779
20
562.40498963830782
10
1176.4407586898776
20
559.70213763830793
42
0.41421356237287416
0
LWPOLYLINE
5
108
100
AcDbEntity
8
0
100
AcDbPolyline
90
8
70
1
43
0.0
10
1145.7888377971874
20
546.74181661549835
42
-0.41421356237280138
10
1145.4037198422293
20
547.33484626127438
10
1148.1065718422292
20
560.05076526127425
42
-0.41421356237341206
10
1148.6996014880049
20
560.43588321623236
10
1161.4155204880051
20
557.73303121623235
42
-0.41421356237321716
10
1161.800638442963
20
557.14000157045643
10
1159.0977864201536
20
544.42408246314687
42
-0.41421356237297291
10
1158.5047566898777
20
544.03896463830768
0
LWPOLYLINE
5
109
100
AcDbEntity
8
0
100
AcDbPolyline
90
8
70
1
43
0.0
10
1110.141438842229
20
587.59609126127407
10
1107.4385868422291
20
574.88017226127442
42
0.4142135623729235
10
1107.8237047971872
20
574.28714261549862
10
1120.5396234432833
20
571.58429047816708
42
0.41421317544292069
10
1121.132652442963
20
571.96940857045649
10
1123.8355044429629
20
584.68532757045659
42
0.41421356237309503
10
1123.4503864880048
20
585.27835721623194
10
1110.7344676385419
20
587.9812093967904
42
0.41421305365294991
0
LWPOLYLINE
5
110
100
AcDbEntity
8
0
100
AcDbPolyline
90
8
70
1
43
0.0
10
977.55316764259589
20
579.72499541586535
42
-0.41421356237297013
10
977.05316764259589
20
579.22499541586535
10
964.05316764259567
20
579.22499541586535
42
-0.4142135623731783
10
963.55316764259578
20
579.72499541586535
10
963.55316764259601
20
592.72499541586535
42
-0.41421356237326151
10
964.05316764259601
20
593.22499541586535
10
977.05316764259589
20
593.22499541586524
42
-0.41421356237301177
10
977.55316764259601
20
592.72499541586524
0
LWPOLYLINE
5
111
100
AcDbEntity
8
0
100
AcDbPolyline
90
8
70
1
43
0.0
10
1204.7006676425963
20
536.07499541586526
42
-0.41421356237288692
10
1205.200667642596
20
535.57499541586526
10
1205.200667642596
20
522.57499541586515
42
-0.41421356237321988
10
1204.700667642596
20
522.07499541586526
10
1191.7006676425963
20
522.07499541586515
42
-0.41421356237297013
10
1191.200667642596
20
522.57499541586515
10
1191.200667642596
20
535.57499541586526
42
-0.41421356237330315
10
1191.7006676425963
20
536.07499541586537
0
LWPOLYLINE
5
112
100
AcDbEntity
8
0
100
AcDbPolyline
90
8
70
1
43
0.0
10
1055.0802808650385
20
585.40211446314675
42
-0.41421356237253981
10
1055.4653986898775
20
585.99514419342279
10
1068.1813177971869
20
588.69799621623247
42
-0.4142135623734961
10
1068.7743474429631
20
588.31287826127414
10
1071.4771994429632
20
575.59695926127415
42
-0.41421407109373415
10
1071.0920806385418
20
575.00392943494012
10
1058.3761625953143
20
572.30107763830733
42
-0.41421356237296425
10
1057.7831328650386
20
572.68619546314676
0
LWPOLYLINE
5
113
100
AcDbEntity
8
0
100
AcDbPolyline
90
8
70
1
43
0.0
10
1186.1506676425961
20
520.66999541586529
10
1186.1506676425961
20
533.66999541586517
42
0.41421356237292856
10
1185.6506676425961
20
534.16999541586529
10
1172.6506676425961
20
534.16999541586529
42
0.41421356237297013
10
1172.1506676425961
20
533.66999541586529
10
1172.1506676425963
20
520.6699954158654
42
0.41421356237292856
10
1172.6506676425961
20
520.1699954158654
10
1185.6506676425961
20
520.16999541586517
42
0.41421356237288692
0
LWPOLYLINE
5
114
100
AcDbEntity
8
0
100
AcDbPolyline
90
8
70
1
43
0.0
10
1124.1480964880052
20
565.65446621623209
42
-0.41421356237322582
10
1124.5332144429631
20
565.06143657045641
10
1121.8303624201537
20
552.34551846314685
42
-0.41421298938770823
10
1121.2373336466503
20
551.96040043494054
10
1108.5214146898779
20
554.66325263830777
42
-0.4142129893875281
10
1108.1362966616709
20
555.25628141181096
10
1110.8391488422294
20
567.97220026127411
42
-0.41421356237333323
10
1111.4321784880051
20
568.3573182162321
0
LWPOLYLINE
5
115
100
AcDbEntity
8
0
100
AcDbPolyline
90
8
70
1
43
0.0
10
1129.4728597048975
20
564.01148261517812
42
-0.41421413535939394
10
1130.0658897986832
20
564.39660115019524
10
1142.7818087986834
20
561.69374915019534
42
-0.4142133763159771
10
1143.1669264429629
20
561.10071957045659
10
1140.464074420154
20
548.3848004631468
42
-0.41421349810803387
10
1139.8710447971871
20
547.99968261549827
10
1127.1551257971871
20
550.70253461549851
42
-0.41421356237338003
10
1126.7700078422295
20
551.29556426127408
0
LWPOLYLINE
5
116
100
AcDbEntity
8
0
100
AcDbPolyline
90
8
70
1
43
0.0
10
1024.3717464880049
20
526.12203961549835
10
1037.0876654880049
20
528.82489161549836
42
0.41421356237313572
10
1037.472783442963
20
529.41792126127416
10
1034.7699314429631
20
542.13384026127403
42
0.41421356237342938
10
1034.1769017971869
20
542.51895821623225
10
1021.4609824865088
20
539.81610615019542
42
0.41421344058096615
10
1021.0758648650385
20
539.22307646314687
10
1023.778716842229
20
526.50715757045634
42
0.41421356237333928
0
LWPOLYLINE
5
117
100
AcDbEntity
8
0
100
AcDbPolyline
90
8
70
1
43
0.0
10
1210.250667642596
20
535.57499541586526
42
-0.41421356237272045
10
1210.7506676425962
20
536.07499541586537
10
1223.750667642596
20
536.07499541586537
42
-0.41421356237297013
10
1224.250667642596
20
535.57499541586515
10
1224.250667642596
20
522.57499541586515
42
-0.41421356237297013
10
1223.750667642596
20
522.07499541586526
10
1210.7506676425962
20
522.07499541586526
42
-0.4142135623730534
10
1210.250667642596
20
522.57499541586526
0
LWPOLYLINE
5
118
100
AcDbEntity
8
0
100
AcDbPolyline
90
24
70
1
43
0.0
10
919.39641764259613
20
578.72499541586524
10
919.39641764259613
20
557.9249954158654
42
0.41421356237284529
10
919.89641764259602
20
557.42499541586517
10
925.89641764259613
20
557.42499541586528
42
0.41421356237276202
10
926.39641764259613
20
557.92499541586517
10
926.39641764259613
20
559.67499541586551
42
-0.41421356237292856
10
926.89641764259613
20
560.1749954158654
10
942.77241764259566
20
560.17499541586528
42
-0.41421356237280366
10
943.272417642596
20
559.6749954158654
10
943.272417642596
20
557.9249954158654
42
0.41421356237334478
10
943.77241764259588
20
557.42499541586528
10
949.772417642596
20
557.42499541586528
42
0.41421356237272045
10
950.272417642596
20
557.92499541586517
10
950.272417642596
20
578.72499541586524
42
-0.41421356237326151
10
950.772417642596
20
579.22499541586524
10
950.85941764259599
20
579.22499541586535
42
0.41421356237313667
10
951.35941764259633
20
579.72499541586535
10
951.35941764259633
20
592.72499541586524
42
0.4142135623731783
10
950.85941764259599
20
593.22499541586535
10
937.8594176425961
20
593.22499541586535
42
0.41421356237321988
10
937.35941764259587
20
592.72499541586535
10
937.3594176425961
20
579.72499541586501
42
-0.41421356237313667
10
936.85941764259599
20
579.22499541586512
10
919.89641764259613
20
579.22499541586512
42
0.41421356237288692
0
LWPOLYLINE
5
119
100
AcDbEntity
8
0
100
AcDbPolyline
90
8
70
1
43
0.0
10
1073.5374556898778
20
609.31206619342265
42
-0.41421344058097481
10
1074.1304853769261
20
608.92694857195272
10
1076.8333374429631
20
596.21102926127423
42
-0.41421356237322582
10
1076.4482194880047
20
595.61799961549855
10
1063.7323005953144
20
592.91514763830742
42
-0.41421356237276069
10
1063.1392708650383
20
593.30026546314684
10
1060.4364188422292
20
606.01618457045652
42
-0.41421356237351953
10
1060.821536797187
20
606.6092142162322
0
LWPOLYLINE
5
120
100
AcDbEntity
8
0
100
AcDbPolyline
90
8
70
1
43
0.0
10
987.86566764259589
20
541.12499541586533
42
-0.41421356237292856
10
987.36566764259601
20
541.62499541586544
10
987.36566764259601
20
554.62499541586544
42
-0.41421356237330315
10
987.86566764259601
20
555.12499541586544
10
1000.865667642596
20
555.12499541586544
42
-0.41421356237292856
10
1001.3656676425961
20
554.62499541586544
10
1001.3656676425961
20
541.62499541586544
42
-0.41421356237267881
10
1000.865667642596
20
541.12499541586533
0
LWPOLYLINE
5
121
100
AcDbEntity
8
0
100
AcDbPolyline
90
32
70
1
43
0.0
10
938.9531676425961
20
555.12499541586544
10
925.95316764259587
20
555.12499541586544
42
0.41421356237288692
10
925.4531676425961
20
554.62499541586544
10
925.4531676425961
20
541.62499541586544
42
0.41421356237288692
10
925.95316764259587
20
541.12499541586533
10
926.04016764259563
20
541.12499541586533
42
-0.4142135623730534
10
926.54016764259586
20
540.62499541586544
10
926.54016764259609
20
519.82499541586537
42
0.41421356237342799
10
927.04016764259586
20
519.32499541586526
10
933.04016764259597
20
519.32499541586526
42
0.41421356237288692
10
933.54016764259597
20
519.82499541586515
10
933.54016764259597
20
521.57499541586526
42
-0.41421356237267881
10
934.04016764259609
20
522.07499541586526
10
949.91616764259618
20
522.07499541586503
42
-0.41421356237309503
10
950.41616764259606
20
521.57499541586526
10
950.41616764259606
20
519.82499541586526
42
0.4142135623730534
10
950.91616764259606
20
519.32499541586526
10
956.91616764259595
20
519.32499541586526
42
0.41421356237276202
10
957.41616764259572
20
519.82499541586526
10
957.41616764259606
20
540.62499541586544
42
-0.41421356237326151
10
957.91616764259606
20
541.12499541586533
10
962.76566764259633
20
541.12499541586533
42
0.4142135623730534
10
963.2656676425961
20
541.62499541586544
10
963.2656676425961
20
554.62499541586544
42
0.4142135623731783
10
962.76566764259633
20
555.12499541586544
10
949.76566764259599
20
555.12499541586544
42
0.41421356237330315
10
949.2656676425961
20
554.62499541586544
10
949.2656676425961
20
541.62499541586544
42
-0.41421356237297013
10
948.76566764259621
20
541.12499541586544
10
939.9531676425961
20
541.12499541586533
42
-0.41421356237301177
10
939.4531676425961
20
541.62499541586544
10
939.45316764259599
20
554.62499541586544
42
0.4142135623730534
0
LWPOLYLINE
5
122
100
AcDbEntity
8
0
100
AcDbPolyline
90
8
70
1
43
0.0
10
1148.1379465953146
20
541.07967719342287
42
-0.41421356237309503
10
1148.5230644201538
20
540.48664746314694
10
1145.8202124429627
20
527.77072857045641
42
-0.41421362663760397
10
1145.2271826898777
20
527.38561063830775
10
1132.5112646466505
20
530.08846243493974
42
-0.41421425715046967
10
1132.1261459082662
20
530.68149257195239
10
1134.8289979082658
20
543.39741157195249
42
-0.41421344058094889
10
1135.4220275953146
20
543.78252919342276
0
LWPOLYLINE
5
123
100
AcDbEntity
8
0
100
AcDbPolyline
90
8
70
1
43
0.0
10
1210.250667642596
20
554.62499541586544
10
1210.250667642596
20
541.62499541586544
42
0.41421356237338641
10
1210.7506676425962
20
541.12499541586533
10
1223.750667642596
20
541.12499541586533
42
0.41421356237321988
10
1224.250667642596
20
541.62499541586544
10
1224.250667642596
20
554.62499541586533
42
0.41421356237297013
10
1223.750667642596
20
555.12499541586556
10
1210.750667642596
20
555.12499541586544
42
0.4142135623731783
0
LWPOLYLINE
5
124
100
AcDbEntity
8
0
100
AcDbPolyline
90
8
70
1
43
0.0
10
982.31566764259605
20
541.62499541586544
42
-0.41421356237267881
10
981.81566764259605
20
541.12499541586533
10
968.81566764259583
20
541.12499541586533
42
-0.41421356237313667
10
968.31566764259605
20
541.62499541586544
10
968.31566764259605
20
554.62499541586544
42
-0.41421356237351126
10
968.81566764259605
20
555.12499541586544
10
981.81566764259605
20
555.12499541586533
42
-0.4142135623731783
10
982.31566764259583
20
554.62499541586544
0
LWPOLYLINE
5
125
100
AcDbEntity
8
0
100
AcDbPolyline
90
24
70
1
43
0.0
10
1235.0699176425962
20
576.97499541586535
10
1235.069917642596
20
597.77499541586531
42
0.41421356237288692
10
1234.569917642596
20
598.27499541586542
10
1234.2756676425961
20
598.27499541586531
42
-0.41421356237321988
10
1233.7756676425961
20
598.77499541586542
10
1233.7756676425961
20
611.77499541586531
42
0.41421356237309503
10
1233.2756676425961
20
612.27499541586542
10
1220.2756676425961
20
612.27499541586542
42
0.41421356237321988
10
1219.7756676425961
20
611.77499541586531
10
1219.7756676425961
20
598.77499541586542
42
-0.41421356237326151
10
1219.2756676425961
20
598.27499541586542
10
1204.693917642596
20
598.27499541586542
42
0.41421356237330315
10
1204.1939176425963
20
597.77499541586531
10
1204.1939176425963
20
576.97499541586535
42
0.41421356237355289
10
1204.693917642596
20
576.47499541586535
10
1210.6939176425963
20
576.47499541586535
42
0.41421356237338641
10
1211.193917642596
20
576.97499541586512
10
1211.1939176425963
20
578.72499541586524
42
-0.41421356237309503
10
1211.6939176425963
20
579.22499541586512
10
1227.569917642596
20
579.22499541586535
42
-0.4142135623730534
10
1228.0699176425962
20
578.72499541586524
10
1228.069917642596
20
576.97499541586535
42
0.41421356237309503
10
1228.5699176425962
20
576.47499541586524
10
1234.569917642596
20
576.47499541586535
42
0.41421356237342799
0
LWPOLYLINE
5
126
100
AcDbEntity
8
0
100
AcDbPolyline
90
8
70
1
43
0.0
10
1142.0840984880051
20
581.31763921623224
42
-0.41421305365214173
10
1142.4692166235211
20
580.7246104199196
10
1139.7663644201536
20
568.00869146314676
42
-0.41421349810837682
10
1139.1733347971872
20
567.62357361549834
10
1126.457415797187
20
570.32642561549824
42
-0.41421317544303415
10
1126.0722977048974
20
570.91945461517798
10
1128.775149908266
20
583.63537357195253
42
-0.41421337631652366
10
1129.3681794880049
20
584.02049121623202
0
LWPOLYLINE
5
127
100
AcDbEntity
8
0
100
AcDbPolyline
90
8
70
1
43
0.0
10
1066.9953078419085
20
554.65754447816687
10
1079.7112267986831
20
557.36039668153546
42
0.41421344058118703
10
1080.0963444201534
20
557.95342636858368
10
1077.3934924201537
20
570.66934536858344
42
0.41421298938759471
10
1076.8004636466505
20
571.05446339679031
10
1064.0845447971869
20
568.35161121623219
42
0.41421356237343804
10
1063.6994268422293
20
567.75858157045627
10
1066.4022786616711
20
555.04266341991968
42
0.4142136841638685
0
LWPOLYLINE
5
128
100
AcDbEntity
8
0
100
AcDbPolyline
90
8
70
1
43
0.0
10
1113.8775526898778
20
534.0491806383078
42
-0.41421349810855701
10
1113.4924348422289
20
534.64221026127416
10
1116.1952868422293
20
547.35812926127403
42
-0.41421356237338264
10
1116.7883164880052
20
547.74324721623213
10
1129.5042344880048
20
545.04039521623258
42
-0.4142136266375866
10
1129.8893524201535
20
544.44736546314675
10
1127.1865004201536
20
531.73144646314677
42
-0.41421298938743795
10
1126.5934716466504
20
531.34632843494023
0
LWPOLYLINE
5
129
100
AcDbEntity
8
0
100
AcDbPolyline
90
8
70
1
43
0.0
10
1049.5476057971873
20
584.7372782162322
42
-0.41421356237334794
10
1050.140635442963
20
584.35216026127421
10
1052.8434874429629
20
571.63624126127411
42
-0.41421356237283347
10
1052.4583694880048
20
571.04321161549819
10
1039.742450488005
20
568.3403596154983
42
-0.41421356237288282
10
1039.1494208422291
20
568.72547757045641
10
1036.4465688650382
20
581.44139646314693
42
-0.41421362663819988
10
1036.8316867971871
20
582.03442621623219
0
LWPOLYLINE
5
130
100
AcDbEntity
8
0
100
AcDbPolyline
90
8
70
1
43
0.0
10
1177.7314984201535
20
540.46336446314695
42
-0.41421349810820535
10
1177.1384687971872
20
540.0782466154983
10
1164.422549797187
20
542.78109861549842
42
-0.41421362663767675
10
1164.0374318650386
20
543.37412836858357
10
1166.7402838650387
20
556.09004736858355
42
-0.4142134981082547
10
1167.3333134880049
20
556.4751652162322
10
1180.0492324880047
20
553.77231321623208
42
-0.41421356237326651
10
1180.434350442963
20
553.17928357045639
0
LWPOLYLINE
5
131
100
AcDbEntity
8
0
100
AcDbPolyline
90
8
70
1
43
0.0
10
1226.1319176425964
20
574.17499541586517
42
-0.41421356237330315
10
1226.6319176425961
20
573.67499541586528
10
1226.6319176425961
20
560.67499541586517
42
-0.41421356237321988
10
1226.1319176425959
20
560.17499541586528
10
1213.1319176425961
20
560.17499541586528
42
-0.41421356237330315
10
1212.6319176425959
20
560.67499541586517
10
1212.6319176425959
20
573.67499541586528
42
-0.4142135623730534
10
1213.1319176425961
20
574.17499541586517
0
LWPOLYLINE
5
132
100
AcDbEntity
8
0
100
AcDbPolyline
90
8
70
1
43
0.0
10
1054.9037437971874
20
605.3513482162324
10
1042.1878247971872
20
602.64849621623216
42
0.41421362663792105
10
1041.8027068650381
20
602.0554664631469
10
1044.5055588650384
20
589.33954746314703
42
0.41421356237343804
10
1045.0985885953146
20
588.95442963830749
10
1057.8145075953144
20
591.65728163830772
42
0.41421356237368234
10
1058.1996254201536
20
592.25031136858365
10
1055.4967734201534
20
604.96623036858352
42
0.41421349810865571
0
LWPOLYLINE
5
133
100
AcDbEntity
8
0
100
AcDbPolyline
90
8
70
1
43
0.0
10
897.37816764259605
20
536.36249541586517
10
910.37816764259605
20
536.3624954158654
42
0.41421356237267881
10
910.87816764259605
20
536.86249541586517
10
910.87816764259583
20
549.86249541586528
42
0.4142135623731783
10
910.37816764259605
20
550.36249541586517
10
897.37816764259605
20
550.36249541586517
42
0.41421356237276202
10
896.87816764259594
20
549.8624954158654
10
896.87816764259594
20
536.86249541586528
42
0.41421356237326151
0
LWPOLYLINE
5
134
100
AcDbEntity
8
0
100
AcDbPolyline
90
8
70
1
43
0.0
10
1058.1667517971871
20
567.09374521623215
42
-0.41421356237262991
10
1058.7597814429632
20
566.70862726127416
10
1061.4626334429631
20
553.99270826127395
42
-0.41421394930300881
10
1061.0775148419086
20
553.39967847816683
10
1048.3615967986834
20
550.69682668153507
42
-0.41421425715068189
10
1047.768566661671
20
551.08194541991963
10
1045.065714842229
20
563.79786357045657
42
-0.41421356237254847
10
1045.4508327971871
20
564.39089321623214
0
LWPOLYLINE
5
135
100
AcDbEntity
8
0
100
AcDbPolyline
90
8
70
1
43
0.0
10
1034.2097754201536
20
567.67552336858353
42
-0.41421344058076259
10
1033.8246577986833
20
567.08249368153542
10
1021.1087387986831
20
564.37964168153508
42
-0.41421425715063254
10
1020.5157086616708
20
564.76476041991975
10
1017.8128568650386
20
577.48067846314689
42
-0.41421356237321716
10
1018.1979746898777
20
578.07370819342304
10
1030.9138936898776
20
580.77656019342282
42
-0.41421356237299628
10
1031.5069234201537
20
580.39144236858351
0
LWPOLYLINE
5
136
100
AcDbEntity
8
0
100
AcDbPolyline
90
8
70
1
43
0.0
10
1003.8704465953144
20
599.66670763830757
10
1016.5863655953143
20
602.36955963830792
42
0.41421356237332463
10
1016.9714834201534
20
602.96258936858362
10
1014.2686314201537
20
615.67850836858361
42
0.4142135623732579
10
1013.6756016898778
20
616.06362619342269
10
1000.9596827971872
20
613.36077421623224
42
0.41421356237298157
10
1000.5745648422294
20
612.76774457045656
10
1003.277416908266
20
600.05182525977818
42
0.41421344058117837
0
LWPOLYLINE
5
137
100
AcDbEntity
8
0
100
AcDbPolyline
90
8
70
1
43
0.0
10
1023.1689948422292
20
598.09475057045654
10
1025.8718468650384
20
585.37883146314687
42
0.41421349810823133
10
1026.4648764880051
20
584.99371361549822
10
1039.1807954880048
20
587.69656561549812
42
0.41421362663800249
10
1039.5659134201539
20
588.28959536858372
10
1036.863061442963
20
601.00551426127402
42
0.41421362663806049
10
1036.2700316898777
20
601.39063219342302
10
1023.5541126898775
20
598.68778019342267
42
0.41421349810834479
0
LWPOLYLINE
5
138
100
AcDbEntity
8
0
100
AcDbPolyline
90
8
70
1
43
0.0
10
982.60316764259585
20
535.57499541586526
42
-0.4142135623730534
10
983.10316764259596
20
536.07499541586526
10
996.10316764259608
20
536.07499541586537
42
-0.41421356237297013
10
996.60316764259596
20
535.57499541586526
10
996.60316764259608
20
522.57499541586515
42
-0.41421356237292856
10
996.10316764259608
20
522.07499541586526
10
983.10316764259596
20
522.07499541586526
42
-0.41421356237338641
10
982.60316764259596
20
522.57499541586515
0
LWPOLYLINE
5
139
100
AcDbEntity
8
0
100
AcDbPolyline
90
8
70
1
43
0.0
10
1134.4102264201538
20
588.62276246314673
42
-0.41421356237297291
10
1133.8171966898776
20
588.23764463830764
10
1121.1012786466508
20
590.94049643494054
42
-0.41421407109344049
10
1120.7161598422292
20
591.53352626127423
10
1123.4190118422291
20
604.24944526127422
42
-0.41421356237305429
10
1124.012041488005
20
604.63456321623221
10
1136.727960488005
20
601.93171121623254
42
-0.41421356237302226
10
1137.1130784429629
20
601.33868157045629
0
LWPOLYLINE
5
140
100
AcDbEntity
8
0
100
AcDbPolyline
90
8
70
1
43
0.0
10
1005.7380345953143
20
522.16132163830775
10
1018.4539535953145
20
524.86417363830776
42
0.41421356237323448
10
1018.8390714201535
20
525.45720336858369
10
1016.136219442963
20
538.17312226127422
42
0.41421362663794697
10
1015.5431896898779
20
538.55824019342276
10
1002.8272706898779
20
535.85538819342287
42
0.41421349810808322
10
1002.4421528422289
20
535.2623585704564
10
1005.1450048650385
20
522.54643946314695
42
0.41421356237314438
0
LWPOLYLINE
5
141
100
AcDbEntity
8
0
100
AcDbPolyline
90
8
70
1
43
0.0
10
1173.2976736385417
20
613.63416639679042
42
-0.41421425715136795
10
1173.6827923769263
20
613.04113625977823
10
1170.9799403769264
20
600.32521725977824
42
-0.41421344058075393
10
1170.3869106898776
20
599.94009963830786
10
1157.6709916898776
20
602.64295163830764
42
-0.41421349810828678
10
1157.2858738422292
20
603.23598126127422
10
1159.9887258422289
20
615.9519002612742
42
-0.41421362663788031
10
1160.5817555953147
20
616.33701819342286
0
LWPOLYLINE
5
142
100
AcDbEntity
8
0
100
AcDbPolyline
90
8
70
1
43
0.0
10
1199.938167642596
20
555.12499541586544
10
1186.938167642596
20
555.12499541586544
42
0.41421356237346962
10
1186.438167642596
20
554.62499541586544
10
1186.438167642596
20
541.62499541586544
42
0.41421356237301177
10
1186.938167642596
20
541.12499541586533
10
1199.938167642596
20
541.12499541586533
42
0.41421356237292856
10
1200.4381676425962
20
541.62499541586544
10
1200.4381676425962
20
554.62499541586533
42
0.41421356237301177
0
LWPOLYLINE
5
143
100
AcDbEntity
8
0
100
AcDbPolyline
90
8
70
1
43
0.0
10
915.64066764259587
20
517.81249541586544
42
-0.41421356237334478
10
915.1406676425961
20
517.31249541586544
10
902.14066764259633
20
517.31249541586544
42
-0.41421356237297013
10
901.6406676425961
20
517.81249541586544
10
901.64066764259587
20
530.81249541586533
42
-0.41421356237321988
10
902.14066764259633
20
531.31249541586544
10
915.1406676425961
20
531.31249541586544
42
-0.41421356237292856
10
915.64066764259587
20
530.81249541586533
0
LWPOLYLINE
5
144
100
AcDbEntity
8
0
100
AcDbPolyline
90
8
70
1
43
0.0
10
1004.535282842229
20
594.13403257045638
42
-0.41421407109424008
10
1004.9204016466506
20
594.7270623967903
10
1017.6363197971873
20
597.42991421623208
42
-0.41421356237300494
10
1018.229349442963
20
597.04479626127397
10
1020.932201442963
20
584.32887726127422
42
-0.41421356237249912
10
1020.547083488005
20
583.7358476154983
10
1007.8311644880048
20
581.03299561549795
42
-0.41421337631584632
10
1007.238134908266
20
581.41811325977801
0
LWPOLYLINE
5
145
100
AcDbEntity
8
0
100
AcDbPolyline
90
8
70
1
43
0.0
10
1182.175667642596
20
579.22499541586535
10
1195.1756676425962
20
579.22499541586535
42
0.41421356237330315
10
1195.675667642596
20
579.72499541586535
10
1195.675667642596
20
592.72499541586535
42
0.41421356237288692
10
1195.1756676425962
20
593.22499541586535
10
1182.175667642596
20
593.22499541586535
42
0.41421356237297013
10
1181.675667642596
20
592.72499541586535
10
1181.675667642596
20
579.72499541586535
42
0.41421356237321988
0
LWPOLYLINE
5
146
100
AcDbEntity
8
0
100
AcDbPolyline
90
8
70
1
43
0.0
10
982.60316764259585
20
592.72499541586535
10
982.60316764259596
20
579.72499541586535
42
0.4142135623731783
10
983.10316764259596
20
579.22499541586524
10
996.10316764259608
20
579.22499541586512
42
0.41421356237321988
10
996.60316764259608
20
579.72499541586524
10
996.60316764259608
20
592.72499541586535
42
0.41421356237334478
10
996.10316764259608
20
593.22499541586535
10
983.10316764259608
20
593.22499541586535
42
0.41421356237326151
0
LWPOLYLINE
5
147
100
AcDbEntity
8
0
100
AcDbPolyline
90
8
70
1
43
0.0
10
906.11566764259578
20
555.91249541586524
42
-0.41421356237330315
10
905.61566764259601
20
555.41249541586535
10
892.61566764259612
20
555.41249541586512
42
-0.41421356237292856
10
892.11566764259601
20
555.91249541586524
10
892.11566764259601
20
568.91249541586535
42
-0.41421356237284529
10
892.61566764259612
20
569.41249541586535
10
905.61566764259601
20
569.41249541586535
42
-0.41421356237280366
10
906.11566764259589
20
568.91249541586524
0
LWPOLYLINE
5
148
100
AcDbEntity
8
0
100
AcDbPolyline
90
8
70
1
43
0.0
10
1164.4539244201537
20
523.8100124631469
42
-0.41421356237318513
10
1163.8608946898776
20
523.42489463830748
10
1151.1449757971873
20
526.12774661549838
42
-0.41421356237312712
10
1150.7598578422294
20
526.72077626127395
10
1153.4627098650385
20
539.43669536858374
42
-0.41421356237328993
10
1154.0557395953144
20
539.82181319342283
10
1166.7716585953146
20
537.11896119342305
42
-0.41421356237277546
10
1167.1567764201536
20
536.52593146314689
0
LWPOLYLINE
5
149
100
AcDbEntity
8
0
100
AcDbPolyline
90
8
70
1
43
0.0
10
919.90316764259637
20
597.98749541586551
42
-0.41421356237255391
10
920.40316764259615
20
597.48749541586517
10
920.40316764259615
20
584.48749541586517
42
-0.41421356237338641
10
919.90316764259615
20
583.98749541586528
10
906.90316764259592
20
583.98749541586528
42
-0.41421356237330315
10
906.40316764259615
20
584.48749541586517
10
906.40316764259615
20
597.48749541586528
42
-0.41421356237313667
10
906.90316764259592
20
597.9874954158654
0
LWPOLYLINE
5
150
100
AcDbEntity
8
0
100
AcDbPolyline
90
8
70
1
43
0.0
10
906.40316764259592
20
616.53749541586524
10
906.40316764259615
20
603.53749541586535
42
0.41421356237313667
10
906.90316764259592
20
603.03749541586501
10
919.90316764259615
20
603.03749541586524
42
0.41421356237292856
10
920.40316764259615
20
603.53749541586535
10
920.40316764259615
20
616.53749541586512
42
0.41421356237309503
10
919.90316764259603
20
617.03749541586535
10
906.90316764259615
20
617.03749541586535
42
0.41421356237284529
0
LWPOLYLINE
5
151
100
AcDbEntity
8
0
100
AcDbPolyline
90
8
70
1
43
0.0
10
963.55316764259578
20
535.57499541586526
42
-0.4142135623730534
10
964.05316764259601
20
536.07499541586526
10
977.05316764259601
20
536.07499541586526
42
-0.41421356237288692
10
977.55316764259589
20
535.57499541586526
10
977.55316764259601
20
522.57499541586515
42
-0.41421356237292856
10
977.05316764259601
20
522.07499541586526
10
964.05316764259567
20
522.07499541586537
42
-0.41421356237297013
10
963.55316764259578
20
522.57499541586526
0
LWPOLYLINE
5
152
100
AcDbEntity
8
0
100
AcDbPolyline
90
8
70
1
43
0.0
10
1029.7278845953144
20
546.73610963830765
10
1042.4438035953144
20
549.43896163830766
42
0.41421298938770823
10
1042.8289216235212
20
550.03199041181097
10
1040.1260694201537
20
562.74790936858358
42
0.41421356237331597
10
1039.5330396898776
20
563.13302719342323
10
1026.8171207971873
20
560.43017521623221
42
0.41421305365207761
10
1026.432002661671
20
559.83714641991969
10
1029.1348548650387
20
547.12122746314685
42
0.41421356237332463
0
LWPOLYLINE
5
153
100
AcDbEntity
8
0
100
AcDbPolyline
90
8
70
1
43
0.0
10
1097.1114286898776
20
615.51528463830766
42
-0.4142135623730136
10
1096.7263108650386
20
616.10831436858371
10
1099.4291626616709
20
628.82423241181095
42
-0.41421368416424359
10
1100.0221918419086
20
629.20935135356353
10
1112.7381104880051
20
626.50649921623221
42
-0.41421362663801109
10
1113.1232284201537
20
625.91346946314718
10
1110.4203764201534
20
613.19755046314685
42
-0.41421298938780693
10
1109.8273476466507
20
612.81243243494055
0
LWPOLYLINE
5
154
100
AcDbEntity
8
0
100
AcDbPolyline
90
8
70
1
43
0.0
10
1171.6776504429627
20
580.70132657045656
42
-0.41421374843023739
10
1171.0846204865088
20
580.31620868153504
10
1158.3687014865088
20
583.01906068153528
42
-0.41421337631649163
10
1157.9835838422291
20
583.61209026127415
10
1160.6864358422292
20
596.32800926127413
42
-0.41421356237315304
10
1161.2794654880049
20
596.71312721623212
10
1173.9953844880049
20
594.01027521623223
42
-0.41421356237351947
10
1174.380502442963
20
593.41724557045654
0
LWPOLYLINE
5
155
100
AcDbEntity
8
0
100
AcDbPolyline
90
8
70
1
43
0.0
10
1011.0941724880049
20
542.77539161549828
10
1023.810091488005
20
545.4782436154984
42
0.4142135623735515
10
1024.1952094429632
20
546.07127326127409
10
1021.4923576235212
20
558.78719141181068
42
0.41421425715075466
10
1020.8993274865088
20
559.17231015019547
10
1008.1834084865091
20
556.46945815019546
42
0.41421344058093412
10
1007.7982908650387
20
555.87642846314702
10
1010.5011428422291
20
543.16050957045627
42
0.41421356237275203
0
LWPOLYLINE
5
156
100
AcDbEntity
8
0
100
AcDbPolyline
90
8
70
1
43
0.0
10
1199.938167642596
20
574.17499541586517
10
1186.938167642596
20
574.17499541586517
42
0.41421356237355289
10
1186.438167642596
20
573.67499541586528
10
1186.438167642596
20
560.67499541586528
42
0.4142135623736361
10
1186.938167642596
20
560.17499541586528
10
1199.938167642596
20
560.1749954158654
42
0.41421356237330315
10
1200.438167642596
20
560.67499541586517
10
1200.4381676425962
20
573.67499541586528
42
0.41421356237346962
0
LWPOLYLINE
5
157
100
AcDbEntity
8
0
100
AcDbPolyline
90
8
70
1
43
0.0
10
991.84066764259592
20
560.67499541586517
42
-0.4142135623731783
10
991.34066764259603
20
560.1749954158654
10
978.34066764259603
20
560.17499541586506
42
-0.41421356237334478
10
977.84066764259603
20
560.67499541586517
10
977.84066764259592
20
573.67499541586528
42
-0.4142135623730534
10
978.34066764259603
20
574.17499541586517
10
991.34066764259592
20
574.17499541586528
42
-0.41421356237297013
10
991.84066764259592
20
573.67499541586528
0
LWPOLYLINE
5
158
100
AcDbEntity
8
0
100
AcDbPolyline
90
8
70
1
43
0.0
10
1145.091127797187
20
566.36570761549831
42
-0.41421305365222316
10
1144.7060096616708
20
566.95873641181083
10
1147.4088618650387
20
579.67465536858344
42
-0.41421356237288282
10
1148.0018915953144
20
580.05977319342276
10
1160.7178105953144
20
577.35692119342275
42
-0.41421349810822267
10
1161.1029284429628
20
576.76389157045651
10
1158.4000764429632
20
564.04797357045641
42
-0.41421356237328993
10
1157.8070467971875
20
563.66285561549819
0
LWPOLYLINE
5
159
100
AcDbEntity
8
0
100
AcDbPolyline
90
8
70
1
43
0.0
10
925.95316764259587
20
603.03749541586535
42
-0.41421356237309503
10
925.45316764259621
20
603.53749541586535
10
925.4531676425961
20
616.53749541586524
42
-0.41421356237321988
10
925.95316764259587
20
617.03749541586535
10
938.9531676425961
20
617.03749541586535
42
-0.41421356237359452
10
939.4531676425961
20
616.53749541586524
10
939.45316764259587
20
603.53749541586535
42
-0.41421356237355289
10
938.95316764259587
20
603.03749541586535
0
LWPOLYLINE
5
160
100
AcDbEntity
8
0
100
AcDbPolyline
90
115
70
1
43
0.0
10
1172.1506686425955
20
623.03749441586535
10
1172.1506676425956
20
625.03749341586501
10
1172.1506676425956
20
625.53749441586535
42
-0.41421356237315748
10
1173.1506676425959
20
626.53749441586535
10
1231.1506676425961
20
626.53749441586535
42
-0.41421356237309503
10
1232.1506676425961
20
625.53749441586501
10
1232.1506676425954
20
623.03749441586535
42
0.41421326947996556
10
1233.1506676425961
20
622.03749541586444
10
1242.7756656425959
20
622.03749441586535
42
-0.41421356237319906
10
1243.7756676425961
20
621.03749441586524
10
1243.7756676425961
20
513.31249641586544
42
-0.41421356237309503
10
1242.7756676425961
20
512.31249441586544
10
1233.1506676425961
20
512.31249441586544
42
0.41421356237319906
10
1232.1506676425961
20
511.31249441586533
10
1232.1506666425962
20
509.31249541586533
10
1232.1506666425962
20
508.81249441586539
42
-0.41421356237313667
10
1231.1506666425962
20
507.81249441586533
10
1173.1506666425962
20
507.81249441586533
42
-0.41421356237307422
10
1172.1506666425962
20
508.81249441586533
10
1172.1506666425962
20
509.31249541586533
10
1172.1506686425957
20
511.31249441586539
42
0.41421326948019604
10
1171.1506676425961
20
512.31249441586544
10
1096.3706657942089
20
512.31249484675573
42
-0.41421356068525578
10
1095.370665799971
20
513.31249484675584
10
1095.3706657999708
20
537.36549255191892
42
-0.47697553221087963
10
1095.9746216446026
20
537.85456635245077
10
1107.9597596898775
20
535.30704663830772
42
0.4142134405809107
10
1108.5527893769263
20
535.69216425977834
10
1111.255641376926
20
548.40808325977798
42
0.41421374843029546
10
1110.8705234880049
20
549.00111321623217
10
1098.1546044880049
20
551.70396521623206
42
0.41421407109460034
10
1097.5615746616709
20
551.31884641181091
10
1097.0513739092266
20
548.91854057123294
42
-0.35411857297773974
10
1096.5623001086947
20
548.52249641586491
10
1072.7680486778549
20
548.52249641586513
42
-0.3541185684781763
10
1072.2789748789855
20
548.91854056341128
10
1072.0373544201536
20
550.05527536858369
42
0.4142129893876268
10
1071.4443256466504
20
550.44039339679034
10
1058.7284066898778
20
547.73754119342289
42
0.4142129893875281
10
1058.3432886616708
20
547.14451241991969
10
1061.0461408650385
20
534.42859346314685
42
0.41421298938742324
10
1061.6391696385415
20
534.04347543493998
10
1073.5267098360159
20
536.57025028499947
42
-0.47697553711833174
10
1074.1306656884697
20
536.08117648612983
10
1074.1306656884697
20
513.31249498066745
42
-0.41421356406083021
10
1073.1306656827076
20
512.31249498066734
10
997.60316764259619
20
512.31249541586476
42
0.41421356237319906
10
996.60316764259619
20
511.31249541586476
10
996.60316864259607
20
509.31249541586482
10
996.60316864259607
20
508.81249441586471
42
-0.4142135623731783
10
995.60316864259607
20
507.81249441586465
10
937.60316664259608
20
507.81249441586448
42
-0.4142135623730534
10
936.60316664259608
20
508.81249441586453
10
936.60316664259608
20
509.31249541586482
10
936.60316764259665
20
511.31249641586476
42
0.41421356237251233
10
935.60316664259801
20
512.31249541586544
10
883.3531686425963
20
512.31249441586453
42
-0.41421356237307422
10
882.35316764259608
20
513.31249541586453
10
882.35316864259573
20
621.03749441586456
42
-0.41421356237315748
10
883.35316764259574
20
622.03749541586467
10
935.60316764259585
20
622.03749541586478
42
0.41421356237313667
10
936.60316764259596
20
623.03749541586478
10
936.60316764259574
20
625.53749441586467
42
-0.41421356237321988
10
937.60316764259585
20
626.5374944158649
10
995.60316764259596
20
626.53749441586478
42
-0.4142135623732407
10
996.60316764259574
20
625.53749441586478
10
996.60316764259596
20
623.03749541586501
42
0.41421326947944526
10
997.60316664259403
20
622.03749541586535
10
1017.6266696425961
20
622.0374944158649
42
0.052407787643282827
10
1017.8345818037133
20
622.05934665785867
10
1029.7959273628971
20
624.60181246324794
42
-0.41421355973893004
10
1030.9819868327309
20
623.83157683953891
10
1031.2106928650385
20
622.75561146314681
10
1035.1922018650387
20
604.02408546314678
42
0.41421356237322582
10
1035.7852315953144
20
603.63896763830769
10
1041.6541164880048
20
604.88643761549849
42
0.41421305365294125
10
1042.0392346235215
20
605.47946641181079
10
1041.6753890859868
20
607.19122490813174
42
-0.41421356891975858
10
1042.0605070395632
20
607.78425456422735
10
1057.589578717548
20
611.08506062024128
42
-0.41421355132046211
10
1058.1826083587889
20
610.69994268279652
10
1058.5464538422293
20
608.98818457045638
42
0.4142135623732579
10
1059.1394834880048
20
608.60306661549828
10
1065.0083684880051
20
609.85053661549853
42
0.4142135623730136
10
1065.3934864429627
20
610.44356626127421
10
1061.4119783769261
20
629.17509357195252
10
1060.7674481644244
20
632.20735931422564
10
1060.247672511603
20
634.65272007621377
42
-0.41421356237310675
10
1061.0179092673984
20
635.83877881844421
10
1078.2102755365672
20
639.493116264278
42
-0.052407600497203437
10
1078.4181865297844
20
639.51496851526474
10
1097.1254306426401
20
639.51496851526474
42
-0.05240774594787969
10
1097.3333422033884
20
639.49311614364569
10
1120.2270890657062
20
634.62690320869228
42
-0.41421330026360187
10
1120.997325319398
20
633.44084489490535
10
1120.8933696425961
20
632.95176941586521
10
1119.8330208650384
20
627.96321736858363
10
1115.8515118650384
20
609.2316913685836
42
0.41421362663759537
10
1116.2366297971873
20
608.63866161549811
10
1122.1055147971874
20
607.39119161549854
42
0.41421356237351953
10
1122.6985444429629
20
607.77630957045653
10
1123.0623899264033
20
609.48806768279644
42
-0.41421355132047077
10
1123.6554195676442
20
609.87318562024132
10
1139.1844914268224
20
606.57237952571325
42
-0.41421356512538965
10
1139.5696093817451
20
605.9793498759534
10
1139.2057638422293
20
604.26759126127411
42
0.41421356237302226
10
1139.5908817971872
20
603.67456161549831
10
1145.4597667971875
20
602.42709161549828
42
0.41421356237296425
10
1146.052796442963
20
602.8122095704565
10
1150.0343054429629
20
621.54373657045642
10
1150.2630080354684
20
622.61969867994571
42
-0.41421356564193257
10
1151.4490673188559
20
623.38993461692257
10
1157.7089836425957
20
622.05934841586486
42
0.052407641199823878
10
1157.9168946425959
20
622.03749614710023
10
1171.1506676425959
20
622.03749441586535
42
0.41421326948017523
0
LWPOLYLINE
5
161
100
AcDbEntity
8
0
100
AcDbPolyline
90
8
70
1
43
0.0
10
1204.700667642596
20
396.07499541586554
42
-0.41421356237292856
10
1205.200667642596
20
395.57499541586532
10
1205.200667642596
20
382.5749954158652
42
-0.41421356237321988
10
1204.700667642596
20
382.0749954158652
10
1191.7006676425963
20
382.07499541586515
42
-0.41421356237297013
10
1191.200667642596
20
382.5749954158652
10
1191.200667642596
20
395.57499541586537
42
-0.41421356237346962
10
1191.700667642596
20
396.07499541586543
0
LWPOLYLINE
5
162
100
AcDbEntity
8
0
100
AcDbPolyline
90
8
70
1
43
0.0
10
964.05316764259567
20
439.22499541586541
42
-0.41421356237297013
10
963.55316764259601
20
439.72499541586546
10
963.55316764259578
20
452.72499541586541
42
-0.41421356237338641
10
964.05316764259601
20
453.22499541586535
10
977.05316764259578
20
453.22499541586546
42
-0.41421356237330315
10
977.55316764259589
20
452.72499541586541
10
977.55316764259589
20
439.72499541586546
42
-0.41421356237297013
10
977.05316764259589
20
439.22499541586541
0
LWPOLYLINE
5
163
100
AcDbEntity
8
0
100
AcDbPolyline
90
8
70
1
43
0.0
10
1200.4381676425962
20
401.6249954158655
10
1200.4381676425962
20
414.62499541586533
42
0.41421356237309503
10
1199.938167642596
20
415.12499541586533
10
1186.938167642596
20
415.12499541586544
42
0.41421356237334478
10
1186.438167642596
20
414.62499541586533
10
1186.438167642596
20
401.62499541586533
42
0.41421356237297013
10
1186.938167642596
20
401.12499541586538
10
1199.9381676425962
20
401.12499541586538
42
0.41421356237334478
0
LWPOLYLINE
5
164
100
AcDbEntity
8
0
100
AcDbPolyline
90
8
70
1
43
0.0
10
978.34066764259603
20
420.17499541586528
10
991.34066764259603
20
420.1749954158654
42
0.4142135623731783
10
991.84066764259592
20
420.67499541586523
10
991.84066764259592
20
433.67499541586534
42
0.4142135623730534
10
991.34066764259603
20
434.17499541586523
10
978.34066764259603
20
434.1749954158654
42
0.41421356237309503
10
977.84066764259592
20
433.67499541586534
10
977.84066764259603
20
420.67499541586523
42
0.41421356237301177
0
LWPOLYLINE
5
165
100
AcDbEntity
8
0
100
AcDbPolyline
90
8
70
1
43
0.0
10
1199.9381676425965
20
434.17499541586545
42
-0.41421356237297013
10
1200.4381676425962
20
433.67499541586528
10
1200.438167642596
20
420.67499541586523
42
-0.41421356237330315
10
1199.938167642596
20
420.1749954158654
10
1186.9381676425962
20
420.17499541586517
42
-0.41421356237338641
10
1186.438167642596
20
420.67499541586534
10
1186.438167642596
20
433.67499541586534
42
-0.4142135623731783
10
1186.938167642596
20
434.17499541586517
0
LWPOLYLINE
5
166
100
AcDbEntity
8
0
100
AcDbPolyline
90
8
70
1
43
0.0
10
1042.8289216235212
20
410.03199041181085
42
-0.41421298938761814
10
1042.4438035953144
20
409.43896163830766
10
1029.7278845953144
20
406.73610963830765
42
-0.41421356237312712
10
1029.1348548650385
20
407.12122746314697
10
1026.4320026616708
20
419.8371464199198
42
-0.41421305365210964
10
1026.8171207971873
20
420.43017521623221
10
1039.5330396898776
20
423.13302719342312
42
-0.414213562373348
10
1040.1260694201537
20
422.74790936858369
0
LWPOLYLINE
5
167
100
AcDbEntity
8
0
100
AcDbPolyline
90
8
70
1
43
0.0
10
1011.0941724880049
20
402.77539161549839
10
1023.8100914880049
20
405.47824361549851
42
0.41421356237353679
10
1024.1952094429632
20
406.0712732612742
10
1021.4923576235212
20
418.78719141181074
42
0.41421425715144938
10
1020.8993274865088
20
419.17231015019547
10
1008.1834084865089
20
416.46945815019541
42
0.41421344058092546
10
1007.7982908650387
20
415.87642846314691
10
1010.5011428422291
20
403.1605095704565
42
0.41421356237288282
0
LWPOLYLINE
5
168
100
AcDbEntity
8
0
100
AcDbPolyline
90
8
70
1
43
0.0
10
1160.686435842229
20
456.32800926127425
42
-0.41421356237306295
10
1161.2794654880049
20
456.71312721623218
10
1173.9953844880049
20
454.01027521623223
42
-0.41421356237309503
10
1174.380502442963
20
453.41724557045654
10
1171.6776504429629
20
440.70132657045656
42
-0.41421374842998449
10
1171.0846204865088
20
440.31620868153504
10
1158.3687014865088
20
443.01906068153534
42
-0.41421337631645094
10
1157.9835838422291
20
443.6120902612742
0
LWPOLYLINE
5
169
100
AcDbEntity
8
0
100
AcDbPolyline
90
8
70
1
43
0.0
10
1097.1114286898776
20
475.51528463830772
10
1109.8273476466507
20
472.81243243494043
42
0.41421298938795248
10
1110.4203764201536
20
473.19755046314691
10
1113.1232284201537
20
485.91346946314707
42
0.41421362663814187
10
1112.7381104880051
20
486.5064992162321
10
1100.0221918419086
20
489.20935135356365
42
0.4142136841643077
10
1099.4291626616709
20
488.82423241181084
10
1096.7263108650386
20
476.10831436858376
42
0.41421356237300494
0
LWPOLYLINE
5
170
100
AcDbEntity
8
0
100
AcDbPolyline
90
8
70
1
43
0.0
10
1021.1087387986832
20
424.37964168153536
42
-0.41421425715042898
10
1020.5157086616709
20
424.76476041991975
10
1017.8128568650385
20
437.480678463147
42
-0.41421356237326651
10
1018.1979746898778
20
438.07370819342287
10
1030.9138936898776
20
440.77656019342277
42
-0.41421356237300494
10
1031.5069234201537
20
440.39144236858368
10
1034.2097754201538
20
427.67552336858381
42
-0.41421344058082926
10
1033.8246577986831
20
427.08249368153537
0
LWPOLYLINE
5
171
100
AcDbEntity
8
0
100
AcDbPolyline
90
8
70
1
43
0.0
10
925.95316764259587
20
463.03749541586541
10
938.9531676425961
20
463.03749541586541
42
0.41421356237330315
10
939.45316764259599
20
463.53749541586529
10
939.45316764259587
20
476.53749541586535
42
0.4142135623731783
10
938.9531676425961
20
477.03749541586541
10
925.95316764259587
20
477.03749541586541
42
0.41421356237334478
10
925.45316764259599
20
476.53749541586541
10
925.4531676425961
20
463.53749541586546
42
0.41421356237321988
0
LWPOLYLINE
5
172
100
AcDbEntity
8
0
100
AcDbPolyline
90
8
70
1
43
0.0
10
897.37816764259605
20
396.36249541586517
10
910.37816764259617
20
396.3624954158654
42
0.41421356237259555
10
910.87816764259605
20
396.86249541586511
10
910.87816764259583
20
409.86249541586528
42
0.4142135623731783
10
910.37816764259605
20
410.36249541586523
10
897.37816764259617
20
410.36249541586523
42
0.41421356237313667
10
896.87816764259594
20
409.8624954158654
10
896.87816764259605
20
396.8624954158654
42
0.41421356237326151
0
LWPOLYLINE
5
173
100
AcDbEntity
8
0
100
AcDbPolyline
90
8
70
1
43
0.0
10
920.40316764259603
20
463.53749541586535
10
920.40316764259615
20
476.53749541586535
42
0.41421356237297013
10
919.90316764259603
20
477.03749541586541
10
906.90316764259603
20
477.03749541586541
42
0.41421356237330315
10
906.40316764259615
20
476.53749541586535
10
906.40316764259615
20
463.53749541586546
42
0.41421356237321988
10
906.90316764259592
20
463.03749541586512
10
919.90316764259603
20
463.03749541586535
42
0.4142135623731783
0
LWPOLYLINE
5
174
100
AcDbEntity
8
0
100
AcDbPolyline
90
8
70
1
43
0.0
10
1145.0911277971873
20
426.36570761549831
10
1157.8070467971872
20
423.66285561549853
42
0.41421356237330725
10
1158.4000764429629
20
424.04797357045646
10
1161.1029284429628
20
436.76389157045651
42
0.41421349810858904
10
1160.7178105953144
20
437.35692119342281
10
1148.0018915953146
20
440.0597731934227
42
0.4142135623730136
10
1147.4088618650385
20
439.67465536858361
10
1144.706009661671
20
426.95873641181095
42
0.41421305365232186
0
LWPOLYLINE
5
175
100
AcDbEntity
8
0
100
AcDbPolyline
90
8
70
1
43
0.0
10
1048.3615967986834
20
410.69682668153507
42
-0.41421425715051041
10
1047.768566661671
20
411.08194541991969
10
1045.0657148422292
20
423.7978635704564
42
-0.41421356237296425
10
1045.4508327971873
20
424.39089321623237
10
1058.1667517971871
20
427.09374521623226
42
-0.414213562372377
10
1058.7597814429632
20
426.70862726127439
10
1061.4626334429631
20
413.99270826127429
42
-0.41421394930292743
10
1061.0775148419086
20
413.399678478167
0
LWPOLYLINE
5
176
100
AcDbEntity
8
0
100
AcDbPolyline
90
8
70
1
43
0.0
10
1164.422549797187
20
402.78109861549859
10
1177.1384687971872
20
400.07824661549847
42
0.41421349810810049
10
1177.7314984201535
20
400.46336446314689
10
1180.4343504429633
20
413.17928357045651
42
0.41421356237308637
10
1180.0492324880047
20
413.77231321623196
10
1167.3333134880047
20
416.47516521623226
42
0.4142134981084028
10
1166.7402838650387
20
416.09004736858373
10
1164.0374318650388
20
403.37412836858368
42
0.41421362663741518
0
LWPOLYLINE
5
177
100
AcDbEntity
8
0
100
AcDbPolyline
90
8
70
1
43
0.0
10
1212.6319176425959
20
433.67499541586534
42
-0.41421356237309503
10
1213.1319176425961
20
434.1749954158654
10
1226.1319176425959
20
434.17499541586545
42
-0.41421356237313667
10
1226.6319176425961
20
433.67499541586528
10
1226.6319176425961
20
420.67499541586523
42
-0.41421356237301177
10
1226.1319176425961
20
420.17499541586517
10
1213.1319176425961
20
420.17499541586545
42
-0.41421356237342799
10
1212.6319176425959
20
420.67499541586528
0
LWPOLYLINE
5
178
100
AcDbEntity
8
0
100
AcDbPolyline
90
8
70
1
43
0.0
10
1102.4675667971874
20
454.90121461549853
42
-0.41421356237313572
10
1102.082448842229
20
455.49424426127405
10
1104.7853008422287
20
468.21016326127426
42
-0.41421356237294693
10
1105.3783304880048
20
468.59528121623219
10
1118.094248488005
20
465.89242921623224
42
-0.41421362663783962
10
1118.4793664201534
20
465.29939946314693
10
1115.7765144201535
20
452.58348046314688
42
-0.41421298938774892
10
1115.1834856466505
20
452.19836243494024
0
LWPOLYLINE
5
179
100
AcDbEntity
8
0
100
AcDbPolyline
90
8
70
1
43
0.0
10
901.64066764259587
20
390.8124954158655
42
-0.4142135623731783
10
902.1406676425961
20
391.31249541586544
10
915.1406676425961
20
391.3124954158655
42
-0.41421356237301177
10
915.64066764259587
20
390.81249541586521
10
915.64066764259564
20
377.81249541586533
42
-0.41421356237321988
10
915.14066764259599
20
377.31249541586533
10
902.1406676425961
20
377.31249541586567
42
-0.41421356237309503
10
901.6406676425961
20
377.81249541586533
0
LWPOLYLINE
5
180
100
AcDbEntity
8
0
100
AcDbPolyline
90
8
70
1
43
0.0
10
987.86566764259589
20
401.12499541586533
42
-0.41421356237288692
10
987.36566764259601
20
401.62499541586533
10
987.36566764259601
20
414.62499541586533
42
-0.41421356237342799
10
987.86566764259624
20
415.12499541586544
10
1000.865667642596
20
415.12499541586527
42
-0.41421356237301177
10
1001.365667642596
20
414.62499541586544
10
1001.3656676425961
20
401.6249954158655
42
-0.41421356237267881
10
1000.865667642596
20
401.12499541586544
0
LWPOLYLINE
5
181
100
AcDbEntity
8
0
100
AcDbPolyline
90
8
70
1
43
0.0
10
1224.250667642596
20
401.6249954158655
10
1224.250667642596
20
414.62499541586544
42
0.41421356237297013
10
1223.750667642596
20
415.12499541586544
10
1210.750667642596
20
415.12499541586533
42
0.41421356237301177
10
1210.250667642596
20
414.62499541586533
10
1210.250667642596
20
401.62499541586544
42
0.41421356237334478
10
1210.7506676425962
20
401.12499541586544
10
1223.7506676425962
20
401.12499541586538
42
0.41421356237334478
0
LWPOLYLINE
5
182
100
AcDbEntity
8
0
100
AcDbPolyline
90
8
70
1
43
0.0
10
967.52816764259592
20
472.27499541586548
42
-0.41421356237309503
10
968.02816764259603
20
471.77499541586536
10
968.02816764259603
20
458.77499541586536
42
-0.41421356237355289
10
967.52816764259603
20
458.27499541586542
10
954.52816764259615
20
458.27499541586519
42
-0.41421356237297013
10
954.02816764259626
20
458.77499541586536
10
954.02816764259626
20
471.77499541586542
42
-0.41421356237334478
10
954.52816764259615
20
472.27499541586548
0
LWPOLYLINE
5
183
100
AcDbEntity
8
0
100
AcDbPolyline
90
8
70
1
43
0.0
10
1036.2700316898777
20
461.39063219342285
10
1023.5541126898775
20
458.68778019342295
42
0.41421349810838548
10
1023.1689948422293
20
458.09475057045654
10
1025.8718468650384
20
445.37883146314698
42
0.41421349810836211
10
1026.4648764880051
20
444.99371361549828
10
1039.1807954880048
20
447.69656561549834
42
0.41421362663794697
10
1039.5659134201537
20
448.28959536858372
10
1036.8630614429628
20
461.00551426127402
42
0.41421362663775818
0
LWPOLYLINE
5
184
100
AcDbEntity
8
0
100
AcDbPolyline
90
32
70
1
43
0.0
10
934.04016764259609
20
382.0749954158652
10
949.91616764259618
20
382.0749954158652
42
-0.41421356237309503
10
950.41616764259606
20
381.57499541586537
10
950.41616764259606
20
379.82499541586526
42
0.41421356237276202
10
950.91616764259606
20
379.32499541586543
10
956.91616764259606
20
379.32499541586526
42
0.41421356237284529
10
957.41616764259584
20
379.82499541586537
10
957.41616764259618
20
400.62499541586527
42
-0.41421356237321988
10
957.91616764259606
20
401.12499541586538
10
962.7656676425961
20
401.12499541586538
42
0.41421356237292856
10
963.2656676425961
20
401.6249954158655
10
963.2656676425961
20
414.62499541586533
42
0.41421356237334478
10
962.76566764259633
20
415.12499541586533
10
949.7656676425961
20
415.12499541586544
42
0.41421356237342799
10
949.2656676425961
20
414.62499541586533
10
949.26566764259621
20
401.62499541586544
42
-0.41421356237309503
10
948.76566764259621
20
401.12499541586544
10
939.9531676425961
20
401.1249954158655
42
-0.41421356237292856
10
939.4531676425961
20
401.6249954158655
10
939.45316764259599
20
414.62499541586533
42
0.41421356237334478
10
938.9531676425961
20
415.12499541586544
10
925.95316764259587
20
415.12499541586544
42
0.41421356237292856
10
925.4531676425961
20
414.62499541586533
10
925.4531676425961
20
401.62499541586556
42
0.41421356237309503
10
925.95316764259587
20
401.1249954158655
10
926.04016764259597
20
401.12499541586533
42
-0.4142135623731783
10
926.54016764259586
20
400.62499541586533
10
926.54016764259609
20
379.82499541586543
42
0.41421356237313667
10
927.04016764259586
20
379.32499541586532
10
933.04016764259597
20
379.32499541586537
42
0.41421356237297013
10
933.54016764259597
20
379.82499541586537
10
933.54016764259597
20
381.57499541586503
42
-0.41421356237297013
0
LWPOLYLINE
5
185
100
AcDbEntity
8
0
100
AcDbPolyline
90
8
70
1
43
0.0
10
1000.5745648422294
20
472.76774457045656
10
1003.277416908266
20
460.05182525977824
42
0.41421344058121295
10
1003.8704465953144
20
459.66670763830768
10
1016.5863655953144
20
462.36955963830792
42
0.41421356237334189
10
1016.9714834201534
20
462.96258936858362
10
1014.2686314201537
20
475.67850836858372
42
0.41421356237318513
10
1013.6756016898778
20
476.06362619342286
10
1000.9596827971872
20
473.36077421623224
42
0.41421356237298157
0
LWPOLYLINE
5
186
100
AcDbEntity
8
0
100
AcDbPolyline
90
8
70
1
43
0.0
10
996.10316764259608
20
396.07499541586543
42
-0.41421356237259555
10
996.60316764259596
20
395.57499541586532
10
996.60316764259608
20
382.5749954158652
42
-0.41421356237292856
10
996.10316764259608
20
382.0749954158652
10
983.10316764259596
20
382.0749954158652
42
-0.41421356237355289
10
982.60316764259585
20
382.57499541586526
10
982.60316764259585
20
395.57499541586537
42
-0.41421356237292856
10
983.10316764259596
20
396.07499541586543
0
LWPOLYLINE
5
187
100
AcDbEntity
8
0
100
AcDbPolyline
90
8
70
1
43
0.0
10
1159.9887258422291
20
475.9519002612742
42
-0.41421362663779027
10
1160.5817555953145
20
476.33701819342286
10
1173.2976736385415
20
473.63416639679025
42
-0.41421425715129517
10
1173.6827923769263
20
473.04113625977828
10
1170.9799403769259
20
460.32521725977824
42
-0.41421344058051834
10
1170.3869106898778
20
459.94009963830791
10
1157.6709916898776
20
462.64295163830764
42
-0.41421349810834479
10
1157.285873842229
20
463.23598126127416
0
LWPOLYLINE
5
188
100
AcDbEntity
8
0
100
AcDbPolyline
90
8
70
1
43
0.0
10
1015.5431896898779
20
398.55824019342293
42
-0.41421362663792971
10
1016.136219442963
20
398.17312226127422
10
1018.8390714201533
20
385.45720336858375
42
-0.41421356237329859
10
1018.4539535953144
20
384.86417363830765
10
1005.7380345953143
20
382.16132163830758
42
-0.41421356237314438
10
1005.1450048650385
20
382.54643946314684
10
1002.4421528422289
20
395.26235857045657
42
-0.41421349810783892
10
1002.8272706898779
20
395.85538819342287
0
LWPOLYLINE
5
189
100
AcDbEntity
8
0
100
AcDbPolyline
90
8
70
1
43
0.0
10
981.81566764259628
20
415.1249954158655
42
-0.4142135623730534
10
982.31566764259594
20
414.62499541586533
10
982.31566764259605
20
401.6249954158655
42
-0.41421356237297013
10
981.81566764259583
20
401.12499541586544
10
968.81566764259583
20
401.12499541586521
42
-0.41421356237334478
10
968.31566764259605
20
401.6249954158655
10
968.31566764259605
20
414.62499541586533
42
-0.41421356237346962
10
968.81566764259605
20
415.12499541586544
0
LWPOLYLINE
5
190
100
AcDbEntity
8
0
100
AcDbPolyline
90
8
70
1
43
0.0
10
1134.4102264201538
20
448.62276246314696
42
-0.41421356237308637
10
1133.8171966898776
20
448.23764463830764
10
1121.1012786466506
20
450.94049643494037
42
-0.41421407109377484
10
1120.7161598422292
20
451.53352626127423
10
1123.4190118422291
20
464.24944526127433
42
-0.4142135623731098
10
1124.012041488005
20
464.63456321623221
10
1136.727960488005
20
461.93171121623266
42
-0.41421356237321716
10
1137.1130784429629
20
461.33868157045629
0
LWPOLYLINE
5
191
100
AcDbEntity
8
0
100
AcDbPolyline
90
8
70
1
43
0.0
10
887.35316764259574
20
476.53749541586535
42
-0.41421356237321988
10
887.85316764259596
20
477.03749541586541
10
900.85316764259596
20
477.03749541586535
42
-0.41421356237267881
10
901.35316764259619
20
476.53749541586535
10
901.35316764259619
20
463.53749541586529
42
-0.41421356237309503
10
900.85316764259585
20
463.03749541586535
10
887.85316764259596
20
463.03749541586535
42
-0.41421356237280366
10
887.35316764259596
20
463.53749541586535
0
LWPOLYLINE
5
192
100
AcDbEntity
8
0
100
AcDbPolyline
90
8
70
1
43
0.0
10
1004.535282842229
20
454.1340325704565
42
-0.41421407109411784
10
1004.9204016466506
20
454.72706239679047
10
1017.6363197971873
20
457.42991421623202
42
-0.41421356237286555
10
1018.2293494429631
20
457.0447962612742
10
1020.9322014429629
20
444.32887726127427
42
-0.41421356237235968
10
1020.5470834880049
20
443.7358476154983
10
1007.8311644880048
20
441.03299561549812
42
-0.41421337631601785
10
1007.2381349082659
20
441.41811325977801
0
LWPOLYLINE
5
193
100
AcDbEntity
8
0
100
AcDbPolyline
90
8
70
1
43
0.0
10
905.61566764259601
20
429.41249541586552
42
-0.41421356237292856
10
906.11566764259601
20
428.91249541586541
10
906.11566764259578
20
415.91249541586529
42
-0.41421356237292856
10
905.61566764259612
20
415.41249541586535
10
892.61566764259612
20
415.41249541586529
42
-0.41421356237280366
10
892.11566764259612
20
415.91249541586535
10
892.11566764259601
20
428.91249541586541
42
-0.41421356237301177
10
892.61566764259601
20
429.41249541586546
0
LWPOLYLINE
5
194
100
AcDbEntity
8
0
100
AcDbPolyline
90
8
70
1
43
0.0
10
1182.175667642596
20
439.22499541586535
42
-0.41421356237288692
10
1181.675667642596
20
439.72499541586552
10
1181.6756676425962
20
452.72499541586541
42
-0.41421356237338641
10
1182.1756676425962
20
453.22499541586535
10
1195.1756676425962
20
453.22499541586546
42
-0.41421356237292856
10
1195.675667642596
20
452.72499541586535
10
1195.675667642596
20
439.72499541586546
42
-0.4142135623731783
10
1195.1756676425962
20
439.22499541586541
0
LWPOLYLINE
5
195
100
AcDbEntity
8
0
100
AcDbPolyline
90
8
70
1
43
0.0
10
1153.0439384429631
20
444.66204457045649
10
1155.7467904201535
20
457.37796346314713
42
0.41421362663784828
10
1155.3616724880048
20
457.97099321623227
10
1142.6457535953143
20
460.67384519342278
42
0.41421356237328993
10
1142.0527238650384
20
460.28872736858369
10
1139.3498718650385
20
447.57280836858376
42
0.41421344058128573
10
1139.734989486509
20
446.97977868153515
10
1152.4509087971869
20
444.2769266154985
42
0.41421356237329859
0
LWPOLYLINE
5
196
100
AcDbEntity
8
0
100
AcDbPolyline
90
8
70
1
43
0.0
10
1164.4539244201537
20
383.81001246314713
10
1167.1567764201536
20
396.52593146314695
42
0.41421356237313572
10
1166.7716585953144
20
397.11896119342299
10
1154.0557395953144
20
399.82181319342283
42
0.41421356237328993
10
1153.4627098650387
20
399.43669536858374
10
1150.7598578422292
20
386.72077626127412
42
0.41421356237283347
10
1151.1449757971873
20
386.12774661549844
10
1163.860894689878
20
383.42489463830753
42
0.41421356237289148
0
LWPOLYLINE
5
197
100
AcDbEntity
8
0
100
AcDbPolyline
90
8
70
1
43
0.0
10
983.10316764259596
20
439.22499541586546
42
-0.41421356237292856
10
982.60316764259596
20
439.72499541586546
10
982.60316764259596
20
452.72499541586541
42
-0.41421356237326151
10
983.10316764259596
20
453.22499541586535
10
996.10316764259608
20
453.22499541586535
42
-0.41421356237321988
10
996.60316764259619
20
452.72499541586535
10
996.60316764259596
20
439.72499541586535
42
-0.41421356237342799
10
996.10316764259608
20
439.22499541586518
0
LWPOLYLINE
5
198
100
AcDbEntity
8
0
100
AcDbPolyline
90
8
70
1
43
0.0
10
906.40316764259615
20
457.4874954158654
42
-0.4142135623731783
10
906.90316764259592
20
457.9874954158654
10
919.90316764259603
20
457.98749541586551
42
-0.41421356237301177
10
920.40316764259615
20
457.48749541586528
10
920.40316764259615
20
444.4874954158654
42
-0.4142135623731783
10
919.90316764259615
20
443.98749541586534
10
906.90316764259592
20
443.98749541586534
42
-0.41421356237301177
10
906.40316764259592
20
444.48749541586517
0
LWPOLYLINE
5
199
100
AcDbEntity
8
0
100
AcDbPolyline
90
8
70
1
43
0.0
10
1041.8027068650381
20
462.05546646314696
10
1044.5055588650384
20
449.33954746314691
42
0.41421356237300494
10
1045.0985885953146
20
448.9544296383076
10
1057.8145075953144
20
451.65728163830795
42
0.41421356237356022
10
1058.1996254201536
20
452.25031136858371
10
1055.4967734201537
20
464.96623036858375
42
0.41421349810809188
10
1054.9037437971874
20
465.3513482162324
10
1042.1878247971872
20
462.64849621623222
42
0.41421362663783962
0
LWPOLYLINE
5
200
100
AcDbEntity
8
0
100
AcDbPolyline
90
8
70
1
43
0.0
10
977.05316764259601
20
396.07499541586543
10
964.05316764259601
20
396.07499541586543
42
0.41421356237292856
10
963.55316764259578
20
395.57499541586537
10
963.55316764259578
20
382.57499541586526
42
0.41421356237297013
10
964.05316764259567
20
382.07499541586526
10
977.05316764259601
20
382.0749954158652
42
0.41421356237292856
10
977.55316764259589
20
382.5749954158652
10
977.55316764259589
20
395.57499541586532
42
0.41421356237292856
0
LWPOLYLINE
5
201
100
AcDbEntity
8
0
100
AcDbPolyline
90
8
70
1
43
0.0
10
1039.7095768422289
20
403.18379457045648
42
-0.41421356237322582
10
1040.094694797187
20
403.77682421623217
10
1052.8106134865088
20
406.47967615019553
42
-0.41421413536000723
10
1053.4036435802946
20
406.09455761517791
10
1056.106495376926
20
393.37863957195231
42
-0.41421425715051902
10
1055.7213766385416
20
392.78560943494023
10
1043.0054585953144
20
390.08275763830767
42
-0.41421356237310369
10
1042.4124288650385
20
390.46787546314692
0
LWPOLYLINE
5
202
100
AcDbEntity
8
0
100
AcDbPolyline
90
8
70
1
43
0.0
10
1179.3515227986832
20
433.39620415019516
42
-0.41421344058139059
10
1179.7366404201539
20
432.80317446314706
10
1177.0337884201538
20
420.0872554631469
42
-0.41421356237315304
10
1176.4407586898776
20
419.70213763830805
10
1163.7248396898779
20
422.40498963830782
42
-0.4142135623730136
10
1163.3397218650387
20
422.99801936858381
10
1166.0425736616708
20
435.71393741181083
42
-0.41421425715037963
10
1166.6356037986832
20
436.09905615019551
0
LWPOLYLINE
5
203
100
AcDbEntity
8
0
100
AcDbPolyline
90
8
70
1
43
0.0
10
1110.8391488422294
20
427.97220026127428
10
1108.1362966616709
20
415.25628141181085
42
0.41421298938755141
10
1108.5214146898779
20
414.66325263830782
10
1121.2373336466503
20
411.9604004349406
42
0.41421298938770823
10
1121.8303624201537
20
412.34551846314685
10
1124.5332144429631
20
425.06143657045641
42
0.41421356237338863
10
1124.1480964880047
20
425.65446621623209
10
1111.4321784880051
20
428.35731821623222
42
0.4142135623731098
0
LWPOLYLINE
5
204
100
AcDbEntity
8
0
100
AcDbPolyline
90
8
70
1
43
0.0
10
1080.0963444201534
20
417.95342636858373
10
1077.3934924201537
20
430.66934536858378
42
0.41421298938761814
10
1076.8004636466505
20
431.05446339679054
10
1064.0845447971869
20
428.35161121623224
42
0.41421356237319373
10
1063.6994268422293
20
427.75858157045656
10
1066.4022786616711
20
415.04266341991968
42
0.41421368416424359
10
1066.9953078419085
20
414.65754447816698
10
1079.7112267986831
20
417.36039668153535
42
0.4142134405812018
0
LWPOLYLINE
5
205
100
AcDbEntity
8
0
100
AcDbPolyline
90
8
70
1
43
0.0
10
1127.1865004201536
20
391.73144646314699
10
1129.8893524201535
20
404.44736546314692
42
0.41421362663771749
10
1129.5042344880048
20
405.04039521623258
10
1116.7883164880047
20
407.74324721623225
42
0.41421356237315915
10
1116.1952868422291
20
407.35812926127403
10
1113.4924348422287
20
394.64221026127427
42
0.41421349810821401
10
1113.8775526898778
20
394.0491806383078
10
1126.5934716466504
20
391.34632843494035
42
0.41421298938743795
0
LWPOLYLINE
5
206
100
AcDbEntity
8
0
100
AcDbPolyline
90
8
70
1
43
0.0
10
958.79066764259619
20
433.67499541586534
42
-0.41421356237288692
10
959.29066764259596
20
434.1749954158654
10
972.29066764259585
20
434.17499541586523
42
-0.4142135623730534
10
972.79066764259596
20
433.67499541586534
10
972.79066764259596
20
420.67499541586523
42
-0.4142135623731783
10
972.29066764259596
20
420.1749954158654
10
959.29066764259596
20
420.17499541586517
42
-0.4142135623730534
10
958.79066764259619
20
420.67499541586523
0
LWPOLYLINE
5
207
100
AcDbEntity
8
0
100
AcDbPolyline
90
8
70
1
43
0.0
10
1129.4728597048975
20
424.01148261517801
10
1126.7700078422292
20
411.29556426127408
42
0.41421356237311235
10
1127.1551257971871
20
410.70253461549851
10
1139.8710447971871
20
407.99968261549827
42
0.41421349810824604
10
1140.4640744201538
20
408.38480046314686
10
1143.1669264429629
20
421.10071957045648
42
0.4142133763163609
10
1142.7818087986834
20
421.69374915019546
10
1130.0658897986832
20
424.39660115019547
42
0.41421413535975427
0
LWPOLYLINE
5
208
100
AcDbEntity
8
0
100
AcDbPolyline
90
8
70
1
43
0.0
10
1055.0802808650385
20
445.40211446314692
42
-0.41421356237263857
10
1055.4653986898775
20
445.99514419342279
10
1068.1813177971871
20
448.69799621623224
42
-0.41421356237356016
10
1068.7743474429631
20
448.31287826127436
10
1071.4771994429632
20
435.59695926127426
42
-0.41421407109361813
10
1071.0920806385418
20
435.00392943494006
10
1058.3761625953143
20
432.3010776383075
42
-0.41421356237276069
10
1057.7831328650386
20
432.68619546314687
0
LWPOLYLINE
5
209
100
AcDbEntity
8
0
100
AcDbPolyline
90
8
70
1
43
0.0
10
1145.7888377971872
20
406.74181661549858
42
-0.41421356237313572
10
1145.4037198422293
20
407.33484626127438
10
1148.1065718422292
20
420.05076526127419
42
-0.41421356237342938
10
1148.6996014880049
20
420.43588321623236
10
1161.4155204880051
20
417.73303121623229
42
-0.41421356237321716
10
1161.800638442963
20
417.14000157045643
10
1159.0977864201536
20
404.42408246314693
42
-0.41421356237309503
10
1158.5047566898779
20
404.03896463830768
0
LWPOLYLINE
5
210
100
AcDbEntity
8
0
100
AcDbPolyline
90
8
70
1
43
0.0
10
1134.8289979082658
20
403.39741157195243
42
-0.41421344058081194
10
1135.4220275953144
20
403.78252919342287
10
1148.1379465953146
20
401.07967719342298
42
-0.41421356237300494
10
1148.5230644201536
20
400.48664746314682
10
1145.8202124429627
20
387.77072857045647
42
-0.41421362663758671
10
1145.2271826898777
20
387.38561063830775
10
1132.5112646466505
20
390.08846243493974
42
-0.41421425715033022
10
1132.1261459082662
20
390.68149257195239
0
LWPOLYLINE
5
211
100
AcDbEntity
8
0
100
AcDbPolyline
90
8
70
1
43
0.0
10
1223.7506676425962
20
396.07499541586543
42
-0.41421356237301177
10
1224.250667642596
20
395.57499541586532
10
1224.250667642596
20
382.5749954158652
42
-0.41421356237297013
10
1223.750667642596
20
382.0749954158652
10
1210.7506676425962
20
382.07499541586526
42
-0.41421356237342799
10
1210.250667642596
20
382.57499541586537
10
1210.2506676425962
20
395.57499541586537
42
-0.41421356237280366
10
1210.7506676425962
20
396.07499541586543
0
LWPOLYLINE
5
212
100
AcDbEntity
8
0
100
AcDbPolyline
90
8
70
1
43
0.0
10
1073.5374556898776
20
469.31206619342277
42
-0.41421344058101556
10
1074.1304853769261
20
468.92694857195266
10
1076.8333374429633
20
456.21102926127429
42
-0.41421356237365031
10
1076.448219488005
20
455.6179996154986
10
1063.7323005953144
20
452.91514763830776
42
-0.41421356237308637
10
1063.1392708650385
20
453.30026546314713
10
1060.4364188422292
20
466.01618457045663
42
-0.41421356237351953
10
1060.821536797187
20
466.60921421623232
0
LWPOLYLINE
5
213
100
AcDbEntity
8
0
100
AcDbPolyline
90
8
70
1
43
0.0
10
1107.8237047971872
20
434.28714261549874
10
1120.5396234432833
20
431.58429047816696
42
0.41421317544285402
10
1121.1326524429628
20
431.96940857045655
10
1123.8355044429629
20
444.68532757045648
42
0.41421356237305429
10
1123.4503864880048
20
445.278357216232
10
1110.7344676385419
20
447.98120939679046
42
0.41421305365290056
10
1110.141438842229
20
447.5960912612743
10
1107.4385868422291
20
434.88017226127454
42
0.41421356237322582
0
LWPOLYLINE
5
214
100
AcDbEntity
8
0
100
AcDbPolyline
90
8
70
1
43
0.0
10
1126.457415797187
20
430.32642561549829
42
-0.41421317544349939
10
1126.0722977048974
20
430.91945461517815
10
1128.775149908266
20
443.63537357195253
42
-0.41421337631648297
10
1129.3681794880049
20
444.02049121623202
10
1142.0840984880051
20
441.31763921623235
42
-0.41421305365234529
10
1142.4692166235209
20
440.72461041991971
10
1139.7663644201536
20
428.00869146314682
42
-0.41421349810837682
10
1139.1733347971872
20
427.6235736154984
0
LWPOLYLINE
5
215
100
AcDbEntity
8
0
100
AcDbPolyline
90
8
70
1
43
0.0
10
1172.6506676425961
20
380.16999541586534
42
-0.41421356237321988
10
1172.1506676425963
20
380.6699954158654
10
1172.1506676425961
20
393.6699954158654
42
-0.41421356237301177
10
1172.6506676425961
20
394.16999541586517
10
1185.6506676425961
20
394.16999541586529
42
-0.41421356237297013
10
1186.1506676425961
20
393.66999541586506
10
1186.1506676425959
20
380.66999541586534
42
-0.41421356237288692
10
1185.6506676425961
20
380.16999541586517
0
LWPOLYLINE
5
216
100
AcDbEntity
8
0
100
AcDbPolyline
90
8
70
1
43
0.0
10
1049.5476057971873
20
444.73727821623208
10
1036.8316867971871
20
442.03442621623225
42
0.41421362663825539
10
1036.4465688650384
20
441.44139646314704
10
1039.1494208422291
20
428.72547757045646
42
0.41421356237321716
10
1039.742450488005
20
428.3403596154983
10
1052.4583694880048
20
431.04321161549842
42
0.41421356237290624
10
1052.8434874429629
20
431.63624126127434
10
1050.140635442963
20
444.35216026127426
42
0.41421356237309503
0
LWPOLYLINE
5
217
100
AcDbEntity
8
0
100
AcDbPolyline
90
24
70
1
43
0.0
10
942.77241764259566
20
420.17499541586517
42
-0.41421356237288692
10
943.272417642596
20
419.6749954158654
10
943.272417642596
20
417.92499541586545
42
0.414213562373761
10
943.77241764259588
20
417.42499541586517
10
949.772417642596
20
417.42499541586534
42
0.41421356237297013
10
950.272417642596
20
417.9249954158654
10
950.272417642596
20
438.72499541586529
42
-0.41421356237330315
10
950.772417642596
20
439.22499541586541
10
950.85941764259599
20
439.22499541586541
42
0.41421356237309503
10
951.35941764259633
20
439.72499541586546
10
951.35941764259633
20
452.72499541586535
42
0.41421356237346962
10
950.85941764259599
20
453.22499541586535
10
937.8594176425961
20
453.22499541586535
42
0.41421356237330315
10
937.35941764259587
20
452.72499541586546
10
937.3594176425961
20
439.72499541586501
42
-0.41421356237313667
10
936.85941764259599
20
439.22499541586512
10
919.89641764259602
20
439.22499541586518
42
0.41421356237301177
10
919.39641764259613
20
438.72499541586535
10
919.39641764259602
20
417.92499541586545
42
0.41421356237297013
10
919.89641764259602
20
417.42499541586534
10
925.89641764259613
20
417.4249954158654
42
0.41421356237288692
10
926.39641764259613
20
417.92499541586528
10
926.39641764259613
20
419.67499541586534
42
-0.4142135623730534
10
926.89641764259613
20
420.1749954158654
0
LWPOLYLINE
5
218
100
AcDbEntity
8
0
100
AcDbPolyline
90
24
70
1
43
0.0
10
1211.6939176425963
20
439.22499541586541
10
1227.569917642596
20
439.22499541586535
42
-0.41421356237309503
10
1228.069917642596
20
438.72499541586535
10
1228.069917642596
20
436.97499541586546
42
0.41421356237338641
10
1228.5699176425962
20
436.47499541586535
10
1234.569917642596
20
436.47499541586535
42
0.41421356237321988
10
1235.0699176425962
20
436.97499541586535
10
1235.069917642596
20
457.77499541586531
42
0.41421356237292856
10
1234.569917642596
20
458.27499541586542
10
1234.2756676425961
20
458.27499541586531
42
-0.41421356237321988
10
1233.7756676425961
20
458.77499541586536
10
1233.7756676425961
20
471.77499541586536
42
0.41421356237292856
10
1233.2756676425961
20
472.27499541586548
10
1220.2756676425965
20
472.27499541586548
42
0.41421356237351126
10
1219.7756676425961
20
471.77499541586542
10
1219.7756676425961
20
458.77499541586536
42
-0.41421356237326151
10
1219.2756676425961
20
458.27499541586542
10
1204.693917642596
20
458.27499541586542
42
0.4142135623730534
10
1204.1939176425963
20
457.77499541586536
10
1204.1939176425963
20
436.97499541586546
42
0.41421356237313667
10
1204.693917642596
20
436.47499541586541
10
1210.6939176425963
20
436.47499541586535
42
0.41421356237338641
10
1211.193917642596
20
436.97499541586518
10
1211.1939176425963
20
438.72499541586529
42
-0.4142135623731783
0
LWPOLYLINE
5
219
100
AcDbEntity
8
0
100
AcDbPolyline
90
8
70
1
43
0.0
10
1034.1769017971869
20
402.51895821623214
42
-0.41421356237343804
10
1034.7699314429631
20
402.13384026127409
10
1037.472783442963
20
389.41792126127427
42
-0.41421356237285073
10
1037.0876654880051
20
388.82489161549825
10
1024.3717464880049
20
386.12203961549824
42
-0.41421356237356022
10
1023.778716842229
20
386.50715757045651
10
1021.0758648650385
20
399.22307646314687
42
-0.41421344058107357
10
1021.4609824865088
20
399.81610615019542
0
LWPOLYLINE
5
220
100
AcDbEntity
8
0
100
AcDbPolyline
90
8
70
1
43
0.0
10
1012.2801816898778
20
436.81584219342267
10
999.56426279718721
20
434.11299021623216
42
0.41421356237306295
10
999.17914484222933
20
433.51996057045648
10
1001.8819967048976
20
420.80404221655283
42
0.41421394930278799
10
1002.4750264880049
20
420.4189236154985
10
1015.1909454880049
20
423.12177561549851
42
0.41421356237327522
10
1015.5760634429629
20
423.71480526127408
10
1012.873211442963
20
436.43072426127412
42
0.41421362663812461
0
LWPOLYLINE
5
221
100
AcDbEntity
8
0
100
AcDbPolyline
90
115
70
1
43
0.0
10
1232.1506676425961
20
371.31249441586533
10
1232.1506666425962
20
369.31249541586533
10
1232.1506666425962
20
368.81249441586539
42
-0.41421356237319906
10
1231.1506666425962
20
367.81249441586539
10
1173.1506666425962
20
367.81249441586533
42
-0.41421356237315748
10
1172.1506666425962
20
368.81249441586533
10
1172.1506666425962
20
369.31249541586533
10
1172.1506686425957
20
371.31249441586539
42
0.41421326948019604
10
1171.1506676425961
20
372.31249441586544
10
1096.3706657942089
20
372.31249484675578
42
-0.41421356068525578
10
1095.370665799971
20
373.3124948467559
10
1095.3706657999708
20
397.36549255191892
42
-0.47697553221076711
10
1095.9746216446026
20
397.85456635245106
10
1107.9597596898777
20
395.30704663830772
42
0.41421344058118703
10
1108.5527893769263
20
395.69216425977822
10
1111.2556413769262
20
408.40808325977798
42
0.41421374843016467
10
1110.8705234880049
20
409.00111321623223
10
1098.1546044880049
20
411.70396521623218
42
0.41421407109419067
10
1097.5615746616709
20
411.31884641181097
10
1097.0513739092266
20
408.91854057123305
42
-0.35411857297802285
10
1096.5623001086947
20
408.52249641586513
10
1072.7680486778549
20
408.52249641586502
42
-0.35411856847843687
10
1072.2789748789855
20
408.91854056341117
10
1072.0373544201536
20
410.05527536858369
42
0.41421298938761814
10
1071.4443256466504
20
410.44039339679045
10
1058.7284066898778
20
407.73754119342277
42
0.41421298938804257
10
1058.3432886616708
20
407.14451241991975
10
1061.0461408650385
20
394.42859346314685
42
0.41421298938721096
10
1061.6391696385415
20
394.04347543493992
10
1073.5267098360159
20
396.57025028499959
42
-0.47697553711837537
10
1074.1306656884697
20
396.08117648612983
10
1074.1306656884697
20
373.3124949806674
42
-0.41421356406072618
10
1073.1306656827076
20
372.31249498066734
10
997.60316764259619
20
372.31249541586476
42
0.41421356237319906
10
996.60316764259619
20
371.31249541586487
10
996.60316864259607
20
369.31249541586499
10
996.60316864259607
20
368.81249441586465
42
-0.41421356237326151
10
995.60316864259607
20
367.81249441586459
10
937.60316664259619
20
367.81249441586459
42
-0.41421356237315748
10
936.60316664259608
20
368.81249441586465
10
936.60316664259608
20
369.31249541586499
10
936.60316764259665
20
371.31249641586476
42
0.4142135623724707
10
935.60316664259801
20
372.31249541586533
10
883.35316864259607
20
372.31249441586465
42
-0.41421356237319906
10
882.35316764259608
20
373.31249541586476
10
882.35316864259573
20
481.03749441586456
42
-0.41421356237313667
10
883.35316764259574
20
482.03749541586467
10
935.60316764259585
20
482.03749541586478
42
0.41421356237313667
10
936.60316764259596
20
483.03749541586478
10
936.60316764259596
20
485.53749441586484
42
-0.41421356237315748
10
937.60316764259585
20
486.53749441586507
10
995.60316764259596
20
486.53749441586484
42
-0.41421356237311585
10
996.60316764259596
20
485.53749441586484
10
996.60316764259596
20
483.03749541586507
42
0.41421326947950771
10
997.60316664259403
20
482.03749541586541
10
1017.6266696425962
20
482.0374944158649
42
0.052407787643564747
10
1017.8345818037133
20
482.05934665785878
10
1029.7959273628971
20
484.60181246324782
42
-0.414213559738901
10
1030.9819868327309
20
483.83157683953891
10
1031.2106928650385
20
482.75561146314709
10
1035.1922018650387
20
464.02408546314683
42
0.41421356237323448
10
1035.7852315953144
20
463.63896763830752
10
1041.6541164880048
20
464.88643761549844
42
0.41421305365258954
10
1042.0392346235215
20
465.47946641181085
10
1041.6753890859868
20
467.19122490813186
42
-0.41421356891975858
10
1042.0605070395632
20
467.78425456422752
10
1057.5895787175477
20
471.08506062024134
42
-0.41421355132067439
10
1058.1826083587889
20
470.69994268279652
10
1058.5464538422293
20
468.9881845704565
42
0.41421356237341467
10
1059.1394834880048
20
468.60306661549822
10
1065.0083684880051
20
469.85053661549853
42
0.41421356237322582
10
1065.3934864429627
20
470.44356626127421
10
1061.4119783769261
20
489.17509357195252
10
1060.7674481644244
20
492.20735931422547
10
1060.2476725116026
20
494.65272007621377
42
-0.4142135623731561
10
1061.0179092673984
20
495.83877881844421
10
1078.2102755365672
20
499.49311626427789
42
-0.052407600496864111
10
1078.4181865297844
20
499.5149685152648
10
1097.1254306426404
20
499.51496851526485
42
-0.052407745947470677
10
1097.3333422033884
20
499.49311614364575
10
1120.2270890657062
20
494.6269032086924
42
-0.41421330026362219
10
1120.997325319398
20
493.44084489490541
10
1120.8933696425961
20
492.95176941586527
10
1119.8330208650384
20
487.96321736858368
10
1115.8515118650384
20
469.23169136858371
42
0.41421362663758671
10
1116.2366297971873
20
468.63866161549834
10
1122.1055147971874
20
467.3911916154986
42
0.41421356237330725
10
1122.6985444429629
20
467.77630957045653
10
1123.0623899264031
20
469.48806768279655
42
-0.41421355132042137
10
1123.6554195676442
20
469.87318562024143
10
1139.1844914268224
20
466.5723795257133
42
-0.41421356512538965
10
1139.5696093817451
20
465.97934987595346
10
1139.2057638422293
20
464.26759126127428
42
0.41421356237310369
10
1139.5908817971872
20
463.67456161549825
10
1145.4597667971873
20
462.4270916154984
42
0.4142135623729235
10
1146.052796442963
20
462.81220957045656
10
1150.0343054429629
20
481.54373657045647
10
1150.2630080354686
20
482.61969867994583
42
-0.4142135656419369
10
1151.4490673188559
20
483.38993461692263
10
1157.7089836425957
20
482.05934841586492
42
0.052407641199820262
10
1157.9168946425959
20
482.03749614710028
10
1171.1506676425959
20
482.03749441586535
42
0.41421326948027931
10
1172.1506686425953
20
483.03749441586541
10
1172.1506676425956
20
485.03749341586507
10
1172.1506676425956
20
485.53749441586535
42
-0.4142135623731783
10
1173.1506676425959
20
486.53749441586541
10
1231.1506676425961
20
486.53749441586541
42
-0.41421356237303258
10
1232.1506676425961
20
485.53749441586496
10
1232.1506676425954
20
483.03749441586547
42
0.4142132694798199
10
1233.1506676425961
20
482.03749541586461
10
1242.7756656425959
20
482.03749441586547
42
-0.41421356237319906
10
1243.7756676425961
20
481.03749441586547
10
1243.7756676425961
20
373.31249641586533
42
-0.4142135623730534
10
1242.7756676425961
20
372.31249441586544
10
1233.1506676425961
20
372.31249441586544
42
0.41421356237319906
0
LWPOLYLINE
5
222
100
AcDbEntity
8
0
100
AcDbPolyline
90
8
70
1
43
0.0
10
860.60316764259574
20
591.53750021767178
42
-0.41421356237311585
10
861.60316764259562
20
590.53750021767178
10
861.60316764259562
20
587.53750121767189
42
-0.41421356237297013
10
860.60316764259574
20
586.53750121767189
10
802.60316764259574
20
586.53750121767189
42
-0.4142135623730534
10
801.60316764259562
20
587.53750121767189
10
801.60316764259562
20
590.53750021767178
42
-0.41421356237311585
10
802.60316764259574
20
591.53750021767189
0
LWPOLYLINE
5
223
100
AcDbEntity
8
0
100
AcDbPolyline
90
8
70
1
43
0.0
10
861.60316764259574
20
575.53750121767155
10
861.60316764259494
20
572.53750121767189
42
-0.41421356237309503
10
860.60316764259494
20
571.53750121767189
10
802.60316764259483
20
571.53750121767189
42
-0.4142135623731783
10
801.60316764259494
20
572.53750121767189
10
801.60316764259528
20
575.53750121767189
42
-0.41421356237307422
10
802.60316764259539
20
576.53750121767189
10
860.60316764259574
20
576.53750121767189
42
-0.41421356237309503
0
LWPOLYLINE
5
224
100
AcDbEntity
8
0
100
AcDbPolyline
90
12
70
1
43
0.0
10
860.60316864259585
20
556.53750021767178
10
802.60316664259585
20
556.53750021767166
42
-0.41421356237297013
10
801.60316664259597
20
557.53750021767178
10
801.60316664259597
20
558.03750121767189
10
801.60316764259608
20
560.03750121767189
10
801.60316764259596
20
560.53750121767177
42
-0.41421356237315748
10
802.60316764259619
20
561.53750121767189
10
860.60316764259596
20
561.53750121767189
42
-0.41421356237315748
10
861.60316764259608
20
560.53750121767189
10
861.60316764259608
20
560.03750121767189
10
861.60316864259585
20
558.03750121767189
10
861.60316864259585
20
557.53750021767189
42
-0.41421356237313667
0
LWPOLYLINE
5
225
100
AcDbEntity
8
0
100
AcDbPolyline
90
8
70
1
43
0.0
10
860.60316764259574
20
541.53750121766871
10
802.60316764259585
20
541.53750121766882
42
-0.41421356237311585
10
801.60316764259562
20
542.53750121766871
10
801.60316764259562
20
545.53750021766859
42
-0.41421356237311585
10
802.60316764259574
20
546.53750021766871
10
860.60316764259574
20
546.53750021766848
42
-0.41421356237311585
10
861.60316764259562
20
545.53750021766859
10
861.60316764259562
20
542.53750121766871
42
-0.41421356237309503
0
LWPOLYLINE
5
226
100
AcDbEntity
8
0
100
AcDbPolyline
90
12
70
1
43
0.0
10
861.60316764259551
20
530.53750121765677
10
861.60316764259551
20
530.03750121765688
10
861.60316864259528
20
528.03750121765688
10
861.60316864259539
20
527.53750021765677
42
-0.41421356237313667
10
860.60316864259539
20
526.53750021765654
10
802.6031666425954
20
526.53750021765654
42
-0.41421356237313667
10
801.6031666425954
20
527.53750021765666
10
801.6031666425954
20
528.03750121765688
10
801.60316764259551
20
530.03750121765688
10
801.60316764259562
20
530.53750121765677
42
-0.4142135623730534
10
802.60316764259539
20
531.53750121765677
10
860.60316764259539
20
531.53750121765688
42
-0.41421356237315748
0
LWPOLYLINE
5
227
100
AcDbEntity
8
0
100
AcDbPolyline
90
8
70
1
43
0.0
10
860.60317589256988
20
516.53743349141462
42
-0.41421356237313667
10
861.60317539256994
20
515.53743299141445
10
861.60317389256932
20
512.53743299141536
42
-0.4142135623732407
10
860.60317339256949
20
511.5374334914153
10
802.60317339257665
20
511.53746249140943
42
-0.4142135623731783
10
801.60317389257682
20
512.53746299140926
10
801.60317539257699
20
515.5374629914088
42
-0.41421356237299095
10
802.60317589257681
20
516.53746249140886
0
LWPOLYLINE
5
228
100
AcDbEntity
8
0
100
AcDbPolyline
90
12
70
1
43
0.0
10
801.60317164257685
20
497.53746299139749
10
801.60317164257685
20
498.03746399139749
10
801.60317264257651
20
500.03746299139743
10
801.60317264257628
20
500.53746299139738
42
-0.4142135623732407
10
802.6031726425764
20
501.53746299139766
10
860.60317264257606
20
501.53746299140869
42
-0.41421356237303258
10
861.6031726425764
20
500.53746299140897
10
861.60317264257651
20
500.03746299140892
10
861.60317164257685
20
498.03746399140897
10
861.60317164257685
20
497.53746299140903
42
-0.4142135623730534
10
860.60317164257708
20
496.53746299140869
10
802.60317164257742
20
496.5374629913976
42
-0.41421356237303258
0
LWPOLYLINE
5
229
100
AcDbEntity
8
0
100
AcDbPolyline
90
12
70
1
43
0.0
10
802.60317064257777
20
481.53746199139738
42
-0.4142135623730534
10
801.60317064257754
20
482.53746199139721
10
801.60317064257754
20
483.0374629913976
10
801.60317164257731
20
485.03746299139749
10
801.60317164257719
20
485.53746299139732
42
-0.4142135623730534
10
802.60317164257697
20
486.53746299139749
10
860.60317164257697
20
486.53746299140863
42
-0.41421356237313667
10
861.60317164257719
20
485.5374629914088
10
861.60317164257731
20
485.03746299140892
10
861.60317264257742
20
483.03746299140903
10
861.60317264257765
20
482.53746199140869
42
-0.41421356237309503
10
860.60317264257776
20
481.53746199140846
0
LWPOLYLINE
5
230
100
AcDbEntity
8
0
100
AcDbPolyline
90
12
70
1
43
0.0
10
801.60318514260985
20
468.03740021747871
10
801.6031841426103
20
470.03739921747871
10
801.60318364261002
20
470.53739921747842
42
-0.4142135623732407
10
802.60318264260945
20
471.53740021747814
10
860.60318264258012
20
471.53745821749743
42
-0.41421356237311585
10
861.60318364258001
20
470.53745921749839
10
861.60318414258029
20
470.03745921749868
10
861.60318514257983
20
468.03746021749868
10
861.60318564258114
20
467.53745921749885
42
-0.4142135623730534
10
860.60318664258193
20
466.53745821749902
10
802.60318664261104
20
466.53740021747967
42
-0.41421356237301177
10
801.60318564261104
20
467.53739921747894
0
LWPOLYLINE
5
231
100
AcDbEntity
8
0
100
AcDbPolyline
90
12
70
1
43
0.0
10
801.60319764258224
20
453.03745699125511
10
801.60319664258225
20
455.037456991255
10
801.60319614258196
20
455.53745699125454
42
-0.41421356237313667
10
802.60319514258163
20
456.5374579912542
10
860.60319514255241
20
456.53751599125707
42
-0.41421356237311585
10
861.60319614255218
20
455.53751699125758
10
861.60319664255223
20
455.03751699125792
10
861.60319964255211
20
453.03751699126002
10
861.60320014255308
20
452.53751599125985
42
-0.41421356237307422
10
860.60320114255364
20
451.53751499126031
10
802.60319914258287
20
451.53745699125551
42
-0.41421356237303258
10
801.6031981425831
20
452.537455991255
0
LWPOLYLINE
5
232
100
AcDbEntity
8
0
100
AcDbPolyline
90
16
70
1
43
0.0
10
845.95675969903118
20
426.53750034480589
10
827.24951558618454
20
426.53748163756063
42
-0.052407745948174711
10
827.04160400358433
20
426.55933380126828
10
804.14785227506468
20
431.42552384247091
42
-0.41421330026362913
10
803.37761483531483
20
432.61158138602121
10
804.00134658311663
20
435.54602489489702
42
-0.41421356237311974
10
805.18740500200875
20
436.31626214858846
10
827.56711553957859
20
431.55933432678233
42
0.052407745948020092
10
827.77502712217915
20
431.53748216307474
10
845.43135839514161
20
431.53749981940689
42
0.052407955852549253
10
845.63927075305958
20
431.5593525730273
10
862.31746817690396
20
435.10444258196679
42
-0.41421356237318513
10
863.50352878120134
20
434.33420869350539
10
864.12726885495499
20
431.39976695436974
42
-0.41421356237323448
10
863.35703328521822
20
430.21370744190273
10
846.16467067039582
20
426.55935280370375
42
-0.052407600496943041
0
LWPOLYLINE
5
233
100
AcDbEntity
8
0
100
AcDbPolyline
90
16
70
1
43
0.0
10
805.18750489683725
20
406.31630379079706
10
827.56721067746753
20
401.55935358928133
42
0.052407745947873112
10
827.77512223821589
20
401.53750121766217
10
845.43145351118721
20
401.537501217662
42
0.052407955852815234
10
845.63936589095783
20
401.55935376336993
10
862.31756685988421
20
405.10442709410904
42
-0.4142135623731808
10
863.50362669394713
20
404.33419201958742
10
864.12736383325864
20
401.3997496567128
42
-0.4142135623731561
10
863.35712707746256
20
400.21369091448253
10
846.16476080829375
20
396.55935346864885
42
-0.052407600497272125
10
845.95684981507679
20
396.537501217662
10
827.24960570222083
20
396.53750121766217
42
-0.052407745947826254
10
827.04169414147282
20
396.55935358928133
10
804.14794727915501
20
401.4255665242348
42
-0.41421330026364256
10
803.37771102546321
20
402.6116248380219
10
804.00144570770806
20
405.54606772316453
42
-0.41421356237314011
0
ENDSEC
0
SECTION
2
OBJECTS
0
DICTIONARY
5
C
100
AcDbDictionary
3
ACAD_GROUP
350
D
3
ACAD_MLINESTYLE
350
17
0
DICTIONARY
5
D
100
AcDbDictionary
0
DICTIONARY
5
1A
330
C
100
AcDbDictionary
0
DICTIONARY
5
17
100
AcDbDictionary
0
ENDSEC
0
EOF
