G04 #@! TF.GenerationSoftware,KiCad,Pcbnew,(5.1.10)-1*
G04 #@! TF.CreationDate,2021-10-05T17:03:10+03:00*
G04 #@! TF.ProjectId,kolibri,6b6f6c69-6272-4692-9e6b-696361645f70,rev?*
G04 #@! TF.SameCoordinates,Original*
G04 #@! TF.FileFunction,Paste,Top*
G04 #@! TF.FilePolarity,Positive*
%FSLAX46Y46*%
G04 Gerber Fmt 4.6, Leading zero omitted, Abs format (unit mm)*
G04 Created by KiCad (PCBNEW (5.1.10)-1) date 2021-10-05 17:03:10*
%MOMM*%
%LPD*%
G01*
G04 APERTURE LIST*
%ADD10C,0.100000*%
%ADD11R,1.200000X1.200000*%
G04 APERTURE END LIST*
D10*
G36*
X244539603Y-231571054D02*
G01*
X243365825Y-231321560D01*
X243615319Y-230147782D01*
X244789097Y-230397276D01*
X244539603Y-231571054D01*
G37*
G36*
X243884681Y-234652218D02*
G01*
X242710903Y-234402724D01*
X242960397Y-233228946D01*
X244134175Y-233478440D01*
X243884681Y-234652218D01*
G37*
G36*
X344509152Y-163340009D02*
G01*
X343335374Y-163589503D01*
X343085880Y-162415725D01*
X344259658Y-162166231D01*
X344509152Y-163340009D01*
G37*
G36*
X343854230Y-160258845D02*
G01*
X342680452Y-160508339D01*
X342430958Y-159334561D01*
X343604736Y-159085067D01*
X343854230Y-160258845D01*
G37*
D11*
X155900000Y-159575000D03*
X155900000Y-156425000D03*
X174950000Y-156535000D03*
X174950000Y-159685000D03*
D10*
G36*
X195941953Y-161771912D02*
G01*
X194768175Y-161522418D01*
X195017669Y-160348640D01*
X196191447Y-160598134D01*
X195941953Y-161771912D01*
G37*
G36*
X195287031Y-164853076D02*
G01*
X194113253Y-164603582D01*
X194362747Y-163429804D01*
X195536525Y-163679298D01*
X195287031Y-164853076D01*
G37*
G36*
X213920743Y-168813792D02*
G01*
X212746965Y-168564298D01*
X212996459Y-167390520D01*
X214170237Y-167640014D01*
X213920743Y-168813792D01*
G37*
G36*
X214575665Y-165732628D02*
G01*
X213401887Y-165483134D01*
X213651381Y-164309356D01*
X214825159Y-164558850D01*
X214575665Y-165732628D01*
G37*
G36*
X232554454Y-172774510D02*
G01*
X231380676Y-172525016D01*
X231630170Y-171351238D01*
X232803948Y-171600732D01*
X232554454Y-172774510D01*
G37*
G36*
X233209376Y-169693346D02*
G01*
X232035598Y-169443852D01*
X232285092Y-168270074D01*
X233458870Y-168519568D01*
X233209376Y-169693346D01*
G37*
G36*
X246828946Y-183789603D02*
G01*
X247078440Y-182615825D01*
X248252218Y-182865319D01*
X248002724Y-184039097D01*
X246828946Y-183789603D01*
G37*
G36*
X243747782Y-183134681D02*
G01*
X243997276Y-181960903D01*
X245171054Y-182210397D01*
X244921560Y-183384175D01*
X243747782Y-183134681D01*
G37*
G36*
X287953095Y-172140999D02*
G01*
X286779317Y-172390493D01*
X286529823Y-171216715D01*
X287703601Y-170967221D01*
X287953095Y-172140999D01*
G37*
G36*
X288608017Y-175222163D02*
G01*
X287434239Y-175471657D01*
X287184745Y-174297879D01*
X288358523Y-174048385D01*
X288608017Y-175222163D01*
G37*
G36*
X306586806Y-168180281D02*
G01*
X305413028Y-168429775D01*
X305163534Y-167255997D01*
X306337312Y-167006503D01*
X306586806Y-168180281D01*
G37*
G36*
X307241728Y-171261445D02*
G01*
X306067950Y-171510939D01*
X305818456Y-170337161D01*
X306992234Y-170087667D01*
X307241728Y-171261445D01*
G37*
G36*
X325220518Y-164219563D02*
G01*
X324046740Y-164469057D01*
X323797246Y-163295279D01*
X324971024Y-163045785D01*
X325220518Y-164219563D01*
G37*
G36*
X325875440Y-167300727D02*
G01*
X324701662Y-167550221D01*
X324452168Y-166376443D01*
X325625946Y-166126949D01*
X325875440Y-167300727D01*
G37*
D11*
X160672500Y-196577500D03*
X160672500Y-199727500D03*
D10*
G36*
X346376740Y-240845395D02*
G01*
X345202962Y-241094889D01*
X344953468Y-239921111D01*
X346127246Y-239671617D01*
X346376740Y-240845395D01*
G37*
G36*
X345721818Y-237764231D02*
G01*
X344548040Y-238013725D01*
X344298546Y-236839947D01*
X345472324Y-236590453D01*
X345721818Y-237764231D01*
G37*
G36*
X188761015Y-241368281D02*
G01*
X187587237Y-241118787D01*
X187836731Y-239945009D01*
X189010509Y-240194503D01*
X188761015Y-241368281D01*
G37*
G36*
X189415937Y-238287117D02*
G01*
X188242159Y-238037623D01*
X188491653Y-236863845D01*
X189665431Y-237113339D01*
X189415937Y-238287117D01*
G37*
G36*
X286514886Y-234093835D02*
G01*
X285341108Y-234343329D01*
X285091614Y-233169551D01*
X286265392Y-232920057D01*
X286514886Y-234093835D01*
G37*
G36*
X285859964Y-231012671D02*
G01*
X284686186Y-231262165D01*
X284436692Y-230088387D01*
X285610470Y-229838893D01*
X285859964Y-231012671D01*
G37*
D11*
X404957500Y-149000000D03*
X401807500Y-149000000D03*
X421657500Y-180677500D03*
X421657500Y-177527500D03*
D10*
G36*
X207351939Y-222623944D02*
G01*
X206178161Y-222374450D01*
X206427655Y-221200672D01*
X207601433Y-221450166D01*
X207351939Y-222623944D01*
G37*
G36*
X206697017Y-225705108D02*
G01*
X205523239Y-225455614D01*
X205772733Y-224281836D01*
X206946511Y-224531330D01*
X206697017Y-225705108D01*
G37*
D11*
X134478750Y-196577500D03*
X134478750Y-199727500D03*
X378795000Y-177527500D03*
X378795000Y-180677500D03*
D10*
G36*
X341761100Y-219130519D02*
G01*
X340587322Y-219380013D01*
X340337828Y-218206235D01*
X341511606Y-217956741D01*
X341761100Y-219130519D01*
G37*
G36*
X342416022Y-222211683D02*
G01*
X341242244Y-222461177D01*
X340992750Y-221287399D01*
X342166528Y-221037905D01*
X342416022Y-222211683D01*
G37*
D11*
X393082500Y-237827500D03*
X393082500Y-234677500D03*
X127335000Y-237827500D03*
X127335000Y-234677500D03*
D10*
G36*
X201340879Y-205091037D02*
G01*
X200167101Y-204841543D01*
X200416595Y-203667765D01*
X201590373Y-203917259D01*
X201340879Y-205091037D01*
G37*
G36*
X201995801Y-202009873D02*
G01*
X200822023Y-201760379D01*
X201071517Y-200586601D01*
X202245295Y-200836095D01*
X201995801Y-202009873D01*
G37*
D11*
X454995000Y-194965000D03*
X454995000Y-191815000D03*
X364507500Y-218777500D03*
X364507500Y-215627500D03*
X440707500Y-242590000D03*
X440707500Y-239440000D03*
D10*
G36*
X201298091Y-182385982D02*
G01*
X200124313Y-182136488D01*
X200373807Y-180962710D01*
X201547585Y-181212204D01*
X201298091Y-182385982D01*
G37*
G36*
X200643169Y-185467146D02*
G01*
X199469391Y-185217652D01*
X199718885Y-184043874D01*
X200892663Y-184293368D01*
X200643169Y-185467146D01*
G37*
D11*
X408951250Y-187000000D03*
X412101250Y-187000000D03*
X383557500Y-161627500D03*
X383557500Y-158477500D03*
X136860000Y-161627500D03*
X136860000Y-158477500D03*
D10*
G36*
X220629513Y-205970591D02*
G01*
X219455735Y-205721097D01*
X219705229Y-204547319D01*
X220879007Y-204796813D01*
X220629513Y-205970591D01*
G37*
G36*
X219974591Y-209051755D02*
G01*
X218800813Y-208802261D01*
X219050307Y-207628483D01*
X220224085Y-207877977D01*
X219974591Y-209051755D01*
G37*
G36*
X249975500Y-251159450D02*
G01*
X248801722Y-250909956D01*
X249051216Y-249736178D01*
X250224994Y-249985672D01*
X249975500Y-251159450D01*
G37*
G36*
X249320578Y-254240614D02*
G01*
X248146800Y-253991120D01*
X248396294Y-252817342D01*
X249570072Y-253066836D01*
X249320578Y-254240614D01*
G37*
G36*
X239263224Y-209931308D02*
G01*
X238089446Y-209681814D01*
X238338940Y-208508036D01*
X239512718Y-208757530D01*
X239263224Y-209931308D01*
G37*
G36*
X238608302Y-213012472D02*
G01*
X237434524Y-212762978D01*
X237684018Y-211589200D01*
X238857796Y-211838694D01*
X238608302Y-213012472D01*
G37*
G36*
X291871024Y-213479765D02*
G01*
X290697246Y-213729259D01*
X290447752Y-212555481D01*
X291621530Y-212305987D01*
X291871024Y-213479765D01*
G37*
G36*
X291216102Y-210398601D02*
G01*
X290042324Y-210648095D01*
X289792830Y-209474317D01*
X290966608Y-209224823D01*
X291216102Y-210398601D01*
G37*
G36*
X320519302Y-187914797D02*
G01*
X319345524Y-188164291D01*
X319096030Y-186990513D01*
X320269808Y-186741019D01*
X320519302Y-187914797D01*
G37*
G36*
X319864380Y-184833633D02*
G01*
X318690602Y-185083127D01*
X318441108Y-183909349D01*
X319614886Y-183659855D01*
X319864380Y-184833633D01*
G37*
G36*
X310504736Y-209519047D02*
G01*
X309330958Y-209768541D01*
X309081464Y-208594763D01*
X310255242Y-208345269D01*
X310504736Y-209519047D01*
G37*
G36*
X309849814Y-206437883D02*
G01*
X308676036Y-206687377D01*
X308426542Y-205513599D01*
X309600320Y-205264105D01*
X309849814Y-206437883D01*
G37*
G36*
X328483526Y-202477165D02*
G01*
X327309748Y-202726659D01*
X327060254Y-201552881D01*
X328234032Y-201303387D01*
X328483526Y-202477165D01*
G37*
G36*
X329138448Y-205558329D02*
G01*
X327964670Y-205807823D01*
X327715176Y-204634045D01*
X328888954Y-204384551D01*
X329138448Y-205558329D01*
G37*
G36*
X347117238Y-198516447D02*
G01*
X345943460Y-198765941D01*
X345693966Y-197592163D01*
X346867744Y-197342669D01*
X347117238Y-198516447D01*
G37*
G36*
X347772160Y-201597611D02*
G01*
X346598382Y-201847105D01*
X346348888Y-200673327D01*
X347522666Y-200423833D01*
X347772160Y-201597611D01*
G37*
D11*
X421657500Y-239440000D03*
X421657500Y-242590000D03*
D10*
G36*
X323127388Y-223091237D02*
G01*
X321953610Y-223340731D01*
X321704116Y-222166953D01*
X322877894Y-221917459D01*
X323127388Y-223091237D01*
G37*
G36*
X323782310Y-226172401D02*
G01*
X322608532Y-226421895D01*
X322359038Y-225248117D01*
X323532816Y-224998623D01*
X323782310Y-226172401D01*
G37*
D11*
X364507500Y-161627500D03*
X364507500Y-158477500D03*
D10*
G36*
X304493676Y-225821560D02*
G01*
X303319898Y-226071054D01*
X303070404Y-224897276D01*
X304244182Y-224647782D01*
X304493676Y-225821560D01*
G37*
G36*
X305148598Y-228902724D02*
G01*
X303974820Y-229152218D01*
X303725326Y-227978440D01*
X304899104Y-227728946D01*
X305148598Y-228902724D01*
G37*
G36*
X339153014Y-183954079D02*
G01*
X337979236Y-184203573D01*
X337729742Y-183029795D01*
X338903520Y-182780301D01*
X339153014Y-183954079D01*
G37*
G36*
X338498092Y-180872915D02*
G01*
X337324314Y-181122409D01*
X337074820Y-179948631D01*
X338248598Y-179699137D01*
X338498092Y-180872915D01*
G37*
D11*
X397845000Y-177527500D03*
X397845000Y-180677500D03*
X359745000Y-180677500D03*
X359745000Y-177527500D03*
X450232500Y-175915000D03*
X450232500Y-172765000D03*
X424000000Y-158425000D03*
X424000000Y-161575000D03*
X160672500Y-177527500D03*
X160672500Y-180677500D03*
X388320000Y-199727500D03*
X388320000Y-196577500D03*
D10*
G36*
X219931803Y-186346700D02*
G01*
X218758025Y-186097206D01*
X219007519Y-184923428D01*
X220181297Y-185172922D01*
X219931803Y-186346700D01*
G37*
G36*
X219276881Y-189427864D02*
G01*
X218103103Y-189178370D01*
X218352597Y-188004592D01*
X219526375Y-188254086D01*
X219276881Y-189427864D01*
G37*
D11*
X459757500Y-239440000D03*
X459757500Y-242590000D03*
D10*
G36*
X182707167Y-200252218D02*
G01*
X181533389Y-200002724D01*
X181782883Y-198828946D01*
X182956661Y-199078440D01*
X182707167Y-200252218D01*
G37*
G36*
X183362089Y-197171054D02*
G01*
X182188311Y-196921560D01*
X182437805Y-195747782D01*
X183611583Y-195997276D01*
X183362089Y-197171054D01*
G37*
D11*
X369270000Y-199727500D03*
X369270000Y-196577500D03*
X409751250Y-218777500D03*
X409751250Y-215627500D03*
X124153750Y-206000000D03*
X127303750Y-206000000D03*
X383557500Y-218777500D03*
X383557500Y-215627500D03*
D10*
G36*
X298993730Y-234960903D02*
G01*
X299243224Y-236134681D01*
X298069446Y-236384175D01*
X297819952Y-235210397D01*
X298993730Y-234960903D01*
G37*
G36*
X295912566Y-235615825D02*
G01*
X296162060Y-236789603D01*
X294988282Y-237039097D01*
X294738788Y-235865319D01*
X295912566Y-235615825D01*
G37*
D11*
X214575000Y-235000000D03*
X211425000Y-235000000D03*
D10*
G36*
X238565514Y-190307418D02*
G01*
X237391736Y-190057924D01*
X237641230Y-188884146D01*
X238815008Y-189133640D01*
X238565514Y-190307418D01*
G37*
G36*
X237910592Y-193388582D02*
G01*
X236736814Y-193139088D01*
X236986308Y-191965310D01*
X238160086Y-192214804D01*
X237910592Y-193388582D01*
G37*
D11*
X136860000Y-177527500D03*
X136860000Y-180677500D03*
D10*
G36*
X301885590Y-191875514D02*
G01*
X300711812Y-192125008D01*
X300462318Y-190951230D01*
X301636096Y-190701736D01*
X301885590Y-191875514D01*
G37*
G36*
X301230668Y-188794350D02*
G01*
X300056890Y-189043844D01*
X299807396Y-187870066D01*
X300981174Y-187620572D01*
X301230668Y-188794350D01*
G37*
D11*
X440707500Y-218425000D03*
X440707500Y-221575000D03*
D10*
G36*
X225330729Y-229665826D02*
G01*
X224156951Y-229416332D01*
X224406445Y-228242554D01*
X225580223Y-228492048D01*
X225330729Y-229665826D01*
G37*
G36*
X225985651Y-226584662D02*
G01*
X224811873Y-226335168D01*
X225061367Y-225161390D01*
X226235145Y-225410884D01*
X225985651Y-226584662D01*
G37*
G36*
X182664379Y-178425264D02*
G01*
X181490601Y-178175770D01*
X181740095Y-177001992D01*
X182913873Y-177251486D01*
X182664379Y-178425264D01*
G37*
G36*
X182009457Y-181506428D02*
G01*
X180835679Y-181256934D01*
X181085173Y-180083156D01*
X182258951Y-180332650D01*
X182009457Y-181506428D01*
G37*
G36*
X188718227Y-218663226D02*
G01*
X187544449Y-218413732D01*
X187793943Y-217239954D01*
X188967721Y-217489448D01*
X188718227Y-218663226D01*
G37*
G36*
X188063305Y-221744390D02*
G01*
X186889527Y-221494896D01*
X187139021Y-220321118D01*
X188312799Y-220570612D01*
X188063305Y-221744390D01*
G37*
G36*
X282596957Y-192755068D02*
G01*
X281423179Y-193004562D01*
X281173685Y-191830784D01*
X282347463Y-191581290D01*
X282596957Y-192755068D01*
G37*
G36*
X283251879Y-195836232D02*
G01*
X282078101Y-196085726D01*
X281828607Y-194911948D01*
X283002385Y-194662454D01*
X283251879Y-195836232D01*
G37*
D11*
X165435000Y-215627500D03*
X165435000Y-218777500D03*
X450425000Y-151000000D03*
X453575000Y-151000000D03*
M02*
