M48
; DRILL file {KiCad (5.1.10)-1} date 10/05/21 17:03:14
; FORMAT={-:-/ absolute / metric / decimal}
; #@! TF.CreationDate,2021-10-05T17:03:14+03:00
; #@! TF.GenerationSoftware,Kicad,Pcbnew,(5.1.10)-1
; #@! TF.FileFunction,Plated,1,2,PTH
FMAT,2
METRIC
T1C0.400
T2C0.700
T3C1.000
T4C1.092
T5C1.470
%
G90
G05
T1
X109.22Y-195.58
X147.0Y-168.5
X165.4Y-226.2
X220.98Y-154.94
X257.81Y-161.29
X260.35Y-204.47
X260.35Y-247.65
X273.05Y-149.86
X351.79Y-234.95
X429.26Y-172.72
X436.88Y-203.2
T2
X121.829Y-206.0
X127.335Y-232.352
X127.335Y-240.152
X129.629Y-206.0
X134.479Y-194.252
X134.479Y-202.052
X136.86Y-156.153
X136.86Y-163.952
X136.86Y-175.202
X136.86Y-183.002
X155.9Y-154.1
X155.9Y-161.9
X160.672Y-175.202
X160.672Y-183.002
X160.672Y-194.252
X160.672Y-202.052
X165.435Y-213.302
X165.435Y-221.102
X174.95Y-154.21
X174.95Y-162.01
X181.064Y-183.069
X181.762Y-201.815
X182.686Y-175.439
X183.383Y-194.185
X187.118Y-223.307
X187.815Y-242.931
X188.739Y-215.677
X189.437Y-235.301
X194.341Y-166.416
X195.963Y-158.786
X199.698Y-187.03
X200.395Y-206.654
X201.319Y-179.4
X202.017Y-199.024
X205.751Y-227.268
X207.373Y-219.638
X209.1Y-235.0
X212.975Y-170.376
X214.597Y-162.747
X216.9Y-235.0
X218.331Y-190.99
X219.029Y-210.614
X219.953Y-183.361
X220.651Y-202.985
X224.385Y-231.228
X226.007Y-223.599
X231.609Y-174.337
X233.231Y-166.708
X236.965Y-194.951
X237.663Y-214.575
X238.587Y-187.322
X239.284Y-206.945
X242.185Y-182.189
X242.939Y-236.215
X244.561Y-228.585
X248.375Y-255.803
X249.815Y-183.811
X249.997Y-248.174
X281.402Y-190.019
X283.024Y-197.648
X284.665Y-228.276
X286.287Y-235.906
X286.758Y-169.405
X288.38Y-177.034
X290.021Y-207.662
X291.643Y-215.292
X293.176Y-236.811
X300.036Y-186.058
X300.806Y-235.189
X301.657Y-193.688
X303.299Y-223.085
X304.92Y-230.715
X305.392Y-165.444
X307.013Y-173.073
X308.655Y-203.702
X310.276Y-211.331
X318.669Y-182.097
X320.291Y-189.727
X321.932Y-220.355
X323.554Y-227.984
X324.025Y-161.483
X325.647Y-169.113
X327.288Y-199.741
X328.91Y-207.37
X337.303Y-178.137
X338.925Y-185.766
X340.566Y-216.394
X342.188Y-224.024
X342.659Y-157.523
X344.281Y-165.152
X344.527Y-235.028
X345.922Y-195.78
X346.148Y-242.657
X347.544Y-203.41
X359.745Y-175.202
X359.745Y-183.002
X364.507Y-156.153
X364.507Y-163.952
X364.507Y-213.302
X364.507Y-221.102
X369.27Y-194.252
X369.27Y-202.052
X378.795Y-175.202
X378.795Y-183.002
X383.558Y-156.153
X383.558Y-163.952
X383.558Y-213.302
X383.558Y-221.102
X388.32Y-194.252
X388.32Y-202.052
X393.082Y-232.352
X393.082Y-240.152
X397.845Y-175.202
X397.845Y-183.002
X399.482Y-149.0
X406.626Y-187.0
X407.282Y-149.0
X409.751Y-213.302
X409.751Y-221.102
X414.426Y-187.0
X421.657Y-175.202
X421.657Y-183.002
X421.657Y-237.115
X421.657Y-244.915
X424.0Y-156.1
X424.0Y-163.9
X440.707Y-216.1
X440.707Y-223.9
X440.707Y-237.115
X440.707Y-244.915
X448.1Y-151.0
X450.232Y-170.44
X450.232Y-178.24
X454.995Y-189.49
X454.995Y-197.29
X455.9Y-151.0
X459.757Y-237.115
X459.757Y-244.915
T3
X429.22Y-151.04
X429.22Y-153.54
X429.22Y-156.04
X443.72Y-151.04
X443.72Y-156.04
T4
X152.0Y-164.5
X152.0Y-167.0
X152.0Y-169.5
X252.93Y-145.43
X252.93Y-147.97
X252.93Y-150.51
X252.93Y-153.05
X252.93Y-155.59
X252.93Y-158.13
X252.93Y-160.67
X252.93Y-163.21
X252.93Y-165.75
X252.93Y-168.29
X252.93Y-170.83
X253.159Y-173.37
X255.47Y-173.37
X258.01Y-173.37
X260.55Y-173.37
X263.09Y-173.37
X265.63Y-173.37
X268.17Y-145.43
X268.17Y-147.97
X268.17Y-150.51
X268.17Y-153.05
X268.17Y-155.59
X268.17Y-158.13
X268.17Y-160.67
X268.17Y-163.21
X268.17Y-165.75
X268.17Y-168.29
X268.17Y-170.83
X268.17Y-173.37
T5
X114.775Y-231.962
X116.085Y-230.502
X121.085Y-230.002
X121.125Y-229.422
X121.919Y-193.862
X121.919Y-212.912
X123.229Y-192.403
X123.229Y-211.452
X124.3Y-155.762
X124.3Y-174.812
X125.61Y-154.302
X125.61Y-173.352
X128.229Y-191.903
X128.229Y-210.952
X128.269Y-191.322
X128.269Y-210.373
X130.61Y-153.802
X130.61Y-172.852
X130.65Y-153.222
X130.65Y-172.272
X143.35Y-155.762
X144.66Y-154.302
X148.112Y-174.812
X148.112Y-193.862
X149.422Y-173.352
X149.422Y-192.403
X149.66Y-153.802
X149.7Y-153.222
X152.875Y-212.912
X154.185Y-211.452
X154.422Y-172.852
X154.422Y-191.903
X154.463Y-172.272
X154.463Y-191.322
X159.185Y-210.952
X159.225Y-210.373
X162.4Y-153.857
X163.71Y-152.397
X168.71Y-151.897
X168.75Y-151.317
X169.926Y-174.228
X170.624Y-193.851
X171.511Y-173.072
X172.209Y-192.696
X175.98Y-214.466
X176.506Y-173.622
X176.665Y-173.063
X176.678Y-234.089
X177.203Y-193.246
X177.363Y-192.687
X177.565Y-213.31
X178.263Y-232.934
X182.56Y-213.86
X182.719Y-213.301
X183.204Y-157.574
X183.257Y-233.484
X183.417Y-232.925
X184.789Y-156.418
X188.56Y-178.188
X189.258Y-197.812
X189.783Y-156.969
X189.943Y-156.41
X190.145Y-177.033
X190.842Y-196.656
X194.614Y-218.426
X195.139Y-177.583
X195.299Y-177.024
X195.837Y-197.207
X195.997Y-196.648
X196.199Y-217.271
X201.193Y-217.821
X201.353Y-217.262
X201.837Y-161.535
X203.422Y-160.379
X207.194Y-182.149
X207.891Y-201.773
X208.417Y-160.93
X208.577Y-160.371
X208.778Y-180.993
X209.287Y-241.021
X209.476Y-200.617
X210.872Y-239.865
X213.247Y-222.387
X213.773Y-181.544
X213.933Y-180.985
X214.471Y-201.168
X214.631Y-200.609
X214.832Y-221.231
X215.866Y-240.415
X216.026Y-239.856
X219.827Y-221.782
X219.987Y-221.223
X220.471Y-165.496
X222.056Y-164.34
X225.827Y-186.11
X226.525Y-205.734
X227.051Y-164.89
X227.21Y-164.331
X227.412Y-184.954
X228.11Y-204.578
X231.881Y-226.348
X232.407Y-185.504
X232.567Y-184.945
X233.105Y-205.128
X233.264Y-204.569
X233.466Y-225.192
X237.237Y-246.962
X238.461Y-225.742
X238.62Y-225.183
X238.822Y-245.806
X239.105Y-169.456
X240.69Y-168.301
X243.817Y-246.357
X243.977Y-245.798
X245.684Y-168.851
X245.844Y-168.292
X269.208Y-190.391
X270.186Y-188.691
X272.471Y-228.649
X273.449Y-226.948
X274.564Y-169.777
X274.891Y-186.586
X274.973Y-187.162
X275.542Y-168.077
X277.827Y-208.035
X278.154Y-224.844
X278.236Y-225.42
X278.805Y-206.334
X280.247Y-165.972
X280.329Y-166.548
X283.51Y-204.23
X283.592Y-204.806
X287.842Y-186.43
X288.819Y-184.73
X291.105Y-224.688
X292.082Y-222.988
X292.736Y-243.817
X293.198Y-165.816
X293.525Y-182.626
X293.606Y-183.201
X293.714Y-242.116
X294.176Y-164.116
X296.461Y-204.074
X296.788Y-220.883
X296.869Y-221.459
X297.439Y-202.374
X298.419Y-240.012
X298.501Y-240.588
X298.881Y-162.012
X298.962Y-162.587
X302.144Y-200.269
X302.225Y-200.845
X306.475Y-182.47
X307.453Y-180.769
X309.738Y-220.727
X310.716Y-219.027
X311.832Y-161.856
X312.159Y-178.665
X312.24Y-179.241
X312.809Y-160.155
X315.095Y-200.113
X315.422Y-216.923
X315.503Y-217.498
X316.072Y-198.413
X317.515Y-158.051
X317.596Y-158.627
X320.778Y-196.309
X320.859Y-196.884
X325.109Y-178.509
X326.087Y-176.809
X328.372Y-216.767
X329.35Y-215.066
X330.465Y-157.895
X330.792Y-174.704
X330.874Y-175.28
X331.443Y-156.194
X332.333Y-235.4
X333.311Y-233.7
X333.728Y-196.153
X334.055Y-212.962
X334.137Y-213.538
X334.706Y-194.452
X336.148Y-154.09
X336.23Y-154.666
X338.016Y-231.596
X338.097Y-232.171
X339.411Y-192.348
X339.493Y-192.923
X347.185Y-174.812
X348.495Y-173.352
X351.947Y-155.762
X351.947Y-212.912
X353.257Y-154.302
X353.257Y-211.452
X353.495Y-172.852
X353.535Y-172.272
X356.71Y-193.862
X358.02Y-192.403
X358.257Y-153.802
X358.257Y-210.952
X358.297Y-153.222
X358.297Y-210.373
X363.02Y-191.903
X363.06Y-191.322
X366.235Y-174.812
X367.545Y-173.352
X370.998Y-155.762
X370.998Y-212.912
X372.308Y-154.302
X372.308Y-211.452
X372.545Y-172.852
X372.585Y-172.272
X375.76Y-193.862
X377.07Y-192.403
X377.308Y-153.802
X377.308Y-210.952
X377.347Y-153.222
X377.347Y-210.373
X380.522Y-231.962
X381.832Y-230.502
X382.07Y-191.903
X382.11Y-191.322
X385.285Y-174.812
X386.595Y-173.352
X386.832Y-230.002
X386.873Y-229.422
X391.595Y-172.852
X391.635Y-172.272
X397.191Y-212.912
X398.501Y-211.452
X399.572Y-155.762
X400.882Y-154.302
X403.501Y-210.952
X403.541Y-210.373
X405.882Y-153.802
X405.922Y-153.222
X406.716Y-193.862
X408.026Y-192.403
X409.097Y-174.812
X409.097Y-236.725
X410.407Y-173.352
X410.407Y-235.265
X413.026Y-191.903
X413.066Y-191.322
X415.407Y-172.852
X415.407Y-234.765
X415.447Y-172.272
X415.447Y-234.185
X428.147Y-217.675
X428.147Y-236.725
X429.457Y-216.215
X429.457Y-235.265
X432.91Y-151.0
X434.22Y-149.54
X434.457Y-215.715
X434.457Y-234.765
X434.498Y-215.135
X434.498Y-234.185
X437.672Y-170.05
X438.982Y-168.59
X439.22Y-149.04
X439.26Y-148.46
X442.435Y-189.1
X443.745Y-187.64
X443.982Y-168.09
X444.022Y-167.51
X447.197Y-236.725
X448.507Y-235.265
X448.745Y-187.14
X448.785Y-186.56
X453.507Y-234.765
X453.547Y-234.185
T0
M30
