G04 #@! TF.GenerationSoftware,KiCad,Pcbnew,(5.1.10)-1*
G04 #@! TF.CreationDate,2021-10-05T17:03:10+03:00*
G04 #@! TF.ProjectId,kolibri,6b6f6c69-6272-4692-9e6b-696361645f70,rev?*
G04 #@! TF.SameCoordinates,Original*
G04 #@! TF.FileFunction,Legend,Top*
G04 #@! TF.FilePolarity,Positive*
%FSLAX46Y46*%
G04 Gerber Fmt 4.6, Leading zero omitted, Abs format (unit mm)*
G04 Created by KiCad (PCBNEW (5.1.10)-1) date 2021-10-05 17:03:10*
%MOMM*%
%LPD*%
G01*
G04 APERTURE LIST*
%ADD10C,0.200000*%
%ADD11C,0.381000*%
%ADD12C,0.150000*%
%ADD13C,0.120000*%
%ADD14C,3.987800*%
%ADD15C,1.750000*%
%ADD16C,0.100000*%
%ADD17C,1.600000*%
%ADD18R,1.600000X1.600000*%
%ADD19R,1.200000X1.200000*%
%ADD20C,3.048000*%
%ADD21R,1.752600X1.752600*%
%ADD22C,1.752600*%
%ADD23C,2.000000*%
%ADD24R,2.000000X2.000000*%
G04 APERTURE END LIST*
D10*
X242103224Y-234375792D02*
X244450778Y-234874780D01*
X242066839Y-234546968D02*
X244414393Y-235045956D01*
X242030455Y-234718143D02*
X244378009Y-235217131D01*
X244294844Y-235608391D02*
X241947290Y-235109402D01*
X241994070Y-234889319D02*
X244341624Y-235388307D01*
X241968081Y-235011588D02*
X244315635Y-235510576D01*
X241952488Y-235084949D02*
X243158376Y-229411693D01*
X243158376Y-229411693D02*
X245505930Y-229910681D01*
X245505930Y-229910681D02*
X244300042Y-235583937D01*
X344061679Y-158348978D02*
X345267567Y-164022234D01*
X341714125Y-158847966D02*
X344061679Y-158348978D01*
X342920013Y-164521222D02*
X341714125Y-158847966D01*
X342904420Y-164447861D02*
X345251974Y-163948873D01*
X342878431Y-164325592D02*
X345225985Y-163826604D01*
X345272765Y-164046687D02*
X342925211Y-164545676D01*
X342842046Y-164154416D02*
X345189600Y-163655428D01*
X342805662Y-163983241D02*
X345153216Y-163484253D01*
X342769277Y-163812065D02*
X345116831Y-163313077D01*
X157100000Y-155200000D02*
X157100000Y-161000000D01*
X154700000Y-155200000D02*
X157100000Y-155200000D01*
X154700000Y-161000000D02*
X154700000Y-155200000D01*
X154700000Y-160925000D02*
X157100000Y-160925000D01*
X154700000Y-160800000D02*
X157100000Y-160800000D01*
X157100000Y-161025000D02*
X154700000Y-161025000D01*
X154700000Y-160625000D02*
X157100000Y-160625000D01*
X154700000Y-160450000D02*
X157100000Y-160450000D01*
X154700000Y-160275000D02*
X157100000Y-160275000D01*
X173750000Y-160385000D02*
X176150000Y-160385000D01*
X173750000Y-160560000D02*
X176150000Y-160560000D01*
X173750000Y-160735000D02*
X176150000Y-160735000D01*
X176150000Y-161135000D02*
X173750000Y-161135000D01*
X173750000Y-160910000D02*
X176150000Y-160910000D01*
X173750000Y-161035000D02*
X176150000Y-161035000D01*
X173750000Y-161110000D02*
X173750000Y-155310000D01*
X173750000Y-155310000D02*
X176150000Y-155310000D01*
X176150000Y-155310000D02*
X176150000Y-161110000D01*
X193505574Y-164576650D02*
X195853128Y-165075638D01*
X193469189Y-164747826D02*
X195816743Y-165246814D01*
X193432805Y-164919001D02*
X195780359Y-165417989D01*
X195697194Y-165809249D02*
X193349640Y-165310260D01*
X193396420Y-165090177D02*
X195743974Y-165589165D01*
X193370431Y-165212446D02*
X195717985Y-165711434D01*
X193354838Y-165285807D02*
X194560726Y-159612551D01*
X194560726Y-159612551D02*
X196908280Y-160111539D01*
X196908280Y-160111539D02*
X195702392Y-165784795D01*
X215541992Y-164072255D02*
X214336104Y-169745511D01*
X213194438Y-163573267D02*
X215541992Y-164072255D01*
X211988550Y-169246523D02*
X213194438Y-163573267D01*
X212004143Y-169173162D02*
X214351697Y-169672150D01*
X212030132Y-169050893D02*
X214377686Y-169549881D01*
X214330906Y-169769965D02*
X211983352Y-169270976D01*
X212066517Y-168879717D02*
X214414071Y-169378705D01*
X212102901Y-168708542D02*
X214450455Y-169207530D01*
X212139286Y-168537366D02*
X214486840Y-169036354D01*
X234175703Y-168032973D02*
X232969815Y-173706229D01*
X231828149Y-167533985D02*
X234175703Y-168032973D01*
X230622261Y-173207241D02*
X231828149Y-167533985D01*
X230637854Y-173133880D02*
X232985408Y-173632868D01*
X230663843Y-173011611D02*
X233011397Y-173510599D01*
X232964617Y-173730683D02*
X230617063Y-173231694D01*
X230700228Y-172840435D02*
X233047782Y-173339423D01*
X230736612Y-172669260D02*
X233084166Y-173168248D01*
X230772997Y-172498084D02*
X233120551Y-172997072D01*
X244024208Y-181353224D02*
X243525220Y-183700778D01*
X243853032Y-181316839D02*
X243354044Y-183664393D01*
X243681857Y-181280455D02*
X243182869Y-183628009D01*
X242791609Y-183544844D02*
X243290598Y-181197290D01*
X243510681Y-181244070D02*
X243011693Y-183591624D01*
X243388412Y-181218081D02*
X242889424Y-183565635D01*
X243315051Y-181202488D02*
X248988307Y-182408376D01*
X248988307Y-182408376D02*
X248489319Y-184755930D01*
X248489319Y-184755930D02*
X242816063Y-183550042D01*
X286868142Y-175694219D02*
X289215696Y-175195231D01*
X286904527Y-175865395D02*
X289252081Y-175366407D01*
X286940911Y-176036570D02*
X289288465Y-175537582D01*
X289371630Y-175928841D02*
X287024076Y-176427830D01*
X286977296Y-176207746D02*
X289324850Y-175708758D01*
X287003285Y-176330015D02*
X289350839Y-175831027D01*
X287018878Y-176403376D02*
X285812990Y-170730120D01*
X285812990Y-170730120D02*
X288160544Y-170231132D01*
X288160544Y-170231132D02*
X289366432Y-175904388D01*
X305501853Y-171733501D02*
X307849407Y-171234513D01*
X305538238Y-171904677D02*
X307885792Y-171405689D01*
X305574622Y-172075852D02*
X307922176Y-171576864D01*
X308005341Y-171968123D02*
X305657787Y-172467112D01*
X305611007Y-172247028D02*
X307958561Y-171748040D01*
X305636996Y-172369297D02*
X307984550Y-171870309D01*
X305652589Y-172442658D02*
X304446701Y-166769402D01*
X304446701Y-166769402D02*
X306794255Y-166270414D01*
X306794255Y-166270414D02*
X308000143Y-171943670D01*
X324135565Y-167772783D02*
X326483119Y-167273795D01*
X324171950Y-167943959D02*
X326519504Y-167444971D01*
X324208334Y-168115134D02*
X326555888Y-167616146D01*
X326639053Y-168007405D02*
X324291499Y-168506394D01*
X324244719Y-168286310D02*
X326592273Y-167787322D01*
X324270708Y-168408579D02*
X326618262Y-167909591D01*
X324286301Y-168481940D02*
X323080413Y-162808684D01*
X323080413Y-162808684D02*
X325427967Y-162309696D01*
X325427967Y-162309696D02*
X326633855Y-167982952D01*
X159472500Y-200427500D02*
X161872500Y-200427500D01*
X159472500Y-200602500D02*
X161872500Y-200602500D01*
X159472500Y-200777500D02*
X161872500Y-200777500D01*
X161872500Y-201177500D02*
X159472500Y-201177500D01*
X159472500Y-200952500D02*
X161872500Y-200952500D01*
X159472500Y-201077500D02*
X161872500Y-201077500D01*
X159472500Y-201152500D02*
X159472500Y-195352500D01*
X159472500Y-195352500D02*
X161872500Y-195352500D01*
X161872500Y-195352500D02*
X161872500Y-201152500D01*
X345929267Y-235854364D02*
X347135155Y-241527620D01*
X343581713Y-236353352D02*
X345929267Y-235854364D01*
X344787601Y-242026608D02*
X343581713Y-236353352D01*
X344772008Y-241953247D02*
X347119562Y-241454259D01*
X344746019Y-241830978D02*
X347093573Y-241331990D01*
X347140353Y-241552073D02*
X344792799Y-242051062D01*
X344709634Y-241659802D02*
X347057188Y-241160814D01*
X344673250Y-241488627D02*
X347020804Y-240989639D01*
X344636865Y-241317451D02*
X346984419Y-240818463D01*
X190382264Y-236626744D02*
X189176376Y-242300000D01*
X188034710Y-236127756D02*
X190382264Y-236626744D01*
X186828822Y-241801012D02*
X188034710Y-236127756D01*
X186844415Y-241727651D02*
X189191969Y-242226639D01*
X186870404Y-241605382D02*
X189217958Y-242104370D01*
X189171178Y-242324454D02*
X186823624Y-241825465D01*
X186906789Y-241434206D02*
X189254343Y-241933194D01*
X186943173Y-241263031D02*
X189290727Y-241762019D01*
X186979558Y-241091855D02*
X189327112Y-241590843D01*
X286067413Y-229102804D02*
X287273301Y-234776060D01*
X283719859Y-229601792D02*
X286067413Y-229102804D01*
X284925747Y-235275048D02*
X283719859Y-229601792D01*
X284910154Y-235201687D02*
X287257708Y-234702699D01*
X284884165Y-235079418D02*
X287231719Y-234580430D01*
X287278499Y-234800513D02*
X284930945Y-235299502D01*
X284847780Y-234908242D02*
X287195334Y-234409254D01*
X284811396Y-234737067D02*
X287158950Y-234238079D01*
X284775011Y-234565891D02*
X287122565Y-234066903D01*
X400582500Y-147800000D02*
X406382500Y-147800000D01*
X400582500Y-150200000D02*
X400582500Y-147800000D01*
X406382500Y-150200000D02*
X400582500Y-150200000D01*
X406307500Y-150200000D02*
X406307500Y-147800000D01*
X406182500Y-150200000D02*
X406182500Y-147800000D01*
X406407500Y-147800000D02*
X406407500Y-150200000D01*
X406007500Y-150200000D02*
X406007500Y-147800000D01*
X405832500Y-150200000D02*
X405832500Y-147800000D01*
X405657500Y-150200000D02*
X405657500Y-147800000D01*
X422857500Y-176302500D02*
X422857500Y-182102500D01*
X420457500Y-176302500D02*
X422857500Y-176302500D01*
X420457500Y-182102500D02*
X420457500Y-176302500D01*
X420457500Y-182027500D02*
X422857500Y-182027500D01*
X420457500Y-181902500D02*
X422857500Y-181902500D01*
X422857500Y-182127500D02*
X420457500Y-182127500D01*
X420457500Y-181727500D02*
X422857500Y-181727500D01*
X420457500Y-181552500D02*
X422857500Y-181552500D01*
X420457500Y-181377500D02*
X422857500Y-181377500D01*
X204915560Y-225428682D02*
X207263114Y-225927670D01*
X204879175Y-225599858D02*
X207226729Y-226098846D01*
X204842791Y-225771033D02*
X207190345Y-226270021D01*
X207107180Y-226661281D02*
X204759626Y-226162292D01*
X204806406Y-225942209D02*
X207153960Y-226441197D01*
X204780417Y-226064478D02*
X207127971Y-226563466D01*
X204764824Y-226137839D02*
X205970712Y-220464583D01*
X205970712Y-220464583D02*
X208318266Y-220963571D01*
X208318266Y-220963571D02*
X207112378Y-226636827D01*
X133278750Y-200427500D02*
X135678750Y-200427500D01*
X133278750Y-200602500D02*
X135678750Y-200602500D01*
X133278750Y-200777500D02*
X135678750Y-200777500D01*
X135678750Y-201177500D02*
X133278750Y-201177500D01*
X133278750Y-200952500D02*
X135678750Y-200952500D01*
X133278750Y-201077500D02*
X135678750Y-201077500D01*
X133278750Y-201152500D02*
X133278750Y-195352500D01*
X133278750Y-195352500D02*
X135678750Y-195352500D01*
X135678750Y-195352500D02*
X135678750Y-201152500D01*
X377595000Y-181377500D02*
X379995000Y-181377500D01*
X377595000Y-181552500D02*
X379995000Y-181552500D01*
X377595000Y-181727500D02*
X379995000Y-181727500D01*
X379995000Y-182127500D02*
X377595000Y-182127500D01*
X377595000Y-181902500D02*
X379995000Y-181902500D01*
X377595000Y-182027500D02*
X379995000Y-182027500D01*
X377595000Y-182102500D02*
X377595000Y-176302500D01*
X377595000Y-176302500D02*
X379995000Y-176302500D01*
X379995000Y-176302500D02*
X379995000Y-182102500D01*
X340676147Y-222683739D02*
X343023701Y-222184751D01*
X340712532Y-222854915D02*
X343060086Y-222355927D01*
X340748916Y-223026090D02*
X343096470Y-222527102D01*
X343179635Y-222918361D02*
X340832081Y-223417350D01*
X340785301Y-223197266D02*
X343132855Y-222698278D01*
X340811290Y-223319535D02*
X343158844Y-222820547D01*
X340826883Y-223392896D02*
X339620995Y-217719640D01*
X339620995Y-217719640D02*
X341968549Y-217220652D01*
X341968549Y-217220652D02*
X343174437Y-222893908D01*
X394282500Y-233452500D02*
X394282500Y-239252500D01*
X391882500Y-233452500D02*
X394282500Y-233452500D01*
X391882500Y-239252500D02*
X391882500Y-233452500D01*
X391882500Y-239177500D02*
X394282500Y-239177500D01*
X391882500Y-239052500D02*
X394282500Y-239052500D01*
X394282500Y-239277500D02*
X391882500Y-239277500D01*
X391882500Y-238877500D02*
X394282500Y-238877500D01*
X391882500Y-238702500D02*
X394282500Y-238702500D01*
X391882500Y-238527500D02*
X394282500Y-238527500D01*
X128535000Y-233452500D02*
X128535000Y-239252500D01*
X126135000Y-233452500D02*
X128535000Y-233452500D01*
X126135000Y-239252500D02*
X126135000Y-233452500D01*
X126135000Y-239177500D02*
X128535000Y-239177500D01*
X126135000Y-239052500D02*
X128535000Y-239052500D01*
X128535000Y-239277500D02*
X126135000Y-239277500D01*
X126135000Y-238877500D02*
X128535000Y-238877500D01*
X126135000Y-238702500D02*
X128535000Y-238702500D01*
X126135000Y-238527500D02*
X128535000Y-238527500D01*
X202962128Y-200349500D02*
X201756240Y-206022756D01*
X200614574Y-199850512D02*
X202962128Y-200349500D01*
X199408686Y-205523768D02*
X200614574Y-199850512D01*
X199424279Y-205450407D02*
X201771833Y-205949395D01*
X199450268Y-205328138D02*
X201797822Y-205827126D01*
X201751042Y-206047210D02*
X199403488Y-205548221D01*
X199486653Y-205156962D02*
X201834207Y-205655950D01*
X199523037Y-204985787D02*
X201870591Y-205484775D01*
X199559422Y-204814611D02*
X201906976Y-205313599D01*
X456195000Y-190590000D02*
X456195000Y-196390000D01*
X453795000Y-190590000D02*
X456195000Y-190590000D01*
X453795000Y-196390000D02*
X453795000Y-190590000D01*
X453795000Y-196315000D02*
X456195000Y-196315000D01*
X453795000Y-196190000D02*
X456195000Y-196190000D01*
X456195000Y-196415000D02*
X453795000Y-196415000D01*
X453795000Y-196015000D02*
X456195000Y-196015000D01*
X453795000Y-195840000D02*
X456195000Y-195840000D01*
X453795000Y-195665000D02*
X456195000Y-195665000D01*
X365707500Y-214402500D02*
X365707500Y-220202500D01*
X363307500Y-214402500D02*
X365707500Y-214402500D01*
X363307500Y-220202500D02*
X363307500Y-214402500D01*
X363307500Y-220127500D02*
X365707500Y-220127500D01*
X363307500Y-220002500D02*
X365707500Y-220002500D01*
X365707500Y-220227500D02*
X363307500Y-220227500D01*
X363307500Y-219827500D02*
X365707500Y-219827500D01*
X363307500Y-219652500D02*
X365707500Y-219652500D01*
X363307500Y-219477500D02*
X365707500Y-219477500D01*
X441907500Y-238215000D02*
X441907500Y-244015000D01*
X439507500Y-238215000D02*
X441907500Y-238215000D01*
X439507500Y-244015000D02*
X439507500Y-238215000D01*
X439507500Y-243940000D02*
X441907500Y-243940000D01*
X439507500Y-243815000D02*
X441907500Y-243815000D01*
X441907500Y-244040000D02*
X439507500Y-244040000D01*
X439507500Y-243640000D02*
X441907500Y-243640000D01*
X439507500Y-243465000D02*
X441907500Y-243465000D01*
X439507500Y-243290000D02*
X441907500Y-243290000D01*
X198861712Y-185190720D02*
X201209266Y-185689708D01*
X198825327Y-185361896D02*
X201172881Y-185860884D01*
X198788943Y-185533071D02*
X201136497Y-186032059D01*
X201053332Y-186423319D02*
X198705778Y-185924330D01*
X198752558Y-185704247D02*
X201100112Y-186203235D01*
X198726569Y-185826516D02*
X201074123Y-186325504D01*
X198710976Y-185899877D02*
X199916864Y-180226621D01*
X199916864Y-180226621D02*
X202264418Y-180725609D01*
X202264418Y-180725609D02*
X201058530Y-186398865D01*
X412801250Y-188200000D02*
X412801250Y-185800000D01*
X412976250Y-188200000D02*
X412976250Y-185800000D01*
X413151250Y-188200000D02*
X413151250Y-185800000D01*
X413551250Y-185800000D02*
X413551250Y-188200000D01*
X413326250Y-188200000D02*
X413326250Y-185800000D01*
X413451250Y-188200000D02*
X413451250Y-185800000D01*
X413526250Y-188200000D02*
X407726250Y-188200000D01*
X407726250Y-188200000D02*
X407726250Y-185800000D01*
X407726250Y-185800000D02*
X413526250Y-185800000D01*
X384757500Y-157252500D02*
X384757500Y-163052500D01*
X382357500Y-157252500D02*
X384757500Y-157252500D01*
X382357500Y-163052500D02*
X382357500Y-157252500D01*
X382357500Y-162977500D02*
X384757500Y-162977500D01*
X382357500Y-162852500D02*
X384757500Y-162852500D01*
X384757500Y-163077500D02*
X382357500Y-163077500D01*
X382357500Y-162677500D02*
X384757500Y-162677500D01*
X382357500Y-162502500D02*
X384757500Y-162502500D01*
X382357500Y-162327500D02*
X384757500Y-162327500D01*
X138060000Y-157252500D02*
X138060000Y-163052500D01*
X135660000Y-157252500D02*
X138060000Y-157252500D01*
X135660000Y-163052500D02*
X135660000Y-157252500D01*
X135660000Y-162977500D02*
X138060000Y-162977500D01*
X135660000Y-162852500D02*
X138060000Y-162852500D01*
X138060000Y-163077500D02*
X135660000Y-163077500D01*
X135660000Y-162677500D02*
X138060000Y-162677500D01*
X135660000Y-162502500D02*
X138060000Y-162502500D01*
X135660000Y-162327500D02*
X138060000Y-162327500D01*
X218193134Y-208775329D02*
X220540688Y-209274317D01*
X218156749Y-208946505D02*
X220504303Y-209445493D01*
X218120365Y-209117680D02*
X220467919Y-209616668D01*
X220384754Y-210007928D02*
X218037200Y-209508939D01*
X218083980Y-209288856D02*
X220431534Y-209787844D01*
X218057991Y-209411125D02*
X220405545Y-209910113D01*
X218042398Y-209484486D02*
X219248286Y-203811230D01*
X219248286Y-203811230D02*
X221595840Y-204310218D01*
X221595840Y-204310218D02*
X220389952Y-209983474D01*
X247539121Y-253964188D02*
X249886675Y-254463176D01*
X247502736Y-254135364D02*
X249850290Y-254634352D01*
X247466352Y-254306539D02*
X249813906Y-254805527D01*
X249730741Y-255196787D02*
X247383187Y-254697798D01*
X247429967Y-254477715D02*
X249777521Y-254976703D01*
X247403978Y-254599984D02*
X249751532Y-255098972D01*
X247388385Y-254673345D02*
X248594273Y-249000089D01*
X248594273Y-249000089D02*
X250941827Y-249499077D01*
X250941827Y-249499077D02*
X249735939Y-255172333D01*
X236826845Y-212736046D02*
X239174399Y-213235034D01*
X236790460Y-212907222D02*
X239138014Y-213406210D01*
X236754076Y-213078397D02*
X239101630Y-213577385D01*
X239018465Y-213968645D02*
X236670911Y-213469656D01*
X236717691Y-213249573D02*
X239065245Y-213748561D01*
X236691702Y-213371842D02*
X239039256Y-213870830D01*
X236676109Y-213445203D02*
X237881997Y-207771947D01*
X237881997Y-207771947D02*
X240229551Y-208270935D01*
X240229551Y-208270935D02*
X239023663Y-213944191D01*
X291423551Y-208488734D02*
X292629439Y-214161990D01*
X289075997Y-208987722D02*
X291423551Y-208488734D01*
X290281885Y-214660978D02*
X289075997Y-208987722D01*
X290266292Y-214587617D02*
X292613846Y-214088629D01*
X290240303Y-214465348D02*
X292587857Y-213966360D01*
X292634637Y-214186443D02*
X290287083Y-214685432D01*
X290203918Y-214294172D02*
X292551472Y-213795184D01*
X290167534Y-214122997D02*
X292515088Y-213624009D01*
X290131149Y-213951821D02*
X292478703Y-213452833D01*
X320071829Y-182923766D02*
X321277717Y-188597022D01*
X317724275Y-183422754D02*
X320071829Y-182923766D01*
X318930163Y-189096010D02*
X317724275Y-183422754D01*
X318914570Y-189022649D02*
X321262124Y-188523661D01*
X318888581Y-188900380D02*
X321236135Y-188401392D01*
X321282915Y-188621475D02*
X318935361Y-189120464D01*
X318852196Y-188729204D02*
X321199750Y-188230216D01*
X318815812Y-188558029D02*
X321163366Y-188059041D01*
X318779427Y-188386853D02*
X321126981Y-187887865D01*
X310057263Y-204528016D02*
X311263151Y-210201272D01*
X307709709Y-205027004D02*
X310057263Y-204528016D01*
X308915597Y-210700260D02*
X307709709Y-205027004D01*
X308900004Y-210626899D02*
X311247558Y-210127911D01*
X308874015Y-210504630D02*
X311221569Y-210005642D01*
X311268349Y-210225725D02*
X308920795Y-210724714D01*
X308837630Y-210333454D02*
X311185184Y-209834466D01*
X308801246Y-210162279D02*
X311148800Y-209663291D01*
X308764861Y-209991103D02*
X311112415Y-209492115D01*
X327398573Y-206030385D02*
X329746127Y-205531397D01*
X327434958Y-206201561D02*
X329782512Y-205702573D01*
X327471342Y-206372736D02*
X329818896Y-205873748D01*
X329902061Y-206265007D02*
X327554507Y-206763996D01*
X327507727Y-206543912D02*
X329855281Y-206044924D01*
X327533716Y-206666181D02*
X329881270Y-206167193D01*
X327549309Y-206739542D02*
X326343421Y-201066286D01*
X326343421Y-201066286D02*
X328690975Y-200567298D01*
X328690975Y-200567298D02*
X329896863Y-206240554D01*
X346032285Y-202069667D02*
X348379839Y-201570679D01*
X346068670Y-202240843D02*
X348416224Y-201741855D01*
X346105054Y-202412018D02*
X348452608Y-201913030D01*
X348535773Y-202304289D02*
X346188219Y-202803278D01*
X346141439Y-202583194D02*
X348488993Y-202084206D01*
X346167428Y-202705463D02*
X348514982Y-202206475D01*
X346183021Y-202778824D02*
X344977133Y-197105568D01*
X344977133Y-197105568D02*
X347324687Y-196606580D01*
X347324687Y-196606580D02*
X348530575Y-202279836D01*
X420457500Y-243290000D02*
X422857500Y-243290000D01*
X420457500Y-243465000D02*
X422857500Y-243465000D01*
X420457500Y-243640000D02*
X422857500Y-243640000D01*
X422857500Y-244040000D02*
X420457500Y-244040000D01*
X420457500Y-243815000D02*
X422857500Y-243815000D01*
X420457500Y-243940000D02*
X422857500Y-243940000D01*
X420457500Y-244015000D02*
X420457500Y-238215000D01*
X420457500Y-238215000D02*
X422857500Y-238215000D01*
X422857500Y-238215000D02*
X422857500Y-244015000D01*
X322042435Y-226644457D02*
X324389989Y-226145469D01*
X322078820Y-226815633D02*
X324426374Y-226316645D01*
X322115204Y-226986808D02*
X324462758Y-226487820D01*
X324545923Y-226879079D02*
X322198369Y-227378068D01*
X322151589Y-227157984D02*
X324499143Y-226658996D01*
X322177578Y-227280253D02*
X324525132Y-226781265D01*
X322193171Y-227353614D02*
X320987283Y-221680358D01*
X320987283Y-221680358D02*
X323334837Y-221181370D01*
X323334837Y-221181370D02*
X324540725Y-226854626D01*
X365707500Y-157252500D02*
X365707500Y-163052500D01*
X363307500Y-157252500D02*
X365707500Y-157252500D01*
X363307500Y-163052500D02*
X363307500Y-157252500D01*
X363307500Y-162977500D02*
X365707500Y-162977500D01*
X363307500Y-162852500D02*
X365707500Y-162852500D01*
X365707500Y-163077500D02*
X363307500Y-163077500D01*
X363307500Y-162677500D02*
X365707500Y-162677500D01*
X363307500Y-162502500D02*
X365707500Y-162502500D01*
X363307500Y-162327500D02*
X365707500Y-162327500D01*
X303408723Y-229374780D02*
X305756277Y-228875792D01*
X303445108Y-229545956D02*
X305792662Y-229046968D01*
X303481492Y-229717131D02*
X305829046Y-229218143D01*
X305912211Y-229609402D02*
X303564657Y-230108391D01*
X303517877Y-229888307D02*
X305865431Y-229389319D01*
X303543866Y-230010576D02*
X305891420Y-229511588D01*
X303559459Y-230083937D02*
X302353571Y-224410681D01*
X302353571Y-224410681D02*
X304701125Y-223911693D01*
X304701125Y-223911693D02*
X305907013Y-229584949D01*
X338705541Y-178963048D02*
X339911429Y-184636304D01*
X336357987Y-179462036D02*
X338705541Y-178963048D01*
X337563875Y-185135292D02*
X336357987Y-179462036D01*
X337548282Y-185061931D02*
X339895836Y-184562943D01*
X337522293Y-184939662D02*
X339869847Y-184440674D01*
X339916627Y-184660757D02*
X337569073Y-185159746D01*
X337485908Y-184768486D02*
X339833462Y-184269498D01*
X337449524Y-184597311D02*
X339797078Y-184098323D01*
X337413139Y-184426135D02*
X339760693Y-183927147D01*
X396645000Y-181377500D02*
X399045000Y-181377500D01*
X396645000Y-181552500D02*
X399045000Y-181552500D01*
X396645000Y-181727500D02*
X399045000Y-181727500D01*
X399045000Y-182127500D02*
X396645000Y-182127500D01*
X396645000Y-181902500D02*
X399045000Y-181902500D01*
X396645000Y-182027500D02*
X399045000Y-182027500D01*
X396645000Y-182102500D02*
X396645000Y-176302500D01*
X396645000Y-176302500D02*
X399045000Y-176302500D01*
X399045000Y-176302500D02*
X399045000Y-182102500D01*
X360945000Y-176302500D02*
X360945000Y-182102500D01*
X358545000Y-176302500D02*
X360945000Y-176302500D01*
X358545000Y-182102500D02*
X358545000Y-176302500D01*
X358545000Y-182027500D02*
X360945000Y-182027500D01*
X358545000Y-181902500D02*
X360945000Y-181902500D01*
X360945000Y-182127500D02*
X358545000Y-182127500D01*
X358545000Y-181727500D02*
X360945000Y-181727500D01*
X358545000Y-181552500D02*
X360945000Y-181552500D01*
X358545000Y-181377500D02*
X360945000Y-181377500D01*
X451432500Y-171540000D02*
X451432500Y-177340000D01*
X449032500Y-171540000D02*
X451432500Y-171540000D01*
X449032500Y-177340000D02*
X449032500Y-171540000D01*
X449032500Y-177265000D02*
X451432500Y-177265000D01*
X449032500Y-177140000D02*
X451432500Y-177140000D01*
X451432500Y-177365000D02*
X449032500Y-177365000D01*
X449032500Y-176965000D02*
X451432500Y-176965000D01*
X449032500Y-176790000D02*
X451432500Y-176790000D01*
X449032500Y-176615000D02*
X451432500Y-176615000D01*
X422800000Y-162800000D02*
X422800000Y-157000000D01*
X425200000Y-162800000D02*
X422800000Y-162800000D01*
X425200000Y-157000000D02*
X425200000Y-162800000D01*
X425200000Y-157075000D02*
X422800000Y-157075000D01*
X425200000Y-157200000D02*
X422800000Y-157200000D01*
X422800000Y-156975000D02*
X425200000Y-156975000D01*
X425200000Y-157375000D02*
X422800000Y-157375000D01*
X425200000Y-157550000D02*
X422800000Y-157550000D01*
X425200000Y-157725000D02*
X422800000Y-157725000D01*
X159472500Y-181377500D02*
X161872500Y-181377500D01*
X159472500Y-181552500D02*
X161872500Y-181552500D01*
X159472500Y-181727500D02*
X161872500Y-181727500D01*
X161872500Y-182127500D02*
X159472500Y-182127500D01*
X159472500Y-181902500D02*
X161872500Y-181902500D01*
X159472500Y-182027500D02*
X161872500Y-182027500D01*
X159472500Y-182102500D02*
X159472500Y-176302500D01*
X159472500Y-176302500D02*
X161872500Y-176302500D01*
X161872500Y-176302500D02*
X161872500Y-182102500D01*
X389520000Y-195352500D02*
X389520000Y-201152500D01*
X387120000Y-195352500D02*
X389520000Y-195352500D01*
X387120000Y-201152500D02*
X387120000Y-195352500D01*
X387120000Y-201077500D02*
X389520000Y-201077500D01*
X387120000Y-200952500D02*
X389520000Y-200952500D01*
X389520000Y-201177500D02*
X387120000Y-201177500D01*
X387120000Y-200777500D02*
X389520000Y-200777500D01*
X387120000Y-200602500D02*
X389520000Y-200602500D01*
X387120000Y-200427500D02*
X389520000Y-200427500D01*
X217495424Y-189151438D02*
X219842978Y-189650426D01*
X217459039Y-189322614D02*
X219806593Y-189821602D01*
X217422655Y-189493789D02*
X219770209Y-189992777D01*
X219687044Y-190384037D02*
X217339490Y-189885048D01*
X217386270Y-189664965D02*
X219733824Y-190163953D01*
X217360281Y-189787234D02*
X219707835Y-190286222D01*
X217344688Y-189860595D02*
X218550576Y-184187339D01*
X218550576Y-184187339D02*
X220898130Y-184686327D01*
X220898130Y-184686327D02*
X219692242Y-190359583D01*
X458557500Y-243290000D02*
X460957500Y-243290000D01*
X458557500Y-243465000D02*
X460957500Y-243465000D01*
X458557500Y-243640000D02*
X460957500Y-243640000D01*
X460957500Y-244040000D02*
X458557500Y-244040000D01*
X458557500Y-243815000D02*
X460957500Y-243815000D01*
X458557500Y-243940000D02*
X460957500Y-243940000D01*
X458557500Y-244015000D02*
X458557500Y-238215000D01*
X458557500Y-238215000D02*
X460957500Y-238215000D01*
X460957500Y-238215000D02*
X460957500Y-244015000D01*
X184328416Y-195510681D02*
X183122528Y-201183937D01*
X181980862Y-195011693D02*
X184328416Y-195510681D01*
X180774974Y-200684949D02*
X181980862Y-195011693D01*
X180790567Y-200611588D02*
X183138121Y-201110576D01*
X180816556Y-200489319D02*
X183164110Y-200988307D01*
X183117330Y-201208391D02*
X180769776Y-200709402D01*
X180852941Y-200318143D02*
X183200495Y-200817131D01*
X180889325Y-200146968D02*
X183236879Y-200645956D01*
X180925710Y-199975792D02*
X183273264Y-200474780D01*
X370470000Y-195352500D02*
X370470000Y-201152500D01*
X368070000Y-195352500D02*
X370470000Y-195352500D01*
X368070000Y-201152500D02*
X368070000Y-195352500D01*
X368070000Y-201077500D02*
X370470000Y-201077500D01*
X368070000Y-200952500D02*
X370470000Y-200952500D01*
X370470000Y-201177500D02*
X368070000Y-201177500D01*
X368070000Y-200777500D02*
X370470000Y-200777500D01*
X368070000Y-200602500D02*
X370470000Y-200602500D01*
X368070000Y-200427500D02*
X370470000Y-200427500D01*
X410951250Y-214402500D02*
X410951250Y-220202500D01*
X408551250Y-214402500D02*
X410951250Y-214402500D01*
X408551250Y-220202500D02*
X408551250Y-214402500D01*
X408551250Y-220127500D02*
X410951250Y-220127500D01*
X408551250Y-220002500D02*
X410951250Y-220002500D01*
X410951250Y-220227500D02*
X408551250Y-220227500D01*
X408551250Y-219827500D02*
X410951250Y-219827500D01*
X408551250Y-219652500D02*
X410951250Y-219652500D01*
X408551250Y-219477500D02*
X410951250Y-219477500D01*
X128003750Y-207200000D02*
X128003750Y-204800000D01*
X128178750Y-207200000D02*
X128178750Y-204800000D01*
X128353750Y-207200000D02*
X128353750Y-204800000D01*
X128753750Y-204800000D02*
X128753750Y-207200000D01*
X128528750Y-207200000D02*
X128528750Y-204800000D01*
X128653750Y-207200000D02*
X128653750Y-204800000D01*
X128728750Y-207200000D02*
X122928750Y-207200000D01*
X122928750Y-207200000D02*
X122928750Y-204800000D01*
X122928750Y-204800000D02*
X128728750Y-204800000D01*
X384757500Y-214402500D02*
X384757500Y-220202500D01*
X382357500Y-214402500D02*
X384757500Y-214402500D01*
X382357500Y-220202500D02*
X382357500Y-214402500D01*
X382357500Y-220127500D02*
X384757500Y-220127500D01*
X382357500Y-220002500D02*
X384757500Y-220002500D01*
X384757500Y-220227500D02*
X382357500Y-220227500D01*
X382357500Y-219827500D02*
X384757500Y-219827500D01*
X382357500Y-219652500D02*
X384757500Y-219652500D01*
X382357500Y-219477500D02*
X384757500Y-219477500D01*
X294002699Y-235408376D02*
X299675955Y-234202488D01*
X294501687Y-237755930D02*
X294002699Y-235408376D01*
X300174943Y-236550042D02*
X294501687Y-237755930D01*
X300101582Y-236565635D02*
X299602594Y-234218081D01*
X299979313Y-236591624D02*
X299480325Y-234244070D01*
X299700408Y-234197290D02*
X300199397Y-236544844D01*
X299808137Y-236628009D02*
X299309149Y-234280455D01*
X299636962Y-236664393D02*
X299137974Y-234316839D01*
X299465786Y-236700778D02*
X298966798Y-234353224D01*
X210725000Y-233800000D02*
X210725000Y-236200000D01*
X210550000Y-233800000D02*
X210550000Y-236200000D01*
X210375000Y-233800000D02*
X210375000Y-236200000D01*
X209975000Y-236200000D02*
X209975000Y-233800000D01*
X210200000Y-233800000D02*
X210200000Y-236200000D01*
X210075000Y-233800000D02*
X210075000Y-236200000D01*
X210000000Y-233800000D02*
X215800000Y-233800000D01*
X215800000Y-233800000D02*
X215800000Y-236200000D01*
X215800000Y-236200000D02*
X210000000Y-236200000D01*
X236129135Y-193112156D02*
X238476689Y-193611144D01*
X236092750Y-193283332D02*
X238440304Y-193782320D01*
X236056366Y-193454507D02*
X238403920Y-193953495D01*
X238320755Y-194344755D02*
X235973201Y-193845766D01*
X236019981Y-193625683D02*
X238367535Y-194124671D01*
X235993992Y-193747952D02*
X238341546Y-194246940D01*
X235978399Y-193821313D02*
X237184287Y-188148057D01*
X237184287Y-188148057D02*
X239531841Y-188647045D01*
X239531841Y-188647045D02*
X238325953Y-194320301D01*
X135660000Y-181377500D02*
X138060000Y-181377500D01*
X135660000Y-181552500D02*
X138060000Y-181552500D01*
X135660000Y-181727500D02*
X138060000Y-181727500D01*
X138060000Y-182127500D02*
X135660000Y-182127500D01*
X135660000Y-181902500D02*
X138060000Y-181902500D01*
X135660000Y-182027500D02*
X138060000Y-182027500D01*
X135660000Y-182102500D02*
X135660000Y-176302500D01*
X135660000Y-176302500D02*
X138060000Y-176302500D01*
X138060000Y-176302500D02*
X138060000Y-182102500D01*
X301438117Y-186884483D02*
X302644005Y-192557739D01*
X299090563Y-187383471D02*
X301438117Y-186884483D01*
X300296451Y-193056727D02*
X299090563Y-187383471D01*
X300280858Y-192983366D02*
X302628412Y-192484378D01*
X300254869Y-192861097D02*
X302602423Y-192362109D01*
X302649203Y-192582192D02*
X300301649Y-193081181D01*
X300218484Y-192689921D02*
X302566038Y-192190933D01*
X300182100Y-192518746D02*
X302529654Y-192019758D01*
X300145715Y-192347570D02*
X302493269Y-191848582D01*
X439507500Y-222275000D02*
X441907500Y-222275000D01*
X439507500Y-222450000D02*
X441907500Y-222450000D01*
X439507500Y-222625000D02*
X441907500Y-222625000D01*
X441907500Y-223025000D02*
X439507500Y-223025000D01*
X439507500Y-222800000D02*
X441907500Y-222800000D01*
X439507500Y-222925000D02*
X441907500Y-222925000D01*
X439507500Y-223000000D02*
X439507500Y-217200000D01*
X439507500Y-217200000D02*
X441907500Y-217200000D01*
X441907500Y-217200000D02*
X441907500Y-223000000D01*
X226951978Y-224924289D02*
X225746090Y-230597545D01*
X224604424Y-224425301D02*
X226951978Y-224924289D01*
X223398536Y-230098557D02*
X224604424Y-224425301D01*
X223414129Y-230025196D02*
X225761683Y-230524184D01*
X223440118Y-229902927D02*
X225787672Y-230401915D01*
X225740892Y-230621999D02*
X223393338Y-230123010D01*
X223476503Y-229731751D02*
X225824057Y-230230739D01*
X223512887Y-229560576D02*
X225860441Y-230059564D01*
X223549272Y-229389400D02*
X225896826Y-229888388D01*
X180228000Y-181230002D02*
X182575554Y-181728990D01*
X180191615Y-181401178D02*
X182539169Y-181900166D01*
X180155231Y-181572353D02*
X182502785Y-182071341D01*
X182419620Y-182462601D02*
X180072066Y-181963612D01*
X180118846Y-181743529D02*
X182466400Y-182242517D01*
X180092857Y-181865798D02*
X182440411Y-182364786D01*
X180077264Y-181939159D02*
X181283152Y-176265903D01*
X181283152Y-176265903D02*
X183630706Y-176764891D01*
X183630706Y-176764891D02*
X182424818Y-182438147D01*
X186281848Y-221467964D02*
X188629402Y-221966952D01*
X186245463Y-221639140D02*
X188593017Y-222138128D01*
X186209079Y-221810315D02*
X188556633Y-222309303D01*
X188473468Y-222700563D02*
X186125914Y-222201574D01*
X186172694Y-221981491D02*
X188520248Y-222480479D01*
X186146705Y-222103760D02*
X188494259Y-222602748D01*
X186131112Y-222177121D02*
X187337000Y-216503865D01*
X187337000Y-216503865D02*
X189684554Y-217002853D01*
X189684554Y-217002853D02*
X188478666Y-222676109D01*
X281512004Y-196308288D02*
X283859558Y-195809300D01*
X281548389Y-196479464D02*
X283895943Y-195980476D01*
X281584773Y-196650639D02*
X283932327Y-196151651D01*
X284015492Y-196542910D02*
X281667938Y-197041899D01*
X281621158Y-196821815D02*
X283968712Y-196322827D01*
X281647147Y-196944084D02*
X283994701Y-196445096D01*
X281662740Y-197017445D02*
X280456852Y-191344189D01*
X280456852Y-191344189D02*
X282804406Y-190845201D01*
X282804406Y-190845201D02*
X284010294Y-196518457D01*
X164235000Y-219477500D02*
X166635000Y-219477500D01*
X164235000Y-219652500D02*
X166635000Y-219652500D01*
X164235000Y-219827500D02*
X166635000Y-219827500D01*
X166635000Y-220227500D02*
X164235000Y-220227500D01*
X164235000Y-220002500D02*
X166635000Y-220002500D01*
X164235000Y-220127500D02*
X166635000Y-220127500D01*
X164235000Y-220202500D02*
X164235000Y-214402500D01*
X164235000Y-214402500D02*
X166635000Y-214402500D01*
X166635000Y-214402500D02*
X166635000Y-220202500D01*
D11*
X251660000Y-144160000D02*
X251660000Y-174640000D01*
X251660000Y-174640000D02*
X269440000Y-174640000D01*
X269440000Y-174640000D02*
X269440000Y-144160000D01*
X254200000Y-144160000D02*
X254200000Y-146700000D01*
X254200000Y-146700000D02*
X251660000Y-146700000D01*
D12*
G36*
X265481568Y-150039360D02*
G01*
X265481568Y-150339360D01*
X265381568Y-150339360D01*
X265381568Y-150039360D01*
X265481568Y-150039360D01*
G37*
X265481568Y-150039360D02*
X265481568Y-150339360D01*
X265381568Y-150339360D01*
X265381568Y-150039360D01*
X265481568Y-150039360D01*
G36*
X265281568Y-150439360D02*
G01*
X265281568Y-150539360D01*
X265181568Y-150539360D01*
X265181568Y-150439360D01*
X265281568Y-150439360D01*
G37*
X265281568Y-150439360D02*
X265281568Y-150539360D01*
X265181568Y-150539360D01*
X265181568Y-150439360D01*
X265281568Y-150439360D01*
G36*
X265481568Y-150039360D02*
G01*
X265481568Y-150139360D01*
X264981568Y-150139360D01*
X264981568Y-150039360D01*
X265481568Y-150039360D01*
G37*
X265481568Y-150039360D02*
X265481568Y-150139360D01*
X264981568Y-150139360D01*
X264981568Y-150039360D01*
X265481568Y-150039360D01*
G36*
X265081568Y-150039360D02*
G01*
X265081568Y-150839360D01*
X264981568Y-150839360D01*
X264981568Y-150039360D01*
X265081568Y-150039360D01*
G37*
X265081568Y-150039360D02*
X265081568Y-150839360D01*
X264981568Y-150839360D01*
X264981568Y-150039360D01*
X265081568Y-150039360D01*
G36*
X265481568Y-150639360D02*
G01*
X265481568Y-150839360D01*
X265381568Y-150839360D01*
X265381568Y-150639360D01*
X265481568Y-150639360D01*
G37*
X265481568Y-150639360D02*
X265481568Y-150839360D01*
X265381568Y-150839360D01*
X265381568Y-150639360D01*
X265481568Y-150639360D01*
D11*
X269440000Y-144160000D02*
X269440000Y-141620000D01*
X269440000Y-141620000D02*
X251660000Y-141620000D01*
X251660000Y-141620000D02*
X251660000Y-144160000D01*
X254200000Y-144160000D02*
X251660000Y-144160000D01*
D13*
X439720000Y-153540000D02*
G75*
G03*
X439720000Y-153540000I-3000000J0D01*
G01*
X438720000Y-147640000D02*
X442820000Y-147640000D01*
X442820000Y-159440000D02*
X438720000Y-159440000D01*
X434720000Y-159440000D02*
X430620000Y-159440000D01*
X434720000Y-147640000D02*
X430620000Y-147640000D01*
X430620000Y-147640000D02*
X430620000Y-159440000D01*
X429220000Y-149740000D02*
X428920000Y-149440000D01*
X428920000Y-149440000D02*
X429520000Y-149440000D01*
X429520000Y-149440000D02*
X429220000Y-149740000D01*
X442820000Y-147640000D02*
X442820000Y-150040000D01*
X442820000Y-152240000D02*
X442820000Y-154840000D01*
X442820000Y-157040000D02*
X442820000Y-159440000D01*
X436720000Y-153040000D02*
X436720000Y-154040000D01*
X436220000Y-153540000D02*
X437220000Y-153540000D01*
D10*
X449725000Y-149800000D02*
X449725000Y-152200000D01*
X449550000Y-149800000D02*
X449550000Y-152200000D01*
X449375000Y-149800000D02*
X449375000Y-152200000D01*
X448975000Y-152200000D02*
X448975000Y-149800000D01*
X449200000Y-149800000D02*
X449200000Y-152200000D01*
X449075000Y-149800000D02*
X449075000Y-152200000D01*
X449000000Y-149800000D02*
X454800000Y-149800000D01*
X454800000Y-149800000D02*
X454800000Y-152200000D01*
X454800000Y-152200000D02*
X449000000Y-152200000D01*
D12*
X245717635Y-234142408D02*
X244935117Y-233976078D01*
X244974719Y-233789765D01*
X245035743Y-233685897D01*
X245126109Y-233627212D01*
X245208555Y-233605790D01*
X245365527Y-233600209D01*
X245477315Y-233623971D01*
X245618446Y-233692915D01*
X245685051Y-233746019D01*
X245743735Y-233836385D01*
X245757237Y-233956094D01*
X245717635Y-234142408D01*
X245918887Y-233562044D02*
X246045614Y-232965840D01*
X245656244Y-232415721D02*
X245717268Y-232311853D01*
X245762451Y-232282511D01*
X245844897Y-232261089D01*
X245956685Y-232284850D01*
X246023290Y-232337954D01*
X246052633Y-232383137D01*
X246074055Y-232465583D01*
X246010691Y-232763685D01*
X245228173Y-232597356D01*
X245283616Y-232336517D01*
X245336720Y-232269912D01*
X245381903Y-232240569D01*
X245464349Y-232219147D01*
X245538875Y-232234988D01*
X245605480Y-232288092D01*
X245634822Y-232333275D01*
X245656244Y-232415721D01*
X245600801Y-232676561D01*
X245461107Y-231867942D02*
X245431765Y-231822758D01*
X245410343Y-231740312D01*
X245449946Y-231553999D01*
X245503049Y-231487394D01*
X245548232Y-231458051D01*
X245630678Y-231436629D01*
X245705204Y-231452470D01*
X245809072Y-231513494D01*
X246161180Y-232055693D01*
X246264145Y-231571277D01*
X344812862Y-160136624D02*
X345595380Y-159970294D01*
X345634982Y-160156608D01*
X345621481Y-160276317D01*
X345562796Y-160366683D01*
X345496191Y-160419787D01*
X345355060Y-160488732D01*
X345243272Y-160512493D01*
X345086300Y-160506912D01*
X345003855Y-160485490D01*
X344913488Y-160426805D01*
X344852464Y-160322938D01*
X344812862Y-160136624D01*
X344865063Y-160748669D02*
X344991790Y-161344873D01*
X345920118Y-161498068D02*
X345935959Y-161572593D01*
X345914537Y-161655039D01*
X345885195Y-161700222D01*
X345818590Y-161753326D01*
X345677459Y-161822271D01*
X345491145Y-161861873D01*
X345334174Y-161856292D01*
X345251728Y-161834870D01*
X345206545Y-161805528D01*
X345153441Y-161738923D01*
X345137600Y-161664397D01*
X345159022Y-161581951D01*
X345188364Y-161536768D01*
X345254969Y-161483664D01*
X345396100Y-161414720D01*
X345582414Y-161375118D01*
X345739385Y-161380698D01*
X345821831Y-161402120D01*
X345867014Y-161431463D01*
X345920118Y-161498068D01*
X158186904Y-158895238D02*
X157386904Y-158895238D01*
X157386904Y-158704761D01*
X157425000Y-158590476D01*
X157501190Y-158514285D01*
X157577380Y-158476190D01*
X157729761Y-158438095D01*
X157844047Y-158438095D01*
X157996428Y-158476190D01*
X158072619Y-158514285D01*
X158148809Y-158590476D01*
X158186904Y-158704761D01*
X158186904Y-158895238D01*
X158263095Y-158285714D02*
X158263095Y-157676190D01*
X158186904Y-157066666D02*
X158186904Y-157523809D01*
X158186904Y-157295238D02*
X157386904Y-157295238D01*
X157501190Y-157371428D01*
X157577380Y-157447619D01*
X157615476Y-157523809D01*
X177236904Y-159005238D02*
X176436904Y-159005238D01*
X176436904Y-158814761D01*
X176475000Y-158700476D01*
X176551190Y-158624285D01*
X176627380Y-158586190D01*
X176779761Y-158548095D01*
X176894047Y-158548095D01*
X177046428Y-158586190D01*
X177122619Y-158624285D01*
X177198809Y-158700476D01*
X177236904Y-158814761D01*
X177236904Y-159005238D01*
X177313095Y-158395714D02*
X177313095Y-157786190D01*
X176513095Y-157633809D02*
X176475000Y-157595714D01*
X176436904Y-157519523D01*
X176436904Y-157329047D01*
X176475000Y-157252857D01*
X176513095Y-157214761D01*
X176589285Y-157176666D01*
X176665476Y-157176666D01*
X176779761Y-157214761D01*
X177236904Y-157671904D01*
X177236904Y-157176666D01*
X197203149Y-163952007D02*
X196420631Y-163785677D01*
X196460233Y-163599364D01*
X196521258Y-163495496D01*
X196611624Y-163436811D01*
X196694070Y-163415389D01*
X196851041Y-163409808D01*
X196962830Y-163433570D01*
X197103960Y-163502514D01*
X197170565Y-163555618D01*
X197229250Y-163645984D01*
X197242752Y-163765693D01*
X197203149Y-163952007D01*
X197404402Y-163371643D02*
X197531129Y-162775439D01*
X196697847Y-162481481D02*
X196800813Y-161997065D01*
X197043472Y-162321268D01*
X197067233Y-162209479D01*
X197120337Y-162142874D01*
X197165520Y-162113532D01*
X197247966Y-162092110D01*
X197434280Y-162131712D01*
X197500885Y-162184816D01*
X197530227Y-162229999D01*
X197551649Y-162312445D01*
X197504126Y-162536022D01*
X197451023Y-162602627D01*
X197405839Y-162631969D01*
X215836861Y-167912723D02*
X215054343Y-167746393D01*
X215093945Y-167560080D01*
X215154970Y-167456212D01*
X215245336Y-167397527D01*
X215327782Y-167376105D01*
X215484753Y-167370524D01*
X215596542Y-167394286D01*
X215737672Y-167463230D01*
X215804277Y-167516334D01*
X215862962Y-167606700D01*
X215876464Y-167726409D01*
X215836861Y-167912723D01*
X216038114Y-167332359D02*
X216164841Y-166736155D01*
X215679523Y-166087749D02*
X216201202Y-166198636D01*
X215341819Y-166210700D02*
X215861158Y-166515820D01*
X215964124Y-166031404D01*
X234470572Y-171873441D02*
X233688054Y-171707111D01*
X233727656Y-171520798D01*
X233788681Y-171416930D01*
X233879047Y-171358245D01*
X233961493Y-171336823D01*
X234118464Y-171331242D01*
X234230253Y-171355004D01*
X234371383Y-171423948D01*
X234437988Y-171477052D01*
X234496673Y-171567418D01*
X234510175Y-171687127D01*
X234470572Y-171873441D01*
X234671825Y-171293077D02*
X234798552Y-170696873D01*
X234060315Y-169955761D02*
X233981111Y-170328389D01*
X234345818Y-170444856D01*
X234316476Y-170399673D01*
X234295054Y-170317227D01*
X234334656Y-170130913D01*
X234387760Y-170064308D01*
X234432943Y-170034966D01*
X234515389Y-170013544D01*
X234701703Y-170053146D01*
X234768308Y-170106250D01*
X234797650Y-170151433D01*
X234819072Y-170233879D01*
X234779470Y-170420193D01*
X234726366Y-170486798D01*
X234681183Y-170516140D01*
X244648850Y-185050799D02*
X244815180Y-184268281D01*
X245001493Y-184307883D01*
X245105361Y-184368908D01*
X245164046Y-184459274D01*
X245185468Y-184541720D01*
X245191049Y-184698691D01*
X245167287Y-184810480D01*
X245098343Y-184951610D01*
X245045239Y-185018215D01*
X244954873Y-185076900D01*
X244835164Y-185090402D01*
X244648850Y-185050799D01*
X245229214Y-185252052D02*
X245825418Y-185378779D01*
X246529267Y-184632622D02*
X246380216Y-184600940D01*
X246297770Y-184622362D01*
X246252587Y-184651704D01*
X246154300Y-184747652D01*
X246085355Y-184888782D01*
X246021992Y-185186884D01*
X246043413Y-185269330D01*
X246072756Y-185314513D01*
X246139361Y-185367617D01*
X246288412Y-185399299D01*
X246370858Y-185377877D01*
X246416041Y-185348535D01*
X246469145Y-185281930D01*
X246508747Y-185095616D01*
X246487325Y-185013170D01*
X246457983Y-184967987D01*
X246391378Y-184914883D01*
X246242327Y-184883201D01*
X246159881Y-184904623D01*
X246114698Y-184933965D01*
X246061594Y-185000570D01*
X288911727Y-172018778D02*
X289694245Y-171852448D01*
X289733847Y-172038762D01*
X289720346Y-172158471D01*
X289661661Y-172248837D01*
X289595056Y-172301941D01*
X289453925Y-172370886D01*
X289342137Y-172394647D01*
X289185165Y-172389066D01*
X289102720Y-172367644D01*
X289012353Y-172308959D01*
X288951329Y-172205092D01*
X288911727Y-172018778D01*
X288963928Y-172630823D02*
X289090655Y-173227027D01*
X289971460Y-173156645D02*
X290082347Y-173678324D01*
X289228545Y-173509288D01*
X307545438Y-168058060D02*
X308327956Y-167891730D01*
X308367558Y-168078044D01*
X308354057Y-168197753D01*
X308295372Y-168288119D01*
X308228767Y-168341223D01*
X308087636Y-168410168D01*
X307975848Y-168433929D01*
X307818876Y-168428348D01*
X307736431Y-168406926D01*
X307646064Y-168348241D01*
X307585040Y-168244374D01*
X307545438Y-168058060D01*
X307597639Y-168670105D02*
X307724366Y-169266309D01*
X308309409Y-169453525D02*
X308330831Y-169371079D01*
X308360173Y-169325896D01*
X308426778Y-169272792D01*
X308464041Y-169264872D01*
X308546487Y-169286294D01*
X308591670Y-169315636D01*
X308644774Y-169382241D01*
X308676455Y-169531292D01*
X308655034Y-169613738D01*
X308625691Y-169658921D01*
X308559086Y-169712025D01*
X308521823Y-169719945D01*
X308439377Y-169698523D01*
X308394194Y-169669181D01*
X308341091Y-169602576D01*
X308309409Y-169453525D01*
X308256305Y-169386920D01*
X308211122Y-169357578D01*
X308128676Y-169336156D01*
X307979625Y-169367838D01*
X307913020Y-169420941D01*
X307883677Y-169466124D01*
X307862256Y-169548570D01*
X307893937Y-169697621D01*
X307947041Y-169764227D01*
X307992224Y-169793569D01*
X308074670Y-169814991D01*
X308223721Y-169783309D01*
X308290326Y-169730205D01*
X308319669Y-169685022D01*
X308341091Y-169602576D01*
X326179150Y-164097342D02*
X326961668Y-163931012D01*
X327001270Y-164117326D01*
X326987769Y-164237035D01*
X326929084Y-164327401D01*
X326862479Y-164380505D01*
X326721348Y-164449450D01*
X326609560Y-164473211D01*
X326452588Y-164467630D01*
X326370143Y-164446208D01*
X326279776Y-164387523D01*
X326218752Y-164283656D01*
X326179150Y-164097342D01*
X326231351Y-164709387D02*
X326358078Y-165305591D01*
X326480127Y-165513327D02*
X326511808Y-165662378D01*
X326564912Y-165728983D01*
X326610095Y-165758325D01*
X326737725Y-165809089D01*
X326894696Y-165814670D01*
X327192798Y-165751307D01*
X327259403Y-165698203D01*
X327288746Y-165653020D01*
X327310167Y-165570574D01*
X327278486Y-165421523D01*
X327225382Y-165354918D01*
X327180199Y-165325576D01*
X327097753Y-165304154D01*
X326911439Y-165343756D01*
X326844834Y-165396860D01*
X326815492Y-165442043D01*
X326794070Y-165524489D01*
X326825751Y-165673540D01*
X326878855Y-165740145D01*
X326924038Y-165769487D01*
X327006484Y-165790909D01*
X162959404Y-199390595D02*
X162159404Y-199390595D01*
X162159404Y-199200119D01*
X162197500Y-199085833D01*
X162273690Y-199009642D01*
X162349880Y-198971547D01*
X162502261Y-198933452D01*
X162616547Y-198933452D01*
X162768928Y-198971547D01*
X162845119Y-199009642D01*
X162921309Y-199085833D01*
X162959404Y-199200119D01*
X162959404Y-199390595D01*
X163035595Y-198781071D02*
X163035595Y-198171547D01*
X162730833Y-198019166D02*
X162730833Y-197638214D01*
X162959404Y-198095357D02*
X162159404Y-197828690D01*
X162959404Y-197562023D01*
X162959404Y-196876309D02*
X162959404Y-197333452D01*
X162959404Y-197104880D02*
X162159404Y-197104880D01*
X162273690Y-197181071D01*
X162349880Y-197257261D01*
X162387976Y-197333452D01*
X346478478Y-236691809D02*
X347260996Y-236525480D01*
X347300599Y-236711794D01*
X347287097Y-236831502D01*
X347228413Y-236921869D01*
X347161808Y-236974973D01*
X347020677Y-237043917D01*
X346908889Y-237067678D01*
X346751917Y-237062097D01*
X346669471Y-237040676D01*
X346579105Y-236981991D01*
X346518081Y-236878123D01*
X346478478Y-236691809D01*
X346530680Y-237303854D02*
X346657407Y-237900059D01*
X346987191Y-237985746D02*
X347066395Y-238358374D01*
X346747774Y-237958743D02*
X347585735Y-238053253D01*
X346858660Y-238480422D01*
X346993307Y-239113889D02*
X346914103Y-238741261D01*
X347696621Y-238574932D01*
X347807507Y-239096611D02*
X347902553Y-239543764D01*
X347072512Y-239486517D02*
X347855030Y-239320187D01*
X347262602Y-240380823D02*
X347167557Y-239933670D01*
X347215080Y-240157246D02*
X347997598Y-239990917D01*
X347869969Y-239940153D01*
X347779602Y-239881468D01*
X347726499Y-239814863D01*
X190475162Y-241417412D02*
X189692644Y-241251083D01*
X189732246Y-241064769D01*
X189793270Y-240960901D01*
X189883637Y-240902217D01*
X189966083Y-240880795D01*
X190123054Y-240875214D01*
X190234842Y-240898975D01*
X190375973Y-240967920D01*
X190442578Y-241021023D01*
X190501263Y-241111390D01*
X190514764Y-241231098D01*
X190475162Y-241417412D01*
X190676415Y-240837049D02*
X190803142Y-240240845D01*
X190536721Y-240028430D02*
X190615926Y-239655802D01*
X190744457Y-240150478D02*
X190017382Y-239723310D01*
X190855343Y-239628799D01*
X190989991Y-238995332D02*
X190910786Y-239367960D01*
X190128268Y-239201631D01*
X190239155Y-238679952D02*
X190334200Y-238232799D01*
X191069195Y-238622705D02*
X190286677Y-238456375D01*
X190456248Y-238025063D02*
X190426906Y-237979880D01*
X190405484Y-237897434D01*
X190445086Y-237711120D01*
X190498190Y-237644515D01*
X190543373Y-237615173D01*
X190625819Y-237593751D01*
X190700345Y-237609592D01*
X190804212Y-237670616D01*
X191156320Y-238212814D01*
X191259286Y-237728398D01*
X286735431Y-230499191D02*
X287517949Y-230332861D01*
X287557551Y-230519175D01*
X287544050Y-230638884D01*
X287485365Y-230729250D01*
X287418760Y-230782354D01*
X287277630Y-230851299D01*
X287165841Y-230875060D01*
X287008870Y-230869479D01*
X286926424Y-230848057D01*
X286836057Y-230789372D01*
X286775033Y-230685505D01*
X286735431Y-230499191D01*
X286787633Y-231111236D02*
X286914360Y-231707440D01*
X287493821Y-232051627D02*
X287480320Y-232171336D01*
X287450977Y-232216519D01*
X287384372Y-232269623D01*
X287272584Y-232293384D01*
X287190138Y-232271963D01*
X287144955Y-232242620D01*
X287091851Y-232176015D01*
X287028488Y-231877913D01*
X287811006Y-231711584D01*
X287866449Y-231972423D01*
X287845027Y-232054869D01*
X287815685Y-232100052D01*
X287749079Y-232153156D01*
X287674554Y-232168997D01*
X287592108Y-232147575D01*
X287546925Y-232118233D01*
X287493821Y-232051627D01*
X287438378Y-231790788D01*
X287281942Y-233070322D02*
X287186896Y-232623168D01*
X287234419Y-232846745D02*
X288016937Y-232680416D01*
X287889308Y-232629651D01*
X287798942Y-232570967D01*
X287745838Y-232504362D01*
X399058690Y-147436904D02*
X399058690Y-146636904D01*
X399249166Y-146636904D01*
X399363452Y-146675000D01*
X399439642Y-146751190D01*
X399477738Y-146827380D01*
X399515833Y-146979761D01*
X399515833Y-147094047D01*
X399477738Y-147246428D01*
X399439642Y-147322619D01*
X399363452Y-147398809D01*
X399249166Y-147436904D01*
X399058690Y-147436904D01*
X399668214Y-147513095D02*
X400277738Y-147513095D01*
X400734880Y-147017857D02*
X400849166Y-147055952D01*
X400887261Y-147094047D01*
X400925357Y-147170238D01*
X400925357Y-147284523D01*
X400887261Y-147360714D01*
X400849166Y-147398809D01*
X400772976Y-147436904D01*
X400468214Y-147436904D01*
X400468214Y-146636904D01*
X400734880Y-146636904D01*
X400811071Y-146675000D01*
X400849166Y-146713095D01*
X400887261Y-146789285D01*
X400887261Y-146865476D01*
X400849166Y-146941666D01*
X400811071Y-146979761D01*
X400734880Y-147017857D01*
X400468214Y-147017857D01*
X401230119Y-147208333D02*
X401611071Y-147208333D01*
X401153928Y-147436904D02*
X401420595Y-146636904D01*
X401687261Y-147436904D01*
X402411071Y-147360714D02*
X402372976Y-147398809D01*
X402258690Y-147436904D01*
X402182500Y-147436904D01*
X402068214Y-147398809D01*
X401992023Y-147322619D01*
X401953928Y-147246428D01*
X401915833Y-147094047D01*
X401915833Y-146979761D01*
X401953928Y-146827380D01*
X401992023Y-146751190D01*
X402068214Y-146675000D01*
X402182500Y-146636904D01*
X402258690Y-146636904D01*
X402372976Y-146675000D01*
X402411071Y-146713095D01*
X402753928Y-147436904D02*
X402753928Y-146636904D01*
X403211071Y-147436904D02*
X402868214Y-146979761D01*
X403211071Y-146636904D02*
X402753928Y-147094047D01*
X403515833Y-147398809D02*
X403630119Y-147436904D01*
X403820595Y-147436904D01*
X403896785Y-147398809D01*
X403934880Y-147360714D01*
X403972976Y-147284523D01*
X403972976Y-147208333D01*
X403934880Y-147132142D01*
X403896785Y-147094047D01*
X403820595Y-147055952D01*
X403668214Y-147017857D01*
X403592023Y-146979761D01*
X403553928Y-146941666D01*
X403515833Y-146865476D01*
X403515833Y-146789285D01*
X403553928Y-146713095D01*
X403592023Y-146675000D01*
X403668214Y-146636904D01*
X403858690Y-146636904D01*
X403972976Y-146675000D01*
X404315833Y-147436904D02*
X404315833Y-146636904D01*
X404620595Y-146636904D01*
X404696785Y-146675000D01*
X404734880Y-146713095D01*
X404772976Y-146789285D01*
X404772976Y-146903571D01*
X404734880Y-146979761D01*
X404696785Y-147017857D01*
X404620595Y-147055952D01*
X404315833Y-147055952D01*
X405077738Y-147208333D02*
X405458690Y-147208333D01*
X405001547Y-147436904D02*
X405268214Y-146636904D01*
X405534880Y-147436904D01*
X406258690Y-147360714D02*
X406220595Y-147398809D01*
X406106309Y-147436904D01*
X406030119Y-147436904D01*
X405915833Y-147398809D01*
X405839642Y-147322619D01*
X405801547Y-147246428D01*
X405763452Y-147094047D01*
X405763452Y-146979761D01*
X405801547Y-146827380D01*
X405839642Y-146751190D01*
X405915833Y-146675000D01*
X406030119Y-146636904D01*
X406106309Y-146636904D01*
X406220595Y-146675000D01*
X406258690Y-146713095D01*
X406601547Y-147017857D02*
X406868214Y-147017857D01*
X406982500Y-147436904D02*
X406601547Y-147436904D01*
X406601547Y-146636904D01*
X406982500Y-146636904D01*
X407744404Y-147436904D02*
X407287261Y-147436904D01*
X407515833Y-147436904D02*
X407515833Y-146636904D01*
X407439642Y-146751190D01*
X407363452Y-146827380D01*
X407287261Y-146865476D01*
X423944404Y-181902500D02*
X423144404Y-181902500D01*
X423144404Y-181712023D01*
X423182500Y-181597738D01*
X423258690Y-181521547D01*
X423334880Y-181483452D01*
X423487261Y-181445357D01*
X423601547Y-181445357D01*
X423753928Y-181483452D01*
X423830119Y-181521547D01*
X423906309Y-181597738D01*
X423944404Y-181712023D01*
X423944404Y-181902500D01*
X424020595Y-181292976D02*
X424020595Y-180683452D01*
X423525357Y-180226309D02*
X423563452Y-180112023D01*
X423601547Y-180073928D01*
X423677738Y-180035833D01*
X423792023Y-180035833D01*
X423868214Y-180073928D01*
X423906309Y-180112023D01*
X423944404Y-180188214D01*
X423944404Y-180492976D01*
X423144404Y-180492976D01*
X423144404Y-180226309D01*
X423182500Y-180150119D01*
X423220595Y-180112023D01*
X423296785Y-180073928D01*
X423372976Y-180073928D01*
X423449166Y-180112023D01*
X423487261Y-180150119D01*
X423525357Y-180226309D01*
X423525357Y-180492976D01*
X423906309Y-179731071D02*
X423944404Y-179616785D01*
X423944404Y-179426309D01*
X423906309Y-179350119D01*
X423868214Y-179312023D01*
X423792023Y-179273928D01*
X423715833Y-179273928D01*
X423639642Y-179312023D01*
X423601547Y-179350119D01*
X423563452Y-179426309D01*
X423525357Y-179578690D01*
X423487261Y-179654880D01*
X423449166Y-179692976D01*
X423372976Y-179731071D01*
X423296785Y-179731071D01*
X423220595Y-179692976D01*
X423182500Y-179654880D01*
X423144404Y-179578690D01*
X423144404Y-179388214D01*
X423182500Y-179273928D01*
X423944404Y-178550119D02*
X423944404Y-178931071D01*
X423144404Y-178931071D01*
X423906309Y-178321547D02*
X423944404Y-178207261D01*
X423944404Y-178016785D01*
X423906309Y-177940595D01*
X423868214Y-177902500D01*
X423792023Y-177864404D01*
X423715833Y-177864404D01*
X423639642Y-177902500D01*
X423601547Y-177940595D01*
X423563452Y-178016785D01*
X423525357Y-178169166D01*
X423487261Y-178245357D01*
X423449166Y-178283452D01*
X423372976Y-178321547D01*
X423296785Y-178321547D01*
X423220595Y-178283452D01*
X423182500Y-178245357D01*
X423144404Y-178169166D01*
X423144404Y-177978690D01*
X423182500Y-177864404D01*
X423944404Y-177521547D02*
X423144404Y-177521547D01*
X423525357Y-177521547D02*
X423525357Y-177064404D01*
X423944404Y-177064404D02*
X423144404Y-177064404D01*
X423944404Y-176264404D02*
X423944404Y-176721547D01*
X423944404Y-176492976D02*
X423144404Y-176492976D01*
X423258690Y-176569166D01*
X423334880Y-176645357D01*
X423372976Y-176721547D01*
X208529971Y-225195298D02*
X207747453Y-225028968D01*
X207787055Y-224842655D01*
X207848079Y-224738787D01*
X207938445Y-224680102D01*
X208020891Y-224658680D01*
X208177863Y-224653099D01*
X208289651Y-224676861D01*
X208430782Y-224745805D01*
X208497387Y-224798909D01*
X208556071Y-224889275D01*
X208569573Y-225008984D01*
X208529971Y-225195298D01*
X208731223Y-224614934D02*
X208857950Y-224018730D01*
X208843547Y-223353581D02*
X208872889Y-223398765D01*
X208886391Y-223518473D01*
X208870550Y-223592999D01*
X208809526Y-223696867D01*
X208719159Y-223755551D01*
X208636713Y-223776973D01*
X208479742Y-223782554D01*
X208367953Y-223758793D01*
X208226823Y-223689848D01*
X208160218Y-223636745D01*
X208101533Y-223546378D01*
X208088032Y-223426669D01*
X208103873Y-223352144D01*
X208164897Y-223248276D01*
X208210080Y-223218934D01*
X209076481Y-222624167D02*
X208981436Y-223071320D01*
X209028959Y-222847744D02*
X208246441Y-222681414D01*
X208342388Y-222779701D01*
X208401073Y-222870067D01*
X208422495Y-222952513D01*
X136765654Y-200571547D02*
X135965654Y-200571547D01*
X135965654Y-200381071D01*
X136003750Y-200266785D01*
X136079940Y-200190595D01*
X136156130Y-200152500D01*
X136308511Y-200114404D01*
X136422797Y-200114404D01*
X136575178Y-200152500D01*
X136651369Y-200190595D01*
X136727559Y-200266785D01*
X136765654Y-200381071D01*
X136765654Y-200571547D01*
X136841845Y-199962023D02*
X136841845Y-199352500D01*
X136689464Y-198704880D02*
X136727559Y-198742976D01*
X136765654Y-198857261D01*
X136765654Y-198933452D01*
X136727559Y-199047738D01*
X136651369Y-199123928D01*
X136575178Y-199162023D01*
X136422797Y-199200119D01*
X136308511Y-199200119D01*
X136156130Y-199162023D01*
X136079940Y-199123928D01*
X136003750Y-199047738D01*
X135965654Y-198933452D01*
X135965654Y-198857261D01*
X136003750Y-198742976D01*
X136041845Y-198704880D01*
X136537083Y-198400119D02*
X136537083Y-198019166D01*
X136765654Y-198476309D02*
X135965654Y-198209642D01*
X136765654Y-197942976D01*
X136765654Y-197676309D02*
X135965654Y-197676309D01*
X135965654Y-197371547D01*
X136003750Y-197295357D01*
X136041845Y-197257261D01*
X136118035Y-197219166D01*
X136232321Y-197219166D01*
X136308511Y-197257261D01*
X136346607Y-197295357D01*
X136384702Y-197371547D01*
X136384702Y-197676309D01*
X136727559Y-196914404D02*
X136765654Y-196800119D01*
X136765654Y-196609642D01*
X136727559Y-196533452D01*
X136689464Y-196495357D01*
X136613273Y-196457261D01*
X136537083Y-196457261D01*
X136460892Y-196495357D01*
X136422797Y-196533452D01*
X136384702Y-196609642D01*
X136346607Y-196762023D01*
X136308511Y-196838214D01*
X136270416Y-196876309D01*
X136194226Y-196914404D01*
X136118035Y-196914404D01*
X136041845Y-196876309D01*
X136003750Y-196838214D01*
X135965654Y-196762023D01*
X135965654Y-196571547D01*
X136003750Y-196457261D01*
X136765654Y-195695357D02*
X136765654Y-196152500D01*
X136765654Y-195923928D02*
X135965654Y-195923928D01*
X136079940Y-196000119D01*
X136156130Y-196076309D01*
X136194226Y-196152500D01*
X381081904Y-181940595D02*
X380281904Y-181940595D01*
X380281904Y-181750119D01*
X380320000Y-181635833D01*
X380396190Y-181559642D01*
X380472380Y-181521547D01*
X380624761Y-181483452D01*
X380739047Y-181483452D01*
X380891428Y-181521547D01*
X380967619Y-181559642D01*
X381043809Y-181635833D01*
X381081904Y-181750119D01*
X381081904Y-181940595D01*
X381158095Y-181331071D02*
X381158095Y-180721547D01*
X381005714Y-180073928D02*
X381043809Y-180112023D01*
X381081904Y-180226309D01*
X381081904Y-180302500D01*
X381043809Y-180416785D01*
X380967619Y-180492976D01*
X380891428Y-180531071D01*
X380739047Y-180569166D01*
X380624761Y-180569166D01*
X380472380Y-180531071D01*
X380396190Y-180492976D01*
X380320000Y-180416785D01*
X380281904Y-180302500D01*
X380281904Y-180226309D01*
X380320000Y-180112023D01*
X380358095Y-180073928D01*
X380662857Y-179464404D02*
X380700952Y-179350119D01*
X380739047Y-179312023D01*
X380815238Y-179273928D01*
X380929523Y-179273928D01*
X381005714Y-179312023D01*
X381043809Y-179350119D01*
X381081904Y-179426309D01*
X381081904Y-179731071D01*
X380281904Y-179731071D01*
X380281904Y-179464404D01*
X380320000Y-179388214D01*
X380358095Y-179350119D01*
X380434285Y-179312023D01*
X380510476Y-179312023D01*
X380586666Y-179350119D01*
X380624761Y-179388214D01*
X380662857Y-179464404D01*
X380662857Y-179731071D01*
X381081904Y-178473928D02*
X380700952Y-178740595D01*
X381081904Y-178931071D02*
X380281904Y-178931071D01*
X380281904Y-178626309D01*
X380320000Y-178550119D01*
X380358095Y-178512023D01*
X380434285Y-178473928D01*
X380548571Y-178473928D01*
X380624761Y-178512023D01*
X380662857Y-178550119D01*
X380700952Y-178626309D01*
X380700952Y-178931071D01*
X380853333Y-178169166D02*
X380853333Y-177788214D01*
X381081904Y-178245357D02*
X380281904Y-177978690D01*
X381081904Y-177712023D01*
X381005714Y-176988214D02*
X381043809Y-177026309D01*
X381081904Y-177140595D01*
X381081904Y-177216785D01*
X381043809Y-177331071D01*
X380967619Y-177407261D01*
X380891428Y-177445357D01*
X380739047Y-177483452D01*
X380624761Y-177483452D01*
X380472380Y-177445357D01*
X380396190Y-177407261D01*
X380320000Y-177331071D01*
X380281904Y-177216785D01*
X380281904Y-177140595D01*
X380320000Y-177026309D01*
X380358095Y-176988214D01*
X381081904Y-176226309D02*
X381081904Y-176683452D01*
X381081904Y-176454880D02*
X380281904Y-176454880D01*
X380396190Y-176531071D01*
X380472380Y-176607261D01*
X380510476Y-176683452D01*
X342288067Y-216977477D02*
X343070586Y-216811148D01*
X343110188Y-216997461D01*
X343096686Y-217117170D01*
X343038002Y-217207537D01*
X342971397Y-217260640D01*
X342830266Y-217329585D01*
X342718478Y-217353346D01*
X342561506Y-217347765D01*
X342479060Y-217326343D01*
X342388694Y-217267659D01*
X342327670Y-217163791D01*
X342288067Y-216977477D01*
X342340269Y-217589522D02*
X342466996Y-218185726D01*
X342750695Y-218787512D02*
X342705512Y-218758169D01*
X342644488Y-218654301D01*
X342628647Y-218579776D01*
X342642148Y-218460067D01*
X342700833Y-218369701D01*
X342767438Y-218316597D01*
X342908568Y-218247653D01*
X343020357Y-218223891D01*
X343177328Y-218229472D01*
X343259774Y-218250894D01*
X343350141Y-218309579D01*
X343411165Y-218413447D01*
X343427006Y-218487972D01*
X343413504Y-218607681D01*
X343384162Y-218652864D01*
X343561653Y-219121439D02*
X343593335Y-219270490D01*
X343571913Y-219352936D01*
X343513228Y-219443303D01*
X343372098Y-219512247D01*
X343111258Y-219567690D01*
X342954287Y-219562109D01*
X342863921Y-219503425D01*
X342810817Y-219436820D01*
X342779135Y-219287768D01*
X342800557Y-219205323D01*
X342859242Y-219114956D01*
X343000372Y-219046012D01*
X343261212Y-218990568D01*
X343418183Y-218996149D01*
X343508550Y-219054834D01*
X343561653Y-219121439D01*
X342921703Y-219958498D02*
X343704221Y-219792169D01*
X343200723Y-220171815D01*
X343815107Y-220313848D01*
X343032589Y-220480177D01*
X343111794Y-220852805D02*
X343894312Y-220686475D01*
X343390814Y-221066121D01*
X344005198Y-221208154D01*
X343222680Y-221374483D01*
X343517541Y-221662326D02*
X343596745Y-222034953D01*
X343278123Y-221635323D02*
X344116084Y-221729833D01*
X343389009Y-222157001D01*
X343531577Y-222827731D02*
X343436532Y-222380578D01*
X343484055Y-222604155D02*
X344266573Y-222437825D01*
X344138944Y-222387061D01*
X344048577Y-222328376D01*
X343995474Y-222261771D01*
X395369404Y-238576309D02*
X394569404Y-238576309D01*
X394569404Y-238385833D01*
X394607500Y-238271547D01*
X394683690Y-238195357D01*
X394759880Y-238157261D01*
X394912261Y-238119166D01*
X395026547Y-238119166D01*
X395178928Y-238157261D01*
X395255119Y-238195357D01*
X395331309Y-238271547D01*
X395369404Y-238385833D01*
X395369404Y-238576309D01*
X395445595Y-237966785D02*
X395445595Y-237357261D01*
X395293214Y-236709642D02*
X395331309Y-236747738D01*
X395369404Y-236862023D01*
X395369404Y-236938214D01*
X395331309Y-237052500D01*
X395255119Y-237128690D01*
X395178928Y-237166785D01*
X395026547Y-237204880D01*
X394912261Y-237204880D01*
X394759880Y-237166785D01*
X394683690Y-237128690D01*
X394607500Y-237052500D01*
X394569404Y-236938214D01*
X394569404Y-236862023D01*
X394607500Y-236747738D01*
X394645595Y-236709642D01*
X394569404Y-236481071D02*
X394569404Y-236023928D01*
X395369404Y-236252500D02*
X394569404Y-236252500D01*
X395369404Y-235300119D02*
X394988452Y-235566785D01*
X395369404Y-235757261D02*
X394569404Y-235757261D01*
X394569404Y-235452500D01*
X394607500Y-235376309D01*
X394645595Y-235338214D01*
X394721785Y-235300119D01*
X394836071Y-235300119D01*
X394912261Y-235338214D01*
X394950357Y-235376309D01*
X394988452Y-235452500D01*
X394988452Y-235757261D01*
X395369404Y-234576309D02*
X395369404Y-234957261D01*
X394569404Y-234957261D01*
X395369404Y-233890595D02*
X395369404Y-234347738D01*
X395369404Y-234119166D02*
X394569404Y-234119166D01*
X394683690Y-234195357D01*
X394759880Y-234271547D01*
X394797976Y-234347738D01*
X129621904Y-238576309D02*
X128821904Y-238576309D01*
X128821904Y-238385833D01*
X128860000Y-238271547D01*
X128936190Y-238195357D01*
X129012380Y-238157261D01*
X129164761Y-238119166D01*
X129279047Y-238119166D01*
X129431428Y-238157261D01*
X129507619Y-238195357D01*
X129583809Y-238271547D01*
X129621904Y-238385833D01*
X129621904Y-238576309D01*
X129698095Y-237966785D02*
X129698095Y-237357261D01*
X129545714Y-236709642D02*
X129583809Y-236747738D01*
X129621904Y-236862023D01*
X129621904Y-236938214D01*
X129583809Y-237052500D01*
X129507619Y-237128690D01*
X129431428Y-237166785D01*
X129279047Y-237204880D01*
X129164761Y-237204880D01*
X129012380Y-237166785D01*
X128936190Y-237128690D01*
X128860000Y-237052500D01*
X128821904Y-236938214D01*
X128821904Y-236862023D01*
X128860000Y-236747738D01*
X128898095Y-236709642D01*
X128821904Y-236481071D02*
X128821904Y-236023928D01*
X129621904Y-236252500D02*
X128821904Y-236252500D01*
X129621904Y-235300119D02*
X129240952Y-235566785D01*
X129621904Y-235757261D02*
X128821904Y-235757261D01*
X128821904Y-235452500D01*
X128860000Y-235376309D01*
X128898095Y-235338214D01*
X128974285Y-235300119D01*
X129088571Y-235300119D01*
X129164761Y-235338214D01*
X129202857Y-235376309D01*
X129240952Y-235452500D01*
X129240952Y-235757261D01*
X129621904Y-234576309D02*
X129621904Y-234957261D01*
X128821904Y-234957261D01*
X128898095Y-234347738D02*
X128860000Y-234309642D01*
X128821904Y-234233452D01*
X128821904Y-234042976D01*
X128860000Y-233966785D01*
X128898095Y-233928690D01*
X128974285Y-233890595D01*
X129050476Y-233890595D01*
X129164761Y-233928690D01*
X129621904Y-234385833D01*
X129621904Y-233890595D01*
X203173833Y-204581227D02*
X202391315Y-204414897D01*
X202430917Y-204228584D01*
X202491941Y-204124716D01*
X202582307Y-204066031D01*
X202664753Y-204044609D01*
X202821725Y-204039028D01*
X202933513Y-204062790D01*
X203074644Y-204131734D01*
X203141249Y-204184838D01*
X203199933Y-204275204D01*
X203213435Y-204394913D01*
X203173833Y-204581227D01*
X203375085Y-204000863D02*
X203501812Y-203404659D01*
X203466889Y-203202504D02*
X202684371Y-203036175D01*
X202723973Y-202849861D01*
X202784997Y-202745993D01*
X202875364Y-202687309D01*
X202957810Y-202665887D01*
X203114781Y-202660306D01*
X203226570Y-202684067D01*
X203367700Y-202753012D01*
X203434305Y-202806115D01*
X203492990Y-202896482D01*
X203506491Y-203016191D01*
X203466889Y-203202504D01*
X203720343Y-202010096D02*
X203625298Y-202457249D01*
X203672821Y-202233673D02*
X202890303Y-202067343D01*
X202986250Y-202165630D01*
X203044935Y-202255996D01*
X203066357Y-202338442D01*
X457281904Y-196399523D02*
X456481904Y-196399523D01*
X456481904Y-196209047D01*
X456520000Y-196094761D01*
X456596190Y-196018571D01*
X456672380Y-195980476D01*
X456824761Y-195942380D01*
X456939047Y-195942380D01*
X457091428Y-195980476D01*
X457167619Y-196018571D01*
X457243809Y-196094761D01*
X457281904Y-196209047D01*
X457281904Y-196399523D01*
X457358095Y-195790000D02*
X457358095Y-195180476D01*
X457281904Y-194990000D02*
X456481904Y-194990000D01*
X456481904Y-194799523D01*
X456520000Y-194685238D01*
X456596190Y-194609047D01*
X456672380Y-194570952D01*
X456824761Y-194532857D01*
X456939047Y-194532857D01*
X457091428Y-194570952D01*
X457167619Y-194609047D01*
X457243809Y-194685238D01*
X457281904Y-194799523D01*
X457281904Y-194990000D01*
X456862857Y-194190000D02*
X456862857Y-193923333D01*
X457281904Y-193809047D02*
X457281904Y-194190000D01*
X456481904Y-194190000D01*
X456481904Y-193809047D01*
X457281904Y-193085238D02*
X457281904Y-193466190D01*
X456481904Y-193466190D01*
X456862857Y-192818571D02*
X456862857Y-192551904D01*
X457281904Y-192437619D02*
X457281904Y-192818571D01*
X456481904Y-192818571D01*
X456481904Y-192437619D01*
X456481904Y-192209047D02*
X456481904Y-191751904D01*
X457281904Y-191980476D02*
X456481904Y-191980476D01*
X456862857Y-191485238D02*
X456862857Y-191218571D01*
X457281904Y-191104285D02*
X457281904Y-191485238D01*
X456481904Y-191485238D01*
X456481904Y-191104285D01*
X457281904Y-190342380D02*
X457281904Y-190799523D01*
X457281904Y-190570952D02*
X456481904Y-190570952D01*
X456596190Y-190647142D01*
X456672380Y-190723333D01*
X456710476Y-190799523D01*
X366794404Y-219221547D02*
X365994404Y-219221547D01*
X365994404Y-219031071D01*
X366032500Y-218916785D01*
X366108690Y-218840595D01*
X366184880Y-218802500D01*
X366337261Y-218764404D01*
X366451547Y-218764404D01*
X366603928Y-218802500D01*
X366680119Y-218840595D01*
X366756309Y-218916785D01*
X366794404Y-219031071D01*
X366794404Y-219221547D01*
X366870595Y-218612023D02*
X366870595Y-218002500D01*
X366794404Y-217812023D02*
X365994404Y-217812023D01*
X365994404Y-217621547D01*
X366032500Y-217507261D01*
X366108690Y-217431071D01*
X366184880Y-217392976D01*
X366337261Y-217354880D01*
X366451547Y-217354880D01*
X366603928Y-217392976D01*
X366680119Y-217431071D01*
X366756309Y-217507261D01*
X366794404Y-217621547D01*
X366794404Y-217812023D01*
X365994404Y-216859642D02*
X365994404Y-216707261D01*
X366032500Y-216631071D01*
X366108690Y-216554880D01*
X366261071Y-216516785D01*
X366527738Y-216516785D01*
X366680119Y-216554880D01*
X366756309Y-216631071D01*
X366794404Y-216707261D01*
X366794404Y-216859642D01*
X366756309Y-216935833D01*
X366680119Y-217012023D01*
X366527738Y-217050119D01*
X366261071Y-217050119D01*
X366108690Y-217012023D01*
X366032500Y-216935833D01*
X365994404Y-216859642D01*
X365994404Y-216288214D02*
X365994404Y-215831071D01*
X366794404Y-216059642D02*
X365994404Y-216059642D01*
X366794404Y-215145357D02*
X366794404Y-215602500D01*
X366794404Y-215373928D02*
X365994404Y-215373928D01*
X366108690Y-215450119D01*
X366184880Y-215526309D01*
X366222976Y-215602500D01*
X442994404Y-243605476D02*
X442194404Y-243605476D01*
X442194404Y-243415000D01*
X442232500Y-243300714D01*
X442308690Y-243224523D01*
X442384880Y-243186428D01*
X442537261Y-243148333D01*
X442651547Y-243148333D01*
X442803928Y-243186428D01*
X442880119Y-243224523D01*
X442956309Y-243300714D01*
X442994404Y-243415000D01*
X442994404Y-243605476D01*
X443070595Y-242995952D02*
X443070595Y-242386428D01*
X442994404Y-242195952D02*
X442194404Y-242195952D01*
X442194404Y-242005476D01*
X442232500Y-241891190D01*
X442308690Y-241815000D01*
X442384880Y-241776904D01*
X442537261Y-241738809D01*
X442651547Y-241738809D01*
X442803928Y-241776904D01*
X442880119Y-241815000D01*
X442956309Y-241891190D01*
X442994404Y-242005476D01*
X442994404Y-242195952D01*
X442194404Y-241243571D02*
X442194404Y-241091190D01*
X442232500Y-241015000D01*
X442308690Y-240938809D01*
X442461071Y-240900714D01*
X442727738Y-240900714D01*
X442880119Y-240938809D01*
X442956309Y-241015000D01*
X442994404Y-241091190D01*
X442994404Y-241243571D01*
X442956309Y-241319761D01*
X442880119Y-241395952D01*
X442727738Y-241434047D01*
X442461071Y-241434047D01*
X442308690Y-241395952D01*
X442232500Y-241319761D01*
X442194404Y-241243571D01*
X442194404Y-240634047D02*
X442994404Y-240443571D01*
X442422976Y-240291190D01*
X442994404Y-240138809D01*
X442194404Y-239948333D01*
X442994404Y-239643571D02*
X442194404Y-239643571D01*
X442994404Y-239186428D01*
X442194404Y-239186428D01*
X442994404Y-238386428D02*
X442994404Y-238843571D01*
X442994404Y-238615000D02*
X442194404Y-238615000D01*
X442308690Y-238691190D01*
X442384880Y-238767380D01*
X442422976Y-238843571D01*
X202484043Y-184920073D02*
X201701525Y-184753744D01*
X201741127Y-184567430D01*
X201802151Y-184463562D01*
X201892518Y-184404877D01*
X201974964Y-184383455D01*
X202131935Y-184377874D01*
X202243724Y-184401636D01*
X202384854Y-184470580D01*
X202451459Y-184523684D01*
X202510144Y-184614050D01*
X202523645Y-184733759D01*
X202484043Y-184920073D01*
X202685296Y-184339710D02*
X202812023Y-183743505D01*
X202367209Y-183454226D02*
X202422652Y-183193386D01*
X202856304Y-183168723D02*
X202777100Y-183541351D01*
X201994581Y-183375021D01*
X202073786Y-183002394D01*
X203014713Y-182423468D02*
X202919668Y-182870621D01*
X202967190Y-182647044D02*
X202184672Y-182480715D01*
X202280620Y-182579002D01*
X202339304Y-182669368D01*
X202360726Y-182751814D01*
X407783392Y-185436904D02*
X407783392Y-184636904D01*
X407973869Y-184636904D01*
X408088154Y-184675000D01*
X408164345Y-184751190D01*
X408202440Y-184827380D01*
X408240535Y-184979761D01*
X408240535Y-185094047D01*
X408202440Y-185246428D01*
X408164345Y-185322619D01*
X408088154Y-185398809D01*
X407973869Y-185436904D01*
X407783392Y-185436904D01*
X408392916Y-185513095D02*
X409002440Y-185513095D01*
X409192916Y-185017857D02*
X409459583Y-185017857D01*
X409573869Y-185436904D02*
X409192916Y-185436904D01*
X409192916Y-184636904D01*
X409573869Y-184636904D01*
X409916726Y-185436904D02*
X409916726Y-184636904D01*
X410373869Y-185436904D01*
X410373869Y-184636904D01*
X410640535Y-184636904D02*
X411097678Y-184636904D01*
X410869107Y-185436904D02*
X410869107Y-184636904D01*
X411364345Y-185017857D02*
X411631011Y-185017857D01*
X411745297Y-185436904D02*
X411364345Y-185436904D01*
X411364345Y-184636904D01*
X411745297Y-184636904D01*
X412545297Y-185436904D02*
X412278630Y-185055952D01*
X412088154Y-185436904D02*
X412088154Y-184636904D01*
X412392916Y-184636904D01*
X412469107Y-184675000D01*
X412507202Y-184713095D01*
X412545297Y-184789285D01*
X412545297Y-184903571D01*
X412507202Y-184979761D01*
X412469107Y-185017857D01*
X412392916Y-185055952D01*
X412088154Y-185055952D01*
X413307202Y-185436904D02*
X412850059Y-185436904D01*
X413078630Y-185436904D02*
X413078630Y-184636904D01*
X413002440Y-184751190D01*
X412926250Y-184827380D01*
X412850059Y-184865476D01*
X385844404Y-162814404D02*
X385044404Y-162814404D01*
X385044404Y-162623928D01*
X385082500Y-162509642D01*
X385158690Y-162433452D01*
X385234880Y-162395357D01*
X385387261Y-162357261D01*
X385501547Y-162357261D01*
X385653928Y-162395357D01*
X385730119Y-162433452D01*
X385806309Y-162509642D01*
X385844404Y-162623928D01*
X385844404Y-162814404D01*
X385920595Y-162204880D02*
X385920595Y-161595357D01*
X385425357Y-161404880D02*
X385425357Y-161138214D01*
X385844404Y-161023928D02*
X385844404Y-161404880D01*
X385044404Y-161404880D01*
X385044404Y-161023928D01*
X385920595Y-160147738D02*
X385882500Y-160223928D01*
X385806309Y-160300119D01*
X385692023Y-160414404D01*
X385653928Y-160490595D01*
X385653928Y-160566785D01*
X385844404Y-160528690D02*
X385806309Y-160604880D01*
X385730119Y-160681071D01*
X385577738Y-160719166D01*
X385311071Y-160719166D01*
X385158690Y-160681071D01*
X385082500Y-160604880D01*
X385044404Y-160528690D01*
X385044404Y-160376309D01*
X385082500Y-160300119D01*
X385158690Y-160223928D01*
X385311071Y-160185833D01*
X385577738Y-160185833D01*
X385730119Y-160223928D01*
X385806309Y-160300119D01*
X385844404Y-160376309D01*
X385844404Y-160528690D01*
X385044404Y-159842976D02*
X385692023Y-159842976D01*
X385768214Y-159804880D01*
X385806309Y-159766785D01*
X385844404Y-159690595D01*
X385844404Y-159538214D01*
X385806309Y-159462023D01*
X385768214Y-159423928D01*
X385692023Y-159385833D01*
X385044404Y-159385833D01*
X385615833Y-159042976D02*
X385615833Y-158662023D01*
X385844404Y-159119166D02*
X385044404Y-158852500D01*
X385844404Y-158585833D01*
X385844404Y-157938214D02*
X385844404Y-158319166D01*
X385044404Y-158319166D01*
X385844404Y-157252500D02*
X385844404Y-157709642D01*
X385844404Y-157481071D02*
X385044404Y-157481071D01*
X385158690Y-157557261D01*
X385234880Y-157633452D01*
X385272976Y-157709642D01*
X139146904Y-162090595D02*
X138346904Y-162090595D01*
X138346904Y-161900119D01*
X138385000Y-161785833D01*
X138461190Y-161709642D01*
X138537380Y-161671547D01*
X138689761Y-161633452D01*
X138804047Y-161633452D01*
X138956428Y-161671547D01*
X139032619Y-161709642D01*
X139108809Y-161785833D01*
X139146904Y-161900119D01*
X139146904Y-162090595D01*
X139223095Y-161481071D02*
X139223095Y-160871547D01*
X138727857Y-160681071D02*
X138727857Y-160414404D01*
X139146904Y-160300119D02*
X139146904Y-160681071D01*
X138346904Y-160681071D01*
X138346904Y-160300119D01*
X139108809Y-159995357D02*
X139146904Y-159881071D01*
X139146904Y-159690595D01*
X139108809Y-159614404D01*
X139070714Y-159576309D01*
X138994523Y-159538214D01*
X138918333Y-159538214D01*
X138842142Y-159576309D01*
X138804047Y-159614404D01*
X138765952Y-159690595D01*
X138727857Y-159842976D01*
X138689761Y-159919166D01*
X138651666Y-159957261D01*
X138575476Y-159995357D01*
X138499285Y-159995357D01*
X138423095Y-159957261D01*
X138385000Y-159919166D01*
X138346904Y-159842976D01*
X138346904Y-159652500D01*
X138385000Y-159538214D01*
X139070714Y-158738214D02*
X139108809Y-158776309D01*
X139146904Y-158890595D01*
X139146904Y-158966785D01*
X139108809Y-159081071D01*
X139032619Y-159157261D01*
X138956428Y-159195357D01*
X138804047Y-159233452D01*
X138689761Y-159233452D01*
X138537380Y-159195357D01*
X138461190Y-159157261D01*
X138385000Y-159081071D01*
X138346904Y-158966785D01*
X138346904Y-158890595D01*
X138385000Y-158776309D01*
X138423095Y-158738214D01*
X139146904Y-157976309D02*
X139146904Y-158433452D01*
X139146904Y-158204880D02*
X138346904Y-158204880D01*
X138461190Y-158281071D01*
X138537380Y-158357261D01*
X138575476Y-158433452D01*
X221819425Y-208486051D02*
X221036907Y-208319721D01*
X221076509Y-208133407D01*
X221137534Y-208029540D01*
X221227900Y-207970855D01*
X221310346Y-207949433D01*
X221467317Y-207943852D01*
X221579106Y-207967613D01*
X221720236Y-208036558D01*
X221786841Y-208089662D01*
X221845526Y-208180028D01*
X221859028Y-208299737D01*
X221819425Y-208486051D01*
X222020678Y-207905687D02*
X222147405Y-207309483D01*
X221758034Y-206759364D02*
X221702591Y-207020203D01*
X222112482Y-207107328D02*
X221329964Y-206940999D01*
X221409168Y-206568371D01*
X222342175Y-206026708D02*
X222247129Y-206473861D01*
X222294652Y-206250285D02*
X221512134Y-206083955D01*
X221608081Y-206182242D01*
X221666766Y-206272609D01*
X221688188Y-206355055D01*
X251078287Y-254084800D02*
X250295769Y-253918471D01*
X250335372Y-253732157D01*
X250396396Y-253628289D01*
X250486762Y-253569604D01*
X250569208Y-253548182D01*
X250726180Y-253542602D01*
X250837968Y-253566363D01*
X250979098Y-253635307D01*
X251045704Y-253688411D01*
X251104388Y-253778777D01*
X251117890Y-253898486D01*
X251078287Y-254084800D01*
X251279540Y-253504437D02*
X251406267Y-252908232D01*
X251016897Y-252358113D02*
X250961453Y-252618953D01*
X251371344Y-252706078D02*
X250588826Y-252539748D01*
X250668030Y-252167121D01*
X251513912Y-252035348D02*
X250731394Y-251869019D01*
X251608957Y-251588195D01*
X250826439Y-251421865D01*
X251775287Y-250805677D02*
X251680241Y-251252830D01*
X251727764Y-251029253D02*
X250945246Y-250862924D01*
X251041193Y-250961211D01*
X251099878Y-251051577D01*
X251121300Y-251134023D01*
X240441256Y-212502662D02*
X239658738Y-212336332D01*
X239698340Y-212150019D01*
X239759364Y-212046151D01*
X239849730Y-211987466D01*
X239932176Y-211966044D01*
X240089148Y-211960463D01*
X240200936Y-211984225D01*
X240342067Y-212053169D01*
X240408672Y-212106273D01*
X240467356Y-212196639D01*
X240480858Y-212316348D01*
X240441256Y-212502662D01*
X240642508Y-211922298D02*
X240769235Y-211326094D01*
X240076182Y-210555640D02*
X240023078Y-210622245D01*
X239999317Y-210734033D01*
X240012818Y-210853742D01*
X240071503Y-210944109D01*
X240138108Y-210997212D01*
X240279238Y-211066157D01*
X240391027Y-211089918D01*
X240547998Y-211084337D01*
X240630444Y-211062915D01*
X240720811Y-211004231D01*
X240781835Y-210900363D01*
X240797676Y-210825837D01*
X240784174Y-210706129D01*
X240754832Y-210660945D01*
X240493993Y-210605502D01*
X240462311Y-210754553D01*
X240987766Y-209931531D02*
X240892721Y-210378684D01*
X240940244Y-210155108D02*
X240157726Y-209988778D01*
X240253673Y-210087065D01*
X240312358Y-210177431D01*
X240333780Y-210259877D01*
X292087609Y-209866489D02*
X292870127Y-209700160D01*
X292909729Y-209886474D01*
X292896228Y-210006183D01*
X292837543Y-210096549D01*
X292770938Y-210149653D01*
X292629807Y-210218597D01*
X292518019Y-210242358D01*
X292361048Y-210236778D01*
X292278602Y-210215356D01*
X292188235Y-210156671D01*
X292127211Y-210052803D01*
X292087609Y-209866489D01*
X292139810Y-210478534D02*
X292266538Y-211074739D01*
X292380665Y-211245212D02*
X293163183Y-211078882D01*
X292790556Y-211158087D02*
X292885601Y-211605240D01*
X292475711Y-211692365D02*
X293258229Y-211526035D01*
X292642040Y-212474883D02*
X292546995Y-212027730D01*
X292594517Y-212251306D02*
X293377035Y-212084977D01*
X293249406Y-212034213D01*
X293159040Y-211975528D01*
X293105936Y-211908923D01*
X320783410Y-184525098D02*
X321565928Y-184358769D01*
X321605530Y-184545082D01*
X321592028Y-184664791D01*
X321533344Y-184755158D01*
X321466739Y-184808261D01*
X321325608Y-184877206D01*
X321213820Y-184900967D01*
X321056848Y-184895386D01*
X320974402Y-184873964D01*
X320884036Y-184815280D01*
X320823012Y-184711412D01*
X320783410Y-184525098D01*
X320835611Y-185137143D02*
X320962338Y-185733347D01*
X321076466Y-185903820D02*
X321858984Y-185737491D01*
X321242795Y-186686338D02*
X321147750Y-186239185D01*
X321195273Y-186462762D02*
X321977791Y-186296432D01*
X321850162Y-186245668D01*
X321759795Y-186186984D01*
X321706692Y-186120378D01*
X310745082Y-206017560D02*
X311527600Y-205851230D01*
X311567203Y-206037544D01*
X311553701Y-206157253D01*
X311495016Y-206247619D01*
X311428411Y-206300723D01*
X311287281Y-206369667D01*
X311175492Y-206393429D01*
X311018521Y-206387848D01*
X310936075Y-206366426D01*
X310845709Y-206307741D01*
X310784684Y-206203873D01*
X310745082Y-206017560D01*
X310797284Y-206629605D02*
X310924011Y-207225809D01*
X311868179Y-207453529D02*
X311309238Y-207572336D01*
X311189529Y-207558834D01*
X311099163Y-207500150D01*
X311038139Y-207396282D01*
X311022298Y-207321756D01*
X311251991Y-208402377D02*
X311156945Y-207955223D01*
X311204468Y-208178800D02*
X311986986Y-208012471D01*
X311859357Y-207961706D01*
X311768990Y-207903022D01*
X311715887Y-207836417D01*
X329358993Y-201963685D02*
X330141511Y-201797355D01*
X330181113Y-201983669D01*
X330167612Y-202103378D01*
X330108927Y-202193744D01*
X330042322Y-202246848D01*
X329901192Y-202315793D01*
X329789403Y-202339554D01*
X329632432Y-202333973D01*
X329549986Y-202312551D01*
X329459619Y-202253866D01*
X329398595Y-202149999D01*
X329358993Y-201963685D01*
X329411195Y-202575730D02*
X329537922Y-203171934D01*
X329652050Y-203342407D02*
X330434568Y-203176078D01*
X329747095Y-203789560D02*
X330122964Y-203359150D01*
X330529613Y-203623231D02*
X329987414Y-203271123D01*
X329905504Y-204534816D02*
X329810458Y-204087662D01*
X329857981Y-204311239D02*
X330640499Y-204144910D01*
X330512870Y-204094145D01*
X330422504Y-204035461D01*
X330369400Y-203968856D01*
X348008546Y-198077492D02*
X348791064Y-197911163D01*
X348830666Y-198097477D01*
X348817165Y-198217185D01*
X348758480Y-198307552D01*
X348691875Y-198360656D01*
X348550745Y-198429600D01*
X348438956Y-198453361D01*
X348281985Y-198447780D01*
X348199539Y-198426359D01*
X348109172Y-198367674D01*
X348048148Y-198263806D01*
X348008546Y-198077492D01*
X348060748Y-198689537D02*
X348187475Y-199285742D01*
X348380807Y-199828842D02*
X348301602Y-199456215D01*
X349084121Y-199289885D01*
X348523375Y-200499572D02*
X348428330Y-200052419D01*
X348475852Y-200275995D02*
X349258370Y-200109666D01*
X349130741Y-200058902D01*
X349040375Y-200000217D01*
X348987271Y-199933612D01*
X423944404Y-243243571D02*
X423144404Y-243243571D01*
X423144404Y-243053095D01*
X423182500Y-242938809D01*
X423258690Y-242862619D01*
X423334880Y-242824523D01*
X423487261Y-242786428D01*
X423601547Y-242786428D01*
X423753928Y-242824523D01*
X423830119Y-242862619D01*
X423906309Y-242938809D01*
X423944404Y-243053095D01*
X423944404Y-243243571D01*
X424020595Y-242634047D02*
X424020595Y-242024523D01*
X423944404Y-241453095D02*
X423944404Y-241834047D01*
X423144404Y-241834047D01*
X423525357Y-241186428D02*
X423525357Y-240919761D01*
X423944404Y-240805476D02*
X423944404Y-241186428D01*
X423144404Y-241186428D01*
X423144404Y-240805476D01*
X423525357Y-240195952D02*
X423525357Y-240462619D01*
X423944404Y-240462619D02*
X423144404Y-240462619D01*
X423144404Y-240081666D01*
X423144404Y-239891190D02*
X423144404Y-239434047D01*
X423944404Y-239662619D02*
X423144404Y-239662619D01*
X423944404Y-238748333D02*
X423944404Y-239205476D01*
X423944404Y-238976904D02*
X423144404Y-238976904D01*
X423258690Y-239053095D01*
X423334880Y-239129285D01*
X423372976Y-239205476D01*
X323990974Y-222521863D02*
X324773492Y-222355533D01*
X324813095Y-222541847D01*
X324799593Y-222661556D01*
X324740909Y-222751922D01*
X324674304Y-222805026D01*
X324533173Y-222873970D01*
X324421385Y-222897732D01*
X324264413Y-222892151D01*
X324181967Y-222870729D01*
X324091601Y-222812044D01*
X324030577Y-222708176D01*
X323990974Y-222521863D01*
X324043176Y-223133908D02*
X324169903Y-223730112D01*
X324284031Y-223900585D02*
X325066549Y-223734256D01*
X324563051Y-224113902D01*
X325177435Y-224255934D01*
X324394917Y-224422264D01*
X324561246Y-225204782D02*
X324466201Y-224757628D01*
X324513724Y-224981205D02*
X325296242Y-224814876D01*
X325168613Y-224764112D01*
X325078246Y-224705427D01*
X325025143Y-224638822D01*
X366794404Y-162814404D02*
X365994404Y-162814404D01*
X365994404Y-162623928D01*
X366032500Y-162509642D01*
X366108690Y-162433452D01*
X366184880Y-162395357D01*
X366337261Y-162357261D01*
X366451547Y-162357261D01*
X366603928Y-162395357D01*
X366680119Y-162433452D01*
X366756309Y-162509642D01*
X366794404Y-162623928D01*
X366794404Y-162814404D01*
X366870595Y-162204880D02*
X366870595Y-161595357D01*
X366794404Y-161404880D02*
X365994404Y-161404880D01*
X366565833Y-161138214D01*
X365994404Y-160871547D01*
X366794404Y-160871547D01*
X366794404Y-160490595D02*
X365994404Y-160490595D01*
X366794404Y-160109642D02*
X365994404Y-160109642D01*
X366794404Y-159652500D01*
X365994404Y-159652500D01*
X365994404Y-159271547D02*
X366642023Y-159271547D01*
X366718214Y-159233452D01*
X366756309Y-159195357D01*
X366794404Y-159119166D01*
X366794404Y-158966785D01*
X366756309Y-158890595D01*
X366718214Y-158852500D01*
X366642023Y-158814404D01*
X365994404Y-158814404D01*
X366756309Y-158471547D02*
X366794404Y-158357261D01*
X366794404Y-158166785D01*
X366756309Y-158090595D01*
X366718214Y-158052500D01*
X366642023Y-158014404D01*
X366565833Y-158014404D01*
X366489642Y-158052500D01*
X366451547Y-158090595D01*
X366413452Y-158166785D01*
X366375357Y-158319166D01*
X366337261Y-158395357D01*
X366299166Y-158433452D01*
X366222976Y-158471547D01*
X366146785Y-158471547D01*
X366070595Y-158433452D01*
X366032500Y-158395357D01*
X365994404Y-158319166D01*
X365994404Y-158128690D01*
X366032500Y-158014404D01*
X366794404Y-157252500D02*
X366794404Y-157709642D01*
X366794404Y-157481071D02*
X365994404Y-157481071D01*
X366108690Y-157557261D01*
X366184880Y-157633452D01*
X366222976Y-157709642D01*
X305365183Y-225289448D02*
X306147701Y-225123119D01*
X306187303Y-225309433D01*
X306173802Y-225429142D01*
X306115117Y-225519508D01*
X306048512Y-225572612D01*
X305907381Y-225641556D01*
X305795593Y-225665317D01*
X305638622Y-225659737D01*
X305556176Y-225638315D01*
X305465809Y-225579630D01*
X305404785Y-225475762D01*
X305365183Y-225289448D01*
X305417384Y-225901493D02*
X305544112Y-226497698D01*
X305658239Y-226668171D02*
X306440757Y-226501841D01*
X305753285Y-227115324D01*
X306535803Y-226948994D01*
X305919614Y-227897842D02*
X305824569Y-227450689D01*
X305872091Y-227674265D02*
X306654609Y-227507936D01*
X306526980Y-227457172D01*
X306436614Y-227398487D01*
X306383510Y-227331882D01*
X339369599Y-180340803D02*
X340152117Y-180174474D01*
X340191719Y-180360788D01*
X340178218Y-180480497D01*
X340119533Y-180570863D01*
X340052928Y-180623967D01*
X339911797Y-180692911D01*
X339800009Y-180716672D01*
X339643038Y-180711092D01*
X339560592Y-180689670D01*
X339470225Y-180630985D01*
X339409201Y-180527117D01*
X339369599Y-180340803D01*
X339421800Y-180952848D02*
X339548528Y-181549053D01*
X340476855Y-181702247D02*
X340508537Y-181851298D01*
X340487115Y-181933744D01*
X340428430Y-182024111D01*
X340287300Y-182093055D01*
X340026460Y-182148498D01*
X339869489Y-182142917D01*
X339779123Y-182084233D01*
X339726019Y-182017628D01*
X339694337Y-181868577D01*
X339715759Y-181786131D01*
X339774444Y-181695764D01*
X339915574Y-181626820D01*
X340176414Y-181571377D01*
X340333385Y-181576958D01*
X340423752Y-181635642D01*
X340476855Y-181702247D01*
X339924030Y-182949197D02*
X339828985Y-182502044D01*
X339876507Y-182725620D02*
X340659025Y-182559291D01*
X340531396Y-182508527D01*
X340441030Y-182449842D01*
X340387926Y-182383237D01*
X400131904Y-181959642D02*
X399331904Y-181959642D01*
X399331904Y-181769166D01*
X399370000Y-181654880D01*
X399446190Y-181578690D01*
X399522380Y-181540595D01*
X399674761Y-181502500D01*
X399789047Y-181502500D01*
X399941428Y-181540595D01*
X400017619Y-181578690D01*
X400093809Y-181654880D01*
X400131904Y-181769166D01*
X400131904Y-181959642D01*
X400208095Y-181350119D02*
X400208095Y-180740595D01*
X399331904Y-180397738D02*
X399331904Y-180245357D01*
X399370000Y-180169166D01*
X399446190Y-180092976D01*
X399598571Y-180054880D01*
X399865238Y-180054880D01*
X400017619Y-180092976D01*
X400093809Y-180169166D01*
X400131904Y-180245357D01*
X400131904Y-180397738D01*
X400093809Y-180473928D01*
X400017619Y-180550119D01*
X399865238Y-180588214D01*
X399598571Y-180588214D01*
X399446190Y-180550119D01*
X399370000Y-180473928D01*
X399331904Y-180397738D01*
X399712857Y-179445357D02*
X399750952Y-179331071D01*
X399789047Y-179292976D01*
X399865238Y-179254880D01*
X399979523Y-179254880D01*
X400055714Y-179292976D01*
X400093809Y-179331071D01*
X400131904Y-179407261D01*
X400131904Y-179712023D01*
X399331904Y-179712023D01*
X399331904Y-179445357D01*
X399370000Y-179369166D01*
X399408095Y-179331071D01*
X399484285Y-179292976D01*
X399560476Y-179292976D01*
X399636666Y-179331071D01*
X399674761Y-179369166D01*
X399712857Y-179445357D01*
X399712857Y-179712023D01*
X400131904Y-178454880D02*
X399750952Y-178721547D01*
X400131904Y-178912023D02*
X399331904Y-178912023D01*
X399331904Y-178607261D01*
X399370000Y-178531071D01*
X399408095Y-178492976D01*
X399484285Y-178454880D01*
X399598571Y-178454880D01*
X399674761Y-178492976D01*
X399712857Y-178531071D01*
X399750952Y-178607261D01*
X399750952Y-178912023D01*
X399903333Y-178150119D02*
X399903333Y-177769166D01*
X400131904Y-178226309D02*
X399331904Y-177959642D01*
X400131904Y-177692976D01*
X400055714Y-176969166D02*
X400093809Y-177007261D01*
X400131904Y-177121547D01*
X400131904Y-177197738D01*
X400093809Y-177312023D01*
X400017619Y-177388214D01*
X399941428Y-177426309D01*
X399789047Y-177464404D01*
X399674761Y-177464404D01*
X399522380Y-177426309D01*
X399446190Y-177388214D01*
X399370000Y-177312023D01*
X399331904Y-177197738D01*
X399331904Y-177121547D01*
X399370000Y-177007261D01*
X399408095Y-176969166D01*
X400131904Y-176207261D02*
X400131904Y-176664404D01*
X400131904Y-176435833D02*
X399331904Y-176435833D01*
X399446190Y-176512023D01*
X399522380Y-176588214D01*
X399560476Y-176664404D01*
X362031904Y-180397738D02*
X361231904Y-180397738D01*
X361231904Y-180207261D01*
X361270000Y-180092976D01*
X361346190Y-180016785D01*
X361422380Y-179978690D01*
X361574761Y-179940595D01*
X361689047Y-179940595D01*
X361841428Y-179978690D01*
X361917619Y-180016785D01*
X361993809Y-180092976D01*
X362031904Y-180207261D01*
X362031904Y-180397738D01*
X362108095Y-179788214D02*
X362108095Y-179178690D01*
X362031904Y-178988214D02*
X361231904Y-178988214D01*
X361231904Y-178683452D01*
X361270000Y-178607261D01*
X361308095Y-178569166D01*
X361384285Y-178531071D01*
X361498571Y-178531071D01*
X361574761Y-178569166D01*
X361612857Y-178607261D01*
X361650952Y-178683452D01*
X361650952Y-178988214D01*
X362031904Y-177769166D02*
X362031904Y-178226309D01*
X362031904Y-177997738D02*
X361231904Y-177997738D01*
X361346190Y-178073928D01*
X361422380Y-178150119D01*
X361460476Y-178226309D01*
X452519404Y-176854285D02*
X451719404Y-176854285D01*
X451719404Y-176663809D01*
X451757500Y-176549523D01*
X451833690Y-176473333D01*
X451909880Y-176435238D01*
X452062261Y-176397142D01*
X452176547Y-176397142D01*
X452328928Y-176435238D01*
X452405119Y-176473333D01*
X452481309Y-176549523D01*
X452519404Y-176663809D01*
X452519404Y-176854285D01*
X452595595Y-176244761D02*
X452595595Y-175635238D01*
X452519404Y-175444761D02*
X451719404Y-175444761D01*
X451719404Y-175140000D01*
X451757500Y-175063809D01*
X451795595Y-175025714D01*
X451871785Y-174987619D01*
X451986071Y-174987619D01*
X452062261Y-175025714D01*
X452100357Y-175063809D01*
X452138452Y-175140000D01*
X452138452Y-175444761D01*
X451757500Y-174225714D02*
X451719404Y-174301904D01*
X451719404Y-174416190D01*
X451757500Y-174530476D01*
X451833690Y-174606666D01*
X451909880Y-174644761D01*
X452062261Y-174682857D01*
X452176547Y-174682857D01*
X452328928Y-174644761D01*
X452405119Y-174606666D01*
X452481309Y-174530476D01*
X452519404Y-174416190D01*
X452519404Y-174340000D01*
X452481309Y-174225714D01*
X452443214Y-174187619D01*
X452176547Y-174187619D01*
X452176547Y-174340000D01*
X452519404Y-173844761D02*
X451719404Y-173844761D01*
X451719404Y-173654285D01*
X451757500Y-173540000D01*
X451833690Y-173463809D01*
X451909880Y-173425714D01*
X452062261Y-173387619D01*
X452176547Y-173387619D01*
X452328928Y-173425714D01*
X452405119Y-173463809D01*
X452481309Y-173540000D01*
X452519404Y-173654285D01*
X452519404Y-173844761D01*
X452519404Y-173044761D02*
X451719404Y-173044761D01*
X452519404Y-172587619D01*
X451719404Y-172587619D01*
X452519404Y-171787619D02*
X452519404Y-172244761D01*
X452519404Y-172016190D02*
X451719404Y-172016190D01*
X451833690Y-172092380D01*
X451909880Y-172168571D01*
X451947976Y-172244761D01*
X422436904Y-162514285D02*
X421636904Y-162514285D01*
X421636904Y-162323809D01*
X421675000Y-162209523D01*
X421751190Y-162133333D01*
X421827380Y-162095238D01*
X421979761Y-162057142D01*
X422094047Y-162057142D01*
X422246428Y-162095238D01*
X422322619Y-162133333D01*
X422398809Y-162209523D01*
X422436904Y-162323809D01*
X422436904Y-162514285D01*
X422513095Y-161904761D02*
X422513095Y-161295238D01*
X422436904Y-161104761D02*
X421636904Y-161104761D01*
X421636904Y-160800000D01*
X421675000Y-160723809D01*
X421713095Y-160685714D01*
X421789285Y-160647619D01*
X421903571Y-160647619D01*
X421979761Y-160685714D01*
X422017857Y-160723809D01*
X422055952Y-160800000D01*
X422055952Y-161104761D01*
X421675000Y-159885714D02*
X421636904Y-159961904D01*
X421636904Y-160076190D01*
X421675000Y-160190476D01*
X421751190Y-160266666D01*
X421827380Y-160304761D01*
X421979761Y-160342857D01*
X422094047Y-160342857D01*
X422246428Y-160304761D01*
X422322619Y-160266666D01*
X422398809Y-160190476D01*
X422436904Y-160076190D01*
X422436904Y-160000000D01*
X422398809Y-159885714D01*
X422360714Y-159847619D01*
X422094047Y-159847619D01*
X422094047Y-160000000D01*
X421636904Y-159504761D02*
X422284523Y-159504761D01*
X422360714Y-159466666D01*
X422398809Y-159428571D01*
X422436904Y-159352380D01*
X422436904Y-159200000D01*
X422398809Y-159123809D01*
X422360714Y-159085714D01*
X422284523Y-159047619D01*
X421636904Y-159047619D01*
X422436904Y-158666666D02*
X421636904Y-158666666D01*
X421636904Y-158361904D01*
X421675000Y-158285714D01*
X421713095Y-158247619D01*
X421789285Y-158209523D01*
X421903571Y-158209523D01*
X421979761Y-158247619D01*
X422017857Y-158285714D01*
X422055952Y-158361904D01*
X422055952Y-158666666D01*
X422436904Y-157447619D02*
X422436904Y-157904761D01*
X422436904Y-157676190D02*
X421636904Y-157676190D01*
X421751190Y-157752380D01*
X421827380Y-157828571D01*
X421865476Y-157904761D01*
X162959404Y-180416785D02*
X162159404Y-180416785D01*
X162159404Y-180226309D01*
X162197500Y-180112023D01*
X162273690Y-180035833D01*
X162349880Y-179997738D01*
X162502261Y-179959642D01*
X162616547Y-179959642D01*
X162768928Y-179997738D01*
X162845119Y-180035833D01*
X162921309Y-180112023D01*
X162959404Y-180226309D01*
X162959404Y-180416785D01*
X163035595Y-179807261D02*
X163035595Y-179197738D01*
X163035595Y-178473928D02*
X162997500Y-178550119D01*
X162921309Y-178626309D01*
X162807023Y-178740595D01*
X162768928Y-178816785D01*
X162768928Y-178892976D01*
X162959404Y-178854880D02*
X162921309Y-178931071D01*
X162845119Y-179007261D01*
X162692738Y-179045357D01*
X162426071Y-179045357D01*
X162273690Y-179007261D01*
X162197500Y-178931071D01*
X162159404Y-178854880D01*
X162159404Y-178702500D01*
X162197500Y-178626309D01*
X162273690Y-178550119D01*
X162426071Y-178512023D01*
X162692738Y-178512023D01*
X162845119Y-178550119D01*
X162921309Y-178626309D01*
X162959404Y-178702500D01*
X162959404Y-178854880D01*
X162959404Y-177750119D02*
X162959404Y-178207261D01*
X162959404Y-177978690D02*
X162159404Y-177978690D01*
X162273690Y-178054880D01*
X162349880Y-178131071D01*
X162387976Y-178207261D01*
X390606904Y-200971547D02*
X389806904Y-200971547D01*
X389806904Y-200781071D01*
X389845000Y-200666785D01*
X389921190Y-200590595D01*
X389997380Y-200552500D01*
X390149761Y-200514404D01*
X390264047Y-200514404D01*
X390416428Y-200552500D01*
X390492619Y-200590595D01*
X390568809Y-200666785D01*
X390606904Y-200781071D01*
X390606904Y-200971547D01*
X390683095Y-200362023D02*
X390683095Y-199752500D01*
X390683095Y-199028690D02*
X390645000Y-199104880D01*
X390568809Y-199181071D01*
X390454523Y-199295357D01*
X390416428Y-199371547D01*
X390416428Y-199447738D01*
X390606904Y-199409642D02*
X390568809Y-199485833D01*
X390492619Y-199562023D01*
X390340238Y-199600119D01*
X390073571Y-199600119D01*
X389921190Y-199562023D01*
X389845000Y-199485833D01*
X389806904Y-199409642D01*
X389806904Y-199257261D01*
X389845000Y-199181071D01*
X389921190Y-199104880D01*
X390073571Y-199066785D01*
X390340238Y-199066785D01*
X390492619Y-199104880D01*
X390568809Y-199181071D01*
X390606904Y-199257261D01*
X390606904Y-199409642D01*
X389806904Y-198723928D02*
X390454523Y-198723928D01*
X390530714Y-198685833D01*
X390568809Y-198647738D01*
X390606904Y-198571547D01*
X390606904Y-198419166D01*
X390568809Y-198342976D01*
X390530714Y-198304880D01*
X390454523Y-198266785D01*
X389806904Y-198266785D01*
X389806904Y-197733452D02*
X389806904Y-197581071D01*
X389845000Y-197504880D01*
X389921190Y-197428690D01*
X390073571Y-197390595D01*
X390340238Y-197390595D01*
X390492619Y-197428690D01*
X390568809Y-197504880D01*
X390606904Y-197581071D01*
X390606904Y-197733452D01*
X390568809Y-197809642D01*
X390492619Y-197885833D01*
X390340238Y-197923928D01*
X390073571Y-197923928D01*
X389921190Y-197885833D01*
X389845000Y-197809642D01*
X389806904Y-197733452D01*
X389806904Y-197162023D02*
X389806904Y-196704880D01*
X390606904Y-196933452D02*
X389806904Y-196933452D01*
X390187857Y-196438214D02*
X390187857Y-196171547D01*
X390606904Y-196057261D02*
X390606904Y-196438214D01*
X389806904Y-196438214D01*
X389806904Y-196057261D01*
X390606904Y-195295357D02*
X390606904Y-195752500D01*
X390606904Y-195523928D02*
X389806904Y-195523928D01*
X389921190Y-195600119D01*
X389997380Y-195676309D01*
X390035476Y-195752500D01*
X221109835Y-188918054D02*
X220327317Y-188751724D01*
X220366919Y-188565411D01*
X220427943Y-188461543D01*
X220518309Y-188402858D01*
X220600755Y-188381436D01*
X220757727Y-188375855D01*
X220869515Y-188399617D01*
X221010646Y-188468561D01*
X221077251Y-188521665D01*
X221135935Y-188612031D01*
X221149437Y-188731740D01*
X221109835Y-188918054D01*
X221311087Y-188337690D02*
X221437814Y-187741486D01*
X221497936Y-187092178D02*
X221069866Y-187273813D01*
X221402891Y-187539331D02*
X220620373Y-187373002D01*
X220683737Y-187074900D01*
X220736840Y-187008295D01*
X220782023Y-186978953D01*
X220864469Y-186957531D01*
X220976258Y-186981292D01*
X221042863Y-187034396D01*
X221072205Y-187079579D01*
X221093627Y-187162025D01*
X221030263Y-187460127D01*
X221656345Y-186346923D02*
X221561300Y-186794076D01*
X221608823Y-186570500D02*
X220826305Y-186404170D01*
X220922252Y-186502457D01*
X220980937Y-186592823D01*
X221002359Y-186675269D01*
X462044404Y-243624523D02*
X461244404Y-243624523D01*
X461244404Y-243434047D01*
X461282500Y-243319761D01*
X461358690Y-243243571D01*
X461434880Y-243205476D01*
X461587261Y-243167380D01*
X461701547Y-243167380D01*
X461853928Y-243205476D01*
X461930119Y-243243571D01*
X462006309Y-243319761D01*
X462044404Y-243434047D01*
X462044404Y-243624523D01*
X462120595Y-243015000D02*
X462120595Y-242405476D01*
X462044404Y-241757857D02*
X461663452Y-242024523D01*
X462044404Y-242215000D02*
X461244404Y-242215000D01*
X461244404Y-241910238D01*
X461282500Y-241834047D01*
X461320595Y-241795952D01*
X461396785Y-241757857D01*
X461511071Y-241757857D01*
X461587261Y-241795952D01*
X461625357Y-241834047D01*
X461663452Y-241910238D01*
X461663452Y-242215000D01*
X462044404Y-241415000D02*
X461244404Y-241415000D01*
X461282500Y-240615000D02*
X461244404Y-240691190D01*
X461244404Y-240805476D01*
X461282500Y-240919761D01*
X461358690Y-240995952D01*
X461434880Y-241034047D01*
X461587261Y-241072142D01*
X461701547Y-241072142D01*
X461853928Y-241034047D01*
X461930119Y-240995952D01*
X462006309Y-240919761D01*
X462044404Y-240805476D01*
X462044404Y-240729285D01*
X462006309Y-240615000D01*
X461968214Y-240576904D01*
X461701547Y-240576904D01*
X461701547Y-240729285D01*
X462044404Y-240234047D02*
X461244404Y-240234047D01*
X461625357Y-240234047D02*
X461625357Y-239776904D01*
X462044404Y-239776904D02*
X461244404Y-239776904D01*
X461244404Y-239510238D02*
X461244404Y-239053095D01*
X462044404Y-239281666D02*
X461244404Y-239281666D01*
X462044404Y-238367380D02*
X462044404Y-238824523D01*
X462044404Y-238595952D02*
X461244404Y-238595952D01*
X461358690Y-238672142D01*
X461434880Y-238748333D01*
X461472976Y-238824523D01*
X184544081Y-199723776D02*
X183761563Y-199557447D01*
X183801165Y-199371133D01*
X183862189Y-199267265D01*
X183952556Y-199208581D01*
X184035002Y-199187159D01*
X184191973Y-199181578D01*
X184303761Y-199205339D01*
X184444892Y-199274284D01*
X184511497Y-199327387D01*
X184570182Y-199417754D01*
X184583683Y-199537463D01*
X184544081Y-199723776D01*
X184745334Y-199143413D02*
X184872061Y-198547209D01*
X184791954Y-198374396D02*
X184852978Y-198270529D01*
X184892580Y-198084215D01*
X184871159Y-198001769D01*
X184841816Y-197956586D01*
X184775211Y-197903482D01*
X184700686Y-197887641D01*
X184618240Y-197909063D01*
X184573056Y-197938405D01*
X184519953Y-198005010D01*
X184451008Y-198146141D01*
X184397905Y-198212746D01*
X184352721Y-198242088D01*
X184270275Y-198263510D01*
X184195750Y-198247669D01*
X184129145Y-198194566D01*
X184099802Y-198149382D01*
X184078381Y-198066936D01*
X184117983Y-197880623D01*
X184179007Y-197776755D01*
X185082671Y-197189908D02*
X184987626Y-197637062D01*
X185035148Y-197413485D02*
X184252630Y-197247156D01*
X184348578Y-197345442D01*
X184407262Y-197435809D01*
X184428684Y-197518255D01*
X371556904Y-200838214D02*
X370756904Y-200838214D01*
X370756904Y-200647738D01*
X370795000Y-200533452D01*
X370871190Y-200457261D01*
X370947380Y-200419166D01*
X371099761Y-200381071D01*
X371214047Y-200381071D01*
X371366428Y-200419166D01*
X371442619Y-200457261D01*
X371518809Y-200533452D01*
X371556904Y-200647738D01*
X371556904Y-200838214D01*
X371633095Y-200228690D02*
X371633095Y-199619166D01*
X371518809Y-199466785D02*
X371556904Y-199352500D01*
X371556904Y-199162023D01*
X371518809Y-199085833D01*
X371480714Y-199047738D01*
X371404523Y-199009642D01*
X371328333Y-199009642D01*
X371252142Y-199047738D01*
X371214047Y-199085833D01*
X371175952Y-199162023D01*
X371137857Y-199314404D01*
X371099761Y-199390595D01*
X371061666Y-199428690D01*
X370985476Y-199466785D01*
X370909285Y-199466785D01*
X370833095Y-199428690D01*
X370795000Y-199390595D01*
X370756904Y-199314404D01*
X370756904Y-199123928D01*
X370795000Y-199009642D01*
X371137857Y-198666785D02*
X371137857Y-198400119D01*
X371556904Y-198285833D02*
X371556904Y-198666785D01*
X370756904Y-198666785D01*
X370756904Y-198285833D01*
X371556904Y-197942976D02*
X370756904Y-197942976D01*
X371328333Y-197676309D01*
X370756904Y-197409642D01*
X371556904Y-197409642D01*
X371556904Y-197028690D02*
X370756904Y-197028690D01*
X371480714Y-196190595D02*
X371518809Y-196228690D01*
X371556904Y-196342976D01*
X371556904Y-196419166D01*
X371518809Y-196533452D01*
X371442619Y-196609642D01*
X371366428Y-196647738D01*
X371214047Y-196685833D01*
X371099761Y-196685833D01*
X370947380Y-196647738D01*
X370871190Y-196609642D01*
X370795000Y-196533452D01*
X370756904Y-196419166D01*
X370756904Y-196342976D01*
X370795000Y-196228690D01*
X370833095Y-196190595D01*
X371556904Y-195428690D02*
X371556904Y-195885833D01*
X371556904Y-195657261D02*
X370756904Y-195657261D01*
X370871190Y-195733452D01*
X370947380Y-195809642D01*
X370985476Y-195885833D01*
X412038154Y-219735833D02*
X411238154Y-219735833D01*
X411238154Y-219545357D01*
X411276250Y-219431071D01*
X411352440Y-219354880D01*
X411428630Y-219316785D01*
X411581011Y-219278690D01*
X411695297Y-219278690D01*
X411847678Y-219316785D01*
X411923869Y-219354880D01*
X412000059Y-219431071D01*
X412038154Y-219545357D01*
X412038154Y-219735833D01*
X412114345Y-219126309D02*
X412114345Y-218516785D01*
X412000059Y-218364404D02*
X412038154Y-218250119D01*
X412038154Y-218059642D01*
X412000059Y-217983452D01*
X411961964Y-217945357D01*
X411885773Y-217907261D01*
X411809583Y-217907261D01*
X411733392Y-217945357D01*
X411695297Y-217983452D01*
X411657202Y-218059642D01*
X411619107Y-218212023D01*
X411581011Y-218288214D01*
X411542916Y-218326309D01*
X411466726Y-218364404D01*
X411390535Y-218364404D01*
X411314345Y-218326309D01*
X411276250Y-218288214D01*
X411238154Y-218212023D01*
X411238154Y-218021547D01*
X411276250Y-217907261D01*
X412038154Y-217564404D02*
X411238154Y-217564404D01*
X411619107Y-217564404D02*
X411619107Y-217107261D01*
X412038154Y-217107261D02*
X411238154Y-217107261D01*
X412038154Y-216726309D02*
X411238154Y-216726309D01*
X411619107Y-216078690D02*
X411619107Y-216345357D01*
X412038154Y-216345357D02*
X411238154Y-216345357D01*
X411238154Y-215964404D01*
X411238154Y-215773928D02*
X411238154Y-215316785D01*
X412038154Y-215545357D02*
X411238154Y-215545357D01*
X412038154Y-214631071D02*
X412038154Y-215088214D01*
X412038154Y-214859642D02*
X411238154Y-214859642D01*
X411352440Y-214935833D01*
X411428630Y-215012023D01*
X411466726Y-215088214D01*
X123195416Y-204436904D02*
X123195416Y-203636904D01*
X123385892Y-203636904D01*
X123500178Y-203675000D01*
X123576369Y-203751190D01*
X123614464Y-203827380D01*
X123652559Y-203979761D01*
X123652559Y-204094047D01*
X123614464Y-204246428D01*
X123576369Y-204322619D01*
X123500178Y-204398809D01*
X123385892Y-204436904D01*
X123195416Y-204436904D01*
X123804940Y-204513095D02*
X124414464Y-204513095D01*
X124566845Y-204398809D02*
X124681130Y-204436904D01*
X124871607Y-204436904D01*
X124947797Y-204398809D01*
X124985892Y-204360714D01*
X125023988Y-204284523D01*
X125023988Y-204208333D01*
X124985892Y-204132142D01*
X124947797Y-204094047D01*
X124871607Y-204055952D01*
X124719226Y-204017857D01*
X124643035Y-203979761D01*
X124604940Y-203941666D01*
X124566845Y-203865476D01*
X124566845Y-203789285D01*
X124604940Y-203713095D01*
X124643035Y-203675000D01*
X124719226Y-203636904D01*
X124909702Y-203636904D01*
X125023988Y-203675000D01*
X125366845Y-204436904D02*
X125366845Y-203636904D01*
X125366845Y-204017857D02*
X125823988Y-204017857D01*
X125823988Y-204436904D02*
X125823988Y-203636904D01*
X126204940Y-204436904D02*
X126204940Y-203636904D01*
X126852559Y-204017857D02*
X126585892Y-204017857D01*
X126585892Y-204436904D02*
X126585892Y-203636904D01*
X126966845Y-203636904D01*
X127157321Y-203636904D02*
X127614464Y-203636904D01*
X127385892Y-204436904D02*
X127385892Y-203636904D01*
X127843035Y-203713095D02*
X127881130Y-203675000D01*
X127957321Y-203636904D01*
X128147797Y-203636904D01*
X128223988Y-203675000D01*
X128262083Y-203713095D01*
X128300178Y-203789285D01*
X128300178Y-203865476D01*
X128262083Y-203979761D01*
X127804940Y-204436904D01*
X128300178Y-204436904D01*
X385844404Y-219945357D02*
X385044404Y-219945357D01*
X385044404Y-219754880D01*
X385082500Y-219640595D01*
X385158690Y-219564404D01*
X385234880Y-219526309D01*
X385387261Y-219488214D01*
X385501547Y-219488214D01*
X385653928Y-219526309D01*
X385730119Y-219564404D01*
X385806309Y-219640595D01*
X385844404Y-219754880D01*
X385844404Y-219945357D01*
X385920595Y-219335833D02*
X385920595Y-218726309D01*
X385806309Y-218573928D02*
X385844404Y-218459642D01*
X385844404Y-218269166D01*
X385806309Y-218192976D01*
X385768214Y-218154880D01*
X385692023Y-218116785D01*
X385615833Y-218116785D01*
X385539642Y-218154880D01*
X385501547Y-218192976D01*
X385463452Y-218269166D01*
X385425357Y-218421547D01*
X385387261Y-218497738D01*
X385349166Y-218535833D01*
X385272976Y-218573928D01*
X385196785Y-218573928D01*
X385120595Y-218535833D01*
X385082500Y-218497738D01*
X385044404Y-218421547D01*
X385044404Y-218231071D01*
X385082500Y-218116785D01*
X385844404Y-217392976D02*
X385844404Y-217773928D01*
X385044404Y-217773928D01*
X385615833Y-217164404D02*
X385615833Y-216783452D01*
X385844404Y-217240595D02*
X385044404Y-216973928D01*
X385844404Y-216707261D01*
X385806309Y-216478690D02*
X385844404Y-216364404D01*
X385844404Y-216173928D01*
X385806309Y-216097738D01*
X385768214Y-216059642D01*
X385692023Y-216021547D01*
X385615833Y-216021547D01*
X385539642Y-216059642D01*
X385501547Y-216097738D01*
X385463452Y-216173928D01*
X385425357Y-216326309D01*
X385387261Y-216402500D01*
X385349166Y-216440595D01*
X385272976Y-216478690D01*
X385196785Y-216478690D01*
X385120595Y-216440595D01*
X385082500Y-216402500D01*
X385044404Y-216326309D01*
X385044404Y-216135833D01*
X385082500Y-216021547D01*
X385844404Y-215678690D02*
X385044404Y-215678690D01*
X385425357Y-215678690D02*
X385425357Y-215221547D01*
X385844404Y-215221547D02*
X385044404Y-215221547D01*
X385844404Y-214421547D02*
X385844404Y-214878690D01*
X385844404Y-214650119D02*
X385044404Y-214650119D01*
X385158690Y-214726309D01*
X385234880Y-214802500D01*
X385272976Y-214878690D01*
X293945838Y-235049254D02*
X293779508Y-234266736D01*
X293965822Y-234227134D01*
X294085531Y-234240635D01*
X294175897Y-234299320D01*
X294229001Y-234365925D01*
X294297946Y-234507056D01*
X294321707Y-234618844D01*
X294316126Y-234775816D01*
X294294704Y-234858262D01*
X294236020Y-234948628D01*
X294132152Y-235009652D01*
X293945838Y-235049254D01*
X294557883Y-234997053D02*
X295154087Y-234870326D01*
X295279377Y-234726855D02*
X295399086Y-234740357D01*
X295585400Y-234700755D01*
X295652005Y-234647651D01*
X295681347Y-234602468D01*
X295702769Y-234520022D01*
X295686928Y-234445496D01*
X295633824Y-234378891D01*
X295588641Y-234349549D01*
X295506195Y-234328127D01*
X295349224Y-234322546D01*
X295266778Y-234301124D01*
X295221594Y-234271782D01*
X295168491Y-234205177D01*
X295152650Y-234130651D01*
X295174072Y-234048205D01*
X295203414Y-234003022D01*
X295270019Y-233949918D01*
X295456333Y-233910316D01*
X295576042Y-233923818D01*
X296069815Y-234597789D02*
X295903486Y-233815271D01*
X296201588Y-233751907D01*
X296284034Y-233773329D01*
X296329217Y-233802671D01*
X296382321Y-233869277D01*
X296406082Y-233981065D01*
X296384661Y-234063511D01*
X296355318Y-234108694D01*
X296288713Y-234161798D01*
X295990611Y-234225161D01*
X296767548Y-234215803D02*
X297140176Y-234136599D01*
X296740545Y-234455221D02*
X296835055Y-233617260D01*
X297262224Y-234344335D01*
X297954376Y-234119321D02*
X297925033Y-234164504D01*
X297821165Y-234225528D01*
X297746640Y-234241369D01*
X297626931Y-234227867D01*
X297536565Y-234169183D01*
X297483461Y-234102578D01*
X297414517Y-233961447D01*
X297390755Y-233849659D01*
X297396336Y-233692687D01*
X297417758Y-233610241D01*
X297476443Y-233519875D01*
X297580311Y-233458851D01*
X297654836Y-233443010D01*
X297774545Y-233456511D01*
X297819728Y-233485854D01*
X298218457Y-233712672D02*
X298479296Y-233657229D01*
X298678209Y-234043358D02*
X298305581Y-234122562D01*
X298139252Y-233340044D01*
X298511880Y-233260840D01*
X299423464Y-233884949D02*
X298976311Y-233979994D01*
X299199888Y-233932471D02*
X299033558Y-233149953D01*
X298982794Y-233277583D01*
X298924110Y-233367949D01*
X298857505Y-233421053D01*
X210219047Y-237286904D02*
X210219047Y-236486904D01*
X210409523Y-236486904D01*
X210523809Y-236525000D01*
X210600000Y-236601190D01*
X210638095Y-236677380D01*
X210676190Y-236829761D01*
X210676190Y-236944047D01*
X210638095Y-237096428D01*
X210600000Y-237172619D01*
X210523809Y-237248809D01*
X210409523Y-237286904D01*
X210219047Y-237286904D01*
X210828571Y-237363095D02*
X211438095Y-237363095D01*
X211590476Y-237248809D02*
X211704761Y-237286904D01*
X211895238Y-237286904D01*
X211971428Y-237248809D01*
X212009523Y-237210714D01*
X212047619Y-237134523D01*
X212047619Y-237058333D01*
X212009523Y-236982142D01*
X211971428Y-236944047D01*
X211895238Y-236905952D01*
X211742857Y-236867857D01*
X211666666Y-236829761D01*
X211628571Y-236791666D01*
X211590476Y-236715476D01*
X211590476Y-236639285D01*
X211628571Y-236563095D01*
X211666666Y-236525000D01*
X211742857Y-236486904D01*
X211933333Y-236486904D01*
X212047619Y-236525000D01*
X212390476Y-237286904D02*
X212390476Y-236486904D01*
X212695238Y-236486904D01*
X212771428Y-236525000D01*
X212809523Y-236563095D01*
X212847619Y-236639285D01*
X212847619Y-236753571D01*
X212809523Y-236829761D01*
X212771428Y-236867857D01*
X212695238Y-236905952D01*
X212390476Y-236905952D01*
X213152380Y-237058333D02*
X213533333Y-237058333D01*
X213076190Y-237286904D02*
X213342857Y-236486904D01*
X213609523Y-237286904D01*
X214333333Y-237210714D02*
X214295238Y-237248809D01*
X214180952Y-237286904D01*
X214104761Y-237286904D01*
X213990476Y-237248809D01*
X213914285Y-237172619D01*
X213876190Y-237096428D01*
X213838095Y-236944047D01*
X213838095Y-236829761D01*
X213876190Y-236677380D01*
X213914285Y-236601190D01*
X213990476Y-236525000D01*
X214104761Y-236486904D01*
X214180952Y-236486904D01*
X214295238Y-236525000D01*
X214333333Y-236563095D01*
X214676190Y-236867857D02*
X214942857Y-236867857D01*
X215057142Y-237286904D02*
X214676190Y-237286904D01*
X214676190Y-236486904D01*
X215057142Y-236486904D01*
X215361904Y-236563095D02*
X215400000Y-236525000D01*
X215476190Y-236486904D01*
X215666666Y-236486904D01*
X215742857Y-236525000D01*
X215780952Y-236563095D01*
X215819047Y-236639285D01*
X215819047Y-236715476D01*
X215780952Y-236829761D01*
X215323809Y-237286904D01*
X215819047Y-237286904D01*
X239763347Y-192785615D02*
X238980829Y-192619285D01*
X239020431Y-192432972D01*
X239081455Y-192329104D01*
X239171821Y-192270419D01*
X239254267Y-192248997D01*
X239411239Y-192243416D01*
X239523027Y-192267178D01*
X239664158Y-192336122D01*
X239730763Y-192389226D01*
X239789448Y-192479592D01*
X239802949Y-192599301D01*
X239763347Y-192785615D01*
X239964599Y-192205251D02*
X240091327Y-191609047D01*
X239250124Y-191352351D02*
X239345169Y-190905198D01*
X240080165Y-191295104D02*
X239297646Y-191128775D01*
X240270255Y-190400798D02*
X240175210Y-190847951D01*
X240222733Y-190624374D02*
X239440214Y-190458045D01*
X239536162Y-190556332D01*
X239594847Y-190646698D01*
X239616268Y-190729144D01*
X139146904Y-181045357D02*
X138346904Y-181045357D01*
X138346904Y-180854880D01*
X138385000Y-180740595D01*
X138461190Y-180664404D01*
X138537380Y-180626309D01*
X138689761Y-180588214D01*
X138804047Y-180588214D01*
X138956428Y-180626309D01*
X139032619Y-180664404D01*
X139108809Y-180740595D01*
X139146904Y-180854880D01*
X139146904Y-181045357D01*
X139223095Y-180435833D02*
X139223095Y-179826309D01*
X138346904Y-179750119D02*
X138346904Y-179292976D01*
X139146904Y-179521547D02*
X138346904Y-179521547D01*
X138918333Y-179064404D02*
X138918333Y-178683452D01*
X139146904Y-179140595D02*
X138346904Y-178873928D01*
X139146904Y-178607261D01*
X138727857Y-178073928D02*
X138765952Y-177959642D01*
X138804047Y-177921547D01*
X138880238Y-177883452D01*
X138994523Y-177883452D01*
X139070714Y-177921547D01*
X139108809Y-177959642D01*
X139146904Y-178035833D01*
X139146904Y-178340595D01*
X138346904Y-178340595D01*
X138346904Y-178073928D01*
X138385000Y-177997738D01*
X138423095Y-177959642D01*
X138499285Y-177921547D01*
X138575476Y-177921547D01*
X138651666Y-177959642D01*
X138689761Y-177997738D01*
X138727857Y-178073928D01*
X138727857Y-178340595D01*
X139146904Y-177121547D02*
X139146904Y-177578690D01*
X139146904Y-177350119D02*
X138346904Y-177350119D01*
X138461190Y-177426309D01*
X138537380Y-177502500D01*
X138575476Y-177578690D01*
X302102175Y-188262238D02*
X302884693Y-188095909D01*
X302924295Y-188282223D01*
X302910794Y-188401932D01*
X302852109Y-188492298D01*
X302785504Y-188545402D01*
X302644373Y-188614346D01*
X302532585Y-188638107D01*
X302375614Y-188632527D01*
X302293168Y-188611105D01*
X302202801Y-188552420D01*
X302141777Y-188448552D01*
X302102175Y-188262238D01*
X302154376Y-188874283D02*
X302281104Y-189470488D01*
X303177749Y-189474631D02*
X302544282Y-189609279D01*
X302477677Y-189662383D01*
X302448335Y-189707566D01*
X302426913Y-189790012D01*
X302458595Y-189939063D01*
X302511699Y-190005668D01*
X302556882Y-190035010D01*
X302639328Y-190056432D01*
X303272795Y-189921784D01*
X302656606Y-190870632D02*
X302561561Y-190423479D01*
X302609083Y-190647055D02*
X303391601Y-190480726D01*
X303263972Y-190429962D01*
X303173606Y-190371277D01*
X303120502Y-190304672D01*
X442994404Y-221714285D02*
X442194404Y-221714285D01*
X442194404Y-221523809D01*
X442232500Y-221409523D01*
X442308690Y-221333333D01*
X442384880Y-221295238D01*
X442537261Y-221257142D01*
X442651547Y-221257142D01*
X442803928Y-221295238D01*
X442880119Y-221333333D01*
X442956309Y-221409523D01*
X442994404Y-221523809D01*
X442994404Y-221714285D01*
X443070595Y-221104761D02*
X443070595Y-220495238D01*
X442194404Y-220304761D02*
X442842023Y-220304761D01*
X442918214Y-220266666D01*
X442956309Y-220228571D01*
X442994404Y-220152380D01*
X442994404Y-220000000D01*
X442956309Y-219923809D01*
X442918214Y-219885714D01*
X442842023Y-219847619D01*
X442194404Y-219847619D01*
X442994404Y-219466666D02*
X442194404Y-219466666D01*
X442194404Y-219161904D01*
X442232500Y-219085714D01*
X442270595Y-219047619D01*
X442346785Y-219009523D01*
X442461071Y-219009523D01*
X442537261Y-219047619D01*
X442575357Y-219085714D01*
X442613452Y-219161904D01*
X442613452Y-219466666D01*
X442994404Y-218247619D02*
X442994404Y-218704761D01*
X442994404Y-218476190D02*
X442194404Y-218476190D01*
X442308690Y-218552380D01*
X442384880Y-218628571D01*
X442422976Y-218704761D01*
X227175563Y-229100122D02*
X226393045Y-228933792D01*
X226432647Y-228747478D01*
X226493672Y-228643611D01*
X226584038Y-228584926D01*
X226666484Y-228563504D01*
X226823455Y-228557923D01*
X226935244Y-228581684D01*
X227076374Y-228650629D01*
X227142979Y-228703733D01*
X227201664Y-228794099D01*
X227215166Y-228913808D01*
X227175563Y-229100122D01*
X227376816Y-228519758D02*
X227503543Y-227923554D01*
X226662340Y-227666858D02*
X227500302Y-227572348D01*
X226773227Y-227145180D01*
X227698313Y-226640779D02*
X227603267Y-227087932D01*
X227650790Y-226864356D02*
X226868272Y-226698026D01*
X226964219Y-226796313D01*
X227022904Y-226886680D01*
X227044326Y-226969126D01*
X183830530Y-181052512D02*
X183048012Y-180886183D01*
X183087614Y-180699869D01*
X183148638Y-180596001D01*
X183239005Y-180537316D01*
X183321451Y-180515894D01*
X183478422Y-180510313D01*
X183590210Y-180534075D01*
X183731341Y-180603019D01*
X183797946Y-180656123D01*
X183856631Y-180746489D01*
X183870132Y-180866198D01*
X183830530Y-181052512D01*
X184031783Y-180472149D02*
X184158510Y-179875944D01*
X183325227Y-179581986D02*
X184147348Y-179562001D01*
X183620088Y-179294144D01*
X184210711Y-179263899D01*
X183467795Y-178911256D01*
X184400802Y-178369593D02*
X184305757Y-178816746D01*
X184353279Y-178593169D02*
X183570761Y-178426840D01*
X183666709Y-178525127D01*
X183725393Y-178615493D01*
X183746815Y-178697939D01*
X189900219Y-221215948D02*
X189117701Y-221049619D01*
X189157303Y-220863305D01*
X189218327Y-220759437D01*
X189308694Y-220700753D01*
X189391140Y-220679331D01*
X189548111Y-220673750D01*
X189659899Y-220697511D01*
X189801030Y-220766456D01*
X189867635Y-220819559D01*
X189926320Y-220909926D01*
X189939821Y-221029635D01*
X189900219Y-221215948D01*
X190101472Y-220635585D02*
X190228199Y-220039381D01*
X189394916Y-219745422D02*
X190288321Y-219390073D01*
X189505803Y-219223744D02*
X190177434Y-219911752D01*
X190438809Y-218682080D02*
X190343764Y-219129234D01*
X190391286Y-218905657D02*
X189608768Y-218739328D01*
X189704716Y-218837614D01*
X189763400Y-218927981D01*
X189784822Y-219010427D01*
X283484305Y-192297482D02*
X284266823Y-192131152D01*
X284306425Y-192317466D01*
X284292924Y-192437175D01*
X284234239Y-192527541D01*
X284167634Y-192580645D01*
X284026503Y-192649590D01*
X283914715Y-192673351D01*
X283757743Y-192667770D01*
X283675298Y-192646348D01*
X283584931Y-192587664D01*
X283523907Y-192483796D01*
X283484305Y-192297482D01*
X283536506Y-192909527D02*
X283663233Y-193505731D01*
X284181671Y-193746051D02*
X283809043Y-193825255D01*
X284536118Y-193398087D02*
X284181671Y-193746051D01*
X284647004Y-193919765D01*
X284007054Y-194756824D02*
X283912009Y-194309671D01*
X283959531Y-194533248D02*
X284742050Y-194366918D01*
X284614420Y-194316154D01*
X284524054Y-194257470D01*
X284470950Y-194190865D01*
X167721904Y-218478690D02*
X166921904Y-218478690D01*
X166921904Y-218288214D01*
X166960000Y-218173928D01*
X167036190Y-218097738D01*
X167112380Y-218059642D01*
X167264761Y-218021547D01*
X167379047Y-218021547D01*
X167531428Y-218059642D01*
X167607619Y-218097738D01*
X167683809Y-218173928D01*
X167721904Y-218288214D01*
X167721904Y-218478690D01*
X167798095Y-217869166D02*
X167798095Y-217259642D01*
X166921904Y-217145357D02*
X166921904Y-216612023D01*
X167721904Y-217145357D01*
X167721904Y-216612023D01*
X167721904Y-215888214D02*
X167721904Y-216345357D01*
X167721904Y-216116785D02*
X166921904Y-216116785D01*
X167036190Y-216192976D01*
X167112380Y-216269166D01*
X167150476Y-216345357D01*
X265687190Y-170772857D02*
X265801476Y-170810952D01*
X265839571Y-170849047D01*
X265877666Y-170925238D01*
X265877666Y-171039523D01*
X265839571Y-171115714D01*
X265801476Y-171153809D01*
X265725285Y-171191904D01*
X265420523Y-171191904D01*
X265420523Y-170391904D01*
X265687190Y-170391904D01*
X265763380Y-170430000D01*
X265801476Y-170468095D01*
X265839571Y-170544285D01*
X265839571Y-170620476D01*
X265801476Y-170696666D01*
X265763380Y-170734761D01*
X265687190Y-170772857D01*
X265420523Y-170772857D01*
X266182428Y-170468095D02*
X266220523Y-170430000D01*
X266296714Y-170391904D01*
X266487190Y-170391904D01*
X266563380Y-170430000D01*
X266601476Y-170468095D01*
X266639571Y-170544285D01*
X266639571Y-170620476D01*
X266601476Y-170734761D01*
X266144333Y-171191904D01*
X266639571Y-171191904D01*
X265744333Y-163152857D02*
X265477666Y-163152857D01*
X265477666Y-163571904D02*
X265477666Y-162771904D01*
X265858619Y-162771904D01*
X266087190Y-162771904D02*
X266620523Y-162771904D01*
X266277666Y-163571904D01*
X265744333Y-160612857D02*
X265477666Y-160612857D01*
X265477666Y-161031904D02*
X265477666Y-160231904D01*
X265858619Y-160231904D01*
X266506238Y-160231904D02*
X266353857Y-160231904D01*
X266277666Y-160270000D01*
X266239571Y-160308095D01*
X266163380Y-160422380D01*
X266125285Y-160574761D01*
X266125285Y-160879523D01*
X266163380Y-160955714D01*
X266201476Y-160993809D01*
X266277666Y-161031904D01*
X266430047Y-161031904D01*
X266506238Y-160993809D01*
X266544333Y-160955714D01*
X266582428Y-160879523D01*
X266582428Y-160689047D01*
X266544333Y-160612857D01*
X266506238Y-160574761D01*
X266430047Y-160536666D01*
X266277666Y-160536666D01*
X266201476Y-160574761D01*
X266163380Y-160612857D01*
X266125285Y-160689047D01*
X265744333Y-158072857D02*
X265477666Y-158072857D01*
X265477666Y-158491904D02*
X265477666Y-157691904D01*
X265858619Y-157691904D01*
X266544333Y-157691904D02*
X266163380Y-157691904D01*
X266125285Y-158072857D01*
X266163380Y-158034761D01*
X266239571Y-157996666D01*
X266430047Y-157996666D01*
X266506238Y-158034761D01*
X266544333Y-158072857D01*
X266582428Y-158149047D01*
X266582428Y-158339523D01*
X266544333Y-158415714D01*
X266506238Y-158453809D01*
X266430047Y-158491904D01*
X266239571Y-158491904D01*
X266163380Y-158453809D01*
X266125285Y-158415714D01*
X265687190Y-145372857D02*
X265801476Y-145410952D01*
X265839571Y-145449047D01*
X265877666Y-145525238D01*
X265877666Y-145639523D01*
X265839571Y-145715714D01*
X265801476Y-145753809D01*
X265725285Y-145791904D01*
X265420523Y-145791904D01*
X265420523Y-144991904D01*
X265687190Y-144991904D01*
X265763380Y-145030000D01*
X265801476Y-145068095D01*
X265839571Y-145144285D01*
X265839571Y-145220476D01*
X265801476Y-145296666D01*
X265763380Y-145334761D01*
X265687190Y-145372857D01*
X265420523Y-145372857D01*
X266372904Y-144991904D02*
X266449095Y-144991904D01*
X266525285Y-145030000D01*
X266563380Y-145068095D01*
X266601476Y-145144285D01*
X266639571Y-145296666D01*
X266639571Y-145487142D01*
X266601476Y-145639523D01*
X266563380Y-145715714D01*
X266525285Y-145753809D01*
X266449095Y-145791904D01*
X266372904Y-145791904D01*
X266296714Y-145753809D01*
X266258619Y-145715714D01*
X266220523Y-145639523D01*
X266182428Y-145487142D01*
X266182428Y-145296666D01*
X266220523Y-145144285D01*
X266258619Y-145068095D01*
X266296714Y-145030000D01*
X266372904Y-144991904D01*
X265401476Y-147570000D02*
X265325285Y-147531904D01*
X265211000Y-147531904D01*
X265096714Y-147570000D01*
X265020523Y-147646190D01*
X264982428Y-147722380D01*
X264944333Y-147874761D01*
X264944333Y-147989047D01*
X264982428Y-148141428D01*
X265020523Y-148217619D01*
X265096714Y-148293809D01*
X265211000Y-148331904D01*
X265287190Y-148331904D01*
X265401476Y-148293809D01*
X265439571Y-148255714D01*
X265439571Y-147989047D01*
X265287190Y-147989047D01*
X265782428Y-148331904D02*
X265782428Y-147531904D01*
X266239571Y-148331904D01*
X266239571Y-147531904D01*
X266620523Y-148331904D02*
X266620523Y-147531904D01*
X266811000Y-147531904D01*
X266925285Y-147570000D01*
X267001476Y-147646190D01*
X267039571Y-147722380D01*
X267077666Y-147874761D01*
X267077666Y-147989047D01*
X267039571Y-148141428D01*
X267001476Y-148217619D01*
X266925285Y-148293809D01*
X266811000Y-148331904D01*
X266620523Y-148331904D01*
X265749786Y-150803809D02*
X265864072Y-150841904D01*
X266054548Y-150841904D01*
X266130739Y-150803809D01*
X266168834Y-150765714D01*
X266206929Y-150689523D01*
X266206929Y-150613333D01*
X266168834Y-150537142D01*
X266130739Y-150499047D01*
X266054548Y-150460952D01*
X265902167Y-150422857D01*
X265825977Y-150384761D01*
X265787881Y-150346666D01*
X265749786Y-150270476D01*
X265749786Y-150194285D01*
X265787881Y-150118095D01*
X265825977Y-150080000D01*
X265902167Y-150041904D01*
X266092643Y-150041904D01*
X266206929Y-150080000D01*
X266435500Y-150041904D02*
X266892643Y-150041904D01*
X266664072Y-150841904D02*
X266664072Y-150041904D01*
X264944333Y-152611904D02*
X265211000Y-153411904D01*
X265477666Y-152611904D01*
X266201476Y-153335714D02*
X266163380Y-153373809D01*
X266049095Y-153411904D01*
X265972904Y-153411904D01*
X265858619Y-153373809D01*
X265782428Y-153297619D01*
X265744333Y-153221428D01*
X265706238Y-153069047D01*
X265706238Y-152954761D01*
X265744333Y-152802380D01*
X265782428Y-152726190D01*
X265858619Y-152650000D01*
X265972904Y-152611904D01*
X266049095Y-152611904D01*
X266163380Y-152650000D01*
X266201476Y-152688095D01*
X267001476Y-153335714D02*
X266963380Y-153373809D01*
X266849095Y-153411904D01*
X266772904Y-153411904D01*
X266658619Y-153373809D01*
X266582428Y-153297619D01*
X266544333Y-153221428D01*
X266506238Y-153069047D01*
X266506238Y-152954761D01*
X266544333Y-152802380D01*
X266582428Y-152726190D01*
X266658619Y-152650000D01*
X266772904Y-152611904D01*
X266849095Y-152611904D01*
X266963380Y-152650000D01*
X267001476Y-152688095D01*
X265744333Y-155532857D02*
X265477666Y-155532857D01*
X265477666Y-155951904D02*
X265477666Y-155151904D01*
X265858619Y-155151904D01*
X266506238Y-155418571D02*
X266506238Y-155951904D01*
X266315761Y-155113809D02*
X266125285Y-155685238D01*
X266620523Y-155685238D01*
X265687190Y-165692857D02*
X265801476Y-165730952D01*
X265839571Y-165769047D01*
X265877666Y-165845238D01*
X265877666Y-165959523D01*
X265839571Y-166035714D01*
X265801476Y-166073809D01*
X265725285Y-166111904D01*
X265420523Y-166111904D01*
X265420523Y-165311904D01*
X265687190Y-165311904D01*
X265763380Y-165350000D01*
X265801476Y-165388095D01*
X265839571Y-165464285D01*
X265839571Y-165540476D01*
X265801476Y-165616666D01*
X265763380Y-165654761D01*
X265687190Y-165692857D01*
X265420523Y-165692857D01*
X266639571Y-166111904D02*
X266182428Y-166111904D01*
X266411000Y-166111904D02*
X266411000Y-165311904D01*
X266334809Y-165426190D01*
X266258619Y-165502380D01*
X266182428Y-165540476D01*
X265687190Y-168232857D02*
X265801476Y-168270952D01*
X265839571Y-168309047D01*
X265877666Y-168385238D01*
X265877666Y-168499523D01*
X265839571Y-168575714D01*
X265801476Y-168613809D01*
X265725285Y-168651904D01*
X265420523Y-168651904D01*
X265420523Y-167851904D01*
X265687190Y-167851904D01*
X265763380Y-167890000D01*
X265801476Y-167928095D01*
X265839571Y-168004285D01*
X265839571Y-168080476D01*
X265801476Y-168156666D01*
X265763380Y-168194761D01*
X265687190Y-168232857D01*
X265420523Y-168232857D01*
X266144333Y-167851904D02*
X266639571Y-167851904D01*
X266372904Y-168156666D01*
X266487190Y-168156666D01*
X266563380Y-168194761D01*
X266601476Y-168232857D01*
X266639571Y-168309047D01*
X266639571Y-168499523D01*
X266601476Y-168575714D01*
X266563380Y-168613809D01*
X266487190Y-168651904D01*
X266258619Y-168651904D01*
X266182428Y-168613809D01*
X266144333Y-168575714D01*
X253985008Y-171864297D02*
X254032148Y-171958578D01*
X254032148Y-172005719D01*
X254008578Y-172076429D01*
X253937867Y-172147140D01*
X253867157Y-172170710D01*
X253820016Y-172170710D01*
X253749306Y-172147140D01*
X253560744Y-171958578D01*
X254055719Y-171463603D01*
X254220710Y-171628595D01*
X254244280Y-171699306D01*
X254244280Y-171746446D01*
X254220710Y-171817157D01*
X254173570Y-171864297D01*
X254102859Y-171887867D01*
X254055719Y-171887867D01*
X253985008Y-171864297D01*
X253820016Y-171699306D01*
X254786396Y-172194280D02*
X254550693Y-171958578D01*
X254291421Y-172170710D01*
X254338561Y-172170710D01*
X254409272Y-172194280D01*
X254527123Y-172312132D01*
X254550693Y-172382842D01*
X254550693Y-172429983D01*
X254527123Y-172500693D01*
X254409272Y-172618544D01*
X254338561Y-172642115D01*
X254291421Y-172642115D01*
X254220710Y-172618544D01*
X254102859Y-172500693D01*
X254079289Y-172429983D01*
X254079289Y-172382842D01*
X254765190Y-170772857D02*
X254879476Y-170810952D01*
X254917571Y-170849047D01*
X254955666Y-170925238D01*
X254955666Y-171039523D01*
X254917571Y-171115714D01*
X254879476Y-171153809D01*
X254803285Y-171191904D01*
X254498523Y-171191904D01*
X254498523Y-170391904D01*
X254765190Y-170391904D01*
X254841380Y-170430000D01*
X254879476Y-170468095D01*
X254917571Y-170544285D01*
X254917571Y-170620476D01*
X254879476Y-170696666D01*
X254841380Y-170734761D01*
X254765190Y-170772857D01*
X254498523Y-170772857D01*
X255641380Y-170658571D02*
X255641380Y-171191904D01*
X255450904Y-170353809D02*
X255260428Y-170925238D01*
X255755666Y-170925238D01*
X254536619Y-168232857D02*
X254803285Y-168232857D01*
X254917571Y-168651904D02*
X254536619Y-168651904D01*
X254536619Y-167851904D01*
X254917571Y-167851904D01*
X255603285Y-167851904D02*
X255450904Y-167851904D01*
X255374714Y-167890000D01*
X255336619Y-167928095D01*
X255260428Y-168042380D01*
X255222333Y-168194761D01*
X255222333Y-168499523D01*
X255260428Y-168575714D01*
X255298523Y-168613809D01*
X255374714Y-168651904D01*
X255527095Y-168651904D01*
X255603285Y-168613809D01*
X255641380Y-168575714D01*
X255679476Y-168499523D01*
X255679476Y-168309047D01*
X255641380Y-168232857D01*
X255603285Y-168194761D01*
X255527095Y-168156666D01*
X255374714Y-168156666D01*
X255298523Y-168194761D01*
X255260428Y-168232857D01*
X255222333Y-168309047D01*
X254498523Y-166111904D02*
X254498523Y-165311904D01*
X254689000Y-165311904D01*
X254803285Y-165350000D01*
X254879476Y-165426190D01*
X254917571Y-165502380D01*
X254955666Y-165654761D01*
X254955666Y-165769047D01*
X254917571Y-165921428D01*
X254879476Y-165997619D01*
X254803285Y-166073809D01*
X254689000Y-166111904D01*
X254498523Y-166111904D01*
X255222333Y-165311904D02*
X255755666Y-165311904D01*
X255412809Y-166111904D01*
X254955666Y-163495714D02*
X254917571Y-163533809D01*
X254803285Y-163571904D01*
X254727095Y-163571904D01*
X254612809Y-163533809D01*
X254536619Y-163457619D01*
X254498523Y-163381428D01*
X254460428Y-163229047D01*
X254460428Y-163114761D01*
X254498523Y-162962380D01*
X254536619Y-162886190D01*
X254612809Y-162810000D01*
X254727095Y-162771904D01*
X254803285Y-162771904D01*
X254917571Y-162810000D01*
X254955666Y-162848095D01*
X255641380Y-162771904D02*
X255489000Y-162771904D01*
X255412809Y-162810000D01*
X255374714Y-162848095D01*
X255298523Y-162962380D01*
X255260428Y-163114761D01*
X255260428Y-163419523D01*
X255298523Y-163495714D01*
X255336619Y-163533809D01*
X255412809Y-163571904D01*
X255565190Y-163571904D01*
X255641380Y-163533809D01*
X255679476Y-163495714D01*
X255717571Y-163419523D01*
X255717571Y-163229047D01*
X255679476Y-163152857D01*
X255641380Y-163114761D01*
X255565190Y-163076666D01*
X255412809Y-163076666D01*
X255336619Y-163114761D01*
X255298523Y-163152857D01*
X255260428Y-163229047D01*
X254498523Y-161031904D02*
X254498523Y-160231904D01*
X254689000Y-160231904D01*
X254803285Y-160270000D01*
X254879476Y-160346190D01*
X254917571Y-160422380D01*
X254955666Y-160574761D01*
X254955666Y-160689047D01*
X254917571Y-160841428D01*
X254879476Y-160917619D01*
X254803285Y-160993809D01*
X254689000Y-161031904D01*
X254498523Y-161031904D01*
X255641380Y-160498571D02*
X255641380Y-161031904D01*
X255450904Y-160193809D02*
X255260428Y-160765238D01*
X255755666Y-160765238D01*
X254479476Y-150110000D02*
X254403285Y-150071904D01*
X254289000Y-150071904D01*
X254174714Y-150110000D01*
X254098523Y-150186190D01*
X254060428Y-150262380D01*
X254022333Y-150414761D01*
X254022333Y-150529047D01*
X254060428Y-150681428D01*
X254098523Y-150757619D01*
X254174714Y-150833809D01*
X254289000Y-150871904D01*
X254365190Y-150871904D01*
X254479476Y-150833809D01*
X254517571Y-150795714D01*
X254517571Y-150529047D01*
X254365190Y-150529047D01*
X254860428Y-150871904D02*
X254860428Y-150071904D01*
X255317571Y-150871904D01*
X255317571Y-150071904D01*
X255698523Y-150871904D02*
X255698523Y-150071904D01*
X255889000Y-150071904D01*
X256003285Y-150110000D01*
X256079476Y-150186190D01*
X256117571Y-150262380D01*
X256155666Y-150414761D01*
X256155666Y-150529047D01*
X256117571Y-150681428D01*
X256079476Y-150757619D01*
X256003285Y-150833809D01*
X255889000Y-150871904D01*
X255698523Y-150871904D01*
X254479476Y-152650000D02*
X254403285Y-152611904D01*
X254289000Y-152611904D01*
X254174714Y-152650000D01*
X254098523Y-152726190D01*
X254060428Y-152802380D01*
X254022333Y-152954761D01*
X254022333Y-153069047D01*
X254060428Y-153221428D01*
X254098523Y-153297619D01*
X254174714Y-153373809D01*
X254289000Y-153411904D01*
X254365190Y-153411904D01*
X254479476Y-153373809D01*
X254517571Y-153335714D01*
X254517571Y-153069047D01*
X254365190Y-153069047D01*
X254860428Y-153411904D02*
X254860428Y-152611904D01*
X255317571Y-153411904D01*
X255317571Y-152611904D01*
X255698523Y-153411904D02*
X255698523Y-152611904D01*
X255889000Y-152611904D01*
X256003285Y-152650000D01*
X256079476Y-152726190D01*
X256117571Y-152802380D01*
X256155666Y-152954761D01*
X256155666Y-153069047D01*
X256117571Y-153221428D01*
X256079476Y-153297619D01*
X256003285Y-153373809D01*
X255889000Y-153411904D01*
X255698523Y-153411904D01*
X254498523Y-155951904D02*
X254498523Y-155151904D01*
X254689000Y-155151904D01*
X254803285Y-155190000D01*
X254879476Y-155266190D01*
X254917571Y-155342380D01*
X254955666Y-155494761D01*
X254955666Y-155609047D01*
X254917571Y-155761428D01*
X254879476Y-155837619D01*
X254803285Y-155913809D01*
X254689000Y-155951904D01*
X254498523Y-155951904D01*
X255717571Y-155951904D02*
X255260428Y-155951904D01*
X255489000Y-155951904D02*
X255489000Y-155151904D01*
X255412809Y-155266190D01*
X255336619Y-155342380D01*
X255260428Y-155380476D01*
X254498523Y-158491904D02*
X254498523Y-157691904D01*
X254689000Y-157691904D01*
X254803285Y-157730000D01*
X254879476Y-157806190D01*
X254917571Y-157882380D01*
X254955666Y-158034761D01*
X254955666Y-158149047D01*
X254917571Y-158301428D01*
X254879476Y-158377619D01*
X254803285Y-158453809D01*
X254689000Y-158491904D01*
X254498523Y-158491904D01*
X255450904Y-157691904D02*
X255527095Y-157691904D01*
X255603285Y-157730000D01*
X255641380Y-157768095D01*
X255679476Y-157844285D01*
X255717571Y-157996666D01*
X255717571Y-158187142D01*
X255679476Y-158339523D01*
X255641380Y-158415714D01*
X255603285Y-158453809D01*
X255527095Y-158491904D01*
X255450904Y-158491904D01*
X255374714Y-158453809D01*
X255336619Y-158415714D01*
X255298523Y-158339523D01*
X255260428Y-158187142D01*
X255260428Y-157996666D01*
X255298523Y-157844285D01*
X255336619Y-157768095D01*
X255374714Y-157730000D01*
X255450904Y-157691904D01*
X254498523Y-148331904D02*
X254498523Y-147531904D01*
X254689000Y-147531904D01*
X254803285Y-147570000D01*
X254879476Y-147646190D01*
X254917571Y-147722380D01*
X254955666Y-147874761D01*
X254955666Y-147989047D01*
X254917571Y-148141428D01*
X254879476Y-148217619D01*
X254803285Y-148293809D01*
X254689000Y-148331904D01*
X254498523Y-148331904D01*
X255260428Y-147608095D02*
X255298523Y-147570000D01*
X255374714Y-147531904D01*
X255565190Y-147531904D01*
X255641380Y-147570000D01*
X255679476Y-147608095D01*
X255717571Y-147684285D01*
X255717571Y-147760476D01*
X255679476Y-147874761D01*
X255222333Y-148331904D01*
X255717571Y-148331904D01*
X254787651Y-144991904D02*
X255244794Y-144991904D01*
X255016223Y-145791904D02*
X255016223Y-144991904D01*
X255435270Y-144991904D02*
X255968604Y-145791904D01*
X255968604Y-144991904D02*
X255435270Y-145791904D01*
X256425747Y-144991904D02*
X256501937Y-144991904D01*
X256578128Y-145030000D01*
X256616223Y-145068095D01*
X256654318Y-145144285D01*
X256692413Y-145296666D01*
X256692413Y-145487142D01*
X256654318Y-145639523D01*
X256616223Y-145715714D01*
X256578128Y-145753809D01*
X256501937Y-145791904D01*
X256425747Y-145791904D01*
X256349556Y-145753809D01*
X256311461Y-145715714D01*
X256273366Y-145639523D01*
X256235270Y-145487142D01*
X256235270Y-145296666D01*
X256273366Y-145144285D01*
X256311461Y-145068095D01*
X256349556Y-145030000D01*
X256425747Y-144991904D01*
X257606699Y-144953809D02*
X256920985Y-145982380D01*
X257873366Y-145791904D02*
X257873366Y-144991904D01*
X258063842Y-144991904D01*
X258178128Y-145030000D01*
X258254318Y-145106190D01*
X258292413Y-145182380D01*
X258330508Y-145334761D01*
X258330508Y-145449047D01*
X258292413Y-145601428D01*
X258254318Y-145677619D01*
X258178128Y-145753809D01*
X258063842Y-145791904D01*
X257873366Y-145791904D01*
X258597175Y-144991904D02*
X259092413Y-144991904D01*
X258825747Y-145296666D01*
X258940032Y-145296666D01*
X259016223Y-145334761D01*
X259054318Y-145372857D01*
X259092413Y-145449047D01*
X259092413Y-145639523D01*
X259054318Y-145715714D01*
X259016223Y-145753809D01*
X258940032Y-145791904D01*
X258711461Y-145791904D01*
X258635270Y-145753809D01*
X258597175Y-145715714D01*
X255766666Y-171950000D02*
X255866666Y-171983333D01*
X255900000Y-172016666D01*
X255933333Y-172083333D01*
X255933333Y-172183333D01*
X255900000Y-172250000D01*
X255866666Y-172283333D01*
X255800000Y-172316666D01*
X255533333Y-172316666D01*
X255533333Y-171616666D01*
X255766666Y-171616666D01*
X255833333Y-171650000D01*
X255866666Y-171683333D01*
X255900000Y-171750000D01*
X255900000Y-171816666D01*
X255866666Y-171883333D01*
X255833333Y-171916666D01*
X255766666Y-171950000D01*
X255533333Y-171950000D01*
X256166666Y-171616666D02*
X256633333Y-171616666D01*
X256333333Y-172316666D01*
X264816666Y-171950000D02*
X264583333Y-171950000D01*
X264583333Y-172316666D02*
X264583333Y-171616666D01*
X264916666Y-171616666D01*
X265316666Y-171616666D02*
X265383333Y-171616666D01*
X265450000Y-171650000D01*
X265483333Y-171683333D01*
X265516666Y-171750000D01*
X265550000Y-171883333D01*
X265550000Y-172050000D01*
X265516666Y-172183333D01*
X265483333Y-172250000D01*
X265450000Y-172283333D01*
X265383333Y-172316666D01*
X265316666Y-172316666D01*
X265250000Y-172283333D01*
X265216666Y-172250000D01*
X265183333Y-172183333D01*
X265150000Y-172050000D01*
X265150000Y-171883333D01*
X265183333Y-171750000D01*
X265216666Y-171683333D01*
X265250000Y-171650000D01*
X265316666Y-171616666D01*
X266714297Y-172264991D02*
X266808578Y-172217851D01*
X266855719Y-172217851D01*
X266926429Y-172241421D01*
X266997140Y-172312132D01*
X267020710Y-172382842D01*
X267020710Y-172429983D01*
X266997140Y-172500693D01*
X266808578Y-172689255D01*
X266313603Y-172194280D01*
X266478595Y-172029289D01*
X266549306Y-172005719D01*
X266596446Y-172005719D01*
X266667157Y-172029289D01*
X266714297Y-172076429D01*
X266737867Y-172147140D01*
X266737867Y-172194280D01*
X266714297Y-172264991D01*
X266549306Y-172429983D01*
X267020710Y-171487174D02*
X266926429Y-171581455D01*
X266902859Y-171652165D01*
X266902859Y-171699306D01*
X266926429Y-171817157D01*
X266997140Y-171935008D01*
X267185702Y-172123570D01*
X267256412Y-172147140D01*
X267303553Y-172147140D01*
X267374264Y-172123570D01*
X267468544Y-172029289D01*
X267492115Y-171958578D01*
X267492115Y-171911438D01*
X267468544Y-171840727D01*
X267350693Y-171722876D01*
X267279983Y-171699306D01*
X267232842Y-171699306D01*
X267162132Y-171722876D01*
X267067851Y-171817157D01*
X267044280Y-171887867D01*
X267044280Y-171935008D01*
X267067851Y-172005719D01*
X260416666Y-172085714D02*
X260378571Y-172123809D01*
X260264285Y-172161904D01*
X260188095Y-172161904D01*
X260073809Y-172123809D01*
X259997619Y-172047619D01*
X259959523Y-171971428D01*
X259921428Y-171819047D01*
X259921428Y-171704761D01*
X259959523Y-171552380D01*
X259997619Y-171476190D01*
X260073809Y-171400000D01*
X260188095Y-171361904D01*
X260264285Y-171361904D01*
X260378571Y-171400000D01*
X260416666Y-171438095D01*
X260683333Y-171361904D02*
X261216666Y-171361904D01*
X260873809Y-172161904D01*
X262823333Y-171742857D02*
X262556666Y-171742857D01*
X262556666Y-172161904D02*
X262556666Y-171361904D01*
X262937619Y-171361904D01*
X263661428Y-172161904D02*
X263204285Y-172161904D01*
X263432857Y-172161904D02*
X263432857Y-171361904D01*
X263356666Y-171476190D01*
X263280476Y-171552380D01*
X263204285Y-171590476D01*
X257419523Y-172161904D02*
X257419523Y-171361904D01*
X257610000Y-171361904D01*
X257724285Y-171400000D01*
X257800476Y-171476190D01*
X257838571Y-171552380D01*
X257876666Y-171704761D01*
X257876666Y-171819047D01*
X257838571Y-171971428D01*
X257800476Y-172047619D01*
X257724285Y-172123809D01*
X257610000Y-172161904D01*
X257419523Y-172161904D01*
X258600476Y-171361904D02*
X258219523Y-171361904D01*
X258181428Y-171742857D01*
X258219523Y-171704761D01*
X258295714Y-171666666D01*
X258486190Y-171666666D01*
X258562380Y-171704761D01*
X258600476Y-171742857D01*
X258638571Y-171819047D01*
X258638571Y-172009523D01*
X258600476Y-172085714D01*
X258562380Y-172123809D01*
X258486190Y-172161904D01*
X258295714Y-172161904D01*
X258219523Y-172123809D01*
X258181428Y-172085714D01*
X447980952Y-153286904D02*
X447714285Y-152905952D01*
X447523809Y-153286904D02*
X447523809Y-152486904D01*
X447828571Y-152486904D01*
X447904761Y-152525000D01*
X447942857Y-152563095D01*
X447980952Y-152639285D01*
X447980952Y-152753571D01*
X447942857Y-152829761D01*
X447904761Y-152867857D01*
X447828571Y-152905952D01*
X447523809Y-152905952D01*
X448438095Y-153286904D02*
X448361904Y-153248809D01*
X448323809Y-153210714D01*
X448285714Y-153134523D01*
X448285714Y-152905952D01*
X448323809Y-152829761D01*
X448361904Y-152791666D01*
X448438095Y-152753571D01*
X448552380Y-152753571D01*
X448628571Y-152791666D01*
X448666666Y-152829761D01*
X448704761Y-152905952D01*
X448704761Y-153134523D01*
X448666666Y-153210714D01*
X448628571Y-153248809D01*
X448552380Y-153286904D01*
X448438095Y-153286904D01*
X448933333Y-152753571D02*
X449238095Y-152753571D01*
X449047619Y-152486904D02*
X449047619Y-153172619D01*
X449085714Y-153248809D01*
X449161904Y-153286904D01*
X449238095Y-153286904D01*
X449847619Y-153286904D02*
X449847619Y-152867857D01*
X449809523Y-152791666D01*
X449733333Y-152753571D01*
X449580952Y-152753571D01*
X449504761Y-152791666D01*
X449847619Y-153248809D02*
X449771428Y-153286904D01*
X449580952Y-153286904D01*
X449504761Y-153248809D01*
X449466666Y-153172619D01*
X449466666Y-153096428D01*
X449504761Y-153020238D01*
X449580952Y-152982142D01*
X449771428Y-152982142D01*
X449847619Y-152944047D01*
X450228571Y-153286904D02*
X450228571Y-152753571D01*
X450228571Y-152905952D02*
X450266666Y-152829761D01*
X450304761Y-152791666D01*
X450380952Y-152753571D01*
X450457142Y-152753571D01*
X450647619Y-152753571D02*
X450838095Y-153286904D01*
X451028571Y-152753571D02*
X450838095Y-153286904D01*
X450761904Y-153477380D01*
X450723809Y-153515476D01*
X450647619Y-153553571D01*
X451333333Y-152867857D02*
X451600000Y-152867857D01*
X451714285Y-153286904D02*
X451333333Y-153286904D01*
X451333333Y-152486904D01*
X451714285Y-152486904D01*
X452057142Y-152753571D02*
X452057142Y-153286904D01*
X452057142Y-152829761D02*
X452095238Y-152791666D01*
X452171428Y-152753571D01*
X452285714Y-152753571D01*
X452361904Y-152791666D01*
X452400000Y-152867857D01*
X452400000Y-153286904D01*
X453123809Y-153248809D02*
X453047619Y-153286904D01*
X452895238Y-153286904D01*
X452819047Y-153248809D01*
X452780952Y-153210714D01*
X452742857Y-153134523D01*
X452742857Y-152905952D01*
X452780952Y-152829761D01*
X452819047Y-152791666D01*
X452895238Y-152753571D01*
X453047619Y-152753571D01*
X453123809Y-152791666D01*
X453580952Y-153286904D02*
X453504761Y-153248809D01*
X453466666Y-153210714D01*
X453428571Y-153134523D01*
X453428571Y-152905952D01*
X453466666Y-152829761D01*
X453504761Y-152791666D01*
X453580952Y-152753571D01*
X453695238Y-152753571D01*
X453771428Y-152791666D01*
X453809523Y-152829761D01*
X453847619Y-152905952D01*
X453847619Y-153134523D01*
X453809523Y-153210714D01*
X453771428Y-153248809D01*
X453695238Y-153286904D01*
X453580952Y-153286904D01*
X454533333Y-153286904D02*
X454533333Y-152486904D01*
X454533333Y-153248809D02*
X454457142Y-153286904D01*
X454304761Y-153286904D01*
X454228571Y-153248809D01*
X454190476Y-153210714D01*
X454152380Y-153134523D01*
X454152380Y-152905952D01*
X454190476Y-152829761D01*
X454228571Y-152791666D01*
X454304761Y-152753571D01*
X454457142Y-152753571D01*
X454533333Y-152791666D01*
X455219047Y-153248809D02*
X455142857Y-153286904D01*
X454990476Y-153286904D01*
X454914285Y-153248809D01*
X454876190Y-153172619D01*
X454876190Y-152867857D01*
X454914285Y-152791666D01*
X454990476Y-152753571D01*
X455142857Y-152753571D01*
X455219047Y-152791666D01*
X455257142Y-152867857D01*
X455257142Y-152944047D01*
X454876190Y-153020238D01*
X455600000Y-153286904D02*
X455600000Y-152753571D01*
X455600000Y-152905952D02*
X455638095Y-152829761D01*
X455676190Y-152791666D01*
X455752380Y-152753571D01*
X455828571Y-152753571D01*
X456514285Y-153286904D02*
X456057142Y-153286904D01*
X456285714Y-153286904D02*
X456285714Y-152486904D01*
X456209523Y-152601190D01*
X456133333Y-152677380D01*
X456057142Y-152715476D01*
%LPC*%
D10*
D14*
X436720000Y-153540000D03*
D15*
X431640000Y-153540000D03*
X441800000Y-153540000D03*
X247272475Y-173789201D03*
X237334495Y-171676819D03*
D14*
X242303485Y-172733010D03*
D16*
G36*
X244539603Y-231571054D02*
G01*
X243365825Y-231321560D01*
X243615319Y-230147782D01*
X244789097Y-230397276D01*
X244539603Y-231571054D01*
G37*
G36*
X243884681Y-234652218D02*
G01*
X242710903Y-234402724D01*
X242960397Y-233228946D01*
X244134175Y-233478440D01*
X243884681Y-234652218D01*
G37*
G36*
X243555333Y-237163623D02*
G01*
X241990297Y-236830965D01*
X242322955Y-235265929D01*
X243887991Y-235598587D01*
X243555333Y-237163623D01*
G37*
D17*
X244560856Y-228585224D03*
D14*
X125728750Y-196402500D03*
D15*
X120648750Y-196402500D03*
X130808750Y-196402500D03*
D17*
X342659199Y-157522509D03*
D16*
G36*
X345229758Y-165768250D02*
G01*
X343664722Y-166100908D01*
X343332064Y-164535872D01*
X344897100Y-164203214D01*
X345229758Y-165768250D01*
G37*
G36*
X344509152Y-163340009D02*
G01*
X343335374Y-163589503D01*
X343085880Y-162415725D01*
X344259658Y-162166231D01*
X344509152Y-163340009D01*
G37*
G36*
X343854230Y-160258845D02*
G01*
X342680452Y-160508339D01*
X342430958Y-159334561D01*
X343604736Y-159085067D01*
X343854230Y-160258845D01*
G37*
D17*
X155900000Y-154100000D03*
D18*
X155900000Y-161900000D03*
D19*
X155900000Y-159575000D03*
X155900000Y-156425000D03*
X174950000Y-156535000D03*
X174950000Y-159685000D03*
D18*
X174950000Y-162010000D03*
D17*
X174950000Y-154210000D03*
D16*
G36*
X195941953Y-161771912D02*
G01*
X194768175Y-161522418D01*
X195017669Y-160348640D01*
X196191447Y-160598134D01*
X195941953Y-161771912D01*
G37*
G36*
X195287031Y-164853076D02*
G01*
X194113253Y-164603582D01*
X194362747Y-163429804D01*
X195536525Y-163679298D01*
X195287031Y-164853076D01*
G37*
G36*
X194957683Y-167364481D02*
G01*
X193392647Y-167031823D01*
X193725305Y-165466787D01*
X195290341Y-165799445D01*
X194957683Y-167364481D01*
G37*
D17*
X195963206Y-158786082D03*
X214596918Y-162746798D03*
D16*
G36*
X213591395Y-171325197D02*
G01*
X212026359Y-170992539D01*
X212359017Y-169427503D01*
X213924053Y-169760161D01*
X213591395Y-171325197D01*
G37*
G36*
X213920743Y-168813792D02*
G01*
X212746965Y-168564298D01*
X212996459Y-167390520D01*
X214170237Y-167640014D01*
X213920743Y-168813792D01*
G37*
G36*
X214575665Y-165732628D02*
G01*
X213401887Y-165483134D01*
X213651381Y-164309356D01*
X214825159Y-164558850D01*
X214575665Y-165732628D01*
G37*
D17*
X233230629Y-166707516D03*
D16*
G36*
X232225106Y-175285915D02*
G01*
X230660070Y-174953257D01*
X230992728Y-173388221D01*
X232557764Y-173720879D01*
X232225106Y-175285915D01*
G37*
G36*
X232554454Y-172774510D02*
G01*
X231380676Y-172525016D01*
X231630170Y-171351238D01*
X232803948Y-171600732D01*
X232554454Y-172774510D01*
G37*
G36*
X233209376Y-169693346D02*
G01*
X232035598Y-169443852D01*
X232285092Y-168270074D01*
X233458870Y-168519568D01*
X233209376Y-169693346D01*
G37*
G36*
X246828946Y-183789603D02*
G01*
X247078440Y-182615825D01*
X248252218Y-182865319D01*
X248002724Y-184039097D01*
X246828946Y-183789603D01*
G37*
G36*
X243747782Y-183134681D02*
G01*
X243997276Y-181960903D01*
X245171054Y-182210397D01*
X244921560Y-183384175D01*
X243747782Y-183134681D01*
G37*
G36*
X241236377Y-182805333D02*
G01*
X241569035Y-181240297D01*
X243134071Y-181572955D01*
X242801413Y-183137991D01*
X241236377Y-182805333D01*
G37*
D17*
X249814776Y-183810856D03*
D16*
G36*
X287953095Y-172140999D02*
G01*
X286779317Y-172390493D01*
X286529823Y-171216715D01*
X287703601Y-170967221D01*
X287953095Y-172140999D01*
G37*
G36*
X288608017Y-175222163D02*
G01*
X287434239Y-175471657D01*
X287184745Y-174297879D01*
X288358523Y-174048385D01*
X288608017Y-175222163D01*
G37*
G36*
X289328623Y-177650404D02*
G01*
X287763587Y-177983062D01*
X287430929Y-176418026D01*
X288995965Y-176085368D01*
X289328623Y-177650404D01*
G37*
D17*
X286758064Y-169404663D03*
D16*
G36*
X306586806Y-168180281D02*
G01*
X305413028Y-168429775D01*
X305163534Y-167255997D01*
X306337312Y-167006503D01*
X306586806Y-168180281D01*
G37*
G36*
X307241728Y-171261445D02*
G01*
X306067950Y-171510939D01*
X305818456Y-170337161D01*
X306992234Y-170087667D01*
X307241728Y-171261445D01*
G37*
G36*
X307962334Y-173689686D02*
G01*
X306397298Y-174022344D01*
X306064640Y-172457308D01*
X307629676Y-172124650D01*
X307962334Y-173689686D01*
G37*
D17*
X305391775Y-165443945D03*
D16*
G36*
X325220518Y-164219563D02*
G01*
X324046740Y-164469057D01*
X323797246Y-163295279D01*
X324971024Y-163045785D01*
X325220518Y-164219563D01*
G37*
G36*
X325875440Y-167300727D02*
G01*
X324701662Y-167550221D01*
X324452168Y-166376443D01*
X325625946Y-166126949D01*
X325875440Y-167300727D01*
G37*
G36*
X326596046Y-169728968D02*
G01*
X325031010Y-170061626D01*
X324698352Y-168496590D01*
X326263388Y-168163932D01*
X326596046Y-169728968D01*
G37*
D17*
X324025487Y-161483227D03*
D19*
X160672500Y-196577500D03*
X160672500Y-199727500D03*
D18*
X160672500Y-202052500D03*
D17*
X160672500Y-194252500D03*
X344526787Y-235027895D03*
D16*
G36*
X347097346Y-243273636D02*
G01*
X345532310Y-243606294D01*
X345199652Y-242041258D01*
X346764688Y-241708600D01*
X347097346Y-243273636D01*
G37*
G36*
X346376740Y-240845395D02*
G01*
X345202962Y-241094889D01*
X344953468Y-239921111D01*
X346127246Y-239671617D01*
X346376740Y-240845395D01*
G37*
G36*
X345721818Y-237764231D02*
G01*
X344548040Y-238013725D01*
X344298546Y-236839947D01*
X345472324Y-236590453D01*
X345721818Y-237764231D01*
G37*
D17*
X189437190Y-235301287D03*
D16*
G36*
X188431667Y-243879686D02*
G01*
X186866631Y-243547028D01*
X187199289Y-241981992D01*
X188764325Y-242314650D01*
X188431667Y-243879686D01*
G37*
G36*
X188761015Y-241368281D02*
G01*
X187587237Y-241118787D01*
X187836731Y-239945009D01*
X189010509Y-240194503D01*
X188761015Y-241368281D01*
G37*
G36*
X189415937Y-238287117D02*
G01*
X188242159Y-238037623D01*
X188491653Y-236863845D01*
X189665431Y-237113339D01*
X189415937Y-238287117D01*
G37*
D17*
X284664933Y-228276335D03*
D16*
G36*
X287235492Y-236522076D02*
G01*
X285670456Y-236854734D01*
X285337798Y-235289698D01*
X286902834Y-234957040D01*
X287235492Y-236522076D01*
G37*
G36*
X286514886Y-234093835D02*
G01*
X285341108Y-234343329D01*
X285091614Y-233169551D01*
X286265392Y-232920057D01*
X286514886Y-234093835D01*
G37*
G36*
X285859964Y-231012671D02*
G01*
X284686186Y-231262165D01*
X284436692Y-230088387D01*
X285610470Y-229838893D01*
X285859964Y-231012671D01*
G37*
D17*
X399482500Y-149000000D03*
D18*
X407282500Y-149000000D03*
D19*
X404957500Y-149000000D03*
X401807500Y-149000000D03*
D17*
X421657500Y-175202500D03*
D18*
X421657500Y-183002500D03*
D19*
X421657500Y-180677500D03*
X421657500Y-177527500D03*
D16*
G36*
X207351939Y-222623944D02*
G01*
X206178161Y-222374450D01*
X206427655Y-221200672D01*
X207601433Y-221450166D01*
X207351939Y-222623944D01*
G37*
G36*
X206697017Y-225705108D02*
G01*
X205523239Y-225455614D01*
X205772733Y-224281836D01*
X206946511Y-224531330D01*
X206697017Y-225705108D01*
G37*
G36*
X206367669Y-228216513D02*
G01*
X204802633Y-227883855D01*
X205135291Y-226318819D01*
X206700327Y-226651477D01*
X206367669Y-228216513D01*
G37*
D17*
X207373192Y-219638114D03*
D19*
X134478750Y-196577500D03*
X134478750Y-199727500D03*
D18*
X134478750Y-202052500D03*
D17*
X134478750Y-194252500D03*
D19*
X378795000Y-177527500D03*
X378795000Y-180677500D03*
D18*
X378795000Y-183002500D03*
D17*
X378795000Y-175202500D03*
D16*
G36*
X341761100Y-219130519D02*
G01*
X340587322Y-219380013D01*
X340337828Y-218206235D01*
X341511606Y-217956741D01*
X341761100Y-219130519D01*
G37*
G36*
X342416022Y-222211683D02*
G01*
X341242244Y-222461177D01*
X340992750Y-221287399D01*
X342166528Y-221037905D01*
X342416022Y-222211683D01*
G37*
G36*
X343136628Y-224639924D02*
G01*
X341571592Y-224972582D01*
X341238934Y-223407546D01*
X342803970Y-223074888D01*
X343136628Y-224639924D01*
G37*
D17*
X340566069Y-216394183D03*
X393082500Y-232352500D03*
D18*
X393082500Y-240152500D03*
D19*
X393082500Y-237827500D03*
X393082500Y-234677500D03*
D17*
X127335000Y-232352500D03*
D18*
X127335000Y-240152500D03*
D19*
X127335000Y-237827500D03*
X127335000Y-234677500D03*
D17*
X202017054Y-199024043D03*
D16*
G36*
X201011531Y-207602442D02*
G01*
X199446495Y-207269784D01*
X199779153Y-205704748D01*
X201344189Y-206037406D01*
X201011531Y-207602442D01*
G37*
G36*
X201340879Y-205091037D02*
G01*
X200167101Y-204841543D01*
X200416595Y-203667765D01*
X201590373Y-203917259D01*
X201340879Y-205091037D01*
G37*
G36*
X201995801Y-202009873D02*
G01*
X200822023Y-201760379D01*
X201071517Y-200586601D01*
X202245295Y-200836095D01*
X201995801Y-202009873D01*
G37*
D17*
X454995000Y-189490000D03*
D18*
X454995000Y-197290000D03*
D19*
X454995000Y-194965000D03*
X454995000Y-191815000D03*
D17*
X364507500Y-213302500D03*
D18*
X364507500Y-221102500D03*
D19*
X364507500Y-218777500D03*
X364507500Y-215627500D03*
D17*
X440707500Y-237115000D03*
D18*
X440707500Y-244915000D03*
D19*
X440707500Y-242590000D03*
X440707500Y-239440000D03*
D16*
G36*
X201298091Y-182385982D02*
G01*
X200124313Y-182136488D01*
X200373807Y-180962710D01*
X201547585Y-181212204D01*
X201298091Y-182385982D01*
G37*
G36*
X200643169Y-185467146D02*
G01*
X199469391Y-185217652D01*
X199718885Y-184043874D01*
X200892663Y-184293368D01*
X200643169Y-185467146D01*
G37*
G36*
X200313821Y-187978551D02*
G01*
X198748785Y-187645893D01*
X199081443Y-186080857D01*
X200646479Y-186413515D01*
X200313821Y-187978551D01*
G37*
D17*
X201319344Y-179400152D03*
D19*
X408951250Y-187000000D03*
X412101250Y-187000000D03*
D18*
X414426250Y-187000000D03*
D17*
X406626250Y-187000000D03*
X383557500Y-156152500D03*
D18*
X383557500Y-163952500D03*
D19*
X383557500Y-161627500D03*
X383557500Y-158477500D03*
D17*
X136860000Y-156152500D03*
D18*
X136860000Y-163952500D03*
D19*
X136860000Y-161627500D03*
X136860000Y-158477500D03*
D16*
G36*
X220629513Y-205970591D02*
G01*
X219455735Y-205721097D01*
X219705229Y-204547319D01*
X220879007Y-204796813D01*
X220629513Y-205970591D01*
G37*
G36*
X219974591Y-209051755D02*
G01*
X218800813Y-208802261D01*
X219050307Y-207628483D01*
X220224085Y-207877977D01*
X219974591Y-209051755D01*
G37*
G36*
X219645243Y-211563160D02*
G01*
X218080207Y-211230502D01*
X218412865Y-209665466D01*
X219977901Y-209998124D01*
X219645243Y-211563160D01*
G37*
D17*
X220650766Y-202984761D03*
D16*
G36*
X249975500Y-251159450D02*
G01*
X248801722Y-250909956D01*
X249051216Y-249736178D01*
X250224994Y-249985672D01*
X249975500Y-251159450D01*
G37*
G36*
X249320578Y-254240614D02*
G01*
X248146800Y-253991120D01*
X248396294Y-252817342D01*
X249570072Y-253066836D01*
X249320578Y-254240614D01*
G37*
G36*
X248991230Y-256752019D02*
G01*
X247426194Y-256419361D01*
X247758852Y-254854325D01*
X249323888Y-255186983D01*
X248991230Y-256752019D01*
G37*
D17*
X249996753Y-248173620D03*
D16*
G36*
X239263224Y-209931308D02*
G01*
X238089446Y-209681814D01*
X238338940Y-208508036D01*
X239512718Y-208757530D01*
X239263224Y-209931308D01*
G37*
G36*
X238608302Y-213012472D02*
G01*
X237434524Y-212762978D01*
X237684018Y-211589200D01*
X238857796Y-211838694D01*
X238608302Y-213012472D01*
G37*
G36*
X238278954Y-215523877D02*
G01*
X236713918Y-215191219D01*
X237046576Y-213626183D01*
X238611612Y-213958841D01*
X238278954Y-215523877D01*
G37*
D17*
X239284477Y-206945478D03*
X290021071Y-207662265D03*
D16*
G36*
X292591630Y-215908006D02*
G01*
X291026594Y-216240664D01*
X290693936Y-214675628D01*
X292258972Y-214342970D01*
X292591630Y-215908006D01*
G37*
G36*
X291871024Y-213479765D02*
G01*
X290697246Y-213729259D01*
X290447752Y-212555481D01*
X291621530Y-212305987D01*
X291871024Y-213479765D01*
G37*
G36*
X291216102Y-210398601D02*
G01*
X290042324Y-210648095D01*
X289792830Y-209474317D01*
X290966608Y-209224823D01*
X291216102Y-210398601D01*
G37*
D17*
X318669349Y-182097297D03*
D16*
G36*
X321239908Y-190343038D02*
G01*
X319674872Y-190675696D01*
X319342214Y-189110660D01*
X320907250Y-188778002D01*
X321239908Y-190343038D01*
G37*
G36*
X320519302Y-187914797D02*
G01*
X319345524Y-188164291D01*
X319096030Y-186990513D01*
X320269808Y-186741019D01*
X320519302Y-187914797D01*
G37*
G36*
X319864380Y-184833633D02*
G01*
X318690602Y-185083127D01*
X318441108Y-183909349D01*
X319614886Y-183659855D01*
X319864380Y-184833633D01*
G37*
D17*
X308654783Y-203701547D03*
D16*
G36*
X311225342Y-211947288D02*
G01*
X309660306Y-212279946D01*
X309327648Y-210714910D01*
X310892684Y-210382252D01*
X311225342Y-211947288D01*
G37*
G36*
X310504736Y-209519047D02*
G01*
X309330958Y-209768541D01*
X309081464Y-208594763D01*
X310255242Y-208345269D01*
X310504736Y-209519047D01*
G37*
G36*
X309849814Y-206437883D02*
G01*
X308676036Y-206687377D01*
X308426542Y-205513599D01*
X309600320Y-205264105D01*
X309849814Y-206437883D01*
G37*
G36*
X328483526Y-202477165D02*
G01*
X327309748Y-202726659D01*
X327060254Y-201552881D01*
X328234032Y-201303387D01*
X328483526Y-202477165D01*
G37*
G36*
X329138448Y-205558329D02*
G01*
X327964670Y-205807823D01*
X327715176Y-204634045D01*
X328888954Y-204384551D01*
X329138448Y-205558329D01*
G37*
G36*
X329859054Y-207986570D02*
G01*
X328294018Y-208319228D01*
X327961360Y-206754192D01*
X329526396Y-206421534D01*
X329859054Y-207986570D01*
G37*
D17*
X327288495Y-199740829D03*
D16*
G36*
X347117238Y-198516447D02*
G01*
X345943460Y-198765941D01*
X345693966Y-197592163D01*
X346867744Y-197342669D01*
X347117238Y-198516447D01*
G37*
G36*
X347772160Y-201597611D02*
G01*
X346598382Y-201847105D01*
X346348888Y-200673327D01*
X347522666Y-200423833D01*
X347772160Y-201597611D01*
G37*
G36*
X348492766Y-204025852D02*
G01*
X346927730Y-204358510D01*
X346595072Y-202793474D01*
X348160108Y-202460816D01*
X348492766Y-204025852D01*
G37*
D17*
X345922207Y-195780111D03*
D19*
X421657500Y-239440000D03*
X421657500Y-242590000D03*
D18*
X421657500Y-244915000D03*
D17*
X421657500Y-237115000D03*
D16*
G36*
X323127388Y-223091237D02*
G01*
X321953610Y-223340731D01*
X321704116Y-222166953D01*
X322877894Y-221917459D01*
X323127388Y-223091237D01*
G37*
G36*
X323782310Y-226172401D02*
G01*
X322608532Y-226421895D01*
X322359038Y-225248117D01*
X323532816Y-224998623D01*
X323782310Y-226172401D01*
G37*
G36*
X324502916Y-228600642D02*
G01*
X322937880Y-228933300D01*
X322605222Y-227368264D01*
X324170258Y-227035606D01*
X324502916Y-228600642D01*
G37*
D17*
X321932357Y-220354901D03*
X364507500Y-156152500D03*
D18*
X364507500Y-163952500D03*
D19*
X364507500Y-161627500D03*
X364507500Y-158477500D03*
D16*
G36*
X304493676Y-225821560D02*
G01*
X303319898Y-226071054D01*
X303070404Y-224897276D01*
X304244182Y-224647782D01*
X304493676Y-225821560D01*
G37*
G36*
X305148598Y-228902724D02*
G01*
X303974820Y-229152218D01*
X303725326Y-227978440D01*
X304899104Y-227728946D01*
X305148598Y-228902724D01*
G37*
G36*
X305869204Y-231330965D02*
G01*
X304304168Y-231663623D01*
X303971510Y-230098587D01*
X305536546Y-229765929D01*
X305869204Y-231330965D01*
G37*
D17*
X303298645Y-223085224D03*
X337303061Y-178136579D03*
D16*
G36*
X339873620Y-186382320D02*
G01*
X338308584Y-186714978D01*
X337975926Y-185149942D01*
X339540962Y-184817284D01*
X339873620Y-186382320D01*
G37*
G36*
X339153014Y-183954079D02*
G01*
X337979236Y-184203573D01*
X337729742Y-183029795D01*
X338903520Y-182780301D01*
X339153014Y-183954079D01*
G37*
G36*
X338498092Y-180872915D02*
G01*
X337324314Y-181122409D01*
X337074820Y-179948631D01*
X338248598Y-179699137D01*
X338498092Y-180872915D01*
G37*
D19*
X397845000Y-177527500D03*
X397845000Y-180677500D03*
D18*
X397845000Y-183002500D03*
D17*
X397845000Y-175202500D03*
X359745000Y-175202500D03*
D18*
X359745000Y-183002500D03*
D19*
X359745000Y-180677500D03*
X359745000Y-177527500D03*
D17*
X450232500Y-170440000D03*
D18*
X450232500Y-178240000D03*
D19*
X450232500Y-175915000D03*
X450232500Y-172765000D03*
D17*
X424000000Y-163900000D03*
D18*
X424000000Y-156100000D03*
D19*
X424000000Y-158425000D03*
X424000000Y-161575000D03*
X160672500Y-177527500D03*
X160672500Y-180677500D03*
D18*
X160672500Y-183002500D03*
D17*
X160672500Y-175202500D03*
X388320000Y-194252500D03*
D18*
X388320000Y-202052500D03*
D19*
X388320000Y-199727500D03*
X388320000Y-196577500D03*
D16*
G36*
X219931803Y-186346700D02*
G01*
X218758025Y-186097206D01*
X219007519Y-184923428D01*
X220181297Y-185172922D01*
X219931803Y-186346700D01*
G37*
G36*
X219276881Y-189427864D02*
G01*
X218103103Y-189178370D01*
X218352597Y-188004592D01*
X219526375Y-188254086D01*
X219276881Y-189427864D01*
G37*
G36*
X218947533Y-191939269D02*
G01*
X217382497Y-191606611D01*
X217715155Y-190041575D01*
X219280191Y-190374233D01*
X218947533Y-191939269D01*
G37*
D17*
X219953056Y-183360870D03*
D19*
X459757500Y-239440000D03*
X459757500Y-242590000D03*
D18*
X459757500Y-244915000D03*
D17*
X459757500Y-237115000D03*
X183383342Y-194185224D03*
D16*
G36*
X182377819Y-202763623D02*
G01*
X180812783Y-202430965D01*
X181145441Y-200865929D01*
X182710477Y-201198587D01*
X182377819Y-202763623D01*
G37*
G36*
X182707167Y-200252218D02*
G01*
X181533389Y-200002724D01*
X181782883Y-198828946D01*
X182956661Y-199078440D01*
X182707167Y-200252218D01*
G37*
G36*
X183362089Y-197171054D02*
G01*
X182188311Y-196921560D01*
X182437805Y-195747782D01*
X183611583Y-195997276D01*
X183362089Y-197171054D01*
G37*
D17*
X369270000Y-194252500D03*
D18*
X369270000Y-202052500D03*
D19*
X369270000Y-199727500D03*
X369270000Y-196577500D03*
D17*
X409751250Y-213302500D03*
D18*
X409751250Y-221102500D03*
D19*
X409751250Y-218777500D03*
X409751250Y-215627500D03*
X124153750Y-206000000D03*
X127303750Y-206000000D03*
D18*
X129628750Y-206000000D03*
D17*
X121828750Y-206000000D03*
X383557500Y-213302500D03*
D18*
X383557500Y-221102500D03*
D19*
X383557500Y-218777500D03*
X383557500Y-215627500D03*
D17*
X293176230Y-236810856D03*
D16*
G36*
X301421971Y-234240297D02*
G01*
X301754629Y-235805333D01*
X300189593Y-236137991D01*
X299856935Y-234572955D01*
X301421971Y-234240297D01*
G37*
G36*
X298993730Y-234960903D02*
G01*
X299243224Y-236134681D01*
X298069446Y-236384175D01*
X297819952Y-235210397D01*
X298993730Y-234960903D01*
G37*
G36*
X295912566Y-235615825D02*
G01*
X296162060Y-236789603D01*
X294988282Y-237039097D01*
X294738788Y-235865319D01*
X295912566Y-235615825D01*
G37*
D19*
X214575000Y-235000000D03*
X211425000Y-235000000D03*
D18*
X209100000Y-235000000D03*
D17*
X216900000Y-235000000D03*
D16*
G36*
X238565514Y-190307418D02*
G01*
X237391736Y-190057924D01*
X237641230Y-188884146D01*
X238815008Y-189133640D01*
X238565514Y-190307418D01*
G37*
G36*
X237910592Y-193388582D02*
G01*
X236736814Y-193139088D01*
X236986308Y-191965310D01*
X238160086Y-192214804D01*
X237910592Y-193388582D01*
G37*
G36*
X237581244Y-195899987D02*
G01*
X236016208Y-195567329D01*
X236348866Y-194002293D01*
X237913902Y-194334951D01*
X237581244Y-195899987D01*
G37*
D17*
X238586767Y-187321588D03*
D19*
X136860000Y-177527500D03*
X136860000Y-180677500D03*
D18*
X136860000Y-183002500D03*
D17*
X136860000Y-175202500D03*
X300035637Y-186058014D03*
D16*
G36*
X302606196Y-194303755D02*
G01*
X301041160Y-194636413D01*
X300708502Y-193071377D01*
X302273538Y-192738719D01*
X302606196Y-194303755D01*
G37*
G36*
X301885590Y-191875514D02*
G01*
X300711812Y-192125008D01*
X300462318Y-190951230D01*
X301636096Y-190701736D01*
X301885590Y-191875514D01*
G37*
G36*
X301230668Y-188794350D02*
G01*
X300056890Y-189043844D01*
X299807396Y-187870066D01*
X300981174Y-187620572D01*
X301230668Y-188794350D01*
G37*
D19*
X440707500Y-218425000D03*
X440707500Y-221575000D03*
D18*
X440707500Y-223900000D03*
D17*
X440707500Y-216100000D03*
X226006904Y-223598832D03*
D16*
G36*
X225001381Y-232177231D02*
G01*
X223436345Y-231844573D01*
X223769003Y-230279537D01*
X225334039Y-230612195D01*
X225001381Y-232177231D01*
G37*
G36*
X225330729Y-229665826D02*
G01*
X224156951Y-229416332D01*
X224406445Y-228242554D01*
X225580223Y-228492048D01*
X225330729Y-229665826D01*
G37*
G36*
X225985651Y-226584662D02*
G01*
X224811873Y-226335168D01*
X225061367Y-225161390D01*
X226235145Y-225410884D01*
X225985651Y-226584662D01*
G37*
G36*
X182664379Y-178425264D02*
G01*
X181490601Y-178175770D01*
X181740095Y-177001992D01*
X182913873Y-177251486D01*
X182664379Y-178425264D01*
G37*
G36*
X182009457Y-181506428D02*
G01*
X180835679Y-181256934D01*
X181085173Y-180083156D01*
X182258951Y-180332650D01*
X182009457Y-181506428D01*
G37*
G36*
X181680109Y-184017833D02*
G01*
X180115073Y-183685175D01*
X180447731Y-182120139D01*
X182012767Y-182452797D01*
X181680109Y-184017833D01*
G37*
D17*
X182685632Y-175439434D03*
D16*
G36*
X188718227Y-218663226D02*
G01*
X187544449Y-218413732D01*
X187793943Y-217239954D01*
X188967721Y-217489448D01*
X188718227Y-218663226D01*
G37*
G36*
X188063305Y-221744390D02*
G01*
X186889527Y-221494896D01*
X187139021Y-220321118D01*
X188312799Y-220570612D01*
X188063305Y-221744390D01*
G37*
G36*
X187733957Y-224255795D02*
G01*
X186168921Y-223923137D01*
X186501579Y-222358101D01*
X188066615Y-222690759D01*
X187733957Y-224255795D01*
G37*
D17*
X188739480Y-215677396D03*
D16*
G36*
X282596957Y-192755068D02*
G01*
X281423179Y-193004562D01*
X281173685Y-191830784D01*
X282347463Y-191581290D01*
X282596957Y-192755068D01*
G37*
G36*
X283251879Y-195836232D02*
G01*
X282078101Y-196085726D01*
X281828607Y-194911948D01*
X283002385Y-194662454D01*
X283251879Y-195836232D01*
G37*
G36*
X283972485Y-198264473D02*
G01*
X282407449Y-198597131D01*
X282074791Y-197032095D01*
X283639827Y-196699437D01*
X283972485Y-198264473D01*
G37*
D17*
X281401926Y-190018732D03*
D19*
X165435000Y-215627500D03*
X165435000Y-218777500D03*
D18*
X165435000Y-221102500D03*
D17*
X165435000Y-213302500D03*
D15*
X339689045Y-158531094D03*
X329751065Y-160643476D03*
D14*
X334720055Y-159587285D03*
X147160000Y-158302500D03*
D15*
X142080000Y-158302500D03*
X152240000Y-158302500D03*
X171290000Y-156397500D03*
X161130000Y-156397500D03*
D14*
X166210000Y-156397500D03*
X186402350Y-160850858D03*
D15*
X181433360Y-159794667D03*
X191371340Y-161907049D03*
X210005052Y-165867765D03*
X200067072Y-163755383D03*
D14*
X205036062Y-164811574D03*
X223669773Y-168772292D03*
D15*
X218700783Y-167716101D03*
X228638763Y-169828483D03*
D14*
X278818920Y-171469439D03*
D15*
X273849930Y-172525630D03*
X283787910Y-170413248D03*
X302421621Y-166452530D03*
X292483641Y-168564912D03*
D14*
X297452631Y-167508721D03*
X316086343Y-163548003D03*
D15*
X311117353Y-164604194D03*
X321055333Y-162491812D03*
D14*
X151922500Y-196402500D03*
D15*
X146842500Y-196402500D03*
X157002500Y-196402500D03*
D14*
X336587643Y-237092671D03*
D15*
X331618653Y-238148862D03*
X341556633Y-236036480D03*
X184845324Y-238422254D03*
X174907344Y-236309872D03*
D14*
X179876334Y-237366063D03*
X276725789Y-230341111D03*
D15*
X271756799Y-231397302D03*
X281694779Y-229284920D03*
D14*
X235079759Y-229624326D03*
D15*
X230110769Y-228568135D03*
X240048749Y-230680517D03*
D14*
X403382500Y-158302500D03*
D15*
X398302500Y-158302500D03*
X408462500Y-158302500D03*
D20*
X391444500Y-151317500D03*
X415320500Y-151317500D03*
D14*
X391444500Y-166557500D03*
X415320500Y-166557500D03*
D15*
X417987500Y-177352500D03*
X407827500Y-177352500D03*
D14*
X412907500Y-177352500D03*
X197812336Y-221702890D03*
D15*
X192843346Y-220646699D03*
X202781326Y-222759081D03*
X375125000Y-177352500D03*
X364965000Y-177352500D03*
D14*
X370045000Y-177352500D03*
D15*
X337595915Y-217402768D03*
X327657935Y-219515150D03*
D14*
X332626925Y-218458959D03*
X384332500Y-234502500D03*
D15*
X379252500Y-234502500D03*
X389412500Y-234502500D03*
X123665000Y-234502500D03*
X113505000Y-234502500D03*
D14*
X118585000Y-234502500D03*
X192456198Y-201088819D03*
D15*
X187487208Y-200032628D03*
X197425188Y-202145010D03*
D14*
X446245000Y-191640000D03*
D15*
X441165000Y-191640000D03*
X451325000Y-191640000D03*
X360837500Y-215452500D03*
X350677500Y-215452500D03*
D14*
X355757500Y-215452500D03*
X431957500Y-239265000D03*
D15*
X426877500Y-239265000D03*
X437037500Y-239265000D03*
X196727478Y-182521119D03*
X186789498Y-180408737D03*
D14*
X191758488Y-181464928D03*
X410526250Y-196402500D03*
D15*
X405446250Y-196402500D03*
X415606250Y-196402500D03*
D20*
X398588250Y-189417500D03*
X422464250Y-189417500D03*
D14*
X398588250Y-204657500D03*
X422464250Y-204657500D03*
D15*
X379887500Y-158302500D03*
X369727500Y-158302500D03*
D14*
X374807500Y-158302500D03*
D15*
X133190000Y-158302500D03*
X123030000Y-158302500D03*
D14*
X128110000Y-158302500D03*
D15*
X216058900Y-206105728D03*
X206120920Y-203993346D03*
D14*
X211089910Y-205049537D03*
D15*
X245404887Y-251294587D03*
X235466907Y-249182205D03*
D14*
X240435897Y-250238396D03*
X229723621Y-209010254D03*
D15*
X224754631Y-207954063D03*
X234692611Y-210066445D03*
X287050917Y-208670850D03*
X277112937Y-210783232D03*
D14*
X282081927Y-209727041D03*
X310730205Y-184162073D03*
D15*
X305761215Y-185218264D03*
X315699195Y-183105882D03*
D14*
X300715639Y-205766323D03*
D15*
X295746649Y-206822514D03*
X305684629Y-204710132D03*
X324318341Y-200749414D03*
X314380361Y-202861796D03*
D14*
X319349351Y-201805605D03*
X337983063Y-197844887D03*
D15*
X333014073Y-198901078D03*
X342952053Y-196788696D03*
X417987500Y-239265000D03*
X407827500Y-239265000D03*
D14*
X412907500Y-239265000D03*
D15*
X318962203Y-221363486D03*
X309024223Y-223475868D03*
D14*
X313993213Y-222419677D03*
X355757500Y-158302500D03*
D15*
X350677500Y-158302500D03*
X360837500Y-158302500D03*
X300328491Y-225324202D03*
X290390511Y-227436584D03*
D14*
X295359501Y-226380393D03*
D15*
X334332907Y-179145164D03*
X324394927Y-181257546D03*
D14*
X329363917Y-180201355D03*
X389095000Y-177352500D03*
D15*
X384015000Y-177352500D03*
X394175000Y-177352500D03*
D14*
X350995000Y-177352500D03*
D15*
X345915000Y-177352500D03*
X356075000Y-177352500D03*
X446562500Y-172590000D03*
X436402500Y-172590000D03*
D14*
X441482500Y-172590000D03*
D15*
X157002500Y-177352500D03*
X146842500Y-177352500D03*
D14*
X151922500Y-177352500D03*
D15*
X384650000Y-196402500D03*
X374490000Y-196402500D03*
D14*
X379570000Y-196402500D03*
X210392200Y-185425646D03*
D15*
X205423210Y-184369455D03*
X215361190Y-186481837D03*
X456087500Y-239265000D03*
X445927500Y-239265000D03*
D14*
X451007500Y-239265000D03*
D15*
X178791476Y-198184292D03*
X168853496Y-196071910D03*
D14*
X173822486Y-197128101D03*
D15*
X365600000Y-196402500D03*
X355440000Y-196402500D03*
D14*
X360520000Y-196402500D03*
D15*
X406081250Y-215452500D03*
X395921250Y-215452500D03*
D14*
X401001250Y-215452500D03*
X137666750Y-223707500D03*
X113790750Y-223707500D03*
D20*
X137666750Y-208467500D03*
X113790750Y-208467500D03*
D15*
X130808750Y-215452500D03*
X120648750Y-215452500D03*
D14*
X125728750Y-215452500D03*
D15*
X379887500Y-215452500D03*
X369727500Y-215452500D03*
D14*
X374807500Y-215452500D03*
X296991006Y-245509195D03*
D15*
X292022016Y-246565386D03*
X301959996Y-244453004D03*
D20*
X283861617Y-241158884D03*
X307215869Y-236194784D03*
D14*
X287030191Y-256065853D03*
X310384443Y-251101754D03*
X222446145Y-254853978D03*
X199091893Y-249889879D03*
D20*
X225614719Y-239947009D03*
X202260467Y-234982909D03*
D15*
X217454320Y-245353511D03*
X207516340Y-243241129D03*
D14*
X212485330Y-244297320D03*
D15*
X233994901Y-190442555D03*
X224056921Y-188330173D03*
D14*
X229025911Y-189386364D03*
X128110000Y-177352500D03*
D15*
X123030000Y-177352500D03*
X133190000Y-177352500D03*
D14*
X292096493Y-188122790D03*
D15*
X287127503Y-189178981D03*
X297065483Y-187066599D03*
D14*
X431957500Y-220215000D03*
D15*
X426877500Y-220215000D03*
X437037500Y-220215000D03*
D14*
X216446048Y-225663608D03*
D15*
X211477058Y-224607417D03*
X221415038Y-226719799D03*
D14*
X173124776Y-177504210D03*
D15*
X168155786Y-176448019D03*
X178093766Y-178560401D03*
X184147614Y-218798363D03*
X174209634Y-216685981D03*
D14*
X179178624Y-217742172D03*
X273462782Y-192083508D03*
D15*
X268493792Y-193139699D03*
X278431772Y-191027317D03*
D14*
X156685000Y-215452500D03*
D15*
X151605000Y-215452500D03*
X161765000Y-215452500D03*
D21*
X252930000Y-145430000D03*
D22*
X252930000Y-147970000D03*
X252930000Y-150510000D03*
X252930000Y-153050000D03*
X252930000Y-155590000D03*
X252930000Y-158130000D03*
X252930000Y-160670000D03*
X252930000Y-163210000D03*
X252930000Y-165750000D03*
X252930000Y-168290000D03*
X252930000Y-170830000D03*
X268170000Y-173370000D03*
X268170000Y-170830000D03*
X268170000Y-168290000D03*
X268170000Y-165750000D03*
X268170000Y-163210000D03*
X268170000Y-160670000D03*
X268170000Y-158130000D03*
X268170000Y-155590000D03*
X268170000Y-153050000D03*
X268170000Y-150510000D03*
X268170000Y-147970000D03*
X253158600Y-173370000D03*
X268170000Y-145430000D03*
X265630000Y-173370000D03*
X263090000Y-173370000D03*
X260550000Y-173370000D03*
X258010000Y-173370000D03*
X255470000Y-173370000D03*
D23*
X443720000Y-156040000D03*
X443720000Y-151040000D03*
X429220000Y-156040000D03*
X429220000Y-153540000D03*
D24*
X429220000Y-151040000D03*
D17*
X455900000Y-151000000D03*
D18*
X448100000Y-151000000D03*
D19*
X450425000Y-151000000D03*
X453575000Y-151000000D03*
D15*
X152000000Y-169500000D03*
X152000000Y-167000000D03*
X152000000Y-164500000D03*
M02*
