M48
; DRILL file {KiCad (5.1.10)-1} date 10/05/21 17:03:14
; FORMAT={-:-/ absolute / metric / decimal}
; #@! TF.CreationDate,2021-10-05T17:03:14+03:00
; #@! TF.GenerationSoftware,Kicad,Pcbnew,(5.1.10)-1
; #@! TF.FileFunction,NonPlated,1,2,NPTH
FMAT,2
METRIC
T1C1.750
T2C3.048
T3C3.988
%
G90
G05
T1
X113.505Y-234.502
X120.649Y-196.403
X120.649Y-215.452
X123.03Y-158.302
X123.03Y-177.352
X123.665Y-234.502
X130.809Y-196.403
X130.809Y-215.452
X133.19Y-158.302
X133.19Y-177.352
X142.08Y-158.302
X146.843Y-177.352
X146.843Y-196.403
X151.605Y-215.452
X152.24Y-158.302
X157.002Y-177.352
X157.002Y-196.403
X161.13Y-156.397
X161.765Y-215.452
X168.156Y-176.448
X168.853Y-196.072
X171.29Y-156.397
X174.21Y-216.686
X174.907Y-236.31
X178.094Y-178.56
X178.791Y-198.184
X181.433Y-159.795
X184.148Y-218.798
X184.845Y-238.422
X186.789Y-180.409
X187.487Y-200.033
X191.371Y-161.907
X192.843Y-220.647
X196.727Y-182.521
X197.425Y-202.145
X200.067Y-163.755
X202.781Y-222.759
X205.423Y-184.369
X206.121Y-203.993
X207.516Y-243.241
X210.005Y-165.868
X211.477Y-224.607
X215.361Y-186.482
X216.059Y-206.106
X217.454Y-245.354
X218.701Y-167.716
X221.415Y-226.72
X224.057Y-188.33
X224.755Y-207.954
X228.639Y-169.828
X230.111Y-228.568
X233.995Y-190.443
X234.693Y-210.066
X235.467Y-249.182
X237.334Y-171.677
X240.049Y-230.681
X245.405Y-251.295
X247.272Y-173.789
X268.494Y-193.14
X271.757Y-231.397
X273.85Y-172.526
X277.113Y-210.783
X278.432Y-191.027
X281.695Y-229.285
X283.788Y-170.413
X287.051Y-208.671
X287.128Y-189.179
X290.391Y-227.437
X292.022Y-246.565
X292.484Y-168.565
X295.747Y-206.823
X297.065Y-187.067
X300.328Y-225.324
X301.96Y-244.453
X302.422Y-166.453
X305.685Y-204.71
X305.761Y-185.218
X309.024Y-223.476
X311.117Y-164.604
X314.38Y-202.862
X315.699Y-183.106
X318.962Y-221.363
X321.055Y-162.492
X324.318Y-200.749
X324.395Y-181.258
X327.658Y-219.515
X329.751Y-160.643
X331.619Y-238.149
X333.014Y-198.901
X334.333Y-179.145
X337.596Y-217.403
X339.689Y-158.531
X341.557Y-236.036
X342.952Y-196.789
X345.915Y-177.352
X350.678Y-158.302
X350.678Y-215.452
X355.44Y-196.403
X356.075Y-177.352
X360.837Y-158.302
X360.837Y-215.452
X364.965Y-177.352
X365.6Y-196.403
X369.727Y-158.302
X369.727Y-215.452
X374.49Y-196.403
X375.125Y-177.352
X379.252Y-234.502
X379.887Y-158.302
X379.887Y-215.452
X384.015Y-177.352
X384.65Y-196.403
X389.412Y-234.502
X394.175Y-177.352
X395.921Y-215.452
X398.303Y-158.302
X405.446Y-196.403
X406.081Y-215.452
X407.827Y-177.352
X407.827Y-239.265
X408.462Y-158.302
X415.606Y-196.403
X417.987Y-177.352
X417.987Y-239.265
X426.877Y-220.215
X426.877Y-239.265
X431.64Y-153.54
X436.402Y-172.59
X437.037Y-220.215
X437.037Y-239.265
X441.165Y-191.64
X441.8Y-153.54
X445.927Y-239.265
X446.562Y-172.59
X451.325Y-191.64
X456.087Y-239.265
T2
X113.791Y-208.468
X137.667Y-208.468
X202.26Y-234.983
X225.615Y-239.947
X283.862Y-241.159
X307.216Y-236.195
X391.445Y-151.317
X398.588Y-189.417
X415.32Y-151.317
X422.464Y-189.417
T3
X113.791Y-223.707
X118.585Y-234.502
X125.729Y-196.403
X125.729Y-215.452
X128.11Y-158.302
X128.11Y-177.352
X137.667Y-223.707
X147.16Y-158.302
X151.922Y-177.352
X151.922Y-196.403
X156.685Y-215.452
X166.21Y-156.397
X173.125Y-177.504
X173.822Y-197.128
X179.179Y-217.742
X179.876Y-237.366
X186.402Y-160.851
X191.758Y-181.465
X192.456Y-201.089
X197.812Y-221.703
X199.092Y-249.89
X205.036Y-164.812
X210.392Y-185.426
X211.09Y-205.05
X212.485Y-244.297
X216.446Y-225.664
X222.446Y-254.854
X223.67Y-168.772
X229.026Y-189.386
X229.724Y-209.01
X235.08Y-229.624
X240.436Y-250.238
X242.303Y-172.733
X273.463Y-192.084
X276.726Y-230.341
X278.819Y-171.469
X282.082Y-209.727
X287.03Y-256.066
X292.096Y-188.123
X295.36Y-226.38
X296.991Y-245.509
X297.453Y-167.509
X300.716Y-205.766
X310.384Y-251.102
X310.73Y-184.162
X313.993Y-222.42
X316.086Y-163.548
X319.349Y-201.806
X329.364Y-180.201
X332.627Y-218.459
X334.72Y-159.587
X336.588Y-237.093
X337.983Y-197.845
X350.995Y-177.352
X355.757Y-158.302
X355.757Y-215.452
X360.52Y-196.403
X370.045Y-177.352
X374.808Y-158.302
X374.808Y-215.452
X379.57Y-196.403
X384.332Y-234.502
X389.095Y-177.352
X391.445Y-166.558
X398.588Y-204.657
X401.001Y-215.452
X403.382Y-158.302
X410.526Y-196.403
X412.907Y-177.352
X412.907Y-239.265
X415.32Y-166.558
X422.464Y-204.657
X431.957Y-220.215
X431.957Y-239.265
X436.72Y-153.54
X441.482Y-172.59
X446.245Y-191.64
X451.007Y-239.265
T0
M30
