G04 #@! TF.GenerationSoftware,KiCad,Pcbnew,(5.1.10)-1*
G04 #@! TF.CreationDate,2021-10-05T17:03:10+03:00*
G04 #@! TF.ProjectId,kolibri,6b6f6c69-6272-4692-9e6b-696361645f70,rev?*
G04 #@! TF.SameCoordinates,Original*
G04 #@! TF.FileFunction,Profile,NP*
%FSLAX46Y46*%
G04 Gerber Fmt 4.6, Leading zero omitted, Abs format (unit mm)*
G04 Created by KiCad (PCBNEW (5.1.10)-1) date 2021-10-05 17:03:10*
%MOMM*%
%LPD*%
G01*
G04 APERTURE LIST*
G04 #@! TA.AperFunction,Profile*
%ADD10C,0.200000*%
G04 #@! TD*
G04 APERTURE END LIST*
D10*
X113212499Y-140544998D02*
G75*
G02*
X112212499Y-141544998I-1000000J0D01*
G01*
X187446272Y-251270000D02*
G75*
G02*
X187654183Y-251291852I0J-999999D01*
G01*
X224115382Y-259041919D02*
X187654183Y-251291852D01*
X224115384Y-259041918D02*
G75*
G02*
X224885620Y-260227979I-207911J-978148D01*
G01*
X248077535Y-268224593D02*
X225240033Y-263370334D01*
X408760000Y-138544999D02*
X408759999Y-140545000D01*
X187446272Y-251269999D02*
X174212499Y-251269998D01*
X266893720Y-268247202D02*
X248285406Y-268246446D01*
X407759999Y-137544998D02*
G75*
G02*
X408760000Y-138544999I0J-1000001D01*
G01*
X173212499Y-138544998D02*
X173212498Y-140544998D01*
X173212498Y-252269998D02*
G75*
G02*
X174212499Y-251269998I1000001J-1D01*
G01*
X349759998Y-137544999D02*
X407759999Y-137544999D01*
X348759998Y-138544999D02*
G75*
G02*
X349759998Y-137544999I1000000J0D01*
G01*
X348759999Y-140544999D02*
X348759999Y-138544998D01*
X348759999Y-140544999D02*
G75*
G02*
X347759999Y-141544999I-1000000J0D01*
G01*
X174212499Y-141544998D02*
X347759999Y-141544999D01*
X225240033Y-263370333D02*
G75*
G02*
X224469797Y-262184273I207912J978148D01*
G01*
X174212499Y-141544998D02*
G75*
G02*
X173212498Y-140544998I0J1000001D01*
G01*
X172212498Y-137544999D02*
G75*
G02*
X173212499Y-138544998I1J-1000000D01*
G01*
X113212499Y-254269997D02*
X113212499Y-252269998D01*
X114212499Y-137544998D02*
X172212498Y-137545000D01*
X248285406Y-268246445D02*
G75*
G02*
X248077535Y-268224593I41J999999D01*
G01*
X102587499Y-141544998D02*
X112212499Y-141544998D01*
X112212499Y-251269999D02*
G75*
G02*
X113212499Y-252269998I0J-1000000D01*
G01*
X172212499Y-255269999D02*
X114212499Y-255269998D01*
X173212499Y-254269997D02*
G75*
G02*
X172212499Y-255269999I-1000001J-1D01*
G01*
X173212498Y-252269998D02*
X173212499Y-254269997D01*
X267101672Y-268225350D02*
G75*
G02*
X266893720Y-268247202I-207911J978146D01*
G01*
X113212500Y-138544999D02*
G75*
G02*
X114212499Y-137544998I1000000J1D01*
G01*
X113212499Y-140544998D02*
X113212499Y-138545001D01*
X101587499Y-142545000D02*
G75*
G02*
X102587499Y-141544998I1000001J1D01*
G01*
X102587501Y-251269998D02*
G75*
G02*
X101587499Y-250269998I-1J1000001D01*
G01*
X101587499Y-250269998D02*
X101587499Y-142545000D01*
X112212499Y-251269999D02*
X102587501Y-251269998D01*
X114212498Y-255269998D02*
G75*
G02*
X113212499Y-254269997I1J1000000D01*
G01*
X224469797Y-262184273D02*
X224885620Y-260227979D01*
X463009998Y-250269998D02*
G75*
G02*
X462009999Y-251269999I-1000000J-1D01*
G01*
X116712500Y-251269999D02*
X169712499Y-251269999D01*
X169712499Y-251269999D02*
G75*
G02*
X169712499Y-252269999I0J-500000D01*
G01*
X248392353Y-264179806D02*
G75*
G02*
X248184441Y-264157954I0J999999D01*
G01*
X266998362Y-264157955D02*
G75*
G02*
X266790450Y-264179807I-207912J978148D01*
G01*
X228517049Y-259977521D02*
X248184441Y-264157954D01*
X409759999Y-141544999D02*
G75*
G02*
X408759999Y-140545000I0J1000000D01*
G01*
X267103472Y-265157955D02*
G75*
G02*
X266895560Y-265179807I-207912J978148D01*
G01*
X116712498Y-252269999D02*
G75*
G02*
X116712500Y-251269999I1J500000D01*
G01*
X266895560Y-265179807D02*
X248287247Y-265179807D01*
X284595719Y-261439863D02*
G75*
G02*
X285365953Y-260253805I978146J207912D01*
G01*
X463009999Y-142544999D02*
X463009998Y-250269998D01*
X280964289Y-261189404D02*
G75*
G02*
X281172201Y-262167554I103956J-489075D01*
G01*
X349759999Y-255269998D02*
G75*
G02*
X348759999Y-254270000I-1J999999D01*
G01*
X348759999Y-254270000D02*
X348759999Y-252269999D01*
X405260000Y-141544999D02*
X352260000Y-141544999D01*
X266998362Y-264157954D02*
X280964289Y-261189404D01*
X228309137Y-260955669D02*
G75*
G02*
X228517049Y-259977521I103956J489074D01*
G01*
X248392353Y-264179807D02*
X266790450Y-264179807D01*
X327528585Y-251291851D02*
X285365953Y-260253805D01*
X169712499Y-252269999D02*
X116712500Y-252270000D01*
X352259999Y-140545000D02*
X405260000Y-140544999D01*
X462009999Y-251269999D02*
X409759999Y-251269999D01*
X352259999Y-251269999D02*
X405259999Y-251269999D01*
X352259999Y-252269999D02*
G75*
G02*
X352259999Y-251269999I0J500000D01*
G01*
X327528585Y-251291850D02*
G75*
G02*
X327736497Y-251269998I207911J-978150D01*
G01*
X169712499Y-140544998D02*
G75*
G02*
X169712499Y-141544998I0J-500000D01*
G01*
X407759998Y-255269999D02*
X349759998Y-255269999D01*
X408759999Y-254270000D02*
G75*
G02*
X407759998Y-255269999I-1000000J1D01*
G01*
X409760000Y-141545000D02*
X462009998Y-141544999D01*
X248287248Y-265179807D02*
G75*
G02*
X248079336Y-265157955I-1J1000000D01*
G01*
X405260000Y-140544999D02*
G75*
G02*
X405260000Y-141544999I0J-500000D01*
G01*
X352260001Y-141544998D02*
G75*
G02*
X352259999Y-140545000I-1J499999D01*
G01*
X347760000Y-251269999D02*
G75*
G02*
X348759999Y-252269999I-1J-1000000D01*
G01*
X116712499Y-141544999D02*
G75*
G02*
X116712499Y-140544997I0J500001D01*
G01*
X405259999Y-252269999D02*
X352259999Y-252269999D01*
X248079336Y-265157955D02*
X228309136Y-260955669D01*
X281172201Y-262167554D02*
X267103472Y-265157955D01*
X284595718Y-261439863D02*
X285011539Y-263396152D01*
X408759999Y-252269999D02*
X408759999Y-254270000D01*
X462009998Y-141544998D02*
G75*
G02*
X463009999Y-142544999I0J-1000001D01*
G01*
X169712499Y-141544998D02*
X116712499Y-141544999D01*
X285011539Y-263396151D02*
G75*
G02*
X284241303Y-264582209I-978147J-207911D01*
G01*
X405259999Y-251269999D02*
G75*
G02*
X405259999Y-252269999I0J-500000D01*
G01*
X408759999Y-252269999D02*
G75*
G02*
X409759999Y-251269999I1000000J0D01*
G01*
X116712499Y-140544997D02*
X169712499Y-140544998D01*
X284241303Y-264582209D02*
X267101673Y-268225350D01*
X347760000Y-251270000D02*
X327736497Y-251269998D01*
M02*
