0
SECTION
2
HEADER
9
$INSUNITS
70
4
9
$ACADVER
1
AC1014
9
$HANDSEED
5
FFFF
0
ENDSEC
0
SECTION
2
TABLES
0
TABLE
2
VPORT
5
8
100
AcDbSymbolTable
0
ENDTAB
0
TABLE
2
LTYPE
5
5
100
AcDbSymbolTable
0
LTYPE
5
14
100
AcDbSymbolTableRecord
100
AcDbLinetypeTableRecord
2
BYBLOCK
70
0
0
LTYPE
5
15
100
AcDbSymbolTableRecord
100
AcDbLinetypeTableRecord
2
BYLAYER
70
0
0
ENDTAB
0
TABLE
2
LAYER
5
2
100
AcDbSymbolTable
70
2
0
LAYER
5
50
100
AcDbSymbolTableRecord
100
AcDbLayerTableRecord
2
0
70
0
6
CONTINUOUS
0
ENDTAB
0
TABLE
2
STYLE
5
3
100
AcDbSymbolTable
70
1
0
STYLE
5
11
100
AcDbSymbolTableRecord
100
AcDbTextStyleTableRecord
2
STANDARD
70
0
0
ENDTAB
0
TABLE
2
VIEW
5
6
100
AcDbSymbolTable
70
0
0
ENDTAB
0
TABLE
2
UCS
5
7
100
AcDbSymbolTable
70
0
0
ENDTAB
0
TABLE
2
APPID
5
9
100
AcDbSymbolTable
70
2
0
APPID
5
12
100
AcDbSymbolTableRecord
100
AcDbRegAppTableRecord
2
ACAD
70
0
0
ENDTAB
0
TABLE
2
DIMSTYLE
5
A
100
AcDbSymbolTable
70
1
0
ENDTAB
0
TABLE
2
BLOCK_RECORD
5
1
100
AcDbSymbolTable
70
1
0
BLOCK_RECORD
5
1F
100
AcDbSymbolTableRecord
100
AcDbBlockTableRecord
2
*MODEL_SPACE
0
BLOCK_RECORD
5
1B
100
AcDbSymbolTableRecord
100
AcDbBlockTableRecord
2
*PAPER_SPACE
0
ENDTAB
0
ENDSEC
0
SECTION
2
BLOCKS
0
BLOCK
5
20
100
AcDbEntity
100
AcDbBlockBegin
2
*MODEL_SPACE
0
ENDBLK
5
21
100
AcDbEntity
100
AcDbBlockEnd
0
BLOCK
5
1C
100
AcDbEntity
100
AcDbBlockBegin
2
*PAPER_SPACE
0
ENDBLK
5
1D
100
AcDbEntity
100
AcDbBlockEnd
0
ENDSEC
0
SECTION
2
ENTITIES
0
LWPOLYLINE
5
100
100
AcDbEntity
8
0
100
AcDbPolyline
90
56
70
1
43
0.0
10
642.34933235740436
20
296.1874999999992
10
642.34933235740436
20
294.18749999999926
42
-0.41421356237323032
10
641.34933235740459
20
293.18749999999932
10
631.72433235740448
20
293.18749999999926
42
0.4142135623731783
10
630.72433235740425
20
292.1874999999992
10
630.72433235740459
20
183.4624999999993
42
0.41421356237321988
10
631.72433235740436
20
182.46249999999924
10
641.34933235740448
20
182.46249999999921
42
-0.41421356237311585
10
642.34933235740436
20
181.46249999999949
10
642.34933235740436
20
179.46249999999941
42
0.41421356237323032
10
643.34933235740459
20
178.46249999999947
10
702.34933235740436
20
178.46249999999938
42
0.41421356237318868
10
703.34933235740459
20
179.46249999999935
10
703.34933235740448
20
181.46249999999941
42
-0.41421356237358409
10
704.34933235740459
20
182.4624999999989
10
717.03055217163751
20
182.46249999999921
42
-0.052407778884431114
10
717.23846386090156
20
182.44064760106335
10
753.15918764583432
20
174.80546212028452
42
-0.41421356283841854
10
753.9294235573044
20
173.61940282840251
10
753.51360017599904
20
171.663107628489
42
0.41421356237298673
10
754.28383608591514
20
170.47704833693726
10
777.71614956354017
20
165.49635635215932
42
0.052407779283032044
10
777.92406125435775
20
165.47450395289309
10
796.53237322174095
20
165.474503952893
42
0.05240777928288412
10
796.74028491255831
20
165.49635635215941
10
814.4711656968974
20
169.26517140705948
42
0.4142135623730136
10
815.24140160681338
20
170.45123069861097
10
814.82557822517788
20
172.4075259000787
42
-0.41421356237297446
10
815.59581413509363
20
173.59358519163024
10
857.2179703253953
20
182.44064760073317
42
-0.052407779284640049
10
857.42588201621288
20
182.46249999999924
10
876.89683235740461
20
182.4624999999993
42
-0.4142135623730534
10
877.89683235740449
20
181.46249999999949
10
877.89683235740495
20
179.46249999999941
42
0.41421356237327195
10
878.89683235740472
20
178.46249999999927
10
937.89683235740449
20
178.46249999999938
42
0.4142135623731783
10
938.89683235740472
20
179.46249999999935
10
938.89683235740449
20
181.46249999999952
42
-0.4142135623730846
10
939.89683235740449
20
182.46249999999947
10
992.14683235740472
20
182.46249999999921
42
0.41421356237307422
10
993.14683235740449
20
183.46249999999924
10
993.14683235740461
20
292.1874999999992
42
0.41421356237281409
10
992.14683235740472
20
293.18749999999932
10
939.89683235740461
20
293.18749999999915
42
-0.41421356237318868
10
938.89683235740449
20
294.18749999999926
10
938.89683235740461
20
296.18749999999915
42
0.41421356237319906
10
937.89683235740472
20
297.1874999999992
10
878.89683235740472
20
297.1874999999992
42
0.41421356237291812
10
877.89683235740517
20
296.1874999999992
10
877.89683235740449
20
294.18749999999932
42
-0.41421356237304302
10
876.89683235740461
20
293.1874999999992
10
704.34933235740482
20
293.1874999999992
42
-0.41421356237328233
10
703.34933235740448
20
294.18749999999926
10
703.34933235740448
20
296.18749999999915
42
0.41421356237333434
10
702.34933235740436
20
297.1874999999992
10
643.34933235740448
20
297.1874999999992
42
0.41421356237313667
0
CIRCLE
5
101
100
AcDbEntity
8
0
100
AcDbCircle
10
996.89683235740461
20
178.71249999999932
30
0
40
2.3999999999999844
210
0
220
0
230
1
0
CIRCLE
5
102
100
AcDbEntity
8
0
100
AcDbCircle
10
716.1371661787025
20
297.94164624887776
30
0
40
2.4000000000000199
210
0
220
0
230
1
0
CIRCLE
5
103
100
AcDbEntity
8
0
100
AcDbCircle
10
626.97433235740459
20
296.93749999999926
30
0
40
2.4000000000000199
210
0
220
0
230
1
0
CIRCLE
5
104
100
AcDbEntity
8
0
100
AcDbCircle
10
858.31926801597035
20
177.71249999999949
30
0
40
2.4000000000000208
210
0
220
0
230
1
0
CIRCLE
5
105
100
AcDbEntity
8
0
100
AcDbCircle
10
626.97433235740448
20
178.71249999999921
30
0
40
2.4000000000000199
210
0
220
0
230
1
0
CIRCLE
5
106
100
AcDbEntity
8
0
100
AcDbCircle
10
996.89683235740472
20
296.93749999999926
30
0
40
2.3999999999999844
210
0
220
0
230
1
0
CIRCLE
5
107
100
AcDbEntity
8
0
100
AcDbCircle
10
858.31926801597035
20
297.93749999999926
30
0
40
2.4000000000000208
210
0
220
0
230
1
0
CIRCLE
5
108
100
AcDbEntity
8
0
100
AcDbCircle
10
716.1371661787025
20
177.71249999999949
30
0
40
2.3999999999999488
210
0
220
0
230
1
0
LWPOLYLINE
5
109
100
AcDbEntity
8
0
100
AcDbPolyline
90
16
70
1
43
0.0
10
858.216460560418
20
172.94064760073303
10
796.74028504952503
20
159.87348310951458
42
-0.05240777928351787
10
796.53237335870722
20
159.85163071024851
10
777.92406131701694
20
159.85163071024857
42
-0.052407778884621371
10
777.71614962775334
20
159.87348310918458
10
716.2399736335035
20
172.9406476010632
42
0.052407778884630926
10
716.03206194423956
20
172.96249999999927
10
625.22433235740459
20
172.96249999999927
42
-0.41421356237311846
10
621.22433235740448
20
176.96249999999921
10
621.22433235740459
20
298.68749999999915
42
-0.41421356237316526
10
625.22433235740448
20
302.6874999999992
10
998.64683235740449
20
302.68749999999932
42
-0.41421356237307944
10
1002.6468323574047
20
298.68749999999943
10
1002.6468323574045
20
176.9624999999991
42
-0.41421356237311324
10
998.64683235740472
20
172.9624999999993
10
858.42437225123592
20
172.96249999999927
42
0.052407779282588683
0
ENDSEC
0
SECTION
2
OBJECTS
0
DICTIONARY
5
C
100
AcDbDictionary
3
ACAD_GROUP
350
D
3
ACAD_MLINESTYLE
350
17
0
DICTIONARY
5
D
100
AcDbDictionary
0
DICTIONARY
5
1A
330
C
100
AcDbDictionary
0
DICTIONARY
5
17
100
AcDbDictionary
0
ENDSEC
0
EOF
