0
SECTION
2
HEADER
9
$INSUNITS
70
4
9
$ACADVER
1
AC1014
9
$HANDSEED
5
FFFF
0
ENDSEC
0
SECTION
2
TABLES
0
TABLE
2
VPORT
5
8
100
AcDbSymbolTable
0
ENDTAB
0
TABLE
2
LTYPE
5
5
100
AcDbSymbolTable
0
LTYPE
5
14
100
AcDbSymbolTableRecord
100
AcDbLinetypeTableRecord
2
BYBLOCK
70
0
0
LTYPE
5
15
100
AcDbSymbolTableRecord
100
AcDbLinetypeTableRecord
2
BYLAYER
70
0
0
ENDTAB
0
TABLE
2
LAYER
5
2
100
AcDbSymbolTable
70
2
0
LAYER
5
50
100
AcDbSymbolTableRecord
100
AcDbLayerTableRecord
2
0
70
0
6
CONTINUOUS
0
ENDTAB
0
TABLE
2
STYLE
5
3
100
AcDbSymbolTable
70
1
0
STYLE
5
11
100
AcDbSymbolTableRecord
100
AcDbTextStyleTableRecord
2
STANDARD
70
0
0
ENDTAB
0
TABLE
2
VIEW
5
6
100
AcDbSymbolTable
70
0
0
ENDTAB
0
TABLE
2
UCS
5
7
100
AcDbSymbolTable
70
0
0
ENDTAB
0
TABLE
2
APPID
5
9
100
AcDbSymbolTable
70
2
0
APPID
5
12
100
AcDbSymbolTableRecord
100
AcDbRegAppTableRecord
2
ACAD
70
0
0
ENDTAB
0
TABLE
2
DIMSTYLE
5
A
100
AcDbSymbolTable
70
1
0
ENDTAB
0
TABLE
2
BLOCK_RECORD
5
1
100
AcDbSymbolTable
70
1
0
BLOCK_RECORD
5
1F
100
AcDbSymbolTableRecord
100
AcDbBlockTableRecord
2
*MODEL_SPACE
0
BLOCK_RECORD
5
1B
100
AcDbSymbolTableRecord
100
AcDbBlockTableRecord
2
*PAPER_SPACE
0
ENDTAB
0
ENDSEC
0
SECTION
2
BLOCKS
0
BLOCK
5
20
100
AcDbEntity
100
AcDbBlockBegin
2
*MODEL_SPACE
0
ENDBLK
5
21
100
AcDbEntity
100
AcDbBlockEnd
0
BLOCK
5
1C
100
AcDbEntity
100
AcDbBlockBegin
2
*PAPER_SPACE
0
ENDBLK
5
1D
100
AcDbEntity
100
AcDbBlockEnd
0
ENDSEC
0
SECTION
2
ENTITIES
0
CIRCLE
5
100
100
AcDbEntity
8
0
100
AcDbCircle
10
616.13716617870205
20
32.712500000000091
30
0
40
2.3999999999999488
210
0
220
0
230
1
0
CIRCLE
5
101
100
AcDbEntity
8
0
100
AcDbCircle
10
616.13716617870205
20
152.9416462488785
30
0
40
2.4000000000000199
210
0
220
0
230
1
0
CIRCLE
5
102
100
AcDbEntity
8
0
100
AcDbCircle
10
526.97433235740391
20
33.71249999999975
30
0
40
2.4000000000000199
210
0
220
0
230
1
0
CIRCLE
5
103
100
AcDbEntity
8
0
100
AcDbCircle
10
758.31926801596978
20
152.93750000000003
30
0
40
2.4000000000000199
210
0
220
0
230
1
0
CIRCLE
5
104
100
AcDbEntity
8
0
100
AcDbCircle
10
526.97433235740402
20
151.9374999999998
30
0
40
2.4000000000000199
210
0
220
0
230
1
0
CIRCLE
5
105
100
AcDbEntity
8
0
100
AcDbCircle
10
896.89683235740404
20
33.712500000000034
30
0
40
2.3999999999999844
210
0
220
0
230
1
0
CIRCLE
5
106
100
AcDbEntity
8
0
100
AcDbCircle
10
758.31926801596978
20
32.712500000000091
30
0
40
2.4000000000000199
210
0
220
0
230
1
0
CIRCLE
5
107
100
AcDbEntity
8
0
100
AcDbCircle
10
896.89683235740426
20
151.9374999999998
30
0
40
2.3999999999999844
210
0
220
0
230
1
0
LWPOLYLINE
5
108
100
AcDbEntity
8
0
100
AcDbPolyline
90
80
70
1
43
0.0
10
604.34933235740436
20
37.46250000000002
10
617.03055217163728
20
37.462500000000027
42
-0.052407778884279818
10
617.23846386090122
20
37.440647601064263
10
653.15918764583421
20
29.805462120285092
42
-0.41421356283835442
10
653.92942355730395
20
28.619402828403373
10
653.51360017599882
20
26.663107628489733
42
0.41421356237296353
10
654.2838360859148
20
25.477048336938356
10
677.71614956353983
20
20.496356352160209
42
0.052407779283267106
10
677.92406125435775
20
20.474503952893809
10
696.5323732217405
20
20.474503952893809
42
0.052407779282456164
10
696.74028491255831
20
20.496356352160202
10
714.47116569689729
20
24.265171407060393
42
0.4142135623731964
10
715.24140160681304
20
25.45123069861177
10
714.82557822517776
20
27.407525900079651
42
-0.41421356237288254
10
715.59581413509363
20
28.593585191631021
10
757.21797032539507
20
37.440647600734096
42
-0.052407779283826582
10
757.42588201621265
20
37.462500000000318
10
776.89683235740426
20
37.462500000000382
42
-0.41421356237323553
10
777.89683235740438
20
36.462500000000098
10
777.89683235740483
20
34.462500000000347
42
0.41421356237295065
10
778.89683235740449
20
33.462500000000254
10
837.89683235740438
20
33.462500000000261
42
0.41421356237331614
10
838.89683235740438
20
34.462500000000283
10
838.89683235740438
20
36.462500000000041
42
-0.41421356237314577
10
839.89683235740415
20
37.462500000000034
10
892.14683235740438
20
37.462500000000034
42
0.41421356237313794
10
893.14683235740426
20
38.462500000000048
10
893.14683235740426
20
147.18750000000028
42
0.41421356237300661
10
892.14683235740438
20
148.18750000000026
10
839.89683235740426
20
148.18750000000031
42
-0.41421356237321988
10
838.89683235740426
20
149.18750000000026
10
838.89683235740449
20
151.18750000000045
42
0.41421356237295975
10
837.89683235740438
20
152.1875
10
778.89683235740449
20
152.1875
42
0.41421356237298579
10
777.89683235740472
20
151.18750000000028
10
777.89683235740438
20
149.18750000000026
42
-0.4142135623730378
10
776.89683235740426
20
148.18750000000009
10
698.86933431153102
20
148.18750000000026
42
-0.4142135623731939
10
697.86933431153102
20
149.18750000000026
10
697.86933431153102
20
156.68750000000031
42
-0.41421356237319906
10
698.86933431153102
20
157.68750000000026
10
898.64683235740461
20
157.68750000000006
42
-0.41421356237304302
10
902.64683235740449
20
153.68750000000028
10
902.64683235740438
20
31.962500000000098
42
-0.41421356237316526
10
898.64683235740449
20
27.962500000000361
10
758.42437225123558
20
27.962500000000077
42
0.052407779282460307
10
758.21646056041777
20
27.940647600733826
10
696.74028504952503
20
14.873483109515478
42
-0.052407779283450071
10
696.5323733587071
20
14.851630710249426
10
677.92406131701682
20
14.851630710249417
42
-0.052407778884320896
10
677.71614962775288
20
14.873483109185488
10
616.23997363350338
20
27.940647601064299
42
0.052407778884690497
10
616.03206194423956
20
27.962500000000009
10
525.22433235740436
20
27.962499999999991
42
-0.41421356237311679
10
521.22433235740436
20
31.962500000000063
10
521.22433235740425
20
153.68750000000031
42
-0.41421356237310281
10
525.22433235740436
20
157.68750000000026
10
681.62933457328518
20
157.68750000000023
42
-0.41421356237314705
10
682.62933457328529
20
156.68750000000026
10
682.62933457328529
20
149.18750000000043
42
-0.41421356237310542
10
681.62933457328518
20
148.18750000000028
10
604.34933235740436
20
148.18750000000026
42
-0.4142135623731783
10
603.34933235740425
20
149.18750000000026
10
603.34933235740425
20
151.18750000000028
42
0.41421356237313667
10
602.34933235740425
20
152.18750000000037
10
543.34933235740436
20
152.18750000000034
42
0.4142135623730846
10
542.34933235740425
20
151.18750000000034
10
542.34933235740425
20
149.18750000000026
42
-0.41421356237313667
10
541.34933235740436
20
148.18750000000028
10
531.72433235740425
20
148.18750000000026
42
0.41421356237314705
10
530.72433235740425
20
147.18750000000034
10
530.72433235740436
20
38.462500000000048
42
0.41421356237314316
10
531.72433235740425
20
37.462500000000318
10
541.34933235740425
20
37.462500000000063
42
-0.41421356237324725
10
542.34933235740425
20
36.462500000000098
10
542.34933235740425
20
34.462500000000283
42
0.41421356237307944
10
543.34933235740436
20
33.462500000000254
10
602.34933235740436
20
33.462500000000261
42
0.41421356237313273
10
603.34933235740436
20
34.462500000000283
10
603.34933235740436
20
36.462500000000084
42
-0.41421356237322249
0
ENDSEC
0
SECTION
2
OBJECTS
0
DICTIONARY
5
C
100
AcDbDictionary
3
ACAD_GROUP
350
D
3
ACAD_MLINESTYLE
350
17
0
DICTIONARY
5
D
100
AcDbDictionary
0
DICTIONARY
5
1A
330
C
100
AcDbDictionary
0
DICTIONARY
5
17
100
AcDbDictionary
0
ENDSEC
0
EOF
