0
SECTION
2
HEADER
9
$INSUNITS
70
4
9
$ACADVER
1
AC1014
9
$HANDSEED
5
FFFF
0
ENDSEC
0
SECTION
2
TABLES
0
TABLE
2
VPORT
5
8
100
AcDbSymbolTable
0
ENDTAB
0
TABLE
2
LTYPE
5
5
100
AcDbSymbolTable
0
LTYPE
5
14
100
AcDbSymbolTableRecord
100
AcDbLinetypeTableRecord
2
BYBLOCK
70
0
0
LTYPE
5
15
100
AcDbSymbolTableRecord
100
AcDbLinetypeTableRecord
2
BYLAYER
70
0
0
ENDTAB
0
TABLE
2
LAYER
5
2
100
AcDbSymbolTable
70
2
0
LAYER
5
50
100
AcDbSymbolTableRecord
100
AcDbLayerTableRecord
2
0
70
0
6
CONTINUOUS
0
ENDTAB
0
TABLE
2
STYLE
5
3
100
AcDbSymbolTable
70
1
0
STYLE
5
11
100
AcDbSymbolTableRecord
100
AcDbTextStyleTableRecord
2
STANDARD
70
0
0
ENDTAB
0
TABLE
2
VIEW
5
6
100
AcDbSymbolTable
70
0
0
ENDTAB
0
TABLE
2
UCS
5
7
100
AcDbSymbolTable
70
0
0
ENDTAB
0
TABLE
2
APPID
5
9
100
AcDbSymbolTable
70
2
0
APPID
5
12
100
AcDbSymbolTableRecord
100
AcDbRegAppTableRecord
2
ACAD
70
0
0
ENDTAB
0
TABLE
2
DIMSTYLE
5
A
100
AcDbSymbolTable
70
1
0
ENDTAB
0
TABLE
2
BLOCK_RECORD
5
1
100
AcDbSymbolTable
70
1
0
BLOCK_RECORD
5
1F
100
AcDbSymbolTableRecord
100
AcDbBlockTableRecord
2
*MODEL_SPACE
0
BLOCK_RECORD
5
1B
100
AcDbSymbolTableRecord
100
AcDbBlockTableRecord
2
*PAPER_SPACE
0
ENDTAB
0
ENDSEC
0
SECTION
2
BLOCKS
0
BLOCK
5
20
100
AcDbEntity
100
AcDbBlockBegin
2
*MODEL_SPACE
0
ENDBLK
5
21
100
AcDbEntity
100
AcDbBlockEnd
0
BLOCK
5
1C
100
AcDbEntity
100
AcDbBlockBegin
2
*PAPER_SPACE
0
ENDBLK
5
1D
100
AcDbEntity
100
AcDbBlockEnd
0
ENDSEC
0
SECTION
2
ENTITIES
0
CIRCLE
5
100
100
AcDbEntity
8
0
100
AcDbCircle
10
758.31926801597047
20
-112.28750000000069
30
0
40
2.4000000000000199
210
0
220
0
230
1
0
CIRCLE
5
101
100
AcDbEntity
8
0
100
AcDbCircle
10
616.13716617870273
20
7.941646248877845
30
0
40
2.4000000000000199
210
0
220
0
230
1
0
CIRCLE
5
102
100
AcDbEntity
8
0
100
AcDbCircle
10
896.89683235740495
20
6.9374999999993037
30
0
40
2.3999999999999844
210
0
220
0
230
1
0
CIRCLE
5
103
100
AcDbEntity
8
0
100
AcDbCircle
10
526.97433235740482
20
6.9374999999993037
30
0
40
2.4000000000000199
210
0
220
0
230
1
0
CIRCLE
5
104
100
AcDbEntity
8
0
100
AcDbCircle
10
758.31926801597047
20
7.9374999999993188
30
0
40
2.4000000000000199
210
0
220
0
230
1
0
CIRCLE
5
105
100
AcDbEntity
8
0
100
AcDbCircle
10
896.89683235740472
20
-111.28750000000069
30
0
40
2.3999999999999844
210
0
220
0
230
1
0
CIRCLE
5
106
100
AcDbEntity
8
0
100
AcDbCircle
10
526.97433235740459
20
-111.28750000000082
30
0
40
2.4000000000000199
210
0
220
0
230
1
0
CIRCLE
5
107
100
AcDbEntity
8
0
100
AcDbCircle
10
616.13716617870273
20
-112.28750000000069
30
0
40
2.3999999999999488
210
0
220
0
230
1
0
LWPOLYLINE
5
108
100
AcDbEntity
8
0
100
AcDbPolyline
90
80
70
1
43
0.0
10
776.89683235740495
20
3.1874999999991616
10
698.86933431153147
20
3.1874999999992344
42
-0.41421356237309459
10
697.86933431153159
20
4.1874999999991758
10
697.86933431153159
20
11.687499999999352
42
-0.4142135623730846
10
698.86933431153147
20
12.687499999999261
10
898.64683235740495
20
12.687499999999371
42
-0.41421356237307189
10
902.64683235740506
20
8.6874999999996305
10
902.64683235740495
20
-113.03750000000066
42
-0.41421356237312495
10
898.64683235740495
20
-117.03750000000065
10
758.42437225123626
20
-117.03750000000085
42
0.052407779282214802
10
758.21646056041823
20
-117.05935239926704
10
696.74028504952526
20
-130.12651689048548
42
-0.052407779283578766
10
696.53237335870756
20
-130.14836928975149
10
677.9240613170175
20
-130.14836928975151
42
-0.052407778884753849
10
677.71614962775345
20
-130.12651689081554
10
616.23997363350395
20
-117.05935239893664
42
0.052407778884722082
10
616.03206194424001
20
-117.03750000000085
10
525.22433235740482
20
-117.03750000000079
42
-0.41421356237308593
10
521.22433235740482
20
-113.03750000000065
10
521.22433235740482
20
8.6874999999992379
42
-0.41421356237312157
10
525.22433235740482
20
12.687499999999261
10
681.62933457328575
20
12.687499999999538
42
-0.41421356237309309
10
682.62933457328586
20
11.687499999999176
10
682.62933457328575
20
4.1874999999994245
42
-0.41421356237308399
10
681.62933457328575
20
3.1874999999992326
10
604.34933235740482
20
3.1874999999992308
42
-0.41421356237324125
10
603.34933235740471
20
4.1874999999991758
10
603.34933235740471
20
6.1874999999991864
42
0.41421356237310641
10
602.34933235740482
20
7.1874999999992184
10
543.34933235740482
20
7.1874999999992184
42
0.41421356237317536
10
542.34933235740482
20
6.1874999999992042
10
542.34933235740482
20
4.1874999999993179
42
-0.41421356237312285
10
541.34933235740482
20
3.1874999999991793
10
531.72433235740482
20
3.1874999999991616
42
0.41421356237307277
10
530.72433235740482
20
2.1874999999992184
10
530.72433235740482
20
-106.53750000000068
42
0.41421356237311063
10
531.72433235740482
20
-107.53750000000076
10
541.34933235740482
20
-107.53750000000082
42
-0.41421356237319906
10
542.34933235740505
20
-108.53750000000069
10
542.34933235740482
20
-110.53750000000062
42
0.4142135623731939
10
543.34933235740482
20
-111.53750000000073
10
602.34933235740493
20
-111.53750000000073
42
0.4142135623731783
10
603.34933235740482
20
-110.53750000000065
10
603.34933235740482
20
-108.53750000000069
42
-0.41421356237310025
10
604.34933235740482
20
-107.5375000000008
10
617.03055217163774
20
-107.5375000000007
42
-0.05240777888448421
10
617.23846386090167
20
-107.5593523989366
10
653.15918764583455
20
-115.19453787971565
42
-0.41421356283855115
10
653.92942355730452
20
-116.38059717159749
10
653.5136001759995
20
-118.33689237151103
42
0.41421356237317869
10
654.28383608591548
20
-119.52295166306257
10
677.7161495635404
20
-124.50364364784063
42
0.052407779283058412
10
677.92406125435832
20
-124.52549604710691
10
696.53237322174107
20
-124.52549604710694
42
0.052407779282813441
10
696.74028491255842
20
-124.50364364784065
10
714.47116569689751
20
-120.7348285929406
42
0.4142135623731808
10
715.2414016068135
20
-119.54876930138902
10
714.82557822517822
20
-117.59247409992136
42
-0.41421356237295115
10
715.5958141350942
20
-116.40641480836987
10
757.21797032539575
20
-107.55935239926684
42
-0.052407779284028524
10
757.42588201621311
20
-107.53750000000076
10
776.89683235740461
20
-107.53750000000082
42
-0.41421356237319906
10
777.89683235740483
20
-108.53750000000069
10
777.8968323574054
20
-110.53750000000068
42
0.41421356237319906
10
778.89683235740506
20
-111.53750000000066
10
837.89683235740495
20
-111.53750000000072
42
0.41421356237323032
10
838.89683235740506
20
-110.53750000000065
10
838.89683235740506
20
-108.53750000000062
42
-0.4142135623730846
10
839.89683235740461
20
-107.53750000000079
10
892.14683235740495
20
-107.53750000000082
42
0.41421356237295975
10
893.14683235740495
20
-106.5375000000008
10
893.14683235740495
20
2.1874999999992539
42
0.41421356237291507
10
892.14683235740495
20
3.1874999999993747
10
839.89683235740483
20
3.1874999999990865
42
-0.41421356237317947
10
838.89683235740472
20
4.1874999999991758
10
838.89683235740495
20
6.1874999999991864
42
0.41421356237300039
10
837.89683235740495
20
7.1874999999991473
10
778.89683235740506
20
7.1874999999991829
42
0.41421356237293405
10
777.89683235740517
20
6.1874999999992042
10
777.89683235740483
20
4.1874999999993223
42
-0.41421356237299195
0
ENDSEC
0
SECTION
2
OBJECTS
0
DICTIONARY
5
C
100
AcDbDictionary
3
ACAD_GROUP
350
D
3
ACAD_MLINESTYLE
350
17
0
DICTIONARY
5
D
100
AcDbDictionary
0
DICTIONARY
5
1A
330
C
100
AcDbDictionary
0
DICTIONARY
5
17
100
AcDbDictionary
0
ENDSEC
0
EOF
