0
SECTION
2
HEADER
9
$INSUNITS
70
4
9
$ACADVER
1
AC1014
9
$HANDSEED
5
FFFF
0
ENDSEC
0
SECTION
2
TABLES
0
TABLE
2
VPORT
5
8
100
AcDbSymbolTable
0
ENDTAB
0
TABLE
2
LTYPE
5
5
100
AcDbSymbolTable
0
LTYPE
5
14
100
AcDbSymbolTableRecord
100
AcDbLinetypeTableRecord
2
BYBLOCK
70
0
0
LTYPE
5
15
100
AcDbSymbolTableRecord
100
AcDbLinetypeTableRecord
2
BYLAYER
70
0
0
ENDTAB
0
TABLE
2
LAYER
5
2
100
AcDbSymbolTable
70
2
0
LAYER
5
50
100
AcDbSymbolTableRecord
100
AcDbLayerTableRecord
2
0
70
0
6
CONTINUOUS
0
ENDTAB
0
TABLE
2
STYLE
5
3
100
AcDbSymbolTable
70
1
0
STYLE
5
11
100
AcDbSymbolTableRecord
100
AcDbTextStyleTableRecord
2
STANDARD
70
0
0
ENDTAB
0
TABLE
2
VIEW
5
6
100
AcDbSymbolTable
70
0
0
ENDTAB
0
TABLE
2
UCS
5
7
100
AcDbSymbolTable
70
0
0
ENDTAB
0
TABLE
2
APPID
5
9
100
AcDbSymbolTable
70
2
0
APPID
5
12
100
AcDbSymbolTableRecord
100
AcDbRegAppTableRecord
2
ACAD
70
0
0
ENDTAB
0
TABLE
2
DIMSTYLE
5
A
100
AcDbSymbolTable
70
1
0
ENDTAB
0
TABLE
2
BLOCK_RECORD
5
1
100
AcDbSymbolTable
70
1
0
BLOCK_RECORD
5
1F
100
AcDbSymbolTableRecord
100
AcDbBlockTableRecord
2
*MODEL_SPACE
0
BLOCK_RECORD
5
1B
100
AcDbSymbolTableRecord
100
AcDbBlockTableRecord
2
*PAPER_SPACE
0
ENDTAB
0
ENDSEC
0
SECTION
2
BLOCKS
0
BLOCK
5
20
100
AcDbEntity
100
AcDbBlockBegin
2
*MODEL_SPACE
0
ENDBLK
5
21
100
AcDbEntity
100
AcDbBlockEnd
0
BLOCK
5
1C
100
AcDbEntity
100
AcDbBlockBegin
2
*PAPER_SPACE
0
ENDBLK
5
1D
100
AcDbEntity
100
AcDbBlockEnd
0
ENDSEC
0
SECTION
2
ENTITIES
0
CIRCLE
5
100
100
AcDbEntity
8
0
100
AcDbCircle
10
308.31926801597137
20
-7.2875000000005485
30
0
40
2.4000000000000199
210
0
220
0
230
1
0
CIRCLE
5
101
100
AcDbEntity
8
0
100
AcDbCircle
10
76.974332357405473
20
-6.2875000000008185
30
0
40
2.4000000000000199
210
0
220
0
230
1
0
CIRCLE
5
102
100
AcDbEntity
8
0
100
AcDbCircle
10
166.13716617870358
20
-7.2875000000005485
30
0
40
2.3999999999999488
210
0
220
0
230
1
0
CIRCLE
5
103
100
AcDbEntity
8
0
100
AcDbCircle
10
76.974332357405586
20
111.9374999999993
30
0
40
2.4000000000000199
210
0
220
0
230
1
0
CIRCLE
5
104
100
AcDbEntity
8
0
100
AcDbCircle
10
308.31926801597137
20
112.93749999999932
30
0
40
2.4000000000000199
210
0
220
0
230
1
0
CIRCLE
5
105
100
AcDbEntity
8
0
100
AcDbCircle
10
446.89683235740563
20
-6.287500000000712
30
0
40
2.3999999999999844
210
0
220
0
230
1
0
CIRCLE
5
106
100
AcDbEntity
8
0
100
AcDbCircle
10
446.8968323574058
20
111.9374999999993
30
0
40
2.3999999999999844
210
0
220
0
230
1
0
CIRCLE
5
107
100
AcDbEntity
8
0
100
AcDbCircle
10
166.13716617870358
20
112.94164624887776
30
0
40
2.4000000000000199
210
0
220
0
230
1
0
LWPOLYLINE
5
108
100
AcDbEntity
8
0
100
AcDbPolyline
90
40
70
1
43
0.0
10
231.62933457328569
20
117.68749999999932
42
-0.41421356237308982
10
232.6293345732858
20
116.68749999999935
10
232.62933457328563
20
109.18749999999925
42
-0.41421356237319906
10
231.62933457328577
20
108.1874999999993
10
81.724332357404876
20
108.1874999999993
42
0.41421356237312101
10
80.724332357404691
20
107.18749999999916
10
80.724332357404904
20
-1.5375000000008754
42
0.41421356237317686
10
81.724332357404847
20
-2.5375000000008185
10
167.03055217163779
20
-2.5375000000008221
42
-0.052407778884806064
10
167.23846386090173
20
-2.5593523989366318
10
228.13656669363453
20
-15.503643648171204
42
0.052407778885001595
10
228.34447838289833
20
-15.525496047106984
10
246.11195628067782
20
-15.525496047106806
42
0.052407779282973674
10
246.31986797149557
20
-15.503643647840732
10
307.21797032539564
20
-2.5593523992668503
42
-0.052407779283831363
10
307.42588201621317
20
-2.5375000000006764
10
442.14683235740489
20
-2.5375000000008185
42
0.4142135623731279
10
443.14683235740472
20
-1.5375000000008043
10
443.14683235740489
20
107.18749999999935
42
0.41421356237294937
10
442.14683235740489
20
108.1874999999993
10
248.86933431153147
20
108.1874999999993
42
-0.41421356237319906
10
247.86933431153153
20
109.18749999999932
10
247.86933431153165
20
116.68749999999932
42
-0.41421356237304818
10
248.86933431153139
20
117.68749999999947
10
448.646832357405
20
117.68749999999932
42
-0.4142135623730781
10
452.646832357405
20
113.6874999999997
10
452.64683235740506
20
-8.0375000000008257
42
-0.41421356237312623
10
448.646832357405
20
-12.037500000000563
10
308.42437225123615
20
-12.037500000000847
42
0.052407779282531923
10
308.21646056041828
20
-12.059352399266992
10
246.74028504952545
20
-25.126516890485462
42
-0.052407779283411331
10
246.53237335870756
20
-25.1483692897515
10
227.92406131701736
20
-25.148369289751567
42
-0.052407778884800714
10
227.71614962775345
20
-25.126516890815545
10
166.23997363350406
20
-12.059352398936909
42
0.052407778884944703
10
166.03206194424004
20
-12.037500000000847
10
75.224332357404961
20
-12.037500000000954
42
-0.41421356237309503
10
71.224332357404847
20
-8.0375000000008967
10
71.224332357404705
20
113.68749999999913
42
-0.41421356237312884
10
75.224332357404791
20
117.68749999999933
0
ENDSEC
0
SECTION
2
OBJECTS
0
DICTIONARY
5
C
100
AcDbDictionary
3
ACAD_GROUP
350
D
3
ACAD_MLINESTYLE
350
17
0
DICTIONARY
5
D
100
AcDbDictionary
0
DICTIONARY
5
1A
330
C
100
AcDbDictionary
0
DICTIONARY
5
17
100
AcDbDictionary
0
ENDSEC
0
EOF
