0
SECTION
2
HEADER
9
$INSUNITS
70
4
9
$ACADVER
1
AC1014
9
$HANDSEED
5
FFFF
0
ENDSEC
0
SECTION
2
TABLES
0
TABLE
2
VPORT
5
8
100
AcDbSymbolTable
0
ENDTAB
0
TABLE
2
LTYPE
5
5
100
AcDbSymbolTable
0
LTYPE
5
14
100
AcDbSymbolTableRecord
100
AcDbLinetypeTableRecord
2
BYBLOCK
70
0
0
LTYPE
5
15
100
AcDbSymbolTableRecord
100
AcDbLinetypeTableRecord
2
BYLAYER
70
0
0
ENDTAB
0
TABLE
2
LAYER
5
2
100
AcDbSymbolTable
70
2
0
LAYER
5
50
100
AcDbSymbolTableRecord
100
AcDbLayerTableRecord
2
0
70
0
6
CONTINUOUS
0
ENDTAB
0
TABLE
2
STYLE
5
3
100
AcDbSymbolTable
70
1
0
STYLE
5
11
100
AcDbSymbolTableRecord
100
AcDbTextStyleTableRecord
2
STANDARD
70
0
0
ENDTAB
0
TABLE
2
VIEW
5
6
100
AcDbSymbolTable
70
0
0
ENDTAB
0
TABLE
2
UCS
5
7
100
AcDbSymbolTable
70
0
0
ENDTAB
0
TABLE
2
APPID
5
9
100
AcDbSymbolTable
70
2
0
APPID
5
12
100
AcDbSymbolTableRecord
100
AcDbRegAppTableRecord
2
ACAD
70
0
0
ENDTAB
0
TABLE
2
DIMSTYLE
5
A
100
AcDbSymbolTable
70
1
0
ENDTAB
0
TABLE
2
BLOCK_RECORD
5
1
100
AcDbSymbolTable
70
1
0
BLOCK_RECORD
5
1F
100
AcDbSymbolTableRecord
100
AcDbBlockTableRecord
2
*MODEL_SPACE
0
BLOCK_RECORD
5
1B
100
AcDbSymbolTableRecord
100
AcDbBlockTableRecord
2
*PAPER_SPACE
0
ENDTAB
0
ENDSEC
0
SECTION
2
BLOCKS
0
BLOCK
5
20
100
AcDbEntity
100
AcDbBlockBegin
2
*MODEL_SPACE
0
ENDBLK
5
21
100
AcDbEntity
100
AcDbBlockEnd
0
BLOCK
5
1C
100
AcDbEntity
100
AcDbBlockBegin
2
*PAPER_SPACE
0
ENDBLK
5
1D
100
AcDbEntity
100
AcDbBlockEnd
0
ENDSEC
0
SECTION
2
ENTITIES
0
CIRCLE
5
100
100
AcDbEntity
8
0
100
AcDbCircle
10
308.31926801596376
20
-32.062500000001606
30
0
40
2.4000000000000208
210
0
220
0
230
1
0
CIRCLE
5
101
100
AcDbEntity
8
0
100
AcDbCircle
10
76.974332357397017
20
-151.28750000000002
30
0
40
2.4000000000000199
210
0
220
0
230
1
0
CIRCLE
5
102
100
AcDbEntity
8
0
100
AcDbCircle
10
76.974332357397969
20
-33.062499999999737
30
0
40
2.4000000000000199
210
0
220
0
230
1
0
CIRCLE
5
103
100
AcDbEntity
8
0
100
AcDbCircle
10
166.13716617869505
20
-152.28750000000053
30
0
40
2.3999999999999488
210
0
220
0
230
1
0
LWPOLYLINE
5
104
100
AcDbEntity
8
0
100
AcDbPolyline
90
24
70
1
43
0.0
10
407.35933235739788
20
-59.312500000002011
10
410.12183235739781
20
-59.312500000001762
42
-0.41421356237313667
10
411.1218323573982
20
-60.31250000000199
10
411.12183235739798
20
-77.3625000000022
42
0.41421356237288692
10
412.12183235739764
20
-78.362500000002058
10
414.88433235739774
20
-78.362500000002129
42
-0.41421356237319906
10
415.88433235739791
20
-79.362500000002072
10
415.88433235739785
20
-96.412500000002098
42
0.41421356237297013
10
416.8843323573974
20
-97.412500000002282
10
434.88433235739774
20
-97.412500000002368
42
0.41421356237319906
10
435.88433235739774
20
-96.412500000002339
10
435.88433235739791
20
-78.412500000002211
42
0.41421356237310542
10
434.88433235739797
20
-77.412500000002353
10
432.12183235739781
20
-77.412500000002282
42
-0.41421356237328233
10
431.12183235739803
20
-76.412500000002339
10
431.12183235739815
20
-59.362500000002107
42
0.41421356237318085
10
430.12183235739826
20
-58.36250000000252
10
427.35933235739799
20
-58.362500000002058
42
-0.4142135623733656
10
426.35933235739827
20
-57.362500000002257
10
426.35933235739827
20
-40.312500000002309
42
0.41421356237282186
10
425.35933235739822
20
-39.312500000002011
10
407.35933235739816
20
-39.312500000002011
42
0.41421356237292334
10
406.35933235739827
20
-40.312500000002274
10
406.35933235739805
20
-58.312500000001904
42
0.41421356237310542
0
CIRCLE
5
105
100
AcDbEntity
8
0
100
AcDbCircle
10
446.89683235739716
20
-151.28750000000258
30
0
40
2.3999999999999844
210
0
220
0
230
1
0
CIRCLE
5
106
100
AcDbEntity
8
0
100
AcDbCircle
10
446.8968323573983
20
-33.062500000002615
30
0
40
2.3999999999999844
210
0
220
0
230
1
0
CIRCLE
5
107
100
AcDbEntity
8
0
100
AcDbCircle
10
166.13716617869591
20
-32.058353751122013
30
0
40
2.4000000000000199
210
0
220
0
230
1
0
CIRCLE
5
108
100
AcDbEntity
8
0
100
AcDbCircle
10
308.3192680159629
20
-152.28750000000161
30
0
40
2.4000000000000199
210
0
220
0
230
1
0
LWPOLYLINE
5
109
100
AcDbEntity
8
0
100
AcDbPolyline
90
16
70
1
43
0.0
10
421.59683235739726
20
-124.03750000000223
10
421.59683235739749
20
-106.98750000000224
42
0.41421356237307422
10
420.59683235739772
20
-105.98750000000223
10
402.5968323573976
20
-105.98750000000183
42
0.41421356237320428
10
401.59683235739749
20
-106.98750000000189
10
401.59683235739726
20
-124.03750000000194
42
-0.41421356237321988
10
400.59683235739737
20
-125.03750000000196
10
383.54683235739753
20
-125.03750000000164
42
0.41421356237314183
10
382.54683235739731
20
-126.0375000000019
10
382.54683235739731
20
-144.03750000000176
42
0.41421356237313667
10
383.54683235739736
20
-145.03750000000173
10
439.64683235739744
20
-145.03750000000221
42
0.41421356237326151
10
440.64683235739727
20
-144.0375000000023
10
440.6468323573975
20
-126.0375000000023
42
0.41421356237310542
10
439.64683235739744
20
-125.03750000000231
10
422.59683235739766
20
-125.03750000000224
42
-0.41421356237311585
0
LWPOLYLINE
5
110
100
AcDbEntity
8
0
100
AcDbPolyline
90
51
70
1
43
0.0
10
222.82687920257683
20
-135.35003091351206
10
226.37177335989207
20
-118.67261493737281
42
0.41421356216420829
10
225.60153744794343
20
-117.48655564774239
10
218.24097690350456
20
-115.92202021867423
42
-0.41421356483199079
10
217.47074099344979
20
-114.73596092013437
10
221.0156356879657
20
-98.058543163572466
42
0.4142135601476325
10
220.24539979355461
20
-96.872483868357833
10
217.54326708963404
20
-96.298127790955078
42
-0.41421355981120089
10
216.77303119498424
20
-95.112068496864097
10
220.12040957138456
20
-79.363891837561482
42
-0.41421355981128627
10
221.30646885873836
20
-78.593655932537629
10
228.66702946977409
20
-80.158191364221167
42
0.41421356215340727
10
229.8530887587907
20
-79.387955451375376
10
233.59549914642588
20
-61.781298657208843
42
0.41421356652180746
10
232.82526321988072
20
-60.595239364513702
10
156.64142068272338
20
-44.401865054128741
42
-0.35411857717417916
10
155.84933235739788
20
-43.423717449963704
10
155.84933235739803
20
-43.170000000000144
42
0.41421356237303258
10
154.84933235739808
20
-42.17000000000013
10
136.84707483329424
20
-42.170000000000094
42
0.40036339762329592
10
135.84820359534629
20
-43.122499999999953
42
-0.40036339762343187
10
134.84933235739814
20
-44.075000000000024
10
98.749332357398004
20
-44.074999999999775
42
0.41421356237309503
10
97.749332357397876
20
-45.074999999999825
10
97.749332357397776
20
-62.124999999999737
42
-0.4142135623731783
10
96.749332357398004
20
-63.124999999999716
10
93.74933235739789
20
-63.124999999999716
42
0.41421356237310025
10
92.749332357397805
20
-64.12499999999973
10
92.749332357397549
20
-81.174999999999713
42
-0.4142135623730222
10
91.749332357397861
20
-82.174999999999656
10
88.868082357397753
20
-82.174999999999656
42
0.41421356237299095
10
87.868082357397697
20
-83.174999999999528
10
87.868082357397526
20
-100.2249999999998
42
-0.41421356237326151
10
86.868082357397583
20
-101.2249999999996
10
83.868082357397569
20
-101.22499999999967
42
0.41421356237309503
10
82.868082357397583
20
-102.22499999999954
10
82.868082357397384
20
-139.27499999999966
42
0.41421356237288171
10
83.868082357397356
20
-140.27499999999975
10
112.22433235739712
20
-140.27499999999989
42
0.41421356237310025
10
113.22433235739716
20
-139.27499999999995
10
113.22433235739754
20
-122.22499999999968
42
-0.41421356237313667
10
114.22433235739757
20
-121.22499999999995
10
145.47796711108356
20
-121.22500000000004
42
-0.47697553196821746
10
146.45611471231194
20
-122.43291168849126
10
142.97224789757593
20
-138.823216594206
42
0.41421356058889797
10
143.74248380435438
20
-140.00927588265881
10
226.79944171182811
20
-157.66357760059492
42
0.41421356180353036
10
227.98550100583554
20
-156.8933416969852
10
231.72791153875781
20
-139.28668491160406
42
0.41421356493475769
10
230.95767562699692
20
-138.1006256138761
10
223.59711511599261
20
-136.53609020345476
42
-0.41421356260365572
0
LWPOLYLINE
5
111
100
AcDbEntity
8
0
100
AcDbPolyline
90
46
70
1
43
0.0
10
408.54683235739793
20
-82.175000000002072
42
-0.41421356237328233
10
407.54683235739782
20
-81.175000000002058
10
407.54683235739788
20
-64.125000000001961
42
0.41421356237310542
10
406.54683235739805
20
-63.125000000002309
10
404.02183235739824
20
-63.125000000002167
42
-0.41421356237316787
10
403.02183235739795
20
-62.125000000002046
10
403.02183235739824
20
-45.075000000001978
42
0.41421356237313928
10
402.02183235739818
20
-44.075000000002049
10
319.45788883993743
20
-44.075000000001481
42
0.052407783269867128
10
319.24997713356271
20
-44.096852402574314
10
247.57580734827198
20
-59.331668684135259
42
0.41421355135405497
10
246.80557144939783
20
-60.517727951137914
10
250.35046516885296
20
-77.195143459473954
42
-0.41421355647770075
10
249.58022925286792
20
-78.381202730113699
10
242.21966890657708
20
-79.945738117064025
42
0.41421356237313794
10
241.44943299477674
20
-81.131797407392057
10
245.19184340152464
20
-98.738454226546125
42
0.4142135623731103
10
246.37790269185268
20
-99.508690138346552
10
249.08003580346394
20
-98.934334019454781
42
-0.41421355993907133
10
250.26609509206398
20
-99.704569923126201
10
253.61347329383665
20
-115.45274567849057
42
-0.41421356847061069
10
252.84323737152971
20
-116.63880497954764
10
244.66959309978378
20
-118.37616658183784
42
0.41421356237309903
10
243.89935717314836
20
-119.56222586253205
10
251.60248485578745
20
-155.80259480744905
42
0.41421356237299189
10
252.78854413648133
20
-156.57283073408422
10
332.00015921780448
20
-139.73588335512864
42
0.4142135711602285
10
332.77039513820222
20
-138.54982404508931
10
329.34463939883528
20
-122.43291170637613
42
-0.47697553757888639
10
330.32278699626249
20
-121.22500000000144
10
347.97183235739743
20
-121.22500000000166
42
-0.41421356237290774
10
348.97183235739726
20
-122.22500000000153
10
348.97183235739715
20
-139.27500000000168
42
0.41421356237307944
10
349.97183235739726
20
-140.27500000000174
10
377.97183235739726
20
-140.27500000000188
42
0.41421356237319906
10
378.97183235739726
20
-139.27500000000194
10
378.97183235739732
20
-122.2250000000017
42
-0.41421356237314705
10
379.97183235739726
20
-121.22500000000187
10
397.14058235739748
20
-121.22500000000173
42
0.41421356237282447
10
398.14058235739753
20
-120.22500000000207
10
398.14058235739759
20
-103.17500000000207
42
-0.41421356237327711
10
399.14058235739765
20
-102.17500000000207
10
411.66558235739774
20
-102.17500000000207
42
0.41421356237306384
10
412.6655823573974
20
-101.17500000000206
10
412.66558235739762
20
-83.175000000002115
42
0.41421356237326151
10
411.66558235739791
20
-82.175000000002072
0
LWPOLYLINE
5
112
100
AcDbEntity
8
0
100
AcDbPolyline
90
16
70
1
43
0.0
10
75.224332357397003
20
-157.03749999999962
42
-0.41421356237312623
10
71.224332357397174
20
-153.03749999999951
10
71.224332357397984
20
-31.312499999999517
42
-0.41421356237311585
10
75.224332357397969
20
-27.312499999999602
10
448.64683235739818
20
-27.31250000000248
42
-0.41421356237311324
10
452.64683235739813
20
-31.312500000002359
10
452.64683235739739
20
-153.03750000000255
42
-0.41421356237313794
10
448.64683235739739
20
-157.03750000000241
10
308.42437225122865
20
-157.03750000000127
42
0.052407779283706976
10
308.21646056041061
20
-157.05935239926754
10
246.74028504951781
20
-170.12651689048525
42
-0.052407779283424688
10
246.53237335869994
20
-170.14836928975143
10
227.92406131700949
20
-170.14836928975143
42
-0.05240777888438547
10
227.71614962774584
20
-170.12651689081565
10
166.23997363349628
20
-157.05935239893634
42
0.05240777888500521
10
166.03206194423248
20
-157.03750000000028
0
ENDSEC
0
SECTION
2
OBJECTS
0
DICTIONARY
5
C
100
AcDbDictionary
3
ACAD_GROUP
350
D
3
ACAD_MLINESTYLE
350
17
0
DICTIONARY
5
D
100
AcDbDictionary
0
DICTIONARY
5
1A
330
C
100
AcDbDictionary
0
DICTIONARY
5
17
100
AcDbDictionary
0
ENDSEC
0
EOF
