0
SECTION
2
HEADER
9
$INSUNITS
70
4
9
$ACADVER
1
AC1014
9
$HANDSEED
5
FFFF
0
ENDSEC
0
SECTION
2
TABLES
0
TABLE
2
VPORT
5
8
100
AcDbSymbolTable
0
ENDTAB
0
TABLE
2
LTYPE
5
5
100
AcDbSymbolTable
0
LTYPE
5
14
100
AcDbSymbolTableRecord
100
AcDbLinetypeTableRecord
2
BYBLOCK
70
0
0
LTYPE
5
15
100
AcDbSymbolTableRecord
100
AcDbLinetypeTableRecord
2
BYLAYER
70
0
0
ENDTAB
0
TABLE
2
LAYER
5
2
100
AcDbSymbolTable
70
2
0
LAYER
5
50
100
AcDbSymbolTableRecord
100
AcDbLayerTableRecord
2
0
70
0
6
CONTINUOUS
0
ENDTAB
0
TABLE
2
STYLE
5
3
100
AcDbSymbolTable
70
1
0
STYLE
5
11
100
AcDbSymbolTableRecord
100
AcDbTextStyleTableRecord
2
STANDARD
70
0
0
ENDTAB
0
TABLE
2
VIEW
5
6
100
AcDbSymbolTable
70
0
0
ENDTAB
0
TABLE
2
UCS
5
7
100
AcDbSymbolTable
70
0
0
ENDTAB
0
TABLE
2
APPID
5
9
100
AcDbSymbolTable
70
2
0
APPID
5
12
100
AcDbSymbolTableRecord
100
AcDbRegAppTableRecord
2
ACAD
70
0
0
ENDTAB
0
TABLE
2
DIMSTYLE
5
A
100
AcDbSymbolTable
70
1
0
ENDTAB
0
TABLE
2
BLOCK_RECORD
5
1
100
AcDbSymbolTable
70
1
0
BLOCK_RECORD
5
1F
100
AcDbSymbolTableRecord
100
AcDbBlockTableRecord
2
*MODEL_SPACE
0
BLOCK_RECORD
5
1B
100
AcDbSymbolTableRecord
100
AcDbBlockTableRecord
2
*PAPER_SPACE
0
ENDTAB
0
ENDSEC
0
SECTION
2
BLOCKS
0
BLOCK
5
20
100
AcDbEntity
100
AcDbBlockBegin
2
*MODEL_SPACE
0
ENDBLK
5
21
100
AcDbEntity
100
AcDbBlockEnd
0
BLOCK
5
1C
100
AcDbEntity
100
AcDbBlockBegin
2
*PAPER_SPACE
0
ENDBLK
5
1D
100
AcDbEntity
100
AcDbBlockEnd
0
ENDSEC
0
SECTION
2
ENTITIES
0
CIRCLE
5
100
100
AcDbEntity
8
0
100
AcDbCircle
10
266.15034037756283
20
177.71249999999256
30
0
40
1.0999999999999943
210
0
220
0
230
1
0
CIRCLE
5
101
100
AcDbEntity
8
0
100
AcDbCircle
10
266.15034037756402
20
297.94164624887094
30
0
40
1.0999999999999943
210
0
220
0
230
1
0
LWPOLYLINE
5
102
100
AcDbEntity
8
0
100
AcDbPolyline
90
46
70
1
43
0.0
10
502.03500655626578
20
285.92499999999058
10
419.47106303880531
20
285.92499999999126
42
0.052407783269813053
10
419.26315133243065
20
285.90314759741835
10
347.58898154713989
20
270.66833131585759
42
0.41421355135423049
10
346.81874564826569
20
269.48227204885484
10
350.36363936772057
20
252.80485654051915
42
-0.41421355647782687
10
349.59340345173536
20
251.6187972698792
10
342.23284310544472
20
250.05426188292898
42
0.41421356237305218
10
341.46260719364483
20
248.86820259260099
10
345.20501760039258
20
231.26154577344681
42
0.4142135623730398
10
346.39107689072029
20
230.49130986164656
10
349.09321000233155
20
231.06566598053834
42
-0.41421355993917741
10
350.27926929093206
20
230.29543007686675
10
353.62664749270425
20
214.54725432150246
42
-0.41421356847068042
10
352.85641157039743
20
213.36119502044536
10
344.68276729865136
20
211.62383341815502
42
0.41421356237289303
10
343.91253137201602
20
210.43777413746085
10
351.61565905465523
20
174.19740519254401
42
0.41421356237331747
10
352.80171833534922
20
173.42716926590873
10
432.01333341667208
20
190.26411664486403
42
0.41421357116036944
10
432.78356933706982
20
191.45017595490341
10
429.35781359770317
20
207.56708829361656
42
-0.47697553757872035
10
430.33596119513015
20
208.77499999999119
10
447.98500655626526
20
208.77499999999114
42
-0.41421356237293894
10
448.98500655626498
20
207.774999999991
10
448.98500655626498
20
190.72499999999096
42
0.41421356237323032
10
449.98500655626486
20
189.72499999999087
10
477.98500655626492
20
189.72499999999087
42
0.41421356237298057
10
478.98500655626486
20
190.7249999999907
10
478.98500655626498
20
207.77499999999077
42
-0.41421356237313667
10
479.98500655626486
20
208.77499999999063
10
497.15375655626576
20
208.7749999999906
42
0.41421356237283491
10
498.15375655626525
20
209.77499999999054
10
498.15375655626548
20
226.8249999999905
42
-0.41421356237327195
10
499.15375655626525
20
227.82499999999047
10
511.67875655626551
20
227.82499999999038
42
0.4142135623730534
10
512.67875655626517
20
228.82499999999044
10
512.67875655626551
20
246.82499999999044
42
0.41421356237303258
10
511.67875655626574
20
247.82499999999061
10
508.56000655626565
20
247.82499999999064
42
-0.41421356237292856
10
507.56000655626565
20
248.82499999999052
10
507.56000655626565
20
265.87499999999045
42
0.41421356237316787
10
506.56000655626571
20
266.87499999999045
10
504.03500655626601
20
266.87499999999051
42
-0.41421356237326151
10
503.03500655626578
20
267.87499999999045
10
503.03500655626578
20
284.92499999999052
42
0.41421356237311585
0
CIRCLE
5
103
100
AcDbEntity
8
0
100
AcDbCircle
10
408.3324422148317
20
297.93749999999125
30
0
40
1.0999999999999943
210
0
220
0
230
1
0
CIRCLE
5
104
100
AcDbEntity
8
0
100
AcDbCircle
10
408.33244221483085
20
177.71249999999111
30
0
40
1.0999999999999943
210
0
220
0
230
1
0
CIRCLE
5
105
100
AcDbEntity
8
0
100
AcDbCircle
10
176.98750655626492
20
178.71249999999336
30
0
40
1.0999999999999943
210
0
220
0
230
1
0
CIRCLE
5
106
100
AcDbEntity
8
0
100
AcDbCircle
10
176.98750655626597
20
296.93749999999346
30
0
40
1.1000000000000651
210
0
220
0
230
1
0
LWPOLYLINE
5
107
100
AcDbEntity
8
0
100
AcDbPolyline
90
51
70
1
43
0.0
10
320.25857399242216
20
233.12751613163499
42
-0.41421356014758853
10
321.0288098868333
20
231.94145683642057
10
317.48391519231734
20
215.26403907985861
42
0.41421356483205618
10
318.25415110237219
20
214.07797978131882
10
325.61471164681132
20
212.51344435225087
42
-0.41421356216429805
10
326.38494755875962
20
211.32738506262027
10
322.84005340144455
20
194.64996908648087
42
0.41421356260365572
10
323.61028931486027
20
193.4639097965383
10
330.97084982586472
20
191.8993743861169
42
-0.41421356493489325
10
331.74108573762533
20
190.71331508838887
10
327.99867520470337
20
173.10665830300778
42
-0.41421356180338359
10
326.81261591069563
20
172.33642239939792
10
243.75565800322209
20
189.9907241173342
42
-0.41421356058892156
10
242.98542209644367
20
191.17678340578698
10
246.46928891117966
20
207.56708831150164
42
0.47697553196832237
10
245.49114130995127
20
208.77499999999318
10
214.23750655626532
20
208.77499999999318
42
0.4142135623732095
10
213.23750655626526
20
207.77499999999324
10
213.23750655626492
20
190.72499999999337
42
-0.41421356237314705
10
212.23750655626489
20
189.72499999999332
10
183.88125655626496
20
189.72499999999374
42
-0.4142135623730222
10
182.88125655626499
20
190.72499999999377
10
182.88125655626519
20
227.77499999999372
42
-0.4142135623730846
10
183.88125655626538
20
228.77499999999372
10
186.8812565562655
20
228.77499999999372
42
0.41421356237316787
10
187.88125655626558
20
229.7749999999937
10
187.8812565562655
20
246.82499999999362
42
-0.41421356237281409
10
188.88125655626567
20
247.82499999999351
10
191.76250655626575
20
247.82499999999374
42
0.41421356237304302
10
192.76250655626544
20
248.82499999999354
10
192.76250655626569
20
265.87499999999352
42
-0.41421356237301177
10
193.76250655626586
20
266.87499999999346
10
196.76250655626575
20
266.87499999999369
42
0.41421356237318868
10
197.76250655626569
20
267.87499999999346
10
197.76250655626583
20
284.92499999999353
42
-0.41421356237304302
10
198.76250655626598
20
285.92499999999342
10
234.86250655626611
20
285.92499999999308
42
0.40036339762339307
10
235.86137779421438
20
286.87749999999323
42
-0.40036339762320572
10
236.86024903216219
20
287.82999999999299
10
254.86250655626606
20
287.82999999999282
42
-0.41421356237298057
10
255.86250655626603
20
286.82999999999299
10
255.86250655626586
20
286.57628255002948
42
0.35411857717423451
10
256.65459488159127
20
285.59813494586416
10
332.83843741874853
20
269.40476063547936
42
-0.41421356652189867
10
333.60867334529371
20
268.2187013427843
10
329.86626295765836
20
250.61204454861752
42
-0.41421356215327954
10
328.68020366864192
20
249.84180863577177
10
321.31964305760624
20
251.40634406745534
42
0.41421355981124164
10
320.13358377025224
20
250.63610816243141
10
316.78620539385201
20
234.88793150312884
42
0.41421355981127433
10
317.55644128850184
20
233.70187220903802
0
LWPOLYLINE
5
108
100
AcDbEntity
8
0
100
AcDbPolyline
90
24
70
1
43
0.0
10
531.13500655626569
20
253.58749999999014
10
531.13500655626592
20
270.6374999999905
42
0.41421356237300139
10
530.13500655626603
20
271.63749999999015
10
527.37250655626576
20
271.63749999999038
42
-0.41421356237321988
10
526.37250655626622
20
272.63749999999027
10
526.37250655626633
20
289.68749999999005
42
0.41421356237290774
10
525.3725065562661
20
290.68749999999045
10
507.37250655626605
20
290.68749999999051
42
0.41421356237280366
10
506.37250655626639
20
289.68749999999039
10
506.37250655626576
20
271.68749999999045
42
0.41421356237314705
10
507.37250655626576
20
270.68749999999045
10
510.13500655626564
20
270.68749999999085
42
-0.41421356237309503
10
511.13500655626592
20
269.68749999999068
10
511.13500655626581
20
252.6374999999905
42
0.41421356237275164
10
512.13500655626547
20
251.63749999999044
10
514.8975065562654
20
251.63749999999055
42
-0.41421356237309503
10
515.89750655626563
20
250.63749999999047
10
515.89750655626563
20
233.58749999999023
42
0.41421356237298057
10
516.89750655626517
20
232.58749999999026
10
534.89750655626585
20
232.58749999999026
42
0.41421356237314705
10
535.8975065562654
20
233.58749999999014
10
535.89750655626563
20
251.58749999999031
42
0.41421356237291812
10
534.89750655626563
20
252.58749999999026
10
532.13500655626581
20
252.58749999999031
42
-0.41421356237328233
0
CIRCLE
5
109
100
AcDbEntity
8
0
100
AcDbCircle
10
546.91000655626624
20
296.93749999998988
30
0
40
1.0999999999999943
210
0
220
0
230
1
0
LWPOLYLINE
5
110
100
AcDbEntity
8
0
100
AcDbPolyline
90
16
70
1
43
0.0
10
501.61000655626526
20
223.01249999999058
10
501.61000655626509
20
205.9624999999906
42
-0.41421356237323032
10
500.6100065562652
20
204.9624999999908
10
483.56000655626525
20
204.96249999999091
42
0.41421356237303258
10
482.56000655626502
20
203.96249999999074
10
482.56000655626508
20
185.96249999999085
42
0.41421356237326151
10
483.56000655626531
20
184.96249999999091
10
539.6600065562651
20
184.96249999999011
42
0.41421356237329271
10
540.66000655626499
20
185.96249999999026
10
540.66000655626522
20
203.96249999999014
42
0.41421356237314705
10
539.66000655626499
20
204.96249999999003
10
522.61000655626549
20
204.96249999999014
42
-0.4142135623730534
10
521.61000655626538
20
205.96249999999046
10
521.61000655626492
20
223.01249999999041
42
0.41421356237314705
10
520.61000655626549
20
224.01249999999044
10
502.61000655626549
20
224.01249999999044
42
0.41421356237325113
0
CIRCLE
5
111
100
AcDbEntity
8
0
100
AcDbCircle
10
546.91000655626499
20
178.71249999998977
30
0
40
1.0999999999999943
210
0
220
0
230
1
0
LWPOLYLINE
5
112
100
AcDbEntity
8
0
100
AcDbPolyline
90
16
70
1
43
0.0
10
550.66000655626522
20
178.96249999999011
42
-0.41421356237310025
10
546.66000655626522
20
174.96249999999006
10
408.22733797956482
20
174.96249999999148
42
0.052407779282994421
10
408.01942628874707
20
174.94064760072524
10
346.54325077785421
20
161.87348310950756
42
-0.052407779283131894
10
346.33533908703663
20
161.85163071024138
10
328.12109558868252
20
161.85163071024147
42
-0.052407778884302751
10
327.9131838994187
20
161.8734831091773
10
266.43700790517005
20
174.94064760105684
42
0.052407778884673357
10
266.22909621590617
20
174.96249999999267
10
177.23750655626489
20
174.96249999999353
42
-0.41421356237309503
10
173.23750655626492
20
178.96249999999358
10
173.23750655626611
20
296.68749999999375
42
-0.4142135623730846
10
177.23750655626603
20
300.68749999999369
10
546.66000655626624
20
300.68749999999
42
-0.41421356237311063
10
550.66000655626613
20
296.68749999999
0
ENDSEC
0
SECTION
2
OBJECTS
0
DICTIONARY
5
C
100
AcDbDictionary
3
ACAD_GROUP
350
D
3
ACAD_MLINESTYLE
350
17
0
DICTIONARY
5
D
100
AcDbDictionary
0
DICTIONARY
5
1A
330
C
100
AcDbDictionary
0
DICTIONARY
5
17
100
AcDbDictionary
0
ENDSEC
0
EOF
