G04 #@! TF.GenerationSoftware,KiCad,Pcbnew,(5.1.10)-1*
G04 #@! TF.CreationDate,2021-10-05T17:03:10+03:00*
G04 #@! TF.ProjectId,kolibri,6b6f6c69-6272-4692-9e6b-696361645f70,rev?*
G04 #@! TF.SameCoordinates,Original*
G04 #@! TF.FileFunction,Soldermask,Bot*
G04 #@! TF.FilePolarity,Negative*
%FSLAX46Y46*%
G04 Gerber Fmt 4.6, Leading zero omitted, Abs format (unit mm)*
G04 Created by KiCad (PCBNEW (5.1.10)-1) date 2021-10-05 17:03:10*
%MOMM*%
%LPD*%
G01*
G04 APERTURE LIST*
%ADD10C,2.250000*%
%ADD11C,3.987800*%
%ADD12C,1.750000*%
%ADD13C,0.100000*%
%ADD14C,1.600000*%
%ADD15R,1.600000X1.600000*%
%ADD16C,3.048000*%
%ADD17R,1.752600X1.752600*%
%ADD18C,1.752600*%
%ADD19C,2.000000*%
%ADD20R,2.000000X2.000000*%
G04 APERTURE END LIST*
G36*
G01*
X439143483Y-150162395D02*
X439142597Y-150162334D01*
G75*
G02*
X438097666Y-148962597I77403J1122334D01*
G01*
X438137666Y-148382597D01*
G75*
G02*
X439337403Y-147337666I1122334J-77403D01*
G01*
X439337403Y-147337666D01*
G75*
G02*
X440382334Y-148537403I-77403J-1122334D01*
G01*
X440342334Y-149117403D01*
G75*
G02*
X439142597Y-150162334I-1122334J77403D01*
G01*
G37*
D10*
X439260000Y-148460000D03*
G36*
G01*
X432158688Y-151837350D02*
X432158683Y-151837345D01*
G75*
G02*
X432072655Y-150248683I751317J837345D01*
G01*
X433382657Y-148788683D01*
G75*
G02*
X434971319Y-148702655I837345J-751317D01*
G01*
X434971319Y-148702655D01*
G75*
G02*
X435057347Y-150291317I-751317J-837345D01*
G01*
X433747345Y-151751317D01*
G75*
G02*
X432158683Y-151837345I-837345J751317D01*
G01*
G37*
D11*
X436720000Y-153540000D03*
D10*
X434220000Y-149540000D03*
D12*
X431640000Y-153540000D03*
X441800000Y-153540000D03*
X247272475Y-173789201D03*
X237334495Y-171676819D03*
D10*
X240689763Y-168300640D03*
D11*
X242303485Y-172733010D03*
G36*
G01*
X238195849Y-170119218D02*
X238195845Y-170119212D01*
G75*
G02*
X238441998Y-168547379I908993J662840D01*
G01*
X240026924Y-167391649D01*
G75*
G02*
X241598757Y-167637802I662840J-908993D01*
G01*
X241598757Y-167637802D01*
G75*
G02*
X241352604Y-169209635I-908993J-662840D01*
G01*
X239767678Y-170365365D01*
G75*
G02*
X238195845Y-170119212I-662840J908993D01*
G01*
G37*
D10*
X245844171Y-168292116D03*
G36*
G01*
X245376253Y-169933084D02*
X245375399Y-169932840D01*
G75*
G02*
X244602742Y-168542067I309058J1081715D01*
G01*
X244762456Y-167983057D01*
G75*
G02*
X246153229Y-167210400I1081715J-309058D01*
G01*
X246153229Y-167210400D01*
G75*
G02*
X246925886Y-168601173I-309058J-1081715D01*
G01*
X246766172Y-169160183D01*
G75*
G02*
X245375399Y-169932840I-1081715J309058D01*
G01*
G37*
D13*
G36*
X243555333Y-237163623D02*
G01*
X241990297Y-236830965D01*
X242322955Y-235265929D01*
X243887991Y-235598587D01*
X243555333Y-237163623D01*
G37*
D14*
X244560856Y-228585224D03*
G36*
G01*
X128152233Y-193024895D02*
X128151347Y-193024834D01*
G75*
G02*
X127106416Y-191825097I77403J1122334D01*
G01*
X127146416Y-191245097D01*
G75*
G02*
X128346153Y-190200166I1122334J-77403D01*
G01*
X128346153Y-190200166D01*
G75*
G02*
X129391084Y-191399903I-77403J-1122334D01*
G01*
X129351084Y-191979903D01*
G75*
G02*
X128151347Y-193024834I-1122334J77403D01*
G01*
G37*
D10*
X128268750Y-191322500D03*
G36*
G01*
X121167438Y-194699850D02*
X121167433Y-194699845D01*
G75*
G02*
X121081405Y-193111183I751317J837345D01*
G01*
X122391407Y-191651183D01*
G75*
G02*
X123980069Y-191565155I837345J-751317D01*
G01*
X123980069Y-191565155D01*
G75*
G02*
X124066097Y-193153817I-751317J-837345D01*
G01*
X122756095Y-194613817D01*
G75*
G02*
X121167433Y-194699845I-837345J751317D01*
G01*
G37*
D11*
X125728750Y-196402500D03*
D10*
X123228750Y-192402500D03*
D12*
X120648750Y-196402500D03*
X130808750Y-196402500D03*
D14*
X342659199Y-157522509D03*
D13*
G36*
X345229758Y-165768250D02*
G01*
X343664722Y-166100908D01*
X343332064Y-164535872D01*
X344897100Y-164203214D01*
X345229758Y-165768250D01*
G37*
D14*
X155900000Y-154100000D03*
D15*
X155900000Y-161900000D03*
X174950000Y-162010000D03*
D14*
X174950000Y-154210000D03*
D13*
G36*
X194957683Y-167364481D02*
G01*
X193392647Y-167031823D01*
X193725305Y-165466787D01*
X195290341Y-165799445D01*
X194957683Y-167364481D01*
G37*
D14*
X195963206Y-158786082D03*
X214596918Y-162746798D03*
D13*
G36*
X213591395Y-171325197D02*
G01*
X212026359Y-170992539D01*
X212359017Y-169427503D01*
X213924053Y-169760161D01*
X213591395Y-171325197D01*
G37*
D14*
X233230629Y-166707516D03*
D13*
G36*
X232225106Y-175285915D02*
G01*
X230660070Y-174953257D01*
X230992728Y-173388221D01*
X232557764Y-173720879D01*
X232225106Y-175285915D01*
G37*
G36*
X241236377Y-182805333D02*
G01*
X241569035Y-181240297D01*
X243134071Y-181572955D01*
X242801413Y-183137991D01*
X241236377Y-182805333D01*
G37*
D14*
X249814776Y-183810856D03*
D13*
G36*
X289328623Y-177650404D02*
G01*
X287763587Y-177983062D01*
X287430929Y-176418026D01*
X288995965Y-176085368D01*
X289328623Y-177650404D01*
G37*
D14*
X286758064Y-169404663D03*
D13*
G36*
X307962334Y-173689686D02*
G01*
X306397298Y-174022344D01*
X306064640Y-172457308D01*
X307629676Y-172124650D01*
X307962334Y-173689686D01*
G37*
D14*
X305391775Y-165443945D03*
D13*
G36*
X326596046Y-169728968D02*
G01*
X325031010Y-170061626D01*
X324698352Y-168496590D01*
X326263388Y-168163932D01*
X326596046Y-169728968D01*
G37*
D14*
X324025487Y-161483227D03*
D15*
X160672500Y-202052500D03*
D14*
X160672500Y-194252500D03*
X344526787Y-235027895D03*
D13*
G36*
X347097346Y-243273636D02*
G01*
X345532310Y-243606294D01*
X345199652Y-242041258D01*
X346764688Y-241708600D01*
X347097346Y-243273636D01*
G37*
D14*
X189437190Y-235301287D03*
D13*
G36*
X188431667Y-243879686D02*
G01*
X186866631Y-243547028D01*
X187199289Y-241981992D01*
X188764325Y-242314650D01*
X188431667Y-243879686D01*
G37*
D14*
X284664933Y-228276335D03*
D13*
G36*
X287235492Y-236522076D02*
G01*
X285670456Y-236854734D01*
X285337798Y-235289698D01*
X286902834Y-234957040D01*
X287235492Y-236522076D01*
G37*
D14*
X399482500Y-149000000D03*
D15*
X407282500Y-149000000D03*
D14*
X421657500Y-175202500D03*
D15*
X421657500Y-183002500D03*
D13*
G36*
X206367669Y-228216513D02*
G01*
X204802633Y-227883855D01*
X205135291Y-226318819D01*
X206700327Y-226651477D01*
X206367669Y-228216513D01*
G37*
D14*
X207373192Y-219638114D03*
D15*
X134478750Y-202052500D03*
D14*
X134478750Y-194252500D03*
D15*
X378795000Y-183002500D03*
D14*
X378795000Y-175202500D03*
D13*
G36*
X343136628Y-224639924D02*
G01*
X341571592Y-224972582D01*
X341238934Y-223407546D01*
X342803970Y-223074888D01*
X343136628Y-224639924D01*
G37*
D14*
X340566069Y-216394183D03*
X393082500Y-232352500D03*
D15*
X393082500Y-240152500D03*
D14*
X127335000Y-232352500D03*
D15*
X127335000Y-240152500D03*
D14*
X202017054Y-199024043D03*
D13*
G36*
X201011531Y-207602442D02*
G01*
X199446495Y-207269784D01*
X199779153Y-205704748D01*
X201344189Y-206037406D01*
X201011531Y-207602442D01*
G37*
D14*
X454995000Y-189490000D03*
D15*
X454995000Y-197290000D03*
D14*
X364507500Y-213302500D03*
D15*
X364507500Y-221102500D03*
D14*
X440707500Y-237115000D03*
D15*
X440707500Y-244915000D03*
D13*
G36*
X200313821Y-187978551D02*
G01*
X198748785Y-187645893D01*
X199081443Y-186080857D01*
X200646479Y-186413515D01*
X200313821Y-187978551D01*
G37*
D14*
X201319344Y-179400152D03*
D15*
X414426250Y-187000000D03*
D14*
X406626250Y-187000000D03*
X383557500Y-156152500D03*
D15*
X383557500Y-163952500D03*
D14*
X136860000Y-156152500D03*
D15*
X136860000Y-163952500D03*
D13*
G36*
X219645243Y-211563160D02*
G01*
X218080207Y-211230502D01*
X218412865Y-209665466D01*
X219977901Y-209998124D01*
X219645243Y-211563160D01*
G37*
D14*
X220650766Y-202984761D03*
D13*
G36*
X248991230Y-256752019D02*
G01*
X247426194Y-256419361D01*
X247758852Y-254854325D01*
X249323888Y-255186983D01*
X248991230Y-256752019D01*
G37*
D14*
X249996753Y-248173620D03*
D13*
G36*
X238278954Y-215523877D02*
G01*
X236713918Y-215191219D01*
X237046576Y-213626183D01*
X238611612Y-213958841D01*
X238278954Y-215523877D01*
G37*
D14*
X239284477Y-206945478D03*
X290021071Y-207662265D03*
D13*
G36*
X292591630Y-215908006D02*
G01*
X291026594Y-216240664D01*
X290693936Y-214675628D01*
X292258972Y-214342970D01*
X292591630Y-215908006D01*
G37*
D14*
X318669349Y-182097297D03*
D13*
G36*
X321239908Y-190343038D02*
G01*
X319674872Y-190675696D01*
X319342214Y-189110660D01*
X320907250Y-188778002D01*
X321239908Y-190343038D01*
G37*
D14*
X308654783Y-203701547D03*
D13*
G36*
X311225342Y-211947288D02*
G01*
X309660306Y-212279946D01*
X309327648Y-210714910D01*
X310892684Y-210382252D01*
X311225342Y-211947288D01*
G37*
G36*
X329859054Y-207986570D02*
G01*
X328294018Y-208319228D01*
X327961360Y-206754192D01*
X329526396Y-206421534D01*
X329859054Y-207986570D01*
G37*
D14*
X327288495Y-199740829D03*
D13*
G36*
X348492766Y-204025852D02*
G01*
X346927730Y-204358510D01*
X346595072Y-202793474D01*
X348160108Y-202460816D01*
X348492766Y-204025852D01*
G37*
D14*
X345922207Y-195780111D03*
D15*
X421657500Y-244915000D03*
D14*
X421657500Y-237115000D03*
D13*
G36*
X324502916Y-228600642D02*
G01*
X322937880Y-228933300D01*
X322605222Y-227368264D01*
X324170258Y-227035606D01*
X324502916Y-228600642D01*
G37*
D14*
X321932357Y-220354901D03*
X364507500Y-156152500D03*
D15*
X364507500Y-163952500D03*
D13*
G36*
X305869204Y-231330965D02*
G01*
X304304168Y-231663623D01*
X303971510Y-230098587D01*
X305536546Y-229765929D01*
X305869204Y-231330965D01*
G37*
D14*
X303298645Y-223085224D03*
X337303061Y-178136579D03*
D13*
G36*
X339873620Y-186382320D02*
G01*
X338308584Y-186714978D01*
X337975926Y-185149942D01*
X339540962Y-184817284D01*
X339873620Y-186382320D01*
G37*
D15*
X397845000Y-183002500D03*
D14*
X397845000Y-175202500D03*
X359745000Y-175202500D03*
D15*
X359745000Y-183002500D03*
D14*
X450232500Y-170440000D03*
D15*
X450232500Y-178240000D03*
D14*
X424000000Y-163900000D03*
D15*
X424000000Y-156100000D03*
X160672500Y-183002500D03*
D14*
X160672500Y-175202500D03*
X388320000Y-194252500D03*
D15*
X388320000Y-202052500D03*
D13*
G36*
X218947533Y-191939269D02*
G01*
X217382497Y-191606611D01*
X217715155Y-190041575D01*
X219280191Y-190374233D01*
X218947533Y-191939269D01*
G37*
D14*
X219953056Y-183360870D03*
D15*
X459757500Y-244915000D03*
D14*
X459757500Y-237115000D03*
X183383342Y-194185224D03*
D13*
G36*
X182377819Y-202763623D02*
G01*
X180812783Y-202430965D01*
X181145441Y-200865929D01*
X182710477Y-201198587D01*
X182377819Y-202763623D01*
G37*
D14*
X369270000Y-194252500D03*
D15*
X369270000Y-202052500D03*
D14*
X409751250Y-213302500D03*
D15*
X409751250Y-221102500D03*
X129628750Y-206000000D03*
D14*
X121828750Y-206000000D03*
X383557500Y-213302500D03*
D15*
X383557500Y-221102500D03*
D14*
X293176230Y-236810856D03*
D13*
G36*
X301421971Y-234240297D02*
G01*
X301754629Y-235805333D01*
X300189593Y-236137991D01*
X299856935Y-234572955D01*
X301421971Y-234240297D01*
G37*
D15*
X209100000Y-235000000D03*
D14*
X216900000Y-235000000D03*
D13*
G36*
X237581244Y-195899987D02*
G01*
X236016208Y-195567329D01*
X236348866Y-194002293D01*
X237913902Y-194334951D01*
X237581244Y-195899987D01*
G37*
D14*
X238586767Y-187321588D03*
D15*
X136860000Y-183002500D03*
D14*
X136860000Y-175202500D03*
X300035637Y-186058014D03*
D13*
G36*
X302606196Y-194303755D02*
G01*
X301041160Y-194636413D01*
X300708502Y-193071377D01*
X302273538Y-192738719D01*
X302606196Y-194303755D01*
G37*
D15*
X440707500Y-223900000D03*
D14*
X440707500Y-216100000D03*
X226006904Y-223598832D03*
D13*
G36*
X225001381Y-232177231D02*
G01*
X223436345Y-231844573D01*
X223769003Y-230279537D01*
X225334039Y-230612195D01*
X225001381Y-232177231D01*
G37*
G36*
X181680109Y-184017833D02*
G01*
X180115073Y-183685175D01*
X180447731Y-182120139D01*
X182012767Y-182452797D01*
X181680109Y-184017833D01*
G37*
D14*
X182685632Y-175439434D03*
D13*
G36*
X187733957Y-224255795D02*
G01*
X186168921Y-223923137D01*
X186501579Y-222358101D01*
X188066615Y-222690759D01*
X187733957Y-224255795D01*
G37*
D14*
X188739480Y-215677396D03*
D13*
G36*
X283972485Y-198264473D02*
G01*
X282407449Y-198597131D01*
X282074791Y-197032095D01*
X283639827Y-196699437D01*
X283972485Y-198264473D01*
G37*
D14*
X281401926Y-190018732D03*
D15*
X165435000Y-221102500D03*
D14*
X165435000Y-213302500D03*
D12*
X339689045Y-158531094D03*
X329751065Y-160643476D03*
D10*
X331443039Y-156194474D03*
D11*
X334720055Y-159587285D03*
G36*
G01*
X329904418Y-158870193D02*
X329904411Y-158870189D01*
G75*
G02*
X329489962Y-157334128I560806J975255D01*
G01*
X330467786Y-155633668D01*
G75*
G02*
X332003847Y-155219219I975255J-560806D01*
G01*
X332003847Y-155219219D01*
G75*
G02*
X332418296Y-156755280I-560806J-975255D01*
G01*
X331440472Y-158455740D01*
G75*
G02*
X329904411Y-158870189I-975255J560806D01*
G01*
G37*
D10*
X336148359Y-154090199D03*
G36*
G01*
X336388335Y-155779619D02*
X336387456Y-155779743D01*
G75*
G02*
X335115920Y-154823477I-157635J1113901D01*
G01*
X335034458Y-154247835D01*
G75*
G02*
X335990724Y-152976299I1113901J157635D01*
G01*
X335990724Y-152976299D01*
G75*
G02*
X337262260Y-153932565I157635J-1113901D01*
G01*
X337343722Y-154508207D01*
G75*
G02*
X336387456Y-155779743I-1113901J-157635D01*
G01*
G37*
G36*
G01*
X149583483Y-154924895D02*
X149582597Y-154924834D01*
G75*
G02*
X148537666Y-153725097I77403J1122334D01*
G01*
X148577666Y-153145097D01*
G75*
G02*
X149777403Y-152100166I1122334J-77403D01*
G01*
X149777403Y-152100166D01*
G75*
G02*
X150822334Y-153299903I-77403J-1122334D01*
G01*
X150782334Y-153879903D01*
G75*
G02*
X149582597Y-154924834I-1122334J77403D01*
G01*
G37*
X149700000Y-153222500D03*
G36*
G01*
X142598688Y-156599850D02*
X142598683Y-156599845D01*
G75*
G02*
X142512655Y-155011183I751317J837345D01*
G01*
X143822657Y-153551183D01*
G75*
G02*
X145411319Y-153465155I837345J-751317D01*
G01*
X145411319Y-153465155D01*
G75*
G02*
X145497347Y-155053817I-751317J-837345D01*
G01*
X144187345Y-156513817D01*
G75*
G02*
X142598683Y-156599845I-837345J751317D01*
G01*
G37*
D11*
X147160000Y-158302500D03*
D10*
X144660000Y-154302500D03*
D12*
X142080000Y-158302500D03*
X152240000Y-158302500D03*
X171290000Y-156397500D03*
X161130000Y-156397500D03*
D10*
X163710000Y-152397500D03*
D11*
X166210000Y-156397500D03*
G36*
G01*
X161648688Y-154694850D02*
X161648683Y-154694845D01*
G75*
G02*
X161562655Y-153106183I751317J837345D01*
G01*
X162872657Y-151646183D01*
G75*
G02*
X164461319Y-151560155I837345J-751317D01*
G01*
X164461319Y-151560155D01*
G75*
G02*
X164547347Y-153148817I-751317J-837345D01*
G01*
X163237345Y-154608817D01*
G75*
G02*
X161648683Y-154694845I-837345J751317D01*
G01*
G37*
D10*
X168750000Y-151317500D03*
G36*
G01*
X168633483Y-153019895D02*
X168632597Y-153019834D01*
G75*
G02*
X167587666Y-151820097I77403J1122334D01*
G01*
X167627666Y-151240097D01*
G75*
G02*
X168827403Y-150195166I1122334J-77403D01*
G01*
X168827403Y-150195166D01*
G75*
G02*
X169872334Y-151394903I-77403J-1122334D01*
G01*
X169832334Y-151974903D01*
G75*
G02*
X168632597Y-153019834I-1122334J77403D01*
G01*
G37*
G36*
G01*
X189475118Y-158050932D02*
X189474264Y-158050688D01*
G75*
G02*
X188701607Y-156659915I309058J1081715D01*
G01*
X188861321Y-156100905D01*
G75*
G02*
X190252094Y-155328248I1081715J-309058D01*
G01*
X190252094Y-155328248D01*
G75*
G02*
X191024751Y-156719021I-309058J-1081715D01*
G01*
X190865037Y-157278031D01*
G75*
G02*
X189474264Y-158050688I-1081715J309058D01*
G01*
G37*
X189943036Y-156409964D03*
G36*
G01*
X182294714Y-158237066D02*
X182294710Y-158237060D01*
G75*
G02*
X182540863Y-156665227I908993J662840D01*
G01*
X184125789Y-155509497D01*
G75*
G02*
X185697622Y-155755650I662840J-908993D01*
G01*
X185697622Y-155755650D01*
G75*
G02*
X185451469Y-157327483I-908993J-662840D01*
G01*
X183866543Y-158483213D01*
G75*
G02*
X182294710Y-158237060I-662840J908993D01*
G01*
G37*
D11*
X186402350Y-160850858D03*
D10*
X184788628Y-156418488D03*
D12*
X181433360Y-159794667D03*
X191371340Y-161907049D03*
X210005052Y-165867765D03*
X200067072Y-163755383D03*
D10*
X203422340Y-160379204D03*
D11*
X205036062Y-164811574D03*
G36*
G01*
X200928426Y-162197782D02*
X200928422Y-162197776D01*
G75*
G02*
X201174575Y-160625943I908993J662840D01*
G01*
X202759501Y-159470213D01*
G75*
G02*
X204331334Y-159716366I662840J-908993D01*
G01*
X204331334Y-159716366D01*
G75*
G02*
X204085181Y-161288199I-908993J-662840D01*
G01*
X202500255Y-162443929D01*
G75*
G02*
X200928422Y-162197776I-662840J908993D01*
G01*
G37*
D10*
X208576748Y-160370680D03*
G36*
G01*
X208108830Y-162011648D02*
X208107976Y-162011404D01*
G75*
G02*
X207335319Y-160620631I309058J1081715D01*
G01*
X207495033Y-160061621D01*
G75*
G02*
X208885806Y-159288964I1081715J-309058D01*
G01*
X208885806Y-159288964D01*
G75*
G02*
X209658463Y-160679737I-309058J-1081715D01*
G01*
X209498749Y-161238747D01*
G75*
G02*
X208107976Y-162011404I-1081715J309058D01*
G01*
G37*
G36*
G01*
X226742541Y-165972366D02*
X226741687Y-165972122D01*
G75*
G02*
X225969030Y-164581349I309058J1081715D01*
G01*
X226128744Y-164022339D01*
G75*
G02*
X227519517Y-163249682I1081715J-309058D01*
G01*
X227519517Y-163249682D01*
G75*
G02*
X228292174Y-164640455I-309058J-1081715D01*
G01*
X228132460Y-165199465D01*
G75*
G02*
X226741687Y-165972122I-1081715J309058D01*
G01*
G37*
X227210459Y-164331398D03*
G36*
G01*
X219562137Y-166158500D02*
X219562133Y-166158494D01*
G75*
G02*
X219808286Y-164586661I908993J662840D01*
G01*
X221393212Y-163430931D01*
G75*
G02*
X222965045Y-163677084I662840J-908993D01*
G01*
X222965045Y-163677084D01*
G75*
G02*
X222718892Y-165248917I-908993J-662840D01*
G01*
X221133966Y-166404647D01*
G75*
G02*
X219562133Y-166158494I-662840J908993D01*
G01*
G37*
D11*
X223669773Y-168772292D03*
D10*
X222056051Y-164339922D03*
D12*
X218700783Y-167716101D03*
X228638763Y-169828483D03*
G36*
G01*
X280487200Y-167661773D02*
X280486321Y-167661897D01*
G75*
G02*
X279214785Y-166705631I-157635J1113901D01*
G01*
X279133323Y-166129989D01*
G75*
G02*
X280089589Y-164858453I1113901J157635D01*
G01*
X280089589Y-164858453D01*
G75*
G02*
X281361125Y-165814719I157635J-1113901D01*
G01*
X281442587Y-166390361D01*
G75*
G02*
X280486321Y-167661897I-1113901J-157635D01*
G01*
G37*
D10*
X280247224Y-165972353D03*
G36*
G01*
X274003283Y-170752347D02*
X274003276Y-170752343D01*
G75*
G02*
X273588827Y-169216282I560806J975255D01*
G01*
X274566651Y-167515822D01*
G75*
G02*
X276102712Y-167101373I975255J-560806D01*
G01*
X276102712Y-167101373D01*
G75*
G02*
X276517161Y-168637434I-560806J-975255D01*
G01*
X275539337Y-170337894D01*
G75*
G02*
X274003276Y-170752343I-975255J560806D01*
G01*
G37*
D11*
X278818920Y-171469439D03*
D10*
X275541904Y-168076628D03*
D12*
X273849930Y-172525630D03*
X283787910Y-170413248D03*
X302421621Y-166452530D03*
X292483641Y-168564912D03*
D10*
X294175615Y-164115910D03*
D11*
X297452631Y-167508721D03*
G36*
G01*
X292636994Y-166791629D02*
X292636987Y-166791625D01*
G75*
G02*
X292222538Y-165255564I560806J975255D01*
G01*
X293200362Y-163555104D01*
G75*
G02*
X294736423Y-163140655I975255J-560806D01*
G01*
X294736423Y-163140655D01*
G75*
G02*
X295150872Y-164676716I-560806J-975255D01*
G01*
X294173048Y-166377176D01*
G75*
G02*
X292636987Y-166791625I-975255J560806D01*
G01*
G37*
D10*
X298880935Y-162011635D03*
G36*
G01*
X299120911Y-163701055D02*
X299120032Y-163701179D01*
G75*
G02*
X297848496Y-162744913I-157635J1113901D01*
G01*
X297767034Y-162169271D01*
G75*
G02*
X298723300Y-160897735I1113901J157635D01*
G01*
X298723300Y-160897735D01*
G75*
G02*
X299994836Y-161854001I157635J-1113901D01*
G01*
X300076298Y-162429643D01*
G75*
G02*
X299120032Y-163701179I-1113901J-157635D01*
G01*
G37*
G36*
G01*
X317754623Y-159740337D02*
X317753744Y-159740461D01*
G75*
G02*
X316482208Y-158784195I-157635J1113901D01*
G01*
X316400746Y-158208553D01*
G75*
G02*
X317357012Y-156937017I1113901J157635D01*
G01*
X317357012Y-156937017D01*
G75*
G02*
X318628548Y-157893283I157635J-1113901D01*
G01*
X318710010Y-158468925D01*
G75*
G02*
X317753744Y-159740461I-1113901J-157635D01*
G01*
G37*
X317514647Y-158050917D03*
G36*
G01*
X311270706Y-162830911D02*
X311270699Y-162830907D01*
G75*
G02*
X310856250Y-161294846I560806J975255D01*
G01*
X311834074Y-159594386D01*
G75*
G02*
X313370135Y-159179937I975255J-560806D01*
G01*
X313370135Y-159179937D01*
G75*
G02*
X313784584Y-160715998I-560806J-975255D01*
G01*
X312806760Y-162416458D01*
G75*
G02*
X311270699Y-162830907I-975255J560806D01*
G01*
G37*
D11*
X316086343Y-163548003D03*
D10*
X312809327Y-160155192D03*
D12*
X311117353Y-164604194D03*
X321055333Y-162491812D03*
G36*
G01*
X154345983Y-193024895D02*
X154345097Y-193024834D01*
G75*
G02*
X153300166Y-191825097I77403J1122334D01*
G01*
X153340166Y-191245097D01*
G75*
G02*
X154539903Y-190200166I1122334J-77403D01*
G01*
X154539903Y-190200166D01*
G75*
G02*
X155584834Y-191399903I-77403J-1122334D01*
G01*
X155544834Y-191979903D01*
G75*
G02*
X154345097Y-193024834I-1122334J77403D01*
G01*
G37*
D10*
X154462500Y-191322500D03*
G36*
G01*
X147361188Y-194699850D02*
X147361183Y-194699845D01*
G75*
G02*
X147275155Y-193111183I751317J837345D01*
G01*
X148585157Y-191651183D01*
G75*
G02*
X150173819Y-191565155I837345J-751317D01*
G01*
X150173819Y-191565155D01*
G75*
G02*
X150259847Y-193153817I-751317J-837345D01*
G01*
X148949845Y-194613817D01*
G75*
G02*
X147361183Y-194699845I-837345J751317D01*
G01*
G37*
D11*
X151922500Y-196402500D03*
D10*
X149422500Y-192402500D03*
D12*
X146842500Y-196402500D03*
X157002500Y-196402500D03*
G36*
G01*
X338255923Y-233285005D02*
X338255044Y-233285129D01*
G75*
G02*
X336983508Y-232328863I-157635J1113901D01*
G01*
X336902046Y-231753221D01*
G75*
G02*
X337858312Y-230481685I1113901J157635D01*
G01*
X337858312Y-230481685D01*
G75*
G02*
X339129848Y-231437951I157635J-1113901D01*
G01*
X339211310Y-232013593D01*
G75*
G02*
X338255044Y-233285129I-1113901J-157635D01*
G01*
G37*
D10*
X338015947Y-231595585D03*
G36*
G01*
X331772006Y-236375579D02*
X331771999Y-236375575D01*
G75*
G02*
X331357550Y-234839514I560806J975255D01*
G01*
X332335374Y-233139054D01*
G75*
G02*
X333871435Y-232724605I975255J-560806D01*
G01*
X333871435Y-232724605D01*
G75*
G02*
X334285884Y-234260666I-560806J-975255D01*
G01*
X333308060Y-235961126D01*
G75*
G02*
X331771999Y-236375575I-975255J560806D01*
G01*
G37*
D11*
X336587643Y-237092671D03*
D10*
X333310627Y-233699860D03*
D12*
X331618653Y-238148862D03*
X341556633Y-236036480D03*
X184845324Y-238422254D03*
X174907344Y-236309872D03*
D10*
X178262612Y-232933693D03*
D11*
X179876334Y-237366063D03*
G36*
G01*
X175768698Y-234752271D02*
X175768694Y-234752265D01*
G75*
G02*
X176014847Y-233180432I908993J662840D01*
G01*
X177599773Y-232024702D01*
G75*
G02*
X179171606Y-232270855I662840J-908993D01*
G01*
X179171606Y-232270855D01*
G75*
G02*
X178925453Y-233842688I-908993J-662840D01*
G01*
X177340527Y-234998418D01*
G75*
G02*
X175768694Y-234752265I-662840J908993D01*
G01*
G37*
D10*
X183417020Y-232925169D03*
G36*
G01*
X182949102Y-234566137D02*
X182948248Y-234565893D01*
G75*
G02*
X182175591Y-233175120I309058J1081715D01*
G01*
X182335305Y-232616110D01*
G75*
G02*
X183726078Y-231843453I1081715J-309058D01*
G01*
X183726078Y-231843453D01*
G75*
G02*
X184498735Y-233234226I-309058J-1081715D01*
G01*
X184339021Y-233793236D01*
G75*
G02*
X182948248Y-234565893I-1081715J309058D01*
G01*
G37*
G36*
G01*
X278394069Y-226533445D02*
X278393190Y-226533569D01*
G75*
G02*
X277121654Y-225577303I-157635J1113901D01*
G01*
X277040192Y-225001661D01*
G75*
G02*
X277996458Y-223730125I1113901J157635D01*
G01*
X277996458Y-223730125D01*
G75*
G02*
X279267994Y-224686391I157635J-1113901D01*
G01*
X279349456Y-225262033D01*
G75*
G02*
X278393190Y-226533569I-1113901J-157635D01*
G01*
G37*
X278154093Y-224844025D03*
G36*
G01*
X271910152Y-229624019D02*
X271910145Y-229624015D01*
G75*
G02*
X271495696Y-228087954I560806J975255D01*
G01*
X272473520Y-226387494D01*
G75*
G02*
X274009581Y-225973045I975255J-560806D01*
G01*
X274009581Y-225973045D01*
G75*
G02*
X274424030Y-227509106I-560806J-975255D01*
G01*
X273446206Y-229209566D01*
G75*
G02*
X271910145Y-229624015I-975255J560806D01*
G01*
G37*
D11*
X276725789Y-230341111D03*
D10*
X273448773Y-226948300D03*
D12*
X271756799Y-231397302D03*
X281694779Y-229284920D03*
G36*
G01*
X238152527Y-226824400D02*
X238151673Y-226824156D01*
G75*
G02*
X237379016Y-225433383I309058J1081715D01*
G01*
X237538730Y-224874373D01*
G75*
G02*
X238929503Y-224101716I1081715J-309058D01*
G01*
X238929503Y-224101716D01*
G75*
G02*
X239702160Y-225492489I-309058J-1081715D01*
G01*
X239542446Y-226051499D01*
G75*
G02*
X238151673Y-226824156I-1081715J309058D01*
G01*
G37*
D10*
X238620445Y-225183432D03*
G36*
G01*
X230972123Y-227010534D02*
X230972119Y-227010528D01*
G75*
G02*
X231218272Y-225438695I908993J662840D01*
G01*
X232803198Y-224282965D01*
G75*
G02*
X234375031Y-224529118I662840J-908993D01*
G01*
X234375031Y-224529118D01*
G75*
G02*
X234128878Y-226100951I-908993J-662840D01*
G01*
X232543952Y-227256681D01*
G75*
G02*
X230972119Y-227010528I-662840J908993D01*
G01*
G37*
D11*
X235079759Y-229624326D03*
D10*
X233466037Y-225191956D03*
D12*
X230110769Y-228568135D03*
X240048749Y-230680517D03*
G36*
G01*
X405805983Y-154924895D02*
X405805097Y-154924834D01*
G75*
G02*
X404760166Y-153725097I77403J1122334D01*
G01*
X404800166Y-153145097D01*
G75*
G02*
X405999903Y-152100166I1122334J-77403D01*
G01*
X405999903Y-152100166D01*
G75*
G02*
X407044834Y-153299903I-77403J-1122334D01*
G01*
X407004834Y-153879903D01*
G75*
G02*
X405805097Y-154924834I-1122334J77403D01*
G01*
G37*
D10*
X405922500Y-153222500D03*
G36*
G01*
X398821188Y-156599850D02*
X398821183Y-156599845D01*
G75*
G02*
X398735155Y-155011183I751317J837345D01*
G01*
X400045157Y-153551183D01*
G75*
G02*
X401633819Y-153465155I837345J-751317D01*
G01*
X401633819Y-153465155D01*
G75*
G02*
X401719847Y-155053817I-751317J-837345D01*
G01*
X400409845Y-156513817D01*
G75*
G02*
X398821183Y-156599845I-837345J751317D01*
G01*
G37*
D11*
X403382500Y-158302500D03*
D10*
X400882500Y-154302500D03*
D12*
X398302500Y-158302500D03*
X408462500Y-158302500D03*
D16*
X391444500Y-151317500D03*
X415320500Y-151317500D03*
D11*
X391444500Y-166557500D03*
X415320500Y-166557500D03*
D12*
X417987500Y-177352500D03*
X407827500Y-177352500D03*
D10*
X410407500Y-173352500D03*
D11*
X412907500Y-177352500D03*
G36*
G01*
X408346188Y-175649850D02*
X408346183Y-175649845D01*
G75*
G02*
X408260155Y-174061183I751317J837345D01*
G01*
X409570157Y-172601183D01*
G75*
G02*
X411158819Y-172515155I837345J-751317D01*
G01*
X411158819Y-172515155D01*
G75*
G02*
X411244847Y-174103817I-751317J-837345D01*
G01*
X409934845Y-175563817D01*
G75*
G02*
X408346183Y-175649845I-837345J751317D01*
G01*
G37*
D10*
X415447500Y-172272500D03*
G36*
G01*
X415330983Y-173974895D02*
X415330097Y-173974834D01*
G75*
G02*
X414285166Y-172775097I77403J1122334D01*
G01*
X414325166Y-172195097D01*
G75*
G02*
X415524903Y-171150166I1122334J-77403D01*
G01*
X415524903Y-171150166D01*
G75*
G02*
X416569834Y-172349903I-77403J-1122334D01*
G01*
X416529834Y-172929903D01*
G75*
G02*
X415330097Y-173974834I-1122334J77403D01*
G01*
G37*
G36*
G01*
X200885104Y-218902964D02*
X200884250Y-218902720D01*
G75*
G02*
X200111593Y-217511947I309058J1081715D01*
G01*
X200271307Y-216952937D01*
G75*
G02*
X201662080Y-216180280I1081715J-309058D01*
G01*
X201662080Y-216180280D01*
G75*
G02*
X202434737Y-217571053I-309058J-1081715D01*
G01*
X202275023Y-218130063D01*
G75*
G02*
X200884250Y-218902720I-1081715J309058D01*
G01*
G37*
X201353022Y-217261996D03*
G36*
G01*
X193704700Y-219089098D02*
X193704696Y-219089092D01*
G75*
G02*
X193950849Y-217517259I908993J662840D01*
G01*
X195535775Y-216361529D01*
G75*
G02*
X197107608Y-216607682I662840J-908993D01*
G01*
X197107608Y-216607682D01*
G75*
G02*
X196861455Y-218179515I-908993J-662840D01*
G01*
X195276529Y-219335245D01*
G75*
G02*
X193704696Y-219089092I-662840J908993D01*
G01*
G37*
D11*
X197812336Y-221702890D03*
D10*
X196198614Y-217270520D03*
D12*
X192843346Y-220646699D03*
X202781326Y-222759081D03*
X375125000Y-177352500D03*
X364965000Y-177352500D03*
D10*
X367545000Y-173352500D03*
D11*
X370045000Y-177352500D03*
G36*
G01*
X365483688Y-175649850D02*
X365483683Y-175649845D01*
G75*
G02*
X365397655Y-174061183I751317J837345D01*
G01*
X366707657Y-172601183D01*
G75*
G02*
X368296319Y-172515155I837345J-751317D01*
G01*
X368296319Y-172515155D01*
G75*
G02*
X368382347Y-174103817I-751317J-837345D01*
G01*
X367072345Y-175563817D01*
G75*
G02*
X365483683Y-175649845I-837345J751317D01*
G01*
G37*
D10*
X372585000Y-172272500D03*
G36*
G01*
X372468483Y-173974895D02*
X372467597Y-173974834D01*
G75*
G02*
X371422666Y-172775097I77403J1122334D01*
G01*
X371462666Y-172195097D01*
G75*
G02*
X372662403Y-171150166I1122334J-77403D01*
G01*
X372662403Y-171150166D01*
G75*
G02*
X373707334Y-172349903I-77403J-1122334D01*
G01*
X373667334Y-172929903D01*
G75*
G02*
X372467597Y-173974834I-1122334J77403D01*
G01*
G37*
D12*
X337595915Y-217402768D03*
X327657935Y-219515150D03*
D10*
X329349909Y-215066148D03*
D11*
X332626925Y-218458959D03*
G36*
G01*
X327811288Y-217741867D02*
X327811281Y-217741863D01*
G75*
G02*
X327396832Y-216205802I560806J975255D01*
G01*
X328374656Y-214505342D01*
G75*
G02*
X329910717Y-214090893I975255J-560806D01*
G01*
X329910717Y-214090893D01*
G75*
G02*
X330325166Y-215626954I-560806J-975255D01*
G01*
X329347342Y-217327414D01*
G75*
G02*
X327811281Y-217741863I-975255J560806D01*
G01*
G37*
D10*
X334055229Y-212961873D03*
G36*
G01*
X334295205Y-214651293D02*
X334294326Y-214651417D01*
G75*
G02*
X333022790Y-213695151I-157635J1113901D01*
G01*
X332941328Y-213119509D01*
G75*
G02*
X333897594Y-211847973I1113901J157635D01*
G01*
X333897594Y-211847973D01*
G75*
G02*
X335169130Y-212804239I157635J-1113901D01*
G01*
X335250592Y-213379881D01*
G75*
G02*
X334294326Y-214651417I-1113901J-157635D01*
G01*
G37*
G36*
G01*
X386755983Y-231124895D02*
X386755097Y-231124834D01*
G75*
G02*
X385710166Y-229925097I77403J1122334D01*
G01*
X385750166Y-229345097D01*
G75*
G02*
X386949903Y-228300166I1122334J-77403D01*
G01*
X386949903Y-228300166D01*
G75*
G02*
X387994834Y-229499903I-77403J-1122334D01*
G01*
X387954834Y-230079903D01*
G75*
G02*
X386755097Y-231124834I-1122334J77403D01*
G01*
G37*
X386872500Y-229422500D03*
G36*
G01*
X379771188Y-232799850D02*
X379771183Y-232799845D01*
G75*
G02*
X379685155Y-231211183I751317J837345D01*
G01*
X380995157Y-229751183D01*
G75*
G02*
X382583819Y-229665155I837345J-751317D01*
G01*
X382583819Y-229665155D01*
G75*
G02*
X382669847Y-231253817I-751317J-837345D01*
G01*
X381359845Y-232713817D01*
G75*
G02*
X379771183Y-232799845I-837345J751317D01*
G01*
G37*
D11*
X384332500Y-234502500D03*
D10*
X381832500Y-230502500D03*
D12*
X379252500Y-234502500D03*
X389412500Y-234502500D03*
X123665000Y-234502500D03*
X113505000Y-234502500D03*
D10*
X116085000Y-230502500D03*
D11*
X118585000Y-234502500D03*
G36*
G01*
X114023688Y-232799850D02*
X114023683Y-232799845D01*
G75*
G02*
X113937655Y-231211183I751317J837345D01*
G01*
X115247657Y-229751183D01*
G75*
G02*
X116836319Y-229665155I837345J-751317D01*
G01*
X116836319Y-229665155D01*
G75*
G02*
X116922347Y-231253817I-751317J-837345D01*
G01*
X115612345Y-232713817D01*
G75*
G02*
X114023683Y-232799845I-837345J751317D01*
G01*
G37*
D10*
X121125000Y-229422500D03*
G36*
G01*
X121008483Y-231124895D02*
X121007597Y-231124834D01*
G75*
G02*
X119962666Y-229925097I77403J1122334D01*
G01*
X120002666Y-229345097D01*
G75*
G02*
X121202403Y-228300166I1122334J-77403D01*
G01*
X121202403Y-228300166D01*
G75*
G02*
X122247334Y-229499903I-77403J-1122334D01*
G01*
X122207334Y-230079903D01*
G75*
G02*
X121007597Y-231124834I-1122334J77403D01*
G01*
G37*
G36*
G01*
X195528966Y-198288893D02*
X195528112Y-198288649D01*
G75*
G02*
X194755455Y-196897876I309058J1081715D01*
G01*
X194915169Y-196338866D01*
G75*
G02*
X196305942Y-195566209I1081715J-309058D01*
G01*
X196305942Y-195566209D01*
G75*
G02*
X197078599Y-196956982I-309058J-1081715D01*
G01*
X196918885Y-197515992D01*
G75*
G02*
X195528112Y-198288649I-1081715J309058D01*
G01*
G37*
X195996884Y-196647925D03*
G36*
G01*
X188348562Y-198475027D02*
X188348558Y-198475021D01*
G75*
G02*
X188594711Y-196903188I908993J662840D01*
G01*
X190179637Y-195747458D01*
G75*
G02*
X191751470Y-195993611I662840J-908993D01*
G01*
X191751470Y-195993611D01*
G75*
G02*
X191505317Y-197565444I-908993J-662840D01*
G01*
X189920391Y-198721174D01*
G75*
G02*
X188348558Y-198475021I-662840J908993D01*
G01*
G37*
D11*
X192456198Y-201088819D03*
D10*
X190842476Y-196656449D03*
D12*
X187487208Y-200032628D03*
X197425188Y-202145010D03*
G36*
G01*
X448668483Y-188262395D02*
X448667597Y-188262334D01*
G75*
G02*
X447622666Y-187062597I77403J1122334D01*
G01*
X447662666Y-186482597D01*
G75*
G02*
X448862403Y-185437666I1122334J-77403D01*
G01*
X448862403Y-185437666D01*
G75*
G02*
X449907334Y-186637403I-77403J-1122334D01*
G01*
X449867334Y-187217403D01*
G75*
G02*
X448667597Y-188262334I-1122334J77403D01*
G01*
G37*
D10*
X448785000Y-186560000D03*
G36*
G01*
X441683688Y-189937350D02*
X441683683Y-189937345D01*
G75*
G02*
X441597655Y-188348683I751317J837345D01*
G01*
X442907657Y-186888683D01*
G75*
G02*
X444496319Y-186802655I837345J-751317D01*
G01*
X444496319Y-186802655D01*
G75*
G02*
X444582347Y-188391317I-751317J-837345D01*
G01*
X443272345Y-189851317D01*
G75*
G02*
X441683683Y-189937345I-837345J751317D01*
G01*
G37*
D11*
X446245000Y-191640000D03*
D10*
X443745000Y-187640000D03*
D12*
X441165000Y-191640000D03*
X451325000Y-191640000D03*
X360837500Y-215452500D03*
X350677500Y-215452500D03*
D10*
X353257500Y-211452500D03*
D11*
X355757500Y-215452500D03*
G36*
G01*
X351196188Y-213749850D02*
X351196183Y-213749845D01*
G75*
G02*
X351110155Y-212161183I751317J837345D01*
G01*
X352420157Y-210701183D01*
G75*
G02*
X354008819Y-210615155I837345J-751317D01*
G01*
X354008819Y-210615155D01*
G75*
G02*
X354094847Y-212203817I-751317J-837345D01*
G01*
X352784845Y-213663817D01*
G75*
G02*
X351196183Y-213749845I-837345J751317D01*
G01*
G37*
D10*
X358297500Y-210372500D03*
G36*
G01*
X358180983Y-212074895D02*
X358180097Y-212074834D01*
G75*
G02*
X357135166Y-210875097I77403J1122334D01*
G01*
X357175166Y-210295097D01*
G75*
G02*
X358374903Y-209250166I1122334J-77403D01*
G01*
X358374903Y-209250166D01*
G75*
G02*
X359419834Y-210449903I-77403J-1122334D01*
G01*
X359379834Y-211029903D01*
G75*
G02*
X358180097Y-212074834I-1122334J77403D01*
G01*
G37*
G36*
G01*
X434380983Y-235887395D02*
X434380097Y-235887334D01*
G75*
G02*
X433335166Y-234687597I77403J1122334D01*
G01*
X433375166Y-234107597D01*
G75*
G02*
X434574903Y-233062666I1122334J-77403D01*
G01*
X434574903Y-233062666D01*
G75*
G02*
X435619834Y-234262403I-77403J-1122334D01*
G01*
X435579834Y-234842403D01*
G75*
G02*
X434380097Y-235887334I-1122334J77403D01*
G01*
G37*
X434497500Y-234185000D03*
G36*
G01*
X427396188Y-237562350D02*
X427396183Y-237562345D01*
G75*
G02*
X427310155Y-235973683I751317J837345D01*
G01*
X428620157Y-234513683D01*
G75*
G02*
X430208819Y-234427655I837345J-751317D01*
G01*
X430208819Y-234427655D01*
G75*
G02*
X430294847Y-236016317I-751317J-837345D01*
G01*
X428984845Y-237476317D01*
G75*
G02*
X427396183Y-237562345I-837345J751317D01*
G01*
G37*
D11*
X431957500Y-239265000D03*
D10*
X429457500Y-235265000D03*
D12*
X426877500Y-239265000D03*
X437037500Y-239265000D03*
X196727478Y-182521119D03*
X186789498Y-180408737D03*
D10*
X190144766Y-177032558D03*
D11*
X191758488Y-181464928D03*
G36*
G01*
X187650852Y-178851136D02*
X187650848Y-178851130D01*
G75*
G02*
X187897001Y-177279297I908993J662840D01*
G01*
X189481927Y-176123567D01*
G75*
G02*
X191053760Y-176369720I662840J-908993D01*
G01*
X191053760Y-176369720D01*
G75*
G02*
X190807607Y-177941553I-908993J-662840D01*
G01*
X189222681Y-179097283D01*
G75*
G02*
X187650848Y-178851130I-662840J908993D01*
G01*
G37*
D10*
X195299174Y-177024034D03*
G36*
G01*
X194831256Y-178665002D02*
X194830402Y-178664758D01*
G75*
G02*
X194057745Y-177273985I309058J1081715D01*
G01*
X194217459Y-176714975D01*
G75*
G02*
X195608232Y-175942318I1081715J-309058D01*
G01*
X195608232Y-175942318D01*
G75*
G02*
X196380889Y-177333091I-309058J-1081715D01*
G01*
X196221175Y-177892101D01*
G75*
G02*
X194830402Y-178664758I-1081715J309058D01*
G01*
G37*
G36*
G01*
X412949733Y-193024895D02*
X412948847Y-193024834D01*
G75*
G02*
X411903916Y-191825097I77403J1122334D01*
G01*
X411943916Y-191245097D01*
G75*
G02*
X413143653Y-190200166I1122334J-77403D01*
G01*
X413143653Y-190200166D01*
G75*
G02*
X414188584Y-191399903I-77403J-1122334D01*
G01*
X414148584Y-191979903D01*
G75*
G02*
X412948847Y-193024834I-1122334J77403D01*
G01*
G37*
X413066250Y-191322500D03*
G36*
G01*
X405964938Y-194699850D02*
X405964933Y-194699845D01*
G75*
G02*
X405878905Y-193111183I751317J837345D01*
G01*
X407188907Y-191651183D01*
G75*
G02*
X408777569Y-191565155I837345J-751317D01*
G01*
X408777569Y-191565155D01*
G75*
G02*
X408863597Y-193153817I-751317J-837345D01*
G01*
X407553595Y-194613817D01*
G75*
G02*
X405964933Y-194699845I-837345J751317D01*
G01*
G37*
D11*
X410526250Y-196402500D03*
D10*
X408026250Y-192402500D03*
D12*
X405446250Y-196402500D03*
X415606250Y-196402500D03*
D16*
X398588250Y-189417500D03*
X422464250Y-189417500D03*
D11*
X398588250Y-204657500D03*
X422464250Y-204657500D03*
D12*
X379887500Y-158302500D03*
X369727500Y-158302500D03*
D10*
X372307500Y-154302500D03*
D11*
X374807500Y-158302500D03*
G36*
G01*
X370246188Y-156599850D02*
X370246183Y-156599845D01*
G75*
G02*
X370160155Y-155011183I751317J837345D01*
G01*
X371470157Y-153551183D01*
G75*
G02*
X373058819Y-153465155I837345J-751317D01*
G01*
X373058819Y-153465155D01*
G75*
G02*
X373144847Y-155053817I-751317J-837345D01*
G01*
X371834845Y-156513817D01*
G75*
G02*
X370246183Y-156599845I-837345J751317D01*
G01*
G37*
D10*
X377347500Y-153222500D03*
G36*
G01*
X377230983Y-154924895D02*
X377230097Y-154924834D01*
G75*
G02*
X376185166Y-153725097I77403J1122334D01*
G01*
X376225166Y-153145097D01*
G75*
G02*
X377424903Y-152100166I1122334J-77403D01*
G01*
X377424903Y-152100166D01*
G75*
G02*
X378469834Y-153299903I-77403J-1122334D01*
G01*
X378429834Y-153879903D01*
G75*
G02*
X377230097Y-154924834I-1122334J77403D01*
G01*
G37*
D12*
X133190000Y-158302500D03*
X123030000Y-158302500D03*
D10*
X125610000Y-154302500D03*
D11*
X128110000Y-158302500D03*
G36*
G01*
X123548688Y-156599850D02*
X123548683Y-156599845D01*
G75*
G02*
X123462655Y-155011183I751317J837345D01*
G01*
X124772657Y-153551183D01*
G75*
G02*
X126361319Y-153465155I837345J-751317D01*
G01*
X126361319Y-153465155D01*
G75*
G02*
X126447347Y-155053817I-751317J-837345D01*
G01*
X125137345Y-156513817D01*
G75*
G02*
X123548683Y-156599845I-837345J751317D01*
G01*
G37*
D10*
X130650000Y-153222500D03*
G36*
G01*
X130533483Y-154924895D02*
X130532597Y-154924834D01*
G75*
G02*
X129487666Y-153725097I77403J1122334D01*
G01*
X129527666Y-153145097D01*
G75*
G02*
X130727403Y-152100166I1122334J-77403D01*
G01*
X130727403Y-152100166D01*
G75*
G02*
X131772334Y-153299903I-77403J-1122334D01*
G01*
X131732334Y-153879903D01*
G75*
G02*
X130532597Y-154924834I-1122334J77403D01*
G01*
G37*
D12*
X216058900Y-206105728D03*
X206120920Y-203993346D03*
D10*
X209476188Y-200617167D03*
D11*
X211089910Y-205049537D03*
G36*
G01*
X206982274Y-202435745D02*
X206982270Y-202435739D01*
G75*
G02*
X207228423Y-200863906I908993J662840D01*
G01*
X208813349Y-199708176D01*
G75*
G02*
X210385182Y-199954329I662840J-908993D01*
G01*
X210385182Y-199954329D01*
G75*
G02*
X210139029Y-201526162I-908993J-662840D01*
G01*
X208554103Y-202681892D01*
G75*
G02*
X206982270Y-202435739I-662840J908993D01*
G01*
G37*
D10*
X214630596Y-200608643D03*
G36*
G01*
X214162678Y-202249611D02*
X214161824Y-202249367D01*
G75*
G02*
X213389167Y-200858594I309058J1081715D01*
G01*
X213548881Y-200299584D01*
G75*
G02*
X214939654Y-199526927I1081715J-309058D01*
G01*
X214939654Y-199526927D01*
G75*
G02*
X215712311Y-200917700I-309058J-1081715D01*
G01*
X215552597Y-201476710D01*
G75*
G02*
X214161824Y-202249367I-1081715J309058D01*
G01*
G37*
D12*
X245404887Y-251294587D03*
X235466907Y-249182205D03*
D10*
X238822175Y-245806026D03*
D11*
X240435897Y-250238396D03*
G36*
G01*
X236328261Y-247624604D02*
X236328257Y-247624598D01*
G75*
G02*
X236574410Y-246052765I908993J662840D01*
G01*
X238159336Y-244897035D01*
G75*
G02*
X239731169Y-245143188I662840J-908993D01*
G01*
X239731169Y-245143188D01*
G75*
G02*
X239485016Y-246715021I-908993J-662840D01*
G01*
X237900090Y-247870751D01*
G75*
G02*
X236328257Y-247624598I-662840J908993D01*
G01*
G37*
D10*
X243976583Y-245797502D03*
G36*
G01*
X243508665Y-247438470D02*
X243507811Y-247438226D01*
G75*
G02*
X242735154Y-246047453I309058J1081715D01*
G01*
X242894868Y-245488443D01*
G75*
G02*
X244285641Y-244715786I1081715J-309058D01*
G01*
X244285641Y-244715786D01*
G75*
G02*
X245058298Y-246106559I-309058J-1081715D01*
G01*
X244898584Y-246665569D01*
G75*
G02*
X243507811Y-247438226I-1081715J309058D01*
G01*
G37*
G36*
G01*
X232796389Y-206210328D02*
X232795535Y-206210084D01*
G75*
G02*
X232022878Y-204819311I309058J1081715D01*
G01*
X232182592Y-204260301D01*
G75*
G02*
X233573365Y-203487644I1081715J-309058D01*
G01*
X233573365Y-203487644D01*
G75*
G02*
X234346022Y-204878417I-309058J-1081715D01*
G01*
X234186308Y-205437427D01*
G75*
G02*
X232795535Y-206210084I-1081715J309058D01*
G01*
G37*
X233264307Y-204569360D03*
G36*
G01*
X225615985Y-206396462D02*
X225615981Y-206396456D01*
G75*
G02*
X225862134Y-204824623I908993J662840D01*
G01*
X227447060Y-203668893D01*
G75*
G02*
X229018893Y-203915046I662840J-908993D01*
G01*
X229018893Y-203915046D01*
G75*
G02*
X228772740Y-205486879I-908993J-662840D01*
G01*
X227187814Y-206642609D01*
G75*
G02*
X225615981Y-206396456I-662840J908993D01*
G01*
G37*
D11*
X229723621Y-209010254D03*
D10*
X228109899Y-204577884D03*
D12*
X224754631Y-207954063D03*
X234692611Y-210066445D03*
X287050917Y-208670850D03*
X277112937Y-210783232D03*
D10*
X278804911Y-206334230D03*
D11*
X282081927Y-209727041D03*
G36*
G01*
X277266290Y-209009949D02*
X277266283Y-209009945D01*
G75*
G02*
X276851834Y-207473884I560806J975255D01*
G01*
X277829658Y-205773424D01*
G75*
G02*
X279365719Y-205358975I975255J-560806D01*
G01*
X279365719Y-205358975D01*
G75*
G02*
X279780168Y-206895036I-560806J-975255D01*
G01*
X278802344Y-208595496D01*
G75*
G02*
X277266283Y-209009945I-975255J560806D01*
G01*
G37*
D10*
X283510231Y-204229955D03*
G36*
G01*
X283750207Y-205919375D02*
X283749328Y-205919499D01*
G75*
G02*
X282477792Y-204963233I-157635J1113901D01*
G01*
X282396330Y-204387591D01*
G75*
G02*
X283352596Y-203116055I1113901J157635D01*
G01*
X283352596Y-203116055D01*
G75*
G02*
X284624132Y-204072321I157635J-1113901D01*
G01*
X284705594Y-204647963D01*
G75*
G02*
X283749328Y-205919499I-1113901J-157635D01*
G01*
G37*
G36*
G01*
X312398485Y-180354407D02*
X312397606Y-180354531D01*
G75*
G02*
X311126070Y-179398265I-157635J1113901D01*
G01*
X311044608Y-178822623D01*
G75*
G02*
X312000874Y-177551087I1113901J157635D01*
G01*
X312000874Y-177551087D01*
G75*
G02*
X313272410Y-178507353I157635J-1113901D01*
G01*
X313353872Y-179082995D01*
G75*
G02*
X312397606Y-180354531I-1113901J-157635D01*
G01*
G37*
X312158509Y-178664987D03*
G36*
G01*
X305914568Y-183444981D02*
X305914561Y-183444977D01*
G75*
G02*
X305500112Y-181908916I560806J975255D01*
G01*
X306477936Y-180208456D01*
G75*
G02*
X308013997Y-179794007I975255J-560806D01*
G01*
X308013997Y-179794007D01*
G75*
G02*
X308428446Y-181330068I-560806J-975255D01*
G01*
X307450622Y-183030528D01*
G75*
G02*
X305914561Y-183444977I-975255J560806D01*
G01*
G37*
D11*
X310730205Y-184162073D03*
D10*
X307453189Y-180769262D03*
D12*
X305761215Y-185218264D03*
X315699195Y-183105882D03*
G36*
G01*
X302383919Y-201958657D02*
X302383040Y-201958781D01*
G75*
G02*
X301111504Y-201002515I-157635J1113901D01*
G01*
X301030042Y-200426873D01*
G75*
G02*
X301986308Y-199155337I1113901J157635D01*
G01*
X301986308Y-199155337D01*
G75*
G02*
X303257844Y-200111603I157635J-1113901D01*
G01*
X303339306Y-200687245D01*
G75*
G02*
X302383040Y-201958781I-1113901J-157635D01*
G01*
G37*
D10*
X302143943Y-200269237D03*
G36*
G01*
X295900002Y-205049231D02*
X295899995Y-205049227D01*
G75*
G02*
X295485546Y-203513166I560806J975255D01*
G01*
X296463370Y-201812706D01*
G75*
G02*
X297999431Y-201398257I975255J-560806D01*
G01*
X297999431Y-201398257D01*
G75*
G02*
X298413880Y-202934318I-560806J-975255D01*
G01*
X297436056Y-204634778D01*
G75*
G02*
X295899995Y-205049227I-975255J560806D01*
G01*
G37*
D11*
X300715639Y-205766323D03*
D10*
X297438623Y-202373512D03*
D12*
X295746649Y-206822514D03*
X305684629Y-204710132D03*
X324318341Y-200749414D03*
X314380361Y-202861796D03*
D10*
X316072335Y-198412794D03*
D11*
X319349351Y-201805605D03*
G36*
G01*
X314533714Y-201088513D02*
X314533707Y-201088509D01*
G75*
G02*
X314119258Y-199552448I560806J975255D01*
G01*
X315097082Y-197851988D01*
G75*
G02*
X316633143Y-197437539I975255J-560806D01*
G01*
X316633143Y-197437539D01*
G75*
G02*
X317047592Y-198973600I-560806J-975255D01*
G01*
X316069768Y-200674060D01*
G75*
G02*
X314533707Y-201088509I-975255J560806D01*
G01*
G37*
D10*
X320777655Y-196308519D03*
G36*
G01*
X321017631Y-197997939D02*
X321016752Y-197998063D01*
G75*
G02*
X319745216Y-197041797I-157635J1113901D01*
G01*
X319663754Y-196466155D01*
G75*
G02*
X320620020Y-195194619I1113901J157635D01*
G01*
X320620020Y-195194619D01*
G75*
G02*
X321891556Y-196150885I157635J-1113901D01*
G01*
X321973018Y-196726527D01*
G75*
G02*
X321016752Y-197998063I-1113901J-157635D01*
G01*
G37*
G36*
G01*
X339651343Y-194037221D02*
X339650464Y-194037345D01*
G75*
G02*
X338378928Y-193081079I-157635J1113901D01*
G01*
X338297466Y-192505437D01*
G75*
G02*
X339253732Y-191233901I1113901J157635D01*
G01*
X339253732Y-191233901D01*
G75*
G02*
X340525268Y-192190167I157635J-1113901D01*
G01*
X340606730Y-192765809D01*
G75*
G02*
X339650464Y-194037345I-1113901J-157635D01*
G01*
G37*
X339411367Y-192347801D03*
G36*
G01*
X333167426Y-197127795D02*
X333167419Y-197127791D01*
G75*
G02*
X332752970Y-195591730I560806J975255D01*
G01*
X333730794Y-193891270D01*
G75*
G02*
X335266855Y-193476821I975255J-560806D01*
G01*
X335266855Y-193476821D01*
G75*
G02*
X335681304Y-195012882I-560806J-975255D01*
G01*
X334703480Y-196713342D01*
G75*
G02*
X333167419Y-197127791I-975255J560806D01*
G01*
G37*
D11*
X337983063Y-197844887D03*
D10*
X334706047Y-194452076D03*
D12*
X333014073Y-198901078D03*
X342952053Y-196788696D03*
X417987500Y-239265000D03*
X407827500Y-239265000D03*
D10*
X410407500Y-235265000D03*
D11*
X412907500Y-239265000D03*
G36*
G01*
X408346188Y-237562350D02*
X408346183Y-237562345D01*
G75*
G02*
X408260155Y-235973683I751317J837345D01*
G01*
X409570157Y-234513683D01*
G75*
G02*
X411158819Y-234427655I837345J-751317D01*
G01*
X411158819Y-234427655D01*
G75*
G02*
X411244847Y-236016317I-751317J-837345D01*
G01*
X409934845Y-237476317D01*
G75*
G02*
X408346183Y-237562345I-837345J751317D01*
G01*
G37*
D10*
X415447500Y-234185000D03*
G36*
G01*
X415330983Y-235887395D02*
X415330097Y-235887334D01*
G75*
G02*
X414285166Y-234687597I77403J1122334D01*
G01*
X414325166Y-234107597D01*
G75*
G02*
X415524903Y-233062666I1122334J-77403D01*
G01*
X415524903Y-233062666D01*
G75*
G02*
X416569834Y-234262403I-77403J-1122334D01*
G01*
X416529834Y-234842403D01*
G75*
G02*
X415330097Y-235887334I-1122334J77403D01*
G01*
G37*
D12*
X318962203Y-221363486D03*
X309024223Y-223475868D03*
D10*
X310716197Y-219026866D03*
D11*
X313993213Y-222419677D03*
G36*
G01*
X309177576Y-221702585D02*
X309177569Y-221702581D01*
G75*
G02*
X308763120Y-220166520I560806J975255D01*
G01*
X309740944Y-218466060D01*
G75*
G02*
X311277005Y-218051611I975255J-560806D01*
G01*
X311277005Y-218051611D01*
G75*
G02*
X311691454Y-219587672I-560806J-975255D01*
G01*
X310713630Y-221288132D01*
G75*
G02*
X309177569Y-221702581I-975255J560806D01*
G01*
G37*
D10*
X315421517Y-216922591D03*
G36*
G01*
X315661493Y-218612011D02*
X315660614Y-218612135D01*
G75*
G02*
X314389078Y-217655869I-157635J1113901D01*
G01*
X314307616Y-217080227D01*
G75*
G02*
X315263882Y-215808691I1113901J157635D01*
G01*
X315263882Y-215808691D01*
G75*
G02*
X316535418Y-216764957I157635J-1113901D01*
G01*
X316616880Y-217340599D01*
G75*
G02*
X315660614Y-218612135I-1113901J-157635D01*
G01*
G37*
G36*
G01*
X358180983Y-154924895D02*
X358180097Y-154924834D01*
G75*
G02*
X357135166Y-153725097I77403J1122334D01*
G01*
X357175166Y-153145097D01*
G75*
G02*
X358374903Y-152100166I1122334J-77403D01*
G01*
X358374903Y-152100166D01*
G75*
G02*
X359419834Y-153299903I-77403J-1122334D01*
G01*
X359379834Y-153879903D01*
G75*
G02*
X358180097Y-154924834I-1122334J77403D01*
G01*
G37*
X358297500Y-153222500D03*
G36*
G01*
X351196188Y-156599850D02*
X351196183Y-156599845D01*
G75*
G02*
X351110155Y-155011183I751317J837345D01*
G01*
X352420157Y-153551183D01*
G75*
G02*
X354008819Y-153465155I837345J-751317D01*
G01*
X354008819Y-153465155D01*
G75*
G02*
X354094847Y-155053817I-751317J-837345D01*
G01*
X352784845Y-156513817D01*
G75*
G02*
X351196183Y-156599845I-837345J751317D01*
G01*
G37*
D11*
X355757500Y-158302500D03*
D10*
X353257500Y-154302500D03*
D12*
X350677500Y-158302500D03*
X360837500Y-158302500D03*
X300328491Y-225324202D03*
X290390511Y-227436584D03*
D10*
X292082485Y-222987582D03*
D11*
X295359501Y-226380393D03*
G36*
G01*
X290543864Y-225663301D02*
X290543857Y-225663297D01*
G75*
G02*
X290129408Y-224127236I560806J975255D01*
G01*
X291107232Y-222426776D01*
G75*
G02*
X292643293Y-222012327I975255J-560806D01*
G01*
X292643293Y-222012327D01*
G75*
G02*
X293057742Y-223548388I-560806J-975255D01*
G01*
X292079918Y-225248848D01*
G75*
G02*
X290543857Y-225663297I-975255J560806D01*
G01*
G37*
D10*
X296787805Y-220883307D03*
G36*
G01*
X297027781Y-222572727D02*
X297026902Y-222572851D01*
G75*
G02*
X295755366Y-221616585I-157635J1113901D01*
G01*
X295673904Y-221040943D01*
G75*
G02*
X296630170Y-219769407I1113901J157635D01*
G01*
X296630170Y-219769407D01*
G75*
G02*
X297901706Y-220725673I157635J-1113901D01*
G01*
X297983168Y-221301315D01*
G75*
G02*
X297026902Y-222572851I-1113901J-157635D01*
G01*
G37*
D12*
X334332907Y-179145164D03*
X324394927Y-181257546D03*
D10*
X326086901Y-176808544D03*
D11*
X329363917Y-180201355D03*
G36*
G01*
X324548280Y-179484263D02*
X324548273Y-179484259D01*
G75*
G02*
X324133824Y-177948198I560806J975255D01*
G01*
X325111648Y-176247738D01*
G75*
G02*
X326647709Y-175833289I975255J-560806D01*
G01*
X326647709Y-175833289D01*
G75*
G02*
X327062158Y-177369350I-560806J-975255D01*
G01*
X326084334Y-179069810D01*
G75*
G02*
X324548273Y-179484259I-975255J560806D01*
G01*
G37*
D10*
X330792221Y-174704269D03*
G36*
G01*
X331032197Y-176393689D02*
X331031318Y-176393813D01*
G75*
G02*
X329759782Y-175437547I-157635J1113901D01*
G01*
X329678320Y-174861905D01*
G75*
G02*
X330634586Y-173590369I1113901J157635D01*
G01*
X330634586Y-173590369D01*
G75*
G02*
X331906122Y-174546635I157635J-1113901D01*
G01*
X331987584Y-175122277D01*
G75*
G02*
X331031318Y-176393813I-1113901J-157635D01*
G01*
G37*
G36*
G01*
X391518483Y-173974895D02*
X391517597Y-173974834D01*
G75*
G02*
X390472666Y-172775097I77403J1122334D01*
G01*
X390512666Y-172195097D01*
G75*
G02*
X391712403Y-171150166I1122334J-77403D01*
G01*
X391712403Y-171150166D01*
G75*
G02*
X392757334Y-172349903I-77403J-1122334D01*
G01*
X392717334Y-172929903D01*
G75*
G02*
X391517597Y-173974834I-1122334J77403D01*
G01*
G37*
X391635000Y-172272500D03*
G36*
G01*
X384533688Y-175649850D02*
X384533683Y-175649845D01*
G75*
G02*
X384447655Y-174061183I751317J837345D01*
G01*
X385757657Y-172601183D01*
G75*
G02*
X387346319Y-172515155I837345J-751317D01*
G01*
X387346319Y-172515155D01*
G75*
G02*
X387432347Y-174103817I-751317J-837345D01*
G01*
X386122345Y-175563817D01*
G75*
G02*
X384533683Y-175649845I-837345J751317D01*
G01*
G37*
D11*
X389095000Y-177352500D03*
D10*
X386595000Y-173352500D03*
D12*
X384015000Y-177352500D03*
X394175000Y-177352500D03*
G36*
G01*
X353418483Y-173974895D02*
X353417597Y-173974834D01*
G75*
G02*
X352372666Y-172775097I77403J1122334D01*
G01*
X352412666Y-172195097D01*
G75*
G02*
X353612403Y-171150166I1122334J-77403D01*
G01*
X353612403Y-171150166D01*
G75*
G02*
X354657334Y-172349903I-77403J-1122334D01*
G01*
X354617334Y-172929903D01*
G75*
G02*
X353417597Y-173974834I-1122334J77403D01*
G01*
G37*
D10*
X353535000Y-172272500D03*
G36*
G01*
X346433688Y-175649850D02*
X346433683Y-175649845D01*
G75*
G02*
X346347655Y-174061183I751317J837345D01*
G01*
X347657657Y-172601183D01*
G75*
G02*
X349246319Y-172515155I837345J-751317D01*
G01*
X349246319Y-172515155D01*
G75*
G02*
X349332347Y-174103817I-751317J-837345D01*
G01*
X348022345Y-175563817D01*
G75*
G02*
X346433683Y-175649845I-837345J751317D01*
G01*
G37*
D11*
X350995000Y-177352500D03*
D10*
X348495000Y-173352500D03*
D12*
X345915000Y-177352500D03*
X356075000Y-177352500D03*
X446562500Y-172590000D03*
X436402500Y-172590000D03*
D10*
X438982500Y-168590000D03*
D11*
X441482500Y-172590000D03*
G36*
G01*
X436921188Y-170887350D02*
X436921183Y-170887345D01*
G75*
G02*
X436835155Y-169298683I751317J837345D01*
G01*
X438145157Y-167838683D01*
G75*
G02*
X439733819Y-167752655I837345J-751317D01*
G01*
X439733819Y-167752655D01*
G75*
G02*
X439819847Y-169341317I-751317J-837345D01*
G01*
X438509845Y-170801317D01*
G75*
G02*
X436921183Y-170887345I-837345J751317D01*
G01*
G37*
D10*
X444022500Y-167510000D03*
G36*
G01*
X443905983Y-169212395D02*
X443905097Y-169212334D01*
G75*
G02*
X442860166Y-168012597I77403J1122334D01*
G01*
X442900166Y-167432597D01*
G75*
G02*
X444099903Y-166387666I1122334J-77403D01*
G01*
X444099903Y-166387666D01*
G75*
G02*
X445144834Y-167587403I-77403J-1122334D01*
G01*
X445104834Y-168167403D01*
G75*
G02*
X443905097Y-169212334I-1122334J77403D01*
G01*
G37*
D12*
X157002500Y-177352500D03*
X146842500Y-177352500D03*
D10*
X149422500Y-173352500D03*
D11*
X151922500Y-177352500D03*
G36*
G01*
X147361188Y-175649850D02*
X147361183Y-175649845D01*
G75*
G02*
X147275155Y-174061183I751317J837345D01*
G01*
X148585157Y-172601183D01*
G75*
G02*
X150173819Y-172515155I837345J-751317D01*
G01*
X150173819Y-172515155D01*
G75*
G02*
X150259847Y-174103817I-751317J-837345D01*
G01*
X148949845Y-175563817D01*
G75*
G02*
X147361183Y-175649845I-837345J751317D01*
G01*
G37*
D10*
X154462500Y-172272500D03*
G36*
G01*
X154345983Y-173974895D02*
X154345097Y-173974834D01*
G75*
G02*
X153300166Y-172775097I77403J1122334D01*
G01*
X153340166Y-172195097D01*
G75*
G02*
X154539903Y-171150166I1122334J-77403D01*
G01*
X154539903Y-171150166D01*
G75*
G02*
X155584834Y-172349903I-77403J-1122334D01*
G01*
X155544834Y-172929903D01*
G75*
G02*
X154345097Y-173974834I-1122334J77403D01*
G01*
G37*
D12*
X384650000Y-196402500D03*
X374490000Y-196402500D03*
D10*
X377070000Y-192402500D03*
D11*
X379570000Y-196402500D03*
G36*
G01*
X375008688Y-194699850D02*
X375008683Y-194699845D01*
G75*
G02*
X374922655Y-193111183I751317J837345D01*
G01*
X376232657Y-191651183D01*
G75*
G02*
X377821319Y-191565155I837345J-751317D01*
G01*
X377821319Y-191565155D01*
G75*
G02*
X377907347Y-193153817I-751317J-837345D01*
G01*
X376597345Y-194613817D01*
G75*
G02*
X375008683Y-194699845I-837345J751317D01*
G01*
G37*
D10*
X382110000Y-191322500D03*
G36*
G01*
X381993483Y-193024895D02*
X381992597Y-193024834D01*
G75*
G02*
X380947666Y-191825097I77403J1122334D01*
G01*
X380987666Y-191245097D01*
G75*
G02*
X382187403Y-190200166I1122334J-77403D01*
G01*
X382187403Y-190200166D01*
G75*
G02*
X383232334Y-191399903I-77403J-1122334D01*
G01*
X383192334Y-191979903D01*
G75*
G02*
X381992597Y-193024834I-1122334J77403D01*
G01*
G37*
G36*
G01*
X213464968Y-182625720D02*
X213464114Y-182625476D01*
G75*
G02*
X212691457Y-181234703I309058J1081715D01*
G01*
X212851171Y-180675693D01*
G75*
G02*
X214241944Y-179903036I1081715J-309058D01*
G01*
X214241944Y-179903036D01*
G75*
G02*
X215014601Y-181293809I-309058J-1081715D01*
G01*
X214854887Y-181852819D01*
G75*
G02*
X213464114Y-182625476I-1081715J309058D01*
G01*
G37*
X213932886Y-180984752D03*
G36*
G01*
X206284564Y-182811854D02*
X206284560Y-182811848D01*
G75*
G02*
X206530713Y-181240015I908993J662840D01*
G01*
X208115639Y-180084285D01*
G75*
G02*
X209687472Y-180330438I662840J-908993D01*
G01*
X209687472Y-180330438D01*
G75*
G02*
X209441319Y-181902271I-908993J-662840D01*
G01*
X207856393Y-183058001D01*
G75*
G02*
X206284560Y-182811848I-662840J908993D01*
G01*
G37*
D11*
X210392200Y-185425646D03*
D10*
X208778478Y-180993276D03*
D12*
X205423210Y-184369455D03*
X215361190Y-186481837D03*
X456087500Y-239265000D03*
X445927500Y-239265000D03*
D10*
X448507500Y-235265000D03*
D11*
X451007500Y-239265000D03*
G36*
G01*
X446446188Y-237562350D02*
X446446183Y-237562345D01*
G75*
G02*
X446360155Y-235973683I751317J837345D01*
G01*
X447670157Y-234513683D01*
G75*
G02*
X449258819Y-234427655I837345J-751317D01*
G01*
X449258819Y-234427655D01*
G75*
G02*
X449344847Y-236016317I-751317J-837345D01*
G01*
X448034845Y-237476317D01*
G75*
G02*
X446446183Y-237562345I-837345J751317D01*
G01*
G37*
D10*
X453547500Y-234185000D03*
G36*
G01*
X453430983Y-235887395D02*
X453430097Y-235887334D01*
G75*
G02*
X452385166Y-234687597I77403J1122334D01*
G01*
X452425166Y-234107597D01*
G75*
G02*
X453624903Y-233062666I1122334J-77403D01*
G01*
X453624903Y-233062666D01*
G75*
G02*
X454669834Y-234262403I-77403J-1122334D01*
G01*
X454629834Y-234842403D01*
G75*
G02*
X453430097Y-235887334I-1122334J77403D01*
G01*
G37*
D12*
X178791476Y-198184292D03*
X168853496Y-196071910D03*
D10*
X172208764Y-192695731D03*
D11*
X173822486Y-197128101D03*
G36*
G01*
X169714850Y-194514309D02*
X169714846Y-194514303D01*
G75*
G02*
X169960999Y-192942470I908993J662840D01*
G01*
X171545925Y-191786740D01*
G75*
G02*
X173117758Y-192032893I662840J-908993D01*
G01*
X173117758Y-192032893D01*
G75*
G02*
X172871605Y-193604726I-908993J-662840D01*
G01*
X171286679Y-194760456D01*
G75*
G02*
X169714846Y-194514303I-662840J908993D01*
G01*
G37*
D10*
X177363172Y-192687207D03*
G36*
G01*
X176895254Y-194328175D02*
X176894400Y-194327931D01*
G75*
G02*
X176121743Y-192937158I309058J1081715D01*
G01*
X176281457Y-192378148D01*
G75*
G02*
X177672230Y-191605491I1081715J-309058D01*
G01*
X177672230Y-191605491D01*
G75*
G02*
X178444887Y-192996264I-309058J-1081715D01*
G01*
X178285173Y-193555274D01*
G75*
G02*
X176894400Y-194327931I-1081715J309058D01*
G01*
G37*
D12*
X365600000Y-196402500D03*
X355440000Y-196402500D03*
D10*
X358020000Y-192402500D03*
D11*
X360520000Y-196402500D03*
G36*
G01*
X355958688Y-194699850D02*
X355958683Y-194699845D01*
G75*
G02*
X355872655Y-193111183I751317J837345D01*
G01*
X357182657Y-191651183D01*
G75*
G02*
X358771319Y-191565155I837345J-751317D01*
G01*
X358771319Y-191565155D01*
G75*
G02*
X358857347Y-193153817I-751317J-837345D01*
G01*
X357547345Y-194613817D01*
G75*
G02*
X355958683Y-194699845I-837345J751317D01*
G01*
G37*
D10*
X363060000Y-191322500D03*
G36*
G01*
X362943483Y-193024895D02*
X362942597Y-193024834D01*
G75*
G02*
X361897666Y-191825097I77403J1122334D01*
G01*
X361937666Y-191245097D01*
G75*
G02*
X363137403Y-190200166I1122334J-77403D01*
G01*
X363137403Y-190200166D01*
G75*
G02*
X364182334Y-191399903I-77403J-1122334D01*
G01*
X364142334Y-191979903D01*
G75*
G02*
X362942597Y-193024834I-1122334J77403D01*
G01*
G37*
D12*
X406081250Y-215452500D03*
X395921250Y-215452500D03*
D10*
X398501250Y-211452500D03*
D11*
X401001250Y-215452500D03*
G36*
G01*
X396439938Y-213749850D02*
X396439933Y-213749845D01*
G75*
G02*
X396353905Y-212161183I751317J837345D01*
G01*
X397663907Y-210701183D01*
G75*
G02*
X399252569Y-210615155I837345J-751317D01*
G01*
X399252569Y-210615155D01*
G75*
G02*
X399338597Y-212203817I-751317J-837345D01*
G01*
X398028595Y-213663817D01*
G75*
G02*
X396439933Y-213749845I-837345J751317D01*
G01*
G37*
D10*
X403541250Y-210372500D03*
G36*
G01*
X403424733Y-212074895D02*
X403423847Y-212074834D01*
G75*
G02*
X402378916Y-210875097I77403J1122334D01*
G01*
X402418916Y-210295097D01*
G75*
G02*
X403618653Y-209250166I1122334J-77403D01*
G01*
X403618653Y-209250166D01*
G75*
G02*
X404663584Y-210449903I-77403J-1122334D01*
G01*
X404623584Y-211029903D01*
G75*
G02*
X403423847Y-212074834I-1122334J77403D01*
G01*
G37*
D11*
X137666750Y-223707500D03*
X113790750Y-223707500D03*
D16*
X137666750Y-208467500D03*
X113790750Y-208467500D03*
D12*
X130808750Y-215452500D03*
X120648750Y-215452500D03*
D10*
X123228750Y-211452500D03*
D11*
X125728750Y-215452500D03*
G36*
G01*
X121167438Y-213749850D02*
X121167433Y-213749845D01*
G75*
G02*
X121081405Y-212161183I751317J837345D01*
G01*
X122391407Y-210701183D01*
G75*
G02*
X123980069Y-210615155I837345J-751317D01*
G01*
X123980069Y-210615155D01*
G75*
G02*
X124066097Y-212203817I-751317J-837345D01*
G01*
X122756095Y-213663817D01*
G75*
G02*
X121167433Y-213749845I-837345J751317D01*
G01*
G37*
D10*
X128268750Y-210372500D03*
G36*
G01*
X128152233Y-212074895D02*
X128151347Y-212074834D01*
G75*
G02*
X127106416Y-210875097I77403J1122334D01*
G01*
X127146416Y-210295097D01*
G75*
G02*
X128346153Y-209250166I1122334J-77403D01*
G01*
X128346153Y-209250166D01*
G75*
G02*
X129391084Y-210449903I-77403J-1122334D01*
G01*
X129351084Y-211029903D01*
G75*
G02*
X128151347Y-212074834I-1122334J77403D01*
G01*
G37*
D12*
X379887500Y-215452500D03*
X369727500Y-215452500D03*
D10*
X372307500Y-211452500D03*
D11*
X374807500Y-215452500D03*
G36*
G01*
X370246188Y-213749850D02*
X370246183Y-213749845D01*
G75*
G02*
X370160155Y-212161183I751317J837345D01*
G01*
X371470157Y-210701183D01*
G75*
G02*
X373058819Y-210615155I837345J-751317D01*
G01*
X373058819Y-210615155D01*
G75*
G02*
X373144847Y-212203817I-751317J-837345D01*
G01*
X371834845Y-213663817D01*
G75*
G02*
X370246183Y-213749845I-837345J751317D01*
G01*
G37*
D10*
X377347500Y-210372500D03*
G36*
G01*
X377230983Y-212074895D02*
X377230097Y-212074834D01*
G75*
G02*
X376185166Y-210875097I77403J1122334D01*
G01*
X376225166Y-210295097D01*
G75*
G02*
X377424903Y-209250166I1122334J-77403D01*
G01*
X377424903Y-209250166D01*
G75*
G02*
X378469834Y-210449903I-77403J-1122334D01*
G01*
X378429834Y-211029903D01*
G75*
G02*
X377230097Y-212074834I-1122334J77403D01*
G01*
G37*
G36*
G01*
X298659286Y-241701529D02*
X298658407Y-241701653D01*
G75*
G02*
X297386871Y-240745387I-157635J1113901D01*
G01*
X297305409Y-240169745D01*
G75*
G02*
X298261675Y-238898209I1113901J157635D01*
G01*
X298261675Y-238898209D01*
G75*
G02*
X299533211Y-239854475I157635J-1113901D01*
G01*
X299614673Y-240430117D01*
G75*
G02*
X298658407Y-241701653I-1113901J-157635D01*
G01*
G37*
X298419310Y-240012109D03*
G36*
G01*
X292175369Y-244792103D02*
X292175362Y-244792099D01*
G75*
G02*
X291760913Y-243256038I560806J975255D01*
G01*
X292738737Y-241555578D01*
G75*
G02*
X294274798Y-241141129I975255J-560806D01*
G01*
X294274798Y-241141129D01*
G75*
G02*
X294689247Y-242677190I-560806J-975255D01*
G01*
X293711423Y-244377650D01*
G75*
G02*
X292175362Y-244792099I-975255J560806D01*
G01*
G37*
D11*
X296991006Y-245509195D03*
D10*
X293713990Y-242116384D03*
D12*
X292022016Y-246565386D03*
X301959996Y-244453004D03*
D16*
X283861617Y-241158884D03*
X307215869Y-236194784D03*
D11*
X287030191Y-256065853D03*
X310384443Y-251101754D03*
X222446145Y-254853978D03*
X199091893Y-249889879D03*
D16*
X225614719Y-239947009D03*
X202260467Y-234982909D03*
D12*
X217454320Y-245353511D03*
X207516340Y-243241129D03*
D10*
X210871608Y-239864950D03*
D11*
X212485330Y-244297320D03*
G36*
G01*
X208377694Y-241683528D02*
X208377690Y-241683522D01*
G75*
G02*
X208623843Y-240111689I908993J662840D01*
G01*
X210208769Y-238955959D01*
G75*
G02*
X211780602Y-239202112I662840J-908993D01*
G01*
X211780602Y-239202112D01*
G75*
G02*
X211534449Y-240773945I-908993J-662840D01*
G01*
X209949523Y-241929675D01*
G75*
G02*
X208377690Y-241683522I-662840J908993D01*
G01*
G37*
D10*
X216026016Y-239856426D03*
G36*
G01*
X215558098Y-241497394D02*
X215557244Y-241497150D01*
G75*
G02*
X214784587Y-240106377I309058J1081715D01*
G01*
X214944301Y-239547367D01*
G75*
G02*
X216335074Y-238774710I1081715J-309058D01*
G01*
X216335074Y-238774710D01*
G75*
G02*
X217107731Y-240165483I-309058J-1081715D01*
G01*
X216948017Y-240724493D01*
G75*
G02*
X215557244Y-241497150I-1081715J309058D01*
G01*
G37*
D12*
X233994901Y-190442555D03*
X224056921Y-188330173D03*
D10*
X227412189Y-184953994D03*
D11*
X229025911Y-189386364D03*
G36*
G01*
X224918275Y-186772572D02*
X224918271Y-186772566D01*
G75*
G02*
X225164424Y-185200733I908993J662840D01*
G01*
X226749350Y-184045003D01*
G75*
G02*
X228321183Y-184291156I662840J-908993D01*
G01*
X228321183Y-184291156D01*
G75*
G02*
X228075030Y-185862989I-908993J-662840D01*
G01*
X226490104Y-187018719D01*
G75*
G02*
X224918271Y-186772566I-662840J908993D01*
G01*
G37*
D10*
X232566597Y-184945470D03*
G36*
G01*
X232098679Y-186586438D02*
X232097825Y-186586194D01*
G75*
G02*
X231325168Y-185195421I309058J1081715D01*
G01*
X231484882Y-184636411D01*
G75*
G02*
X232875655Y-183863754I1081715J-309058D01*
G01*
X232875655Y-183863754D01*
G75*
G02*
X233648312Y-185254527I-309058J-1081715D01*
G01*
X233488598Y-185813537D01*
G75*
G02*
X232097825Y-186586194I-1081715J309058D01*
G01*
G37*
G36*
G01*
X130533483Y-173974895D02*
X130532597Y-173974834D01*
G75*
G02*
X129487666Y-172775097I77403J1122334D01*
G01*
X129527666Y-172195097D01*
G75*
G02*
X130727403Y-171150166I1122334J-77403D01*
G01*
X130727403Y-171150166D01*
G75*
G02*
X131772334Y-172349903I-77403J-1122334D01*
G01*
X131732334Y-172929903D01*
G75*
G02*
X130532597Y-173974834I-1122334J77403D01*
G01*
G37*
X130650000Y-172272500D03*
G36*
G01*
X123548688Y-175649850D02*
X123548683Y-175649845D01*
G75*
G02*
X123462655Y-174061183I751317J837345D01*
G01*
X124772657Y-172601183D01*
G75*
G02*
X126361319Y-172515155I837345J-751317D01*
G01*
X126361319Y-172515155D01*
G75*
G02*
X126447347Y-174103817I-751317J-837345D01*
G01*
X125137345Y-175563817D01*
G75*
G02*
X123548683Y-175649845I-837345J751317D01*
G01*
G37*
D11*
X128110000Y-177352500D03*
D10*
X125610000Y-173352500D03*
D12*
X123030000Y-177352500D03*
X133190000Y-177352500D03*
G36*
G01*
X293764773Y-184315124D02*
X293763894Y-184315248D01*
G75*
G02*
X292492358Y-183358982I-157635J1113901D01*
G01*
X292410896Y-182783340D01*
G75*
G02*
X293367162Y-181511804I1113901J157635D01*
G01*
X293367162Y-181511804D01*
G75*
G02*
X294638698Y-182468070I157635J-1113901D01*
G01*
X294720160Y-183043712D01*
G75*
G02*
X293763894Y-184315248I-1113901J-157635D01*
G01*
G37*
D10*
X293524797Y-182625704D03*
G36*
G01*
X287280856Y-187405698D02*
X287280849Y-187405694D01*
G75*
G02*
X286866400Y-185869633I560806J975255D01*
G01*
X287844224Y-184169173D01*
G75*
G02*
X289380285Y-183754724I975255J-560806D01*
G01*
X289380285Y-183754724D01*
G75*
G02*
X289794734Y-185290785I-560806J-975255D01*
G01*
X288816910Y-186991245D01*
G75*
G02*
X287280849Y-187405694I-975255J560806D01*
G01*
G37*
D11*
X292096493Y-188122790D03*
D10*
X288819477Y-184729979D03*
D12*
X287127503Y-189178981D03*
X297065483Y-187066599D03*
G36*
G01*
X434380983Y-216837395D02*
X434380097Y-216837334D01*
G75*
G02*
X433335166Y-215637597I77403J1122334D01*
G01*
X433375166Y-215057597D01*
G75*
G02*
X434574903Y-214012666I1122334J-77403D01*
G01*
X434574903Y-214012666D01*
G75*
G02*
X435619834Y-215212403I-77403J-1122334D01*
G01*
X435579834Y-215792403D01*
G75*
G02*
X434380097Y-216837334I-1122334J77403D01*
G01*
G37*
D10*
X434497500Y-215135000D03*
G36*
G01*
X427396188Y-218512350D02*
X427396183Y-218512345D01*
G75*
G02*
X427310155Y-216923683I751317J837345D01*
G01*
X428620157Y-215463683D01*
G75*
G02*
X430208819Y-215377655I837345J-751317D01*
G01*
X430208819Y-215377655D01*
G75*
G02*
X430294847Y-216966317I-751317J-837345D01*
G01*
X428984845Y-218426317D01*
G75*
G02*
X427396183Y-218512345I-837345J751317D01*
G01*
G37*
D11*
X431957500Y-220215000D03*
D10*
X429457500Y-216215000D03*
D12*
X426877500Y-220215000D03*
X437037500Y-220215000D03*
G36*
G01*
X219518816Y-222863682D02*
X219517962Y-222863438D01*
G75*
G02*
X218745305Y-221472665I309058J1081715D01*
G01*
X218905019Y-220913655D01*
G75*
G02*
X220295792Y-220140998I1081715J-309058D01*
G01*
X220295792Y-220140998D01*
G75*
G02*
X221068449Y-221531771I-309058J-1081715D01*
G01*
X220908735Y-222090781D01*
G75*
G02*
X219517962Y-222863438I-1081715J309058D01*
G01*
G37*
D10*
X219986734Y-221222714D03*
G36*
G01*
X212338412Y-223049816D02*
X212338408Y-223049810D01*
G75*
G02*
X212584561Y-221477977I908993J662840D01*
G01*
X214169487Y-220322247D01*
G75*
G02*
X215741320Y-220568400I662840J-908993D01*
G01*
X215741320Y-220568400D01*
G75*
G02*
X215495167Y-222140233I-908993J-662840D01*
G01*
X213910241Y-223295963D01*
G75*
G02*
X212338408Y-223049810I-662840J908993D01*
G01*
G37*
D11*
X216446048Y-225663608D03*
D10*
X214832326Y-221231238D03*
D12*
X211477058Y-224607417D03*
X221415038Y-226719799D03*
G36*
G01*
X176197544Y-174704284D02*
X176196690Y-174704040D01*
G75*
G02*
X175424033Y-173313267I309058J1081715D01*
G01*
X175583747Y-172754257D01*
G75*
G02*
X176974520Y-171981600I1081715J-309058D01*
G01*
X176974520Y-171981600D01*
G75*
G02*
X177747177Y-173372373I-309058J-1081715D01*
G01*
X177587463Y-173931383D01*
G75*
G02*
X176196690Y-174704040I-1081715J309058D01*
G01*
G37*
D10*
X176665462Y-173063316D03*
G36*
G01*
X169017140Y-174890418D02*
X169017136Y-174890412D01*
G75*
G02*
X169263289Y-173318579I908993J662840D01*
G01*
X170848215Y-172162849D01*
G75*
G02*
X172420048Y-172409002I662840J-908993D01*
G01*
X172420048Y-172409002D01*
G75*
G02*
X172173895Y-173980835I-908993J-662840D01*
G01*
X170588969Y-175136565D01*
G75*
G02*
X169017136Y-174890412I-662840J908993D01*
G01*
G37*
D11*
X173124776Y-177504210D03*
D10*
X171511054Y-173071840D03*
D12*
X168155786Y-176448019D03*
X178093766Y-178560401D03*
X184147614Y-218798363D03*
X174209634Y-216685981D03*
D10*
X177564902Y-213309802D03*
D11*
X179178624Y-217742172D03*
G36*
G01*
X175070988Y-215128380D02*
X175070984Y-215128374D01*
G75*
G02*
X175317137Y-213556541I908993J662840D01*
G01*
X176902063Y-212400811D01*
G75*
G02*
X178473896Y-212646964I662840J-908993D01*
G01*
X178473896Y-212646964D01*
G75*
G02*
X178227743Y-214218797I-908993J-662840D01*
G01*
X176642817Y-215374527D01*
G75*
G02*
X175070984Y-215128374I-662840J908993D01*
G01*
G37*
D10*
X182719310Y-213301278D03*
G36*
G01*
X182251392Y-214942246D02*
X182250538Y-214942002D01*
G75*
G02*
X181477881Y-213551229I309058J1081715D01*
G01*
X181637595Y-212992219D01*
G75*
G02*
X183028368Y-212219562I1081715J-309058D01*
G01*
X183028368Y-212219562D01*
G75*
G02*
X183801025Y-213610335I-309058J-1081715D01*
G01*
X183641311Y-214169345D01*
G75*
G02*
X182250538Y-214942002I-1081715J309058D01*
G01*
G37*
G36*
G01*
X275131062Y-188275842D02*
X275130183Y-188275966D01*
G75*
G02*
X273858647Y-187319700I-157635J1113901D01*
G01*
X273777185Y-186744058D01*
G75*
G02*
X274733451Y-185472522I1113901J157635D01*
G01*
X274733451Y-185472522D01*
G75*
G02*
X276004987Y-186428788I157635J-1113901D01*
G01*
X276086449Y-187004430D01*
G75*
G02*
X275130183Y-188275966I-1113901J-157635D01*
G01*
G37*
X274891086Y-186586422D03*
G36*
G01*
X268647145Y-191366416D02*
X268647138Y-191366412D01*
G75*
G02*
X268232689Y-189830351I560806J975255D01*
G01*
X269210513Y-188129891D01*
G75*
G02*
X270746574Y-187715442I975255J-560806D01*
G01*
X270746574Y-187715442D01*
G75*
G02*
X271161023Y-189251503I-560806J-975255D01*
G01*
X270183199Y-190951963D01*
G75*
G02*
X268647138Y-191366412I-975255J560806D01*
G01*
G37*
D11*
X273462782Y-192083508D03*
D10*
X270185766Y-188690697D03*
D12*
X268493792Y-193139699D03*
X278431772Y-191027317D03*
G36*
G01*
X159108483Y-212074895D02*
X159107597Y-212074834D01*
G75*
G02*
X158062666Y-210875097I77403J1122334D01*
G01*
X158102666Y-210295097D01*
G75*
G02*
X159302403Y-209250166I1122334J-77403D01*
G01*
X159302403Y-209250166D01*
G75*
G02*
X160347334Y-210449903I-77403J-1122334D01*
G01*
X160307334Y-211029903D01*
G75*
G02*
X159107597Y-212074834I-1122334J77403D01*
G01*
G37*
D10*
X159225000Y-210372500D03*
G36*
G01*
X152123688Y-213749850D02*
X152123683Y-213749845D01*
G75*
G02*
X152037655Y-212161183I751317J837345D01*
G01*
X153347657Y-210701183D01*
G75*
G02*
X154936319Y-210615155I837345J-751317D01*
G01*
X154936319Y-210615155D01*
G75*
G02*
X155022347Y-212203817I-751317J-837345D01*
G01*
X153712345Y-213663817D01*
G75*
G02*
X152123683Y-213749845I-837345J751317D01*
G01*
G37*
D11*
X156685000Y-215452500D03*
D10*
X154185000Y-211452500D03*
D12*
X151605000Y-215452500D03*
X161765000Y-215452500D03*
D17*
X252930000Y-145430000D03*
D18*
X252930000Y-147970000D03*
X252930000Y-150510000D03*
X252930000Y-153050000D03*
X252930000Y-155590000D03*
X252930000Y-158130000D03*
X252930000Y-160670000D03*
X252930000Y-163210000D03*
X252930000Y-165750000D03*
X252930000Y-168290000D03*
X252930000Y-170830000D03*
X268170000Y-173370000D03*
X268170000Y-170830000D03*
X268170000Y-168290000D03*
X268170000Y-165750000D03*
X268170000Y-163210000D03*
X268170000Y-160670000D03*
X268170000Y-158130000D03*
X268170000Y-155590000D03*
X268170000Y-153050000D03*
X268170000Y-150510000D03*
X268170000Y-147970000D03*
X253158600Y-173370000D03*
X268170000Y-145430000D03*
X265630000Y-173370000D03*
X263090000Y-173370000D03*
X260550000Y-173370000D03*
X258010000Y-173370000D03*
X255470000Y-173370000D03*
D19*
X443720000Y-156040000D03*
X443720000Y-151040000D03*
X429220000Y-156040000D03*
X429220000Y-153540000D03*
D20*
X429220000Y-151040000D03*
D14*
X455900000Y-151000000D03*
D15*
X448100000Y-151000000D03*
D12*
X152000000Y-169500000D03*
X152000000Y-167000000D03*
X152000000Y-164500000D03*
M02*
