G04 #@! TF.GenerationSoftware,KiCad,Pcbnew,(5.1.10)-1*
G04 #@! TF.CreationDate,2021-10-05T17:03:10+03:00*
G04 #@! TF.ProjectId,kolibri,6b6f6c69-6272-4692-9e6b-696361645f70,rev?*
G04 #@! TF.SameCoordinates,Original*
G04 #@! TF.FileFunction,Soldermask,Top*
G04 #@! TF.FilePolarity,Negative*
%FSLAX46Y46*%
G04 Gerber Fmt 4.6, Leading zero omitted, Abs format (unit mm)*
G04 Created by KiCad (PCBNEW (5.1.10)-1) date 2021-10-05 17:03:10*
%MOMM*%
%LPD*%
G01*
G04 APERTURE LIST*
%ADD10C,0.200000*%
%ADD11C,3.987800*%
%ADD12C,1.750000*%
%ADD13C,0.100000*%
%ADD14C,1.600000*%
%ADD15R,1.600000X1.600000*%
%ADD16R,1.200000X1.200000*%
%ADD17C,3.048000*%
%ADD18R,1.752600X1.752600*%
%ADD19C,1.752600*%
%ADD20C,2.000000*%
%ADD21R,2.000000X2.000000*%
G04 APERTURE END LIST*
D10*
D11*
X436720000Y-153540000D03*
D12*
X431640000Y-153540000D03*
X441800000Y-153540000D03*
X247272475Y-173789201D03*
X237334495Y-171676819D03*
D11*
X242303485Y-172733010D03*
D13*
G36*
X244539603Y-231571054D02*
G01*
X243365825Y-231321560D01*
X243615319Y-230147782D01*
X244789097Y-230397276D01*
X244539603Y-231571054D01*
G37*
G36*
X243884681Y-234652218D02*
G01*
X242710903Y-234402724D01*
X242960397Y-233228946D01*
X244134175Y-233478440D01*
X243884681Y-234652218D01*
G37*
G36*
X243555333Y-237163623D02*
G01*
X241990297Y-236830965D01*
X242322955Y-235265929D01*
X243887991Y-235598587D01*
X243555333Y-237163623D01*
G37*
D14*
X244560856Y-228585224D03*
D11*
X125728750Y-196402500D03*
D12*
X120648750Y-196402500D03*
X130808750Y-196402500D03*
D14*
X342659199Y-157522509D03*
D13*
G36*
X345229758Y-165768250D02*
G01*
X343664722Y-166100908D01*
X343332064Y-164535872D01*
X344897100Y-164203214D01*
X345229758Y-165768250D01*
G37*
G36*
X344509152Y-163340009D02*
G01*
X343335374Y-163589503D01*
X343085880Y-162415725D01*
X344259658Y-162166231D01*
X344509152Y-163340009D01*
G37*
G36*
X343854230Y-160258845D02*
G01*
X342680452Y-160508339D01*
X342430958Y-159334561D01*
X343604736Y-159085067D01*
X343854230Y-160258845D01*
G37*
D14*
X155900000Y-154100000D03*
D15*
X155900000Y-161900000D03*
D16*
X155900000Y-159575000D03*
X155900000Y-156425000D03*
X174950000Y-156535000D03*
X174950000Y-159685000D03*
D15*
X174950000Y-162010000D03*
D14*
X174950000Y-154210000D03*
D13*
G36*
X195941953Y-161771912D02*
G01*
X194768175Y-161522418D01*
X195017669Y-160348640D01*
X196191447Y-160598134D01*
X195941953Y-161771912D01*
G37*
G36*
X195287031Y-164853076D02*
G01*
X194113253Y-164603582D01*
X194362747Y-163429804D01*
X195536525Y-163679298D01*
X195287031Y-164853076D01*
G37*
G36*
X194957683Y-167364481D02*
G01*
X193392647Y-167031823D01*
X193725305Y-165466787D01*
X195290341Y-165799445D01*
X194957683Y-167364481D01*
G37*
D14*
X195963206Y-158786082D03*
X214596918Y-162746798D03*
D13*
G36*
X213591395Y-171325197D02*
G01*
X212026359Y-170992539D01*
X212359017Y-169427503D01*
X213924053Y-169760161D01*
X213591395Y-171325197D01*
G37*
G36*
X213920743Y-168813792D02*
G01*
X212746965Y-168564298D01*
X212996459Y-167390520D01*
X214170237Y-167640014D01*
X213920743Y-168813792D01*
G37*
G36*
X214575665Y-165732628D02*
G01*
X213401887Y-165483134D01*
X213651381Y-164309356D01*
X214825159Y-164558850D01*
X214575665Y-165732628D01*
G37*
D14*
X233230629Y-166707516D03*
D13*
G36*
X232225106Y-175285915D02*
G01*
X230660070Y-174953257D01*
X230992728Y-173388221D01*
X232557764Y-173720879D01*
X232225106Y-175285915D01*
G37*
G36*
X232554454Y-172774510D02*
G01*
X231380676Y-172525016D01*
X231630170Y-171351238D01*
X232803948Y-171600732D01*
X232554454Y-172774510D01*
G37*
G36*
X233209376Y-169693346D02*
G01*
X232035598Y-169443852D01*
X232285092Y-168270074D01*
X233458870Y-168519568D01*
X233209376Y-169693346D01*
G37*
G36*
X246828946Y-183789603D02*
G01*
X247078440Y-182615825D01*
X248252218Y-182865319D01*
X248002724Y-184039097D01*
X246828946Y-183789603D01*
G37*
G36*
X243747782Y-183134681D02*
G01*
X243997276Y-181960903D01*
X245171054Y-182210397D01*
X244921560Y-183384175D01*
X243747782Y-183134681D01*
G37*
G36*
X241236377Y-182805333D02*
G01*
X241569035Y-181240297D01*
X243134071Y-181572955D01*
X242801413Y-183137991D01*
X241236377Y-182805333D01*
G37*
D14*
X249814776Y-183810856D03*
D13*
G36*
X287953095Y-172140999D02*
G01*
X286779317Y-172390493D01*
X286529823Y-171216715D01*
X287703601Y-170967221D01*
X287953095Y-172140999D01*
G37*
G36*
X288608017Y-175222163D02*
G01*
X287434239Y-175471657D01*
X287184745Y-174297879D01*
X288358523Y-174048385D01*
X288608017Y-175222163D01*
G37*
G36*
X289328623Y-177650404D02*
G01*
X287763587Y-177983062D01*
X287430929Y-176418026D01*
X288995965Y-176085368D01*
X289328623Y-177650404D01*
G37*
D14*
X286758064Y-169404663D03*
D13*
G36*
X306586806Y-168180281D02*
G01*
X305413028Y-168429775D01*
X305163534Y-167255997D01*
X306337312Y-167006503D01*
X306586806Y-168180281D01*
G37*
G36*
X307241728Y-171261445D02*
G01*
X306067950Y-171510939D01*
X305818456Y-170337161D01*
X306992234Y-170087667D01*
X307241728Y-171261445D01*
G37*
G36*
X307962334Y-173689686D02*
G01*
X306397298Y-174022344D01*
X306064640Y-172457308D01*
X307629676Y-172124650D01*
X307962334Y-173689686D01*
G37*
D14*
X305391775Y-165443945D03*
D13*
G36*
X325220518Y-164219563D02*
G01*
X324046740Y-164469057D01*
X323797246Y-163295279D01*
X324971024Y-163045785D01*
X325220518Y-164219563D01*
G37*
G36*
X325875440Y-167300727D02*
G01*
X324701662Y-167550221D01*
X324452168Y-166376443D01*
X325625946Y-166126949D01*
X325875440Y-167300727D01*
G37*
G36*
X326596046Y-169728968D02*
G01*
X325031010Y-170061626D01*
X324698352Y-168496590D01*
X326263388Y-168163932D01*
X326596046Y-169728968D01*
G37*
D14*
X324025487Y-161483227D03*
D16*
X160672500Y-196577500D03*
X160672500Y-199727500D03*
D15*
X160672500Y-202052500D03*
D14*
X160672500Y-194252500D03*
X344526787Y-235027895D03*
D13*
G36*
X347097346Y-243273636D02*
G01*
X345532310Y-243606294D01*
X345199652Y-242041258D01*
X346764688Y-241708600D01*
X347097346Y-243273636D01*
G37*
G36*
X346376740Y-240845395D02*
G01*
X345202962Y-241094889D01*
X344953468Y-239921111D01*
X346127246Y-239671617D01*
X346376740Y-240845395D01*
G37*
G36*
X345721818Y-237764231D02*
G01*
X344548040Y-238013725D01*
X344298546Y-236839947D01*
X345472324Y-236590453D01*
X345721818Y-237764231D01*
G37*
D14*
X189437190Y-235301287D03*
D13*
G36*
X188431667Y-243879686D02*
G01*
X186866631Y-243547028D01*
X187199289Y-241981992D01*
X188764325Y-242314650D01*
X188431667Y-243879686D01*
G37*
G36*
X188761015Y-241368281D02*
G01*
X187587237Y-241118787D01*
X187836731Y-239945009D01*
X189010509Y-240194503D01*
X188761015Y-241368281D01*
G37*
G36*
X189415937Y-238287117D02*
G01*
X188242159Y-238037623D01*
X188491653Y-236863845D01*
X189665431Y-237113339D01*
X189415937Y-238287117D01*
G37*
D14*
X284664933Y-228276335D03*
D13*
G36*
X287235492Y-236522076D02*
G01*
X285670456Y-236854734D01*
X285337798Y-235289698D01*
X286902834Y-234957040D01*
X287235492Y-236522076D01*
G37*
G36*
X286514886Y-234093835D02*
G01*
X285341108Y-234343329D01*
X285091614Y-233169551D01*
X286265392Y-232920057D01*
X286514886Y-234093835D01*
G37*
G36*
X285859964Y-231012671D02*
G01*
X284686186Y-231262165D01*
X284436692Y-230088387D01*
X285610470Y-229838893D01*
X285859964Y-231012671D01*
G37*
D14*
X399482500Y-149000000D03*
D15*
X407282500Y-149000000D03*
D16*
X404957500Y-149000000D03*
X401807500Y-149000000D03*
D14*
X421657500Y-175202500D03*
D15*
X421657500Y-183002500D03*
D16*
X421657500Y-180677500D03*
X421657500Y-177527500D03*
D13*
G36*
X207351939Y-222623944D02*
G01*
X206178161Y-222374450D01*
X206427655Y-221200672D01*
X207601433Y-221450166D01*
X207351939Y-222623944D01*
G37*
G36*
X206697017Y-225705108D02*
G01*
X205523239Y-225455614D01*
X205772733Y-224281836D01*
X206946511Y-224531330D01*
X206697017Y-225705108D01*
G37*
G36*
X206367669Y-228216513D02*
G01*
X204802633Y-227883855D01*
X205135291Y-226318819D01*
X206700327Y-226651477D01*
X206367669Y-228216513D01*
G37*
D14*
X207373192Y-219638114D03*
D16*
X134478750Y-196577500D03*
X134478750Y-199727500D03*
D15*
X134478750Y-202052500D03*
D14*
X134478750Y-194252500D03*
D16*
X378795000Y-177527500D03*
X378795000Y-180677500D03*
D15*
X378795000Y-183002500D03*
D14*
X378795000Y-175202500D03*
D13*
G36*
X341761100Y-219130519D02*
G01*
X340587322Y-219380013D01*
X340337828Y-218206235D01*
X341511606Y-217956741D01*
X341761100Y-219130519D01*
G37*
G36*
X342416022Y-222211683D02*
G01*
X341242244Y-222461177D01*
X340992750Y-221287399D01*
X342166528Y-221037905D01*
X342416022Y-222211683D01*
G37*
G36*
X343136628Y-224639924D02*
G01*
X341571592Y-224972582D01*
X341238934Y-223407546D01*
X342803970Y-223074888D01*
X343136628Y-224639924D01*
G37*
D14*
X340566069Y-216394183D03*
X393082500Y-232352500D03*
D15*
X393082500Y-240152500D03*
D16*
X393082500Y-237827500D03*
X393082500Y-234677500D03*
D14*
X127335000Y-232352500D03*
D15*
X127335000Y-240152500D03*
D16*
X127335000Y-237827500D03*
X127335000Y-234677500D03*
D14*
X202017054Y-199024043D03*
D13*
G36*
X201011531Y-207602442D02*
G01*
X199446495Y-207269784D01*
X199779153Y-205704748D01*
X201344189Y-206037406D01*
X201011531Y-207602442D01*
G37*
G36*
X201340879Y-205091037D02*
G01*
X200167101Y-204841543D01*
X200416595Y-203667765D01*
X201590373Y-203917259D01*
X201340879Y-205091037D01*
G37*
G36*
X201995801Y-202009873D02*
G01*
X200822023Y-201760379D01*
X201071517Y-200586601D01*
X202245295Y-200836095D01*
X201995801Y-202009873D01*
G37*
D14*
X454995000Y-189490000D03*
D15*
X454995000Y-197290000D03*
D16*
X454995000Y-194965000D03*
X454995000Y-191815000D03*
D14*
X364507500Y-213302500D03*
D15*
X364507500Y-221102500D03*
D16*
X364507500Y-218777500D03*
X364507500Y-215627500D03*
D14*
X440707500Y-237115000D03*
D15*
X440707500Y-244915000D03*
D16*
X440707500Y-242590000D03*
X440707500Y-239440000D03*
D13*
G36*
X201298091Y-182385982D02*
G01*
X200124313Y-182136488D01*
X200373807Y-180962710D01*
X201547585Y-181212204D01*
X201298091Y-182385982D01*
G37*
G36*
X200643169Y-185467146D02*
G01*
X199469391Y-185217652D01*
X199718885Y-184043874D01*
X200892663Y-184293368D01*
X200643169Y-185467146D01*
G37*
G36*
X200313821Y-187978551D02*
G01*
X198748785Y-187645893D01*
X199081443Y-186080857D01*
X200646479Y-186413515D01*
X200313821Y-187978551D01*
G37*
D14*
X201319344Y-179400152D03*
D16*
X408951250Y-187000000D03*
X412101250Y-187000000D03*
D15*
X414426250Y-187000000D03*
D14*
X406626250Y-187000000D03*
X383557500Y-156152500D03*
D15*
X383557500Y-163952500D03*
D16*
X383557500Y-161627500D03*
X383557500Y-158477500D03*
D14*
X136860000Y-156152500D03*
D15*
X136860000Y-163952500D03*
D16*
X136860000Y-161627500D03*
X136860000Y-158477500D03*
D13*
G36*
X220629513Y-205970591D02*
G01*
X219455735Y-205721097D01*
X219705229Y-204547319D01*
X220879007Y-204796813D01*
X220629513Y-205970591D01*
G37*
G36*
X219974591Y-209051755D02*
G01*
X218800813Y-208802261D01*
X219050307Y-207628483D01*
X220224085Y-207877977D01*
X219974591Y-209051755D01*
G37*
G36*
X219645243Y-211563160D02*
G01*
X218080207Y-211230502D01*
X218412865Y-209665466D01*
X219977901Y-209998124D01*
X219645243Y-211563160D01*
G37*
D14*
X220650766Y-202984761D03*
D13*
G36*
X249975500Y-251159450D02*
G01*
X248801722Y-250909956D01*
X249051216Y-249736178D01*
X250224994Y-249985672D01*
X249975500Y-251159450D01*
G37*
G36*
X249320578Y-254240614D02*
G01*
X248146800Y-253991120D01*
X248396294Y-252817342D01*
X249570072Y-253066836D01*
X249320578Y-254240614D01*
G37*
G36*
X248991230Y-256752019D02*
G01*
X247426194Y-256419361D01*
X247758852Y-254854325D01*
X249323888Y-255186983D01*
X248991230Y-256752019D01*
G37*
D14*
X249996753Y-248173620D03*
D13*
G36*
X239263224Y-209931308D02*
G01*
X238089446Y-209681814D01*
X238338940Y-208508036D01*
X239512718Y-208757530D01*
X239263224Y-209931308D01*
G37*
G36*
X238608302Y-213012472D02*
G01*
X237434524Y-212762978D01*
X237684018Y-211589200D01*
X238857796Y-211838694D01*
X238608302Y-213012472D01*
G37*
G36*
X238278954Y-215523877D02*
G01*
X236713918Y-215191219D01*
X237046576Y-213626183D01*
X238611612Y-213958841D01*
X238278954Y-215523877D01*
G37*
D14*
X239284477Y-206945478D03*
X290021071Y-207662265D03*
D13*
G36*
X292591630Y-215908006D02*
G01*
X291026594Y-216240664D01*
X290693936Y-214675628D01*
X292258972Y-214342970D01*
X292591630Y-215908006D01*
G37*
G36*
X291871024Y-213479765D02*
G01*
X290697246Y-213729259D01*
X290447752Y-212555481D01*
X291621530Y-212305987D01*
X291871024Y-213479765D01*
G37*
G36*
X291216102Y-210398601D02*
G01*
X290042324Y-210648095D01*
X289792830Y-209474317D01*
X290966608Y-209224823D01*
X291216102Y-210398601D01*
G37*
D14*
X318669349Y-182097297D03*
D13*
G36*
X321239908Y-190343038D02*
G01*
X319674872Y-190675696D01*
X319342214Y-189110660D01*
X320907250Y-188778002D01*
X321239908Y-190343038D01*
G37*
G36*
X320519302Y-187914797D02*
G01*
X319345524Y-188164291D01*
X319096030Y-186990513D01*
X320269808Y-186741019D01*
X320519302Y-187914797D01*
G37*
G36*
X319864380Y-184833633D02*
G01*
X318690602Y-185083127D01*
X318441108Y-183909349D01*
X319614886Y-183659855D01*
X319864380Y-184833633D01*
G37*
D14*
X308654783Y-203701547D03*
D13*
G36*
X311225342Y-211947288D02*
G01*
X309660306Y-212279946D01*
X309327648Y-210714910D01*
X310892684Y-210382252D01*
X311225342Y-211947288D01*
G37*
G36*
X310504736Y-209519047D02*
G01*
X309330958Y-209768541D01*
X309081464Y-208594763D01*
X310255242Y-208345269D01*
X310504736Y-209519047D01*
G37*
G36*
X309849814Y-206437883D02*
G01*
X308676036Y-206687377D01*
X308426542Y-205513599D01*
X309600320Y-205264105D01*
X309849814Y-206437883D01*
G37*
G36*
X328483526Y-202477165D02*
G01*
X327309748Y-202726659D01*
X327060254Y-201552881D01*
X328234032Y-201303387D01*
X328483526Y-202477165D01*
G37*
G36*
X329138448Y-205558329D02*
G01*
X327964670Y-205807823D01*
X327715176Y-204634045D01*
X328888954Y-204384551D01*
X329138448Y-205558329D01*
G37*
G36*
X329859054Y-207986570D02*
G01*
X328294018Y-208319228D01*
X327961360Y-206754192D01*
X329526396Y-206421534D01*
X329859054Y-207986570D01*
G37*
D14*
X327288495Y-199740829D03*
D13*
G36*
X347117238Y-198516447D02*
G01*
X345943460Y-198765941D01*
X345693966Y-197592163D01*
X346867744Y-197342669D01*
X347117238Y-198516447D01*
G37*
G36*
X347772160Y-201597611D02*
G01*
X346598382Y-201847105D01*
X346348888Y-200673327D01*
X347522666Y-200423833D01*
X347772160Y-201597611D01*
G37*
G36*
X348492766Y-204025852D02*
G01*
X346927730Y-204358510D01*
X346595072Y-202793474D01*
X348160108Y-202460816D01*
X348492766Y-204025852D01*
G37*
D14*
X345922207Y-195780111D03*
D16*
X421657500Y-239440000D03*
X421657500Y-242590000D03*
D15*
X421657500Y-244915000D03*
D14*
X421657500Y-237115000D03*
D13*
G36*
X323127388Y-223091237D02*
G01*
X321953610Y-223340731D01*
X321704116Y-222166953D01*
X322877894Y-221917459D01*
X323127388Y-223091237D01*
G37*
G36*
X323782310Y-226172401D02*
G01*
X322608532Y-226421895D01*
X322359038Y-225248117D01*
X323532816Y-224998623D01*
X323782310Y-226172401D01*
G37*
G36*
X324502916Y-228600642D02*
G01*
X322937880Y-228933300D01*
X322605222Y-227368264D01*
X324170258Y-227035606D01*
X324502916Y-228600642D01*
G37*
D14*
X321932357Y-220354901D03*
X364507500Y-156152500D03*
D15*
X364507500Y-163952500D03*
D16*
X364507500Y-161627500D03*
X364507500Y-158477500D03*
D13*
G36*
X304493676Y-225821560D02*
G01*
X303319898Y-226071054D01*
X303070404Y-224897276D01*
X304244182Y-224647782D01*
X304493676Y-225821560D01*
G37*
G36*
X305148598Y-228902724D02*
G01*
X303974820Y-229152218D01*
X303725326Y-227978440D01*
X304899104Y-227728946D01*
X305148598Y-228902724D01*
G37*
G36*
X305869204Y-231330965D02*
G01*
X304304168Y-231663623D01*
X303971510Y-230098587D01*
X305536546Y-229765929D01*
X305869204Y-231330965D01*
G37*
D14*
X303298645Y-223085224D03*
X337303061Y-178136579D03*
D13*
G36*
X339873620Y-186382320D02*
G01*
X338308584Y-186714978D01*
X337975926Y-185149942D01*
X339540962Y-184817284D01*
X339873620Y-186382320D01*
G37*
G36*
X339153014Y-183954079D02*
G01*
X337979236Y-184203573D01*
X337729742Y-183029795D01*
X338903520Y-182780301D01*
X339153014Y-183954079D01*
G37*
G36*
X338498092Y-180872915D02*
G01*
X337324314Y-181122409D01*
X337074820Y-179948631D01*
X338248598Y-179699137D01*
X338498092Y-180872915D01*
G37*
D16*
X397845000Y-177527500D03*
X397845000Y-180677500D03*
D15*
X397845000Y-183002500D03*
D14*
X397845000Y-175202500D03*
X359745000Y-175202500D03*
D15*
X359745000Y-183002500D03*
D16*
X359745000Y-180677500D03*
X359745000Y-177527500D03*
D14*
X450232500Y-170440000D03*
D15*
X450232500Y-178240000D03*
D16*
X450232500Y-175915000D03*
X450232500Y-172765000D03*
D14*
X424000000Y-163900000D03*
D15*
X424000000Y-156100000D03*
D16*
X424000000Y-158425000D03*
X424000000Y-161575000D03*
X160672500Y-177527500D03*
X160672500Y-180677500D03*
D15*
X160672500Y-183002500D03*
D14*
X160672500Y-175202500D03*
X388320000Y-194252500D03*
D15*
X388320000Y-202052500D03*
D16*
X388320000Y-199727500D03*
X388320000Y-196577500D03*
D13*
G36*
X219931803Y-186346700D02*
G01*
X218758025Y-186097206D01*
X219007519Y-184923428D01*
X220181297Y-185172922D01*
X219931803Y-186346700D01*
G37*
G36*
X219276881Y-189427864D02*
G01*
X218103103Y-189178370D01*
X218352597Y-188004592D01*
X219526375Y-188254086D01*
X219276881Y-189427864D01*
G37*
G36*
X218947533Y-191939269D02*
G01*
X217382497Y-191606611D01*
X217715155Y-190041575D01*
X219280191Y-190374233D01*
X218947533Y-191939269D01*
G37*
D14*
X219953056Y-183360870D03*
D16*
X459757500Y-239440000D03*
X459757500Y-242590000D03*
D15*
X459757500Y-244915000D03*
D14*
X459757500Y-237115000D03*
X183383342Y-194185224D03*
D13*
G36*
X182377819Y-202763623D02*
G01*
X180812783Y-202430965D01*
X181145441Y-200865929D01*
X182710477Y-201198587D01*
X182377819Y-202763623D01*
G37*
G36*
X182707167Y-200252218D02*
G01*
X181533389Y-200002724D01*
X181782883Y-198828946D01*
X182956661Y-199078440D01*
X182707167Y-200252218D01*
G37*
G36*
X183362089Y-197171054D02*
G01*
X182188311Y-196921560D01*
X182437805Y-195747782D01*
X183611583Y-195997276D01*
X183362089Y-197171054D01*
G37*
D14*
X369270000Y-194252500D03*
D15*
X369270000Y-202052500D03*
D16*
X369270000Y-199727500D03*
X369270000Y-196577500D03*
D14*
X409751250Y-213302500D03*
D15*
X409751250Y-221102500D03*
D16*
X409751250Y-218777500D03*
X409751250Y-215627500D03*
X124153750Y-206000000D03*
X127303750Y-206000000D03*
D15*
X129628750Y-206000000D03*
D14*
X121828750Y-206000000D03*
X383557500Y-213302500D03*
D15*
X383557500Y-221102500D03*
D16*
X383557500Y-218777500D03*
X383557500Y-215627500D03*
D14*
X293176230Y-236810856D03*
D13*
G36*
X301421971Y-234240297D02*
G01*
X301754629Y-235805333D01*
X300189593Y-236137991D01*
X299856935Y-234572955D01*
X301421971Y-234240297D01*
G37*
G36*
X298993730Y-234960903D02*
G01*
X299243224Y-236134681D01*
X298069446Y-236384175D01*
X297819952Y-235210397D01*
X298993730Y-234960903D01*
G37*
G36*
X295912566Y-235615825D02*
G01*
X296162060Y-236789603D01*
X294988282Y-237039097D01*
X294738788Y-235865319D01*
X295912566Y-235615825D01*
G37*
D16*
X214575000Y-235000000D03*
X211425000Y-235000000D03*
D15*
X209100000Y-235000000D03*
D14*
X216900000Y-235000000D03*
D13*
G36*
X238565514Y-190307418D02*
G01*
X237391736Y-190057924D01*
X237641230Y-188884146D01*
X238815008Y-189133640D01*
X238565514Y-190307418D01*
G37*
G36*
X237910592Y-193388582D02*
G01*
X236736814Y-193139088D01*
X236986308Y-191965310D01*
X238160086Y-192214804D01*
X237910592Y-193388582D01*
G37*
G36*
X237581244Y-195899987D02*
G01*
X236016208Y-195567329D01*
X236348866Y-194002293D01*
X237913902Y-194334951D01*
X237581244Y-195899987D01*
G37*
D14*
X238586767Y-187321588D03*
D16*
X136860000Y-177527500D03*
X136860000Y-180677500D03*
D15*
X136860000Y-183002500D03*
D14*
X136860000Y-175202500D03*
X300035637Y-186058014D03*
D13*
G36*
X302606196Y-194303755D02*
G01*
X301041160Y-194636413D01*
X300708502Y-193071377D01*
X302273538Y-192738719D01*
X302606196Y-194303755D01*
G37*
G36*
X301885590Y-191875514D02*
G01*
X300711812Y-192125008D01*
X300462318Y-190951230D01*
X301636096Y-190701736D01*
X301885590Y-191875514D01*
G37*
G36*
X301230668Y-188794350D02*
G01*
X300056890Y-189043844D01*
X299807396Y-187870066D01*
X300981174Y-187620572D01*
X301230668Y-188794350D01*
G37*
D16*
X440707500Y-218425000D03*
X440707500Y-221575000D03*
D15*
X440707500Y-223900000D03*
D14*
X440707500Y-216100000D03*
X226006904Y-223598832D03*
D13*
G36*
X225001381Y-232177231D02*
G01*
X223436345Y-231844573D01*
X223769003Y-230279537D01*
X225334039Y-230612195D01*
X225001381Y-232177231D01*
G37*
G36*
X225330729Y-229665826D02*
G01*
X224156951Y-229416332D01*
X224406445Y-228242554D01*
X225580223Y-228492048D01*
X225330729Y-229665826D01*
G37*
G36*
X225985651Y-226584662D02*
G01*
X224811873Y-226335168D01*
X225061367Y-225161390D01*
X226235145Y-225410884D01*
X225985651Y-226584662D01*
G37*
G36*
X182664379Y-178425264D02*
G01*
X181490601Y-178175770D01*
X181740095Y-177001992D01*
X182913873Y-177251486D01*
X182664379Y-178425264D01*
G37*
G36*
X182009457Y-181506428D02*
G01*
X180835679Y-181256934D01*
X181085173Y-180083156D01*
X182258951Y-180332650D01*
X182009457Y-181506428D01*
G37*
G36*
X181680109Y-184017833D02*
G01*
X180115073Y-183685175D01*
X180447731Y-182120139D01*
X182012767Y-182452797D01*
X181680109Y-184017833D01*
G37*
D14*
X182685632Y-175439434D03*
D13*
G36*
X188718227Y-218663226D02*
G01*
X187544449Y-218413732D01*
X187793943Y-217239954D01*
X188967721Y-217489448D01*
X188718227Y-218663226D01*
G37*
G36*
X188063305Y-221744390D02*
G01*
X186889527Y-221494896D01*
X187139021Y-220321118D01*
X188312799Y-220570612D01*
X188063305Y-221744390D01*
G37*
G36*
X187733957Y-224255795D02*
G01*
X186168921Y-223923137D01*
X186501579Y-222358101D01*
X188066615Y-222690759D01*
X187733957Y-224255795D01*
G37*
D14*
X188739480Y-215677396D03*
D13*
G36*
X282596957Y-192755068D02*
G01*
X281423179Y-193004562D01*
X281173685Y-191830784D01*
X282347463Y-191581290D01*
X282596957Y-192755068D01*
G37*
G36*
X283251879Y-195836232D02*
G01*
X282078101Y-196085726D01*
X281828607Y-194911948D01*
X283002385Y-194662454D01*
X283251879Y-195836232D01*
G37*
G36*
X283972485Y-198264473D02*
G01*
X282407449Y-198597131D01*
X282074791Y-197032095D01*
X283639827Y-196699437D01*
X283972485Y-198264473D01*
G37*
D14*
X281401926Y-190018732D03*
D16*
X165435000Y-215627500D03*
X165435000Y-218777500D03*
D15*
X165435000Y-221102500D03*
D14*
X165435000Y-213302500D03*
D12*
X339689045Y-158531094D03*
X329751065Y-160643476D03*
D11*
X334720055Y-159587285D03*
X147160000Y-158302500D03*
D12*
X142080000Y-158302500D03*
X152240000Y-158302500D03*
X171290000Y-156397500D03*
X161130000Y-156397500D03*
D11*
X166210000Y-156397500D03*
X186402350Y-160850858D03*
D12*
X181433360Y-159794667D03*
X191371340Y-161907049D03*
X210005052Y-165867765D03*
X200067072Y-163755383D03*
D11*
X205036062Y-164811574D03*
X223669773Y-168772292D03*
D12*
X218700783Y-167716101D03*
X228638763Y-169828483D03*
D11*
X278818920Y-171469439D03*
D12*
X273849930Y-172525630D03*
X283787910Y-170413248D03*
X302421621Y-166452530D03*
X292483641Y-168564912D03*
D11*
X297452631Y-167508721D03*
X316086343Y-163548003D03*
D12*
X311117353Y-164604194D03*
X321055333Y-162491812D03*
D11*
X151922500Y-196402500D03*
D12*
X146842500Y-196402500D03*
X157002500Y-196402500D03*
D11*
X336587643Y-237092671D03*
D12*
X331618653Y-238148862D03*
X341556633Y-236036480D03*
X184845324Y-238422254D03*
X174907344Y-236309872D03*
D11*
X179876334Y-237366063D03*
X276725789Y-230341111D03*
D12*
X271756799Y-231397302D03*
X281694779Y-229284920D03*
D11*
X235079759Y-229624326D03*
D12*
X230110769Y-228568135D03*
X240048749Y-230680517D03*
D11*
X403382500Y-158302500D03*
D12*
X398302500Y-158302500D03*
X408462500Y-158302500D03*
D17*
X391444500Y-151317500D03*
X415320500Y-151317500D03*
D11*
X391444500Y-166557500D03*
X415320500Y-166557500D03*
D12*
X417987500Y-177352500D03*
X407827500Y-177352500D03*
D11*
X412907500Y-177352500D03*
X197812336Y-221702890D03*
D12*
X192843346Y-220646699D03*
X202781326Y-222759081D03*
X375125000Y-177352500D03*
X364965000Y-177352500D03*
D11*
X370045000Y-177352500D03*
D12*
X337595915Y-217402768D03*
X327657935Y-219515150D03*
D11*
X332626925Y-218458959D03*
X384332500Y-234502500D03*
D12*
X379252500Y-234502500D03*
X389412500Y-234502500D03*
X123665000Y-234502500D03*
X113505000Y-234502500D03*
D11*
X118585000Y-234502500D03*
X192456198Y-201088819D03*
D12*
X187487208Y-200032628D03*
X197425188Y-202145010D03*
D11*
X446245000Y-191640000D03*
D12*
X441165000Y-191640000D03*
X451325000Y-191640000D03*
X360837500Y-215452500D03*
X350677500Y-215452500D03*
D11*
X355757500Y-215452500D03*
X431957500Y-239265000D03*
D12*
X426877500Y-239265000D03*
X437037500Y-239265000D03*
X196727478Y-182521119D03*
X186789498Y-180408737D03*
D11*
X191758488Y-181464928D03*
X410526250Y-196402500D03*
D12*
X405446250Y-196402500D03*
X415606250Y-196402500D03*
D17*
X398588250Y-189417500D03*
X422464250Y-189417500D03*
D11*
X398588250Y-204657500D03*
X422464250Y-204657500D03*
D12*
X379887500Y-158302500D03*
X369727500Y-158302500D03*
D11*
X374807500Y-158302500D03*
D12*
X133190000Y-158302500D03*
X123030000Y-158302500D03*
D11*
X128110000Y-158302500D03*
D12*
X216058900Y-206105728D03*
X206120920Y-203993346D03*
D11*
X211089910Y-205049537D03*
D12*
X245404887Y-251294587D03*
X235466907Y-249182205D03*
D11*
X240435897Y-250238396D03*
X229723621Y-209010254D03*
D12*
X224754631Y-207954063D03*
X234692611Y-210066445D03*
X287050917Y-208670850D03*
X277112937Y-210783232D03*
D11*
X282081927Y-209727041D03*
X310730205Y-184162073D03*
D12*
X305761215Y-185218264D03*
X315699195Y-183105882D03*
D11*
X300715639Y-205766323D03*
D12*
X295746649Y-206822514D03*
X305684629Y-204710132D03*
X324318341Y-200749414D03*
X314380361Y-202861796D03*
D11*
X319349351Y-201805605D03*
X337983063Y-197844887D03*
D12*
X333014073Y-198901078D03*
X342952053Y-196788696D03*
X417987500Y-239265000D03*
X407827500Y-239265000D03*
D11*
X412907500Y-239265000D03*
D12*
X318962203Y-221363486D03*
X309024223Y-223475868D03*
D11*
X313993213Y-222419677D03*
X355757500Y-158302500D03*
D12*
X350677500Y-158302500D03*
X360837500Y-158302500D03*
X300328491Y-225324202D03*
X290390511Y-227436584D03*
D11*
X295359501Y-226380393D03*
D12*
X334332907Y-179145164D03*
X324394927Y-181257546D03*
D11*
X329363917Y-180201355D03*
X389095000Y-177352500D03*
D12*
X384015000Y-177352500D03*
X394175000Y-177352500D03*
D11*
X350995000Y-177352500D03*
D12*
X345915000Y-177352500D03*
X356075000Y-177352500D03*
X446562500Y-172590000D03*
X436402500Y-172590000D03*
D11*
X441482500Y-172590000D03*
D12*
X157002500Y-177352500D03*
X146842500Y-177352500D03*
D11*
X151922500Y-177352500D03*
D12*
X384650000Y-196402500D03*
X374490000Y-196402500D03*
D11*
X379570000Y-196402500D03*
X210392200Y-185425646D03*
D12*
X205423210Y-184369455D03*
X215361190Y-186481837D03*
X456087500Y-239265000D03*
X445927500Y-239265000D03*
D11*
X451007500Y-239265000D03*
D12*
X178791476Y-198184292D03*
X168853496Y-196071910D03*
D11*
X173822486Y-197128101D03*
D12*
X365600000Y-196402500D03*
X355440000Y-196402500D03*
D11*
X360520000Y-196402500D03*
D12*
X406081250Y-215452500D03*
X395921250Y-215452500D03*
D11*
X401001250Y-215452500D03*
X137666750Y-223707500D03*
X113790750Y-223707500D03*
D17*
X137666750Y-208467500D03*
X113790750Y-208467500D03*
D12*
X130808750Y-215452500D03*
X120648750Y-215452500D03*
D11*
X125728750Y-215452500D03*
D12*
X379887500Y-215452500D03*
X369727500Y-215452500D03*
D11*
X374807500Y-215452500D03*
X296991006Y-245509195D03*
D12*
X292022016Y-246565386D03*
X301959996Y-244453004D03*
D17*
X283861617Y-241158884D03*
X307215869Y-236194784D03*
D11*
X287030191Y-256065853D03*
X310384443Y-251101754D03*
X222446145Y-254853978D03*
X199091893Y-249889879D03*
D17*
X225614719Y-239947009D03*
X202260467Y-234982909D03*
D12*
X217454320Y-245353511D03*
X207516340Y-243241129D03*
D11*
X212485330Y-244297320D03*
D12*
X233994901Y-190442555D03*
X224056921Y-188330173D03*
D11*
X229025911Y-189386364D03*
X128110000Y-177352500D03*
D12*
X123030000Y-177352500D03*
X133190000Y-177352500D03*
D11*
X292096493Y-188122790D03*
D12*
X287127503Y-189178981D03*
X297065483Y-187066599D03*
D11*
X431957500Y-220215000D03*
D12*
X426877500Y-220215000D03*
X437037500Y-220215000D03*
D11*
X216446048Y-225663608D03*
D12*
X211477058Y-224607417D03*
X221415038Y-226719799D03*
D11*
X173124776Y-177504210D03*
D12*
X168155786Y-176448019D03*
X178093766Y-178560401D03*
X184147614Y-218798363D03*
X174209634Y-216685981D03*
D11*
X179178624Y-217742172D03*
X273462782Y-192083508D03*
D12*
X268493792Y-193139699D03*
X278431772Y-191027317D03*
D11*
X156685000Y-215452500D03*
D12*
X151605000Y-215452500D03*
X161765000Y-215452500D03*
D18*
X252930000Y-145430000D03*
D19*
X252930000Y-147970000D03*
X252930000Y-150510000D03*
X252930000Y-153050000D03*
X252930000Y-155590000D03*
X252930000Y-158130000D03*
X252930000Y-160670000D03*
X252930000Y-163210000D03*
X252930000Y-165750000D03*
X252930000Y-168290000D03*
X252930000Y-170830000D03*
X268170000Y-173370000D03*
X268170000Y-170830000D03*
X268170000Y-168290000D03*
X268170000Y-165750000D03*
X268170000Y-163210000D03*
X268170000Y-160670000D03*
X268170000Y-158130000D03*
X268170000Y-155590000D03*
X268170000Y-153050000D03*
X268170000Y-150510000D03*
X268170000Y-147970000D03*
X253158600Y-173370000D03*
X268170000Y-145430000D03*
X265630000Y-173370000D03*
X263090000Y-173370000D03*
X260550000Y-173370000D03*
X258010000Y-173370000D03*
X255470000Y-173370000D03*
D20*
X443720000Y-156040000D03*
X443720000Y-151040000D03*
X429220000Y-156040000D03*
X429220000Y-153540000D03*
D21*
X429220000Y-151040000D03*
D14*
X455900000Y-151000000D03*
D15*
X448100000Y-151000000D03*
D16*
X450425000Y-151000000D03*
X453575000Y-151000000D03*
D12*
X152000000Y-169500000D03*
X152000000Y-167000000D03*
X152000000Y-164500000D03*
M02*
